<?xml version="1.0" encoding="UTF-8"?>
<svg style="background: var(--diagram-bg, #FFFCF0)" xmlns="http://www.w3.org/2000/svg" width="515" height="101"><style>
  :root { --diagram-bg: #FFFCF0; }
</style>
   <defs>
      <style type="text/css">
    @namespace "http://www.w3.org/2000/svg";
    .line                 {fill: none; stroke: #332900; stroke-width: 1;}
    .bold-line            {stroke: #141000; shape-rendering: crispEdges; stroke-width: 2;}
    .thin-line            {stroke: #1F1800; shape-rendering: crispEdges}
    .filled               {fill: #332900; stroke: none;}
    text.terminal         {font-family: Verdana, Sans-serif;
                            font-size: 12px;
                            fill: #141000;
                            font-weight: bold;
                          }
    text.nonterminal      {font-family: Verdana, Sans-serif;
                            font-size: 12px;
                            fill: #1A1400;
                            font-weight: normal;
                          }
    text.regexp           {font-family: Verdana, Sans-serif;
                            font-size: 12px;
                            fill: #1F1800;
                            font-weight: normal;
                          }
    rect, circle, polygon {fill: #332900; stroke: #332900;}
    rect.terminal         {fill: #FFDB4D; stroke: #332900; stroke-width: 1;}
    rect.nonterminal      {fill: #FFEC9E; stroke: #332900; stroke-width: 1;}
    rect.text             {fill: none; stroke: none;}
    polygon.regexp        {fill: #FFF4C7; stroke: #332900; stroke-width: 1;}
  </style>
   </defs>
   <polygon points="9 5 1 1 1 9"/>
   <polygon points="17 5 9 1 9 9"/>
   <a xmlns:xlink="http://www.w3.org/1999/xlink"
      xlink:href="#K_CUTAREA"
      xlink:title="K_CUTAREA">
      <rect x="71" y="23" width="94" height="32"/>
      <rect x="69" y="21" width="94" height="32" class="nonterminal"/>
      <text class="nonterminal" x="79" y="41">K_CUTAREA</text>
   </a>
   <a xmlns:xlink="http://www.w3.org/1999/xlink"
      xlink:href="#NUMBER"
      xlink:title="NUMBER">
      <rect x="185" y="23" width="72" height="32"/>
      <rect x="183" y="21" width="72" height="32" class="nonterminal"/>
      <text class="nonterminal" x="193" y="41">NUMBER</text>
   </a>
   <a xmlns:xlink="http://www.w3.org/1999/xlink"
      xlink:href="#number_list"
      xlink:title="number_list">
      <rect x="277" y="23" width="94" height="32"/>
      <rect x="275" y="21" width="94" height="32" class="nonterminal"/>
      <text class="nonterminal" x="285" y="41">number_list</text>
   </a>
   <a xmlns:xlink="http://www.w3.org/1999/xlink"
      xlink:href="#K_WIDTH"
      xlink:title="K_WIDTH">
      <rect x="71" y="67" width="80" height="32"/>
      <rect x="69" y="65" width="80" height="32" class="nonterminal"/>
      <text class="nonterminal" x="79" y="85">K_WIDTH</text>
   </a>
   <a xmlns:xlink="http://www.w3.org/1999/xlink"
      xlink:href="#int_number"
      xlink:title="int_number">
      <rect x="171" y="67" width="92" height="32"/>
      <rect x="169" y="65" width="92" height="32" class="nonterminal"/>
      <text class="nonterminal" x="179" y="85">int_number</text>
   </a>
   <a xmlns:xlink="http://www.w3.org/1999/xlink"
      xlink:href="#int_number_list"
      xlink:title="int_number_list">
      <rect x="283" y="67" width="120" height="32"/>
      <rect x="281" y="65" width="120" height="32" class="nonterminal"/>
      <text class="nonterminal" x="291" y="85">int_number_list</text>
   </a>
   <rect x="443" y="23" width="24" height="32" rx="10"/>
   <rect x="441"
         y="21"
         width="24"
         height="32"
         class="terminal"
         rx="10"/>
   <text class="terminal" x="451" y="41">;</text>
   <path class="line"
         d="m17 5 h2 m20 0 h10 m0 0 h426 m-456 0 h20 m436 0 h20 m-476 0 q10 0 10 10 m456 0 q0 -10 10 -10 m-466 10 v12 m456 0 v-12 m-456 12 q0 10 10 10 m436 0 q10 0 10 -10 m-426 10 h10 m94 0 h10 m0 0 h10 m72 0 h10 m0 0 h10 m94 0 h10 m0 0 h32 m-372 0 h20 m352 0 h20 m-392 0 q10 0 10 10 m372 0 q0 -10 10 -10 m-382 10 v24 m372 0 v-24 m-372 24 q0 10 10 10 m352 0 q10 0 10 -10 m-362 10 h10 m80 0 h10 m0 0 h10 m92 0 h10 m0 0 h10 m120 0 h10 m20 -44 h10 m24 0 h10 m23 -32 h-3"/>
   <polygon points="505 5 513 1 513 9"/>
   <polygon points="505 5 497 1 497 9"/>
</svg>
