<?xml version="1.0" encoding="UTF-8"?>
<svg style="background: var(--diagram-bg, #FFFCF0)" xmlns="http://www.w3.org/2000/svg" width="339" height="605"><style>
  :root { --diagram-bg: #FFFCF0; }
</style>
   <defs>
      <style type="text/css">
    @namespace "http://www.w3.org/2000/svg";
    .line                 {fill: none; stroke: #332900; stroke-width: 1;}
    .bold-line            {stroke: #141000; shape-rendering: crispEdges; stroke-width: 2;}
    .thin-line            {stroke: #1F1800; shape-rendering: crispEdges}
    .filled               {fill: #332900; stroke: none;}
    text.terminal         {font-family: Verdana, Sans-serif;
                            font-size: 12px;
                            fill: #141000;
                            font-weight: bold;
                          }
    text.nonterminal      {font-family: Verdana, Sans-serif;
                            font-size: 12px;
                            fill: #1A1400;
                            font-weight: normal;
                          }
    text.regexp           {font-family: Verdana, Sans-serif;
                            font-size: 12px;
                            fill: #1F1800;
                            font-weight: normal;
                          }
    rect, circle, polygon {fill: #332900; stroke: #332900;}
    rect.terminal         {fill: #FFDB4D; stroke: #332900; stroke-width: 1;}
    rect.nonterminal      {fill: #FFEC9E; stroke: #332900; stroke-width: 1;}
    rect.text             {fill: none; stroke: none;}
    polygon.regexp        {fill: #FFF4C7; stroke: #332900; stroke-width: 1;}
  </style>
   </defs>
   <polygon points="9 17 1 13 1 21"/>
   <polygon points="17 17 9 13 9 21"/>
   <a xmlns:xlink="http://www.w3.org/1999/xlink"
      xlink:href="#K_COVER"
      xlink:title="K_COVER">
      <rect x="51" y="3" width="78" height="32"/>
      <rect x="49" y="1" width="78" height="32" class="nonterminal"/>
      <text class="nonterminal" x="59" y="21">K_COVER</text>
   </a>
   <a xmlns:xlink="http://www.w3.org/1999/xlink"
      xlink:href="#K_BUMP"
      xlink:title="K_BUMP">
      <rect x="169" y="35" width="72" height="32"/>
      <rect x="167" y="33" width="72" height="32" class="nonterminal"/>
      <text class="nonterminal" x="177" y="53">K_BUMP</text>
   </a>
   <a xmlns:xlink="http://www.w3.org/1999/xlink"
      xlink:href="#K_RING"
      xlink:title="K_RING">
      <rect x="51" y="79" width="68" height="32"/>
      <rect x="49" y="77" width="68" height="32" class="nonterminal"/>
      <text class="nonterminal" x="59" y="97">K_RING</text>
   </a>
   <a xmlns:xlink="http://www.w3.org/1999/xlink"
      xlink:href="#K_BLOCK"
      xlink:title="K_BLOCK">
      <rect x="51" y="123" width="78" height="32"/>
      <rect x="49" y="121" width="78" height="32" class="nonterminal"/>
      <text class="nonterminal" x="59" y="141">K_BLOCK</text>
   </a>
   <a xmlns:xlink="http://www.w3.org/1999/xlink"
      xlink:href="#K_BLACKBOX"
      xlink:title="K_BLACKBOX">
      <rect x="169" y="155" width="102" height="32"/>
      <rect x="167" y="153" width="102" height="32" class="nonterminal"/>
      <text class="nonterminal" x="177" y="173">K_BLACKBOX</text>
   </a>
   <a xmlns:xlink="http://www.w3.org/1999/xlink"
      xlink:href="#K_SOFT"
      xlink:title="K_SOFT">
      <rect x="169" y="199" width="68" height="32"/>
      <rect x="167" y="197" width="68" height="32" class="nonterminal"/>
      <text class="nonterminal" x="177" y="217">K_SOFT</text>
   </a>
   <a xmlns:xlink="http://www.w3.org/1999/xlink"
      xlink:href="#K_NONE"
      xlink:title="K_NONE">
      <rect x="51" y="243" width="72" height="32"/>
      <rect x="49" y="241" width="72" height="32" class="nonterminal"/>
      <text class="nonterminal" x="59" y="261">K_NONE</text>
   </a>
   <a xmlns:xlink="http://www.w3.org/1999/xlink"
      xlink:href="#K_BUMP"
      xlink:title="K_BUMP">
      <rect x="51" y="287" width="72" height="32"/>
      <rect x="49" y="285" width="72" height="32" class="nonterminal"/>
      <text class="nonterminal" x="59" y="305">K_BUMP</text>
   </a>
   <a xmlns:xlink="http://www.w3.org/1999/xlink"
      xlink:href="#K_PAD"
      xlink:title="K_PAD">
      <rect x="51" y="331" width="62" height="32"/>
      <rect x="49" y="329" width="62" height="32" class="nonterminal"/>
      <text class="nonterminal" x="59" y="349">K_PAD</text>
   </a>
   <a xmlns:xlink="http://www.w3.org/1999/xlink"
      xlink:href="#pad_type"
      xlink:title="pad_type">
      <rect x="153" y="363" width="80" height="32"/>
      <rect x="151" y="361" width="80" height="32" class="nonterminal"/>
      <text class="nonterminal" x="161" y="381">pad_type</text>
   </a>
   <a xmlns:xlink="http://www.w3.org/1999/xlink"
      xlink:href="#K_VIRTUAL"
      xlink:title="K_VIRTUAL">
      <rect x="51" y="407" width="88" height="32"/>
      <rect x="49" y="405" width="88" height="32" class="nonterminal"/>
      <text class="nonterminal" x="59" y="425">K_VIRTUAL</text>
   </a>
   <a xmlns:xlink="http://www.w3.org/1999/xlink"
      xlink:href="#K_CORE"
      xlink:title="K_CORE">
      <rect x="51" y="451" width="70" height="32"/>
      <rect x="49" y="449" width="70" height="32" class="nonterminal"/>
      <text class="nonterminal" x="59" y="469">K_CORE</text>
   </a>
   <a xmlns:xlink="http://www.w3.org/1999/xlink"
      xlink:href="#core_type"
      xlink:title="core_type">
      <rect x="161" y="483" width="82" height="32"/>
      <rect x="159" y="481" width="82" height="32" class="nonterminal"/>
      <text class="nonterminal" x="169" y="501">core_type</text>
   </a>
   <a xmlns:xlink="http://www.w3.org/1999/xlink"
      xlink:href="#K_CORNER"
      xlink:title="K_CORNER">
      <rect x="51" y="527" width="88" height="32"/>
      <rect x="49" y="525" width="88" height="32" class="nonterminal"/>
      <text class="nonterminal" x="59" y="545">K_CORNER</text>
   </a>
   <a xmlns:xlink="http://www.w3.org/1999/xlink"
      xlink:href="#K_ENDCAP"
      xlink:title="K_ENDCAP">
      <rect x="51" y="571" width="88" height="32"/>
      <rect x="49" y="569" width="88" height="32" class="nonterminal"/>
      <text class="nonterminal" x="59" y="589">K_ENDCAP</text>
   </a>
   <a xmlns:xlink="http://www.w3.org/1999/xlink"
      xlink:href="#endcap_type"
      xlink:title="endcap_type">
      <rect x="159" y="571" width="102" height="32"/>
      <rect x="157" y="569" width="102" height="32" class="nonterminal"/>
      <text class="nonterminal" x="167" y="589">endcap_type</text>
   </a>
   <path class="line"
         d="m17 17 h2 m20 0 h10 m78 0 h10 m20 0 h10 m0 0 h82 m-112 0 h20 m92 0 h20 m-132 0 q10 0 10 10 m112 0 q0 -10 10 -10 m-122 10 v12 m112 0 v-12 m-112 12 q0 10 10 10 m92 0 q10 0 10 -10 m-102 10 h10 m72 0 h10 m20 -32 h30 m-280 0 h20 m260 0 h20 m-300 0 q10 0 10 10 m280 0 q0 -10 10 -10 m-290 10 v56 m280 0 v-56 m-280 56 q0 10 10 10 m260 0 q10 0 10 -10 m-270 10 h10 m68 0 h10 m0 0 h172 m-270 -10 v20 m280 0 v-20 m-280 20 v24 m280 0 v-24 m-280 24 q0 10 10 10 m260 0 q10 0 10 -10 m-270 10 h10 m78 0 h10 m20 0 h10 m0 0 h112 m-142 0 h20 m122 0 h20 m-162 0 q10 0 10 10 m142 0 q0 -10 10 -10 m-152 10 v12 m142 0 v-12 m-142 12 q0 10 10 10 m122 0 q10 0 10 -10 m-132 10 h10 m102 0 h10 m-132 -10 v20 m142 0 v-20 m-142 20 v24 m142 0 v-24 m-142 24 q0 10 10 10 m122 0 q10 0 10 -10 m-132 10 h10 m68 0 h10 m0 0 h34 m-250 -86 v20 m280 0 v-20 m-280 20 v100 m280 0 v-100 m-280 100 q0 10 10 10 m260 0 q10 0 10 -10 m-270 10 h10 m72 0 h10 m0 0 h168 m-270 -10 v20 m280 0 v-20 m-280 20 v24 m280 0 v-24 m-280 24 q0 10 10 10 m260 0 q10 0 10 -10 m-270 10 h10 m72 0 h10 m0 0 h168 m-270 -10 v20 m280 0 v-20 m-280 20 v24 m280 0 v-24 m-280 24 q0 10 10 10 m260 0 q10 0 10 -10 m-270 10 h10 m62 0 h10 m20 0 h10 m0 0 h90 m-120 0 h20 m100 0 h20 m-140 0 q10 0 10 10 m120 0 q0 -10 10 -10 m-130 10 v12 m120 0 v-12 m-120 12 q0 10 10 10 m100 0 q10 0 10 -10 m-110 10 h10 m80 0 h10 m20 -32 h38 m-270 -10 v20 m280 0 v-20 m-280 20 v56 m280 0 v-56 m-280 56 q0 10 10 10 m260 0 q10 0 10 -10 m-270 10 h10 m88 0 h10 m0 0 h152 m-270 -10 v20 m280 0 v-20 m-280 20 v24 m280 0 v-24 m-280 24 q0 10 10 10 m260 0 q10 0 10 -10 m-270 10 h10 m70 0 h10 m20 0 h10 m0 0 h92 m-122 0 h20 m102 0 h20 m-142 0 q10 0 10 10 m122 0 q0 -10 10 -10 m-132 10 v12 m122 0 v-12 m-122 12 q0 10 10 10 m102 0 q10 0 10 -10 m-112 10 h10 m82 0 h10 m20 -32 h28 m-270 -10 v20 m280 0 v-20 m-280 20 v56 m280 0 v-56 m-280 56 q0 10 10 10 m260 0 q10 0 10 -10 m-270 10 h10 m88 0 h10 m0 0 h152 m-270 -10 v20 m280 0 v-20 m-280 20 v24 m280 0 v-24 m-280 24 q0 10 10 10 m260 0 q10 0 10 -10 m-270 10 h10 m88 0 h10 m0 0 h10 m102 0 h10 m0 0 h30 m23 -568 h-3"/>
   <polygon points="329 17 337 13 337 21"/>
   <polygon points="329 17 321 13 321 21"/>
</svg>
