<?xml version="1.0" encoding="UTF-8"?>
<svg style="background: var(--diagram-bg, #FFFCF0)" xmlns="http://www.w3.org/2000/svg" width="225" height="257"><style>
  :root { --diagram-bg: #FFFCF0; }
</style>
   <defs>
      <style type="text/css">
    @namespace "http://www.w3.org/2000/svg";
    .line                 {fill: none; stroke: #332900; stroke-width: 1;}
    .bold-line            {stroke: #141000; shape-rendering: crispEdges; stroke-width: 2;}
    .thin-line            {stroke: #1F1800; shape-rendering: crispEdges}
    .filled               {fill: #332900; stroke: none;}
    text.terminal         {font-family: Verdana, Sans-serif;
                            font-size: 12px;
                            fill: #141000;
                            font-weight: bold;
                          }
    text.nonterminal      {font-family: Verdana, Sans-serif;
                            font-size: 12px;
                            fill: #1A1400;
                            font-weight: normal;
                          }
    text.regexp           {font-family: Verdana, Sans-serif;
                            font-size: 12px;
                            fill: #1F1800;
                            font-weight: normal;
                          }
    rect, circle, polygon {fill: #332900; stroke: #332900;}
    rect.terminal         {fill: #FFDB4D; stroke: #332900; stroke-width: 1;}
    rect.nonterminal      {fill: #FFEC9E; stroke: #332900; stroke-width: 1;}
    rect.text             {fill: none; stroke: none;}
    polygon.regexp        {fill: #FFF4C7; stroke: #332900; stroke-width: 1;}
  </style>
   </defs>
   <polygon points="9 17 1 13 1 21"/>
   <polygon points="17 17 9 13 9 21"/>
   <a xmlns:xlink="http://www.w3.org/1999/xlink"
      xlink:href="#K_FEEDTHRU"
      xlink:title="K_FEEDTHRU">
      <rect x="51" y="3" width="102" height="32"/>
      <rect x="49" y="1" width="102" height="32" class="nonterminal"/>
      <text class="nonterminal" x="59" y="21">K_FEEDTHRU</text>
   </a>
   <a xmlns:xlink="http://www.w3.org/1999/xlink"
      xlink:href="#K_TIEHIGH"
      xlink:title="K_TIEHIGH">
      <rect x="51" y="47" width="88" height="32"/>
      <rect x="49" y="45" width="88" height="32" class="nonterminal"/>
      <text class="nonterminal" x="59" y="65">K_TIEHIGH</text>
   </a>
   <a xmlns:xlink="http://www.w3.org/1999/xlink"
      xlink:href="#K_TIELOW"
      xlink:title="K_TIELOW">
      <rect x="51" y="91" width="86" height="32"/>
      <rect x="49" y="89" width="86" height="32" class="nonterminal"/>
      <text class="nonterminal" x="59" y="109">K_TIELOW</text>
   </a>
   <a xmlns:xlink="http://www.w3.org/1999/xlink"
      xlink:href="#K_SPACER"
      xlink:title="K_SPACER">
      <rect x="51" y="135" width="86" height="32"/>
      <rect x="49" y="133" width="86" height="32" class="nonterminal"/>
      <text class="nonterminal" x="59" y="153">K_SPACER</text>
   </a>
   <a xmlns:xlink="http://www.w3.org/1999/xlink"
      xlink:href="#K_ANTENNACELL"
      xlink:title="K_ANTENNACELL">
      <rect x="51" y="179" width="126" height="32"/>
      <rect x="49" y="177" width="126" height="32" class="nonterminal"/>
      <text class="nonterminal" x="59" y="197">K_ANTENNACELL</text>
   </a>
   <a xmlns:xlink="http://www.w3.org/1999/xlink"
      xlink:href="#K_WELLTAP"
      xlink:title="K_WELLTAP">
      <rect x="51" y="223" width="94" height="32"/>
      <rect x="49" y="221" width="94" height="32" class="nonterminal"/>
      <text class="nonterminal" x="59" y="241">K_WELLTAP</text>
   </a>
   <path class="line"
         d="m17 17 h2 m20 0 h10 m102 0 h10 m0 0 h24 m-166 0 h20 m146 0 h20 m-186 0 q10 0 10 10 m166 0 q0 -10 10 -10 m-176 10 v24 m166 0 v-24 m-166 24 q0 10 10 10 m146 0 q10 0 10 -10 m-156 10 h10 m88 0 h10 m0 0 h38 m-156 -10 v20 m166 0 v-20 m-166 20 v24 m166 0 v-24 m-166 24 q0 10 10 10 m146 0 q10 0 10 -10 m-156 10 h10 m86 0 h10 m0 0 h40 m-156 -10 v20 m166 0 v-20 m-166 20 v24 m166 0 v-24 m-166 24 q0 10 10 10 m146 0 q10 0 10 -10 m-156 10 h10 m86 0 h10 m0 0 h40 m-156 -10 v20 m166 0 v-20 m-166 20 v24 m166 0 v-24 m-166 24 q0 10 10 10 m146 0 q10 0 10 -10 m-156 10 h10 m126 0 h10 m-156 -10 v20 m166 0 v-20 m-166 20 v24 m166 0 v-24 m-166 24 q0 10 10 10 m146 0 q10 0 10 -10 m-156 10 h10 m94 0 h10 m0 0 h32 m23 -220 h-3"/>
   <polygon points="215 17 223 13 223 21"/>
   <polygon points="215 17 207 13 207 21"/>
</svg>
