<?xml version="1.0" encoding="UTF-8"?>
<svg style="background: var(--diagram-bg, #FFFCF0)" xmlns="http://www.w3.org/2000/svg" width="825" height="53"><style>
  :root { --diagram-bg: #FFFCF0; }
</style>
   <defs>
      <style type="text/css">
    @namespace "http://www.w3.org/2000/svg";
    .line                 {fill: none; stroke: #332900; stroke-width: 1;}
    .bold-line            {stroke: #141000; shape-rendering: crispEdges; stroke-width: 2;}
    .thin-line            {stroke: #1F1800; shape-rendering: crispEdges}
    .filled               {fill: #332900; stroke: none;}
    text.terminal         {font-family: Verdana, Sans-serif;
                            font-size: 12px;
                            fill: #141000;
                            font-weight: bold;
                          }
    text.nonterminal      {font-family: Verdana, Sans-serif;
                            font-size: 12px;
                            fill: #1A1400;
                            font-weight: normal;
                          }
    text.regexp           {font-family: Verdana, Sans-serif;
                            font-size: 12px;
                            fill: #1F1800;
                            font-weight: normal;
                          }
    rect, circle, polygon {fill: #332900; stroke: #332900;}
    rect.terminal         {fill: #FFDB4D; stroke: #332900; stroke-width: 1;}
    rect.nonterminal      {fill: #FFEC9E; stroke: #332900; stroke-width: 1;}
    rect.text             {fill: none; stroke: none;}
    polygon.regexp        {fill: #FFF4C7; stroke: #332900; stroke-width: 1;}
  </style>
   </defs>
   <polygon points="9 33 1 29 1 37"/>
   <polygon points="17 33 9 29 9 37"/>
   <a xmlns:xlink="http://www.w3.org/1999/xlink"
      xlink:href="#K_CORRECTIONTABLE"
      xlink:title="K_CORRECTIONTABLE">
      <rect x="31" y="19" width="156" height="32"/>
      <rect x="29" y="17" width="156" height="32" class="nonterminal"/>
      <text class="nonterminal" x="39" y="37">K_CORRECTIONTABLE</text>
   </a>
   <a xmlns:xlink="http://www.w3.org/1999/xlink"
      xlink:href="#int_number"
      xlink:title="int_number">
      <rect x="207" y="19" width="92" height="32"/>
      <rect x="205" y="17" width="92" height="32" class="nonterminal"/>
      <text class="nonterminal" x="215" y="37">int_number</text>
   </a>
   <rect x="319" y="19" width="24" height="32" rx="10"/>
   <rect x="317"
         y="17"
         width="24"
         height="32"
         class="terminal"
         rx="10"/>
   <text class="terminal" x="327" y="37">;</text>
   <a xmlns:xlink="http://www.w3.org/1999/xlink"
      xlink:href="#correction_table_item"
      xlink:title="correction_table_item">
      <rect x="383" y="19" width="158" height="32"/>
      <rect x="381" y="17" width="158" height="32" class="nonterminal"/>
      <text class="nonterminal" x="391" y="37">correction_table_item</text>
   </a>
   <a xmlns:xlink="http://www.w3.org/1999/xlink"
      xlink:href="#end_correctiontable"
      xlink:title="end_correctiontable">
      <rect x="581" y="19" width="146" height="32"/>
      <rect x="579" y="17" width="146" height="32" class="nonterminal"/>
      <text class="nonterminal" x="589" y="37">end_correctiontable</text>
   </a>
   <a xmlns:xlink="http://www.w3.org/1999/xlink"
      xlink:href="#dtrm"
      xlink:title="dtrm">
      <rect x="747" y="19" width="50" height="32"/>
      <rect x="745" y="17" width="50" height="32" class="nonterminal"/>
      <text class="nonterminal" x="755" y="37">dtrm</text>
   </a>
   <path class="line"
         d="m17 33 h2 m0 0 h10 m156 0 h10 m0 0 h10 m92 0 h10 m0 0 h10 m24 0 h10 m20 0 h10 m158 0 h10 m-198 0 l20 0 m-1 0 q-9 0 -9 -10 l0 -12 q0 -10 10 -10 m178 32 l20 0 m-20 0 q10 0 10 -10 l0 -12 q0 -10 -10 -10 m-178 0 h10 m0 0 h168 m20 32 h10 m146 0 h10 m0 0 h10 m50 0 h10 m3 0 h-3"/>
   <polygon points="815 33 823 29 823 37"/>
   <polygon points="815 33 807 29 807 37"/>
</svg>
