<?xml version="1.0" encoding="UTF-8"?>
<svg style="background: var(--diagram-bg, #FFFCF0)" xmlns="http://www.w3.org/2000/svg" width="513" height="125"><style>
  :root { --diagram-bg: #FFFCF0; }
</style>
   <defs>
      <style type="text/css">
    @namespace "http://www.w3.org/2000/svg";
    .line                 {fill: none; stroke: #332900; stroke-width: 1;}
    .bold-line            {stroke: #141000; shape-rendering: crispEdges; stroke-width: 2;}
    .thin-line            {stroke: #1F1800; shape-rendering: crispEdges}
    .filled               {fill: #332900; stroke: none;}
    text.terminal         {font-family: Verdana, Sans-serif;
                            font-size: 12px;
                            fill: #141000;
                            font-weight: bold;
                          }
    text.nonterminal      {font-family: Verdana, Sans-serif;
                            font-size: 12px;
                            fill: #1A1400;
                            font-weight: normal;
                          }
    text.regexp           {font-family: Verdana, Sans-serif;
                            font-size: 12px;
                            fill: #1F1800;
                            font-weight: normal;
                          }
    rect, circle, polygon {fill: #332900; stroke: #332900;}
    rect.terminal         {fill: #FFDB4D; stroke: #332900; stroke-width: 1;}
    rect.nonterminal      {fill: #FFEC9E; stroke: #332900; stroke-width: 1;}
    rect.text             {fill: none; stroke: none;}
    polygon.regexp        {fill: #FFF4C7; stroke: #332900; stroke-width: 1;}
  </style>
   </defs>
   <polygon points="9 17 1 13 1 21"/>
   <polygon points="17 17 9 13 9 21"/>
   <a xmlns:xlink="http://www.w3.org/1999/xlink"
      xlink:href="#K_DEFINE"
      xlink:title="K_DEFINE">
      <rect x="51" y="3" width="82" height="32"/>
      <rect x="49" y="1" width="82" height="32" class="nonterminal"/>
      <text class="nonterminal" x="59" y="21">K_DEFINE</text>
   </a>
   <a xmlns:xlink="http://www.w3.org/1999/xlink"
      xlink:href="#T_STRING"
      xlink:title="T_STRING">
      <rect x="153" y="3" width="82" height="32"/>
      <rect x="151" y="1" width="82" height="32" class="nonterminal"/>
      <text class="nonterminal" x="161" y="21">T_STRING</text>
   </a>
   <rect x="255" y="3" width="30" height="32" rx="10"/>
   <rect x="253"
         y="1"
         width="30"
         height="32"
         class="terminal"
         rx="10"/>
   <text class="terminal" x="263" y="21">=</text>
   <a xmlns:xlink="http://www.w3.org/1999/xlink"
      xlink:href="#expression"
      xlink:title="expression">
      <rect x="305" y="3" width="90" height="32"/>
      <rect x="303" y="1" width="90" height="32" class="nonterminal"/>
      <text class="nonterminal" x="313" y="21">expression</text>
   </a>
   <a xmlns:xlink="http://www.w3.org/1999/xlink"
      xlink:href="#K_DEFINES"
      xlink:title="K_DEFINES">
      <rect x="51" y="47" width="90" height="32"/>
      <rect x="49" y="45" width="90" height="32" class="nonterminal"/>
      <text class="nonterminal" x="59" y="65">K_DEFINES</text>
   </a>
   <a xmlns:xlink="http://www.w3.org/1999/xlink"
      xlink:href="#T_STRING"
      xlink:title="T_STRING">
      <rect x="161" y="47" width="82" height="32"/>
      <rect x="159" y="45" width="82" height="32" class="nonterminal"/>
      <text class="nonterminal" x="169" y="65">T_STRING</text>
   </a>
   <rect x="263" y="47" width="30" height="32" rx="10"/>
   <rect x="261"
         y="45"
         width="30"
         height="32"
         class="terminal"
         rx="10"/>
   <text class="terminal" x="271" y="65">=</text>
   <a xmlns:xlink="http://www.w3.org/1999/xlink"
      xlink:href="#s_expr"
      xlink:title="s_expr">
      <rect x="313" y="47" width="62" height="32"/>
      <rect x="311" y="45" width="62" height="32" class="nonterminal"/>
      <text class="nonterminal" x="321" y="65">s_expr</text>
   </a>
   <a xmlns:xlink="http://www.w3.org/1999/xlink"
      xlink:href="#K_DEFINEB"
      xlink:title="K_DEFINEB">
      <rect x="51" y="91" width="90" height="32"/>
      <rect x="49" y="89" width="90" height="32" class="nonterminal"/>
      <text class="nonterminal" x="59" y="109">K_DEFINEB</text>
   </a>
   <a xmlns:xlink="http://www.w3.org/1999/xlink"
      xlink:href="#T_STRING"
      xlink:title="T_STRING">
      <rect x="161" y="91" width="82" height="32"/>
      <rect x="159" y="89" width="82" height="32" class="nonterminal"/>
      <text class="nonterminal" x="169" y="109">T_STRING</text>
   </a>
   <rect x="263" y="91" width="30" height="32" rx="10"/>
   <rect x="261"
         y="89"
         width="30"
         height="32"
         class="terminal"
         rx="10"/>
   <text class="terminal" x="271" y="109">=</text>
   <a xmlns:xlink="http://www.w3.org/1999/xlink"
      xlink:href="#b_expr"
      xlink:title="b_expr">
      <rect x="313" y="91" width="64" height="32"/>
      <rect x="311" y="89" width="64" height="32" class="nonterminal"/>
      <text class="nonterminal" x="321" y="109">b_expr</text>
   </a>
   <a xmlns:xlink="http://www.w3.org/1999/xlink"
      xlink:href="#dtrm"
      xlink:title="dtrm">
      <rect x="435" y="3" width="50" height="32"/>
      <rect x="433" y="1" width="50" height="32" class="nonterminal"/>
      <text class="nonterminal" x="443" y="21">dtrm</text>
   </a>
   <path class="line"
         d="m17 17 h2 m20 0 h10 m82 0 h10 m0 0 h10 m82 0 h10 m0 0 h10 m30 0 h10 m0 0 h10 m90 0 h10 m-384 0 h20 m364 0 h20 m-404 0 q10 0 10 10 m384 0 q0 -10 10 -10 m-394 10 v24 m384 0 v-24 m-384 24 q0 10 10 10 m364 0 q10 0 10 -10 m-374 10 h10 m90 0 h10 m0 0 h10 m82 0 h10 m0 0 h10 m30 0 h10 m0 0 h10 m62 0 h10 m0 0 h20 m-374 -10 v20 m384 0 v-20 m-384 20 v24 m384 0 v-24 m-384 24 q0 10 10 10 m364 0 q10 0 10 -10 m-374 10 h10 m90 0 h10 m0 0 h10 m82 0 h10 m0 0 h10 m30 0 h10 m0 0 h10 m64 0 h10 m0 0 h18 m20 -88 h10 m50 0 h10 m3 0 h-3"/>
   <polygon points="503 17 511 13 511 21"/>
   <polygon points="503 17 495 13 495 21"/>
</svg>
