<?xml version="1.0" encoding="UTF-8"?>
<svg style="background: var(--diagram-bg, #FFFCF0)" xmlns="http://www.w3.org/2000/svg" width="477" height="53"><style>
  :root { --diagram-bg: #FFFCF0; }
</style>
   <defs>
      <style type="text/css">
    @namespace "http://www.w3.org/2000/svg";
    .line                 {fill: none; stroke: #332900; stroke-width: 1;}
    .bold-line            {stroke: #141000; shape-rendering: crispEdges; stroke-width: 2;}
    .thin-line            {stroke: #1F1800; shape-rendering: crispEdges}
    .filled               {fill: #332900; stroke: none;}
    text.terminal         {font-family: Verdana, Sans-serif;
                            font-size: 12px;
                            fill: #141000;
                            font-weight: bold;
                          }
    text.nonterminal      {font-family: Verdana, Sans-serif;
                            font-size: 12px;
                            fill: #1A1400;
                            font-weight: normal;
                          }
    text.regexp           {font-family: Verdana, Sans-serif;
                            font-size: 12px;
                            fill: #1F1800;
                            font-weight: normal;
                          }
    rect, circle, polygon {fill: #332900; stroke: #332900;}
    rect.terminal         {fill: #FFDB4D; stroke: #332900; stroke-width: 1;}
    rect.nonterminal      {fill: #FFEC9E; stroke: #332900; stroke-width: 1;}
    rect.text             {fill: none; stroke: none;}
    polygon.regexp        {fill: #FFF4C7; stroke: #332900; stroke-width: 1;}
  </style>
   </defs>
   <polygon points="9 33 1 29 1 37"/>
   <polygon points="17 33 9 29 9 37"/>
   <a xmlns:xlink="http://www.w3.org/1999/xlink"
      xlink:href="#K_LAYER"
      xlink:title="K_LAYER">
      <rect x="31" y="19" width="74" height="32"/>
      <rect x="29" y="17" width="74" height="32" class="nonterminal"/>
      <text class="nonterminal" x="39" y="37">K_LAYER</text>
   </a>
   <a xmlns:xlink="http://www.w3.org/1999/xlink"
      xlink:href="#T_STRING"
      xlink:title="T_STRING">
      <rect x="125" y="19" width="82" height="32"/>
      <rect x="123" y="17" width="82" height="32" class="nonterminal"/>
      <text class="nonterminal" x="133" y="37">T_STRING</text>
   </a>
   <rect x="227" y="19" width="24" height="32" rx="10"/>
   <rect x="225"
         y="17"
         width="24"
         height="32"
         class="terminal"
         rx="10"/>
   <text class="terminal" x="235" y="37">;</text>
   <a xmlns:xlink="http://www.w3.org/1999/xlink"
      xlink:href="#density_layer_rect"
      xlink:title="density_layer_rect">
      <rect x="291" y="19" width="138" height="32"/>
      <rect x="289" y="17" width="138" height="32" class="nonterminal"/>
      <text class="nonterminal" x="299" y="37">density_layer_rect</text>
   </a>
   <path class="line"
         d="m17 33 h2 m0 0 h10 m74 0 h10 m0 0 h10 m82 0 h10 m0 0 h10 m24 0 h10 m20 0 h10 m138 0 h10 m-178 0 l20 0 m-1 0 q-9 0 -9 -10 l0 -12 q0 -10 10 -10 m158 32 l20 0 m-20 0 q10 0 10 -10 l0 -12 q0 -10 -10 -10 m-158 0 h10 m0 0 h148 m23 32 h-3"/>
   <polygon points="467 33 475 29 475 37"/>
   <polygon points="467 33 459 29 459 37"/>
</svg>
