<?xml version="1.0" encoding="UTF-8"?>
<svg style="background: var(--diagram-bg, #FFFCF0)" xmlns="http://www.w3.org/2000/svg" width="509" height="201"><style>
  :root { --diagram-bg: #FFFCF0; }
</style>
   <defs>
      <style type="text/css">
    @namespace "http://www.w3.org/2000/svg";
    .line                 {fill: none; stroke: #332900; stroke-width: 1;}
    .bold-line            {stroke: #141000; shape-rendering: crispEdges; stroke-width: 2;}
    .thin-line            {stroke: #1F1800; shape-rendering: crispEdges}
    .filled               {fill: #332900; stroke: none;}
    text.terminal         {font-family: Verdana, Sans-serif;
                            font-size: 12px;
                            fill: #141000;
                            font-weight: bold;
                          }
    text.nonterminal      {font-family: Verdana, Sans-serif;
                            font-size: 12px;
                            fill: #1A1400;
                            font-weight: normal;
                          }
    text.regexp           {font-family: Verdana, Sans-serif;
                            font-size: 12px;
                            fill: #1F1800;
                            font-weight: normal;
                          }
    rect, circle, polygon {fill: #332900; stroke: #332900;}
    rect.terminal         {fill: #FFDB4D; stroke: #332900; stroke-width: 1;}
    rect.nonterminal      {fill: #FFEC9E; stroke: #332900; stroke-width: 1;}
    rect.text             {fill: none; stroke: none;}
    polygon.regexp        {fill: #FFF4C7; stroke: #332900; stroke-width: 1;}
  </style>
   </defs>
   <polygon points="9 17 1 13 1 21"/>
   <polygon points="17 17 9 13 9 21"/>
   <a xmlns:xlink="http://www.w3.org/1999/xlink"
      xlink:href="#K_DIRECTION"
      xlink:title="K_DIRECTION">
      <rect x="31" y="3" width="106" height="32"/>
      <rect x="29" y="1" width="106" height="32" class="nonterminal"/>
      <text class="nonterminal" x="39" y="21">K_DIRECTION</text>
   </a>
   <a xmlns:xlink="http://www.w3.org/1999/xlink"
      xlink:href="#K_INPUT"
      xlink:title="K_INPUT">
      <rect x="177" y="3" width="74" height="32"/>
      <rect x="175" y="1" width="74" height="32" class="nonterminal"/>
      <text class="nonterminal" x="185" y="21">K_INPUT</text>
   </a>
   <a xmlns:xlink="http://www.w3.org/1999/xlink"
      xlink:href="#K_INOUT"
      xlink:title="K_INOUT">
      <rect x="177" y="47" width="76" height="32"/>
      <rect x="175" y="45" width="76" height="32" class="nonterminal"/>
      <text class="nonterminal" x="185" y="65">K_INOUT</text>
   </a>
   <a xmlns:xlink="http://www.w3.org/1999/xlink"
      xlink:href="#K_FEEDTHRU"
      xlink:title="K_FEEDTHRU">
      <rect x="177" y="91" width="102" height="32"/>
      <rect x="175" y="89" width="102" height="32" class="nonterminal"/>
      <text class="nonterminal" x="185" y="109">K_FEEDTHRU</text>
   </a>
   <a xmlns:xlink="http://www.w3.org/1999/xlink"
      xlink:href="#K_OUTPUT"
      xlink:title="K_OUTPUT">
      <rect x="177" y="135" width="86" height="32"/>
      <rect x="175" y="133" width="86" height="32" class="nonterminal"/>
      <text class="nonterminal" x="185" y="153">K_OUTPUT</text>
   </a>
   <a xmlns:xlink="http://www.w3.org/1999/xlink"
      xlink:href="#K_TRISTATE"
      xlink:title="K_TRISTATE">
      <rect x="303" y="167" width="94" height="32"/>
      <rect x="301" y="165" width="94" height="32" class="nonterminal"/>
      <text class="nonterminal" x="311" y="185">K_TRISTATE</text>
   </a>
   <rect x="457" y="3" width="24" height="32" rx="10"/>
   <rect x="455"
         y="1"
         width="24"
         height="32"
         class="terminal"
         rx="10"/>
   <text class="terminal" x="465" y="21">;</text>
   <path class="line"
         d="m17 17 h2 m0 0 h10 m106 0 h10 m20 0 h10 m74 0 h10 m0 0 h166 m-280 0 h20 m260 0 h20 m-300 0 q10 0 10 10 m280 0 q0 -10 10 -10 m-290 10 v24 m280 0 v-24 m-280 24 q0 10 10 10 m260 0 q10 0 10 -10 m-270 10 h10 m76 0 h10 m0 0 h164 m-270 -10 v20 m280 0 v-20 m-280 20 v24 m280 0 v-24 m-280 24 q0 10 10 10 m260 0 q10 0 10 -10 m-270 10 h10 m102 0 h10 m0 0 h138 m-270 -10 v20 m280 0 v-20 m-280 20 v24 m280 0 v-24 m-280 24 q0 10 10 10 m260 0 q10 0 10 -10 m-270 10 h10 m86 0 h10 m20 0 h10 m0 0 h104 m-134 0 h20 m114 0 h20 m-154 0 q10 0 10 10 m134 0 q0 -10 10 -10 m-144 10 v12 m134 0 v-12 m-134 12 q0 10 10 10 m114 0 q10 0 10 -10 m-124 10 h10 m94 0 h10 m40 -164 h10 m24 0 h10 m3 0 h-3"/>
   <polygon points="499 17 507 13 507 21"/>
   <polygon points="499 17 491 13 491 21"/>
</svg>
