<?xml version="1.0" encoding="UTF-8"?>
<svg style="background: var(--diagram-bg, #FFFCF0)" xmlns="http://www.w3.org/2000/svg" width="537" height="81"><style>
  :root { --diagram-bg: #FFFCF0; }
</style>
   <defs>
      <style type="text/css">
    @namespace "http://www.w3.org/2000/svg";
    .line                 {fill: none; stroke: #332900; stroke-width: 1;}
    .bold-line            {stroke: #141000; shape-rendering: crispEdges; stroke-width: 2;}
    .thin-line            {stroke: #1F1800; shape-rendering: crispEdges}
    .filled               {fill: #332900; stroke: none;}
    text.terminal         {font-family: Verdana, Sans-serif;
                            font-size: 12px;
                            fill: #141000;
                            font-weight: bold;
                          }
    text.nonterminal      {font-family: Verdana, Sans-serif;
                            font-size: 12px;
                            fill: #1A1400;
                            font-weight: normal;
                          }
    text.regexp           {font-family: Verdana, Sans-serif;
                            font-size: 12px;
                            fill: #1F1800;
                            font-weight: normal;
                          }
    rect, circle, polygon {fill: #332900; stroke: #332900;}
    rect.terminal         {fill: #FFDB4D; stroke: #332900; stroke-width: 1;}
    rect.nonterminal      {fill: #FFEC9E; stroke: #332900; stroke-width: 1;}
    rect.text             {fill: none; stroke: none;}
    polygon.regexp        {fill: #FFF4C7; stroke: #332900; stroke-width: 1;}
  </style>
   </defs>
   <polygon points="9 17 1 13 1 21"/>
   <polygon points="17 17 9 13 9 21"/>
   <a xmlns:xlink="http://www.w3.org/1999/xlink"
      xlink:href="#int_number"
      xlink:title="int_number">
      <rect x="51" y="3" width="92" height="32"/>
      <rect x="49" y="1" width="92" height="32" class="nonterminal"/>
      <text class="nonterminal" x="59" y="21">int_number</text>
   </a>
   <a xmlns:xlink="http://www.w3.org/1999/xlink"
      xlink:href="#K_PWL"
      xlink:title="K_PWL">
      <rect x="51" y="47" width="64" height="32"/>
      <rect x="49" y="45" width="64" height="32" class="nonterminal"/>
      <text class="nonterminal" x="59" y="65">K_PWL</text>
   </a>
   <rect x="135" y="47" width="26" height="32" rx="10"/>
   <rect x="133"
         y="45"
         width="26"
         height="32"
         class="terminal"
         rx="10"/>
   <text class="terminal" x="143" y="65">(</text>
   <a xmlns:xlink="http://www.w3.org/1999/xlink"
      xlink:href="#pt"
      xlink:title="pt">
      <rect x="181" y="47" width="32" height="32"/>
      <rect x="179" y="45" width="32" height="32" class="nonterminal"/>
      <text class="nonterminal" x="189" y="65">pt</text>
   </a>
   <a xmlns:xlink="http://www.w3.org/1999/xlink"
      xlink:href="#pt"
      xlink:title="pt">
      <rect x="233" y="47" width="32" height="32"/>
      <rect x="231" y="45" width="32" height="32" class="nonterminal"/>
      <text class="nonterminal" x="241" y="65">pt</text>
   </a>
   <a xmlns:xlink="http://www.w3.org/1999/xlink"
      xlink:href="#layer_diffusion_ratios"
      xlink:title="layer_diffusion_ratios">
      <rect x="285" y="47" width="158" height="32"/>
      <rect x="283" y="45" width="158" height="32" class="nonterminal"/>
      <text class="nonterminal" x="293" y="65">layer_diffusion_ratios</text>
   </a>
   <rect x="463" y="47" width="26" height="32" rx="10"/>
   <rect x="461"
         y="45"
         width="26"
         height="32"
         class="terminal"
         rx="10"/>
   <text class="terminal" x="471" y="65">)</text>
   <path class="line"
         d="m17 17 h2 m20 0 h10 m92 0 h10 m0 0 h346 m-478 0 h20 m458 0 h20 m-498 0 q10 0 10 10 m478 0 q0 -10 10 -10 m-488 10 v24 m478 0 v-24 m-478 24 q0 10 10 10 m458 0 q10 0 10 -10 m-468 10 h10 m64 0 h10 m0 0 h10 m26 0 h10 m0 0 h10 m32 0 h10 m0 0 h10 m32 0 h10 m0 0 h10 m158 0 h10 m0 0 h10 m26 0 h10 m23 -44 h-3"/>
   <polygon points="527 17 535 13 535 21"/>
   <polygon points="527 17 519 13 519 21"/>
</svg>
