<?xml version="1.0" encoding="UTF-8"?>
<svg style="background: var(--diagram-bg, #FFFCF0)" xmlns="http://www.w3.org/2000/svg" width="979" height="37"><style>
  :root { --diagram-bg: #FFFCF0; }
</style>
   <defs>
      <style type="text/css">
    @namespace "http://www.w3.org/2000/svg";
    .line                 {fill: none; stroke: #332900; stroke-width: 1;}
    .bold-line            {stroke: #141000; shape-rendering: crispEdges; stroke-width: 2;}
    .thin-line            {stroke: #1F1800; shape-rendering: crispEdges}
    .filled               {fill: #332900; stroke: none;}
    text.terminal         {font-family: Verdana, Sans-serif;
                            font-size: 12px;
                            fill: #141000;
                            font-weight: bold;
                          }
    text.nonterminal      {font-family: Verdana, Sans-serif;
                            font-size: 12px;
                            fill: #1A1400;
                            font-weight: normal;
                          }
    text.regexp           {font-family: Verdana, Sans-serif;
                            font-size: 12px;
                            fill: #1F1800;
                            font-weight: normal;
                          }
    rect, circle, polygon {fill: #332900; stroke: #332900;}
    rect.terminal         {fill: #FFDB4D; stroke: #332900; stroke-width: 1;}
    rect.nonterminal      {fill: #FFEC9E; stroke: #332900; stroke-width: 1;}
    rect.text             {fill: none; stroke: none;}
    polygon.regexp        {fill: #FFF4C7; stroke: #332900; stroke-width: 1;}
  </style>
   </defs>
   <polygon points="9 17 1 13 1 21"/>
   <polygon points="17 17 9 13 9 21"/>
   <a xmlns:xlink="http://www.w3.org/1999/xlink"
      xlink:href="#K_FREQUENCY"
      xlink:title="K_FREQUENCY">
      <rect x="31" y="3" width="110" height="32"/>
      <rect x="29" y="1" width="110" height="32" class="nonterminal"/>
      <text class="nonterminal" x="39" y="21">K_FREQUENCY</text>
   </a>
   <a xmlns:xlink="http://www.w3.org/1999/xlink"
      xlink:href="#NUMBER"
      xlink:title="NUMBER">
      <rect x="161" y="3" width="72" height="32"/>
      <rect x="159" y="1" width="72" height="32" class="nonterminal"/>
      <text class="nonterminal" x="169" y="21">NUMBER</text>
   </a>
   <a xmlns:xlink="http://www.w3.org/1999/xlink"
      xlink:href="#number_list"
      xlink:title="number_list">
      <rect x="253" y="3" width="94" height="32"/>
      <rect x="251" y="1" width="94" height="32" class="nonterminal"/>
      <text class="nonterminal" x="261" y="21">number_list</text>
   </a>
   <rect x="367" y="3" width="24" height="32" rx="10"/>
   <rect x="365"
         y="1"
         width="24"
         height="32"
         class="terminal"
         rx="10"/>
   <text class="terminal" x="375" y="21">;</text>
   <a xmlns:xlink="http://www.w3.org/1999/xlink"
      xlink:href="#ac_layer_table_opt"
      xlink:title="ac_layer_table_opt">
      <rect x="411" y="3" width="142" height="32"/>
      <rect x="409" y="1" width="142" height="32" class="nonterminal"/>
      <text class="nonterminal" x="419" y="21">ac_layer_table_opt</text>
   </a>
   <a xmlns:xlink="http://www.w3.org/1999/xlink"
      xlink:href="#K_TABLEENTRIES"
      xlink:title="K_TABLEENTRIES">
      <rect x="573" y="3" width="128" height="32"/>
      <rect x="571" y="1" width="128" height="32" class="nonterminal"/>
      <text class="nonterminal" x="581" y="21">K_TABLEENTRIES</text>
   </a>
   <a xmlns:xlink="http://www.w3.org/1999/xlink"
      xlink:href="#NUMBER"
      xlink:title="NUMBER">
      <rect x="721" y="3" width="72" height="32"/>
      <rect x="719" y="1" width="72" height="32" class="nonterminal"/>
      <text class="nonterminal" x="729" y="21">NUMBER</text>
   </a>
   <a xmlns:xlink="http://www.w3.org/1999/xlink"
      xlink:href="#number_list"
      xlink:title="number_list">
      <rect x="813" y="3" width="94" height="32"/>
      <rect x="811" y="1" width="94" height="32" class="nonterminal"/>
      <text class="nonterminal" x="821" y="21">number_list</text>
   </a>
   <rect x="927" y="3" width="24" height="32" rx="10"/>
   <rect x="925"
         y="1"
         width="24"
         height="32"
         class="terminal"
         rx="10"/>
   <text class="terminal" x="935" y="21">;</text>
   <path class="line"
         d="m17 17 h2 m0 0 h10 m110 0 h10 m0 0 h10 m72 0 h10 m0 0 h10 m94 0 h10 m0 0 h10 m24 0 h10 m0 0 h10 m142 0 h10 m0 0 h10 m128 0 h10 m0 0 h10 m72 0 h10 m0 0 h10 m94 0 h10 m0 0 h10 m24 0 h10 m3 0 h-3"/>
   <polygon points="969 17 977 13 977 21"/>
   <polygon points="969 17 961 13 961 21"/>
</svg>
