<?xml version="1.0" encoding="UTF-8"?>
<svg style="background: var(--diagram-bg, #FFFCF0)" xmlns="http://www.w3.org/2000/svg" width="363" height="125"><style>
  :root { --diagram-bg: #FFFCF0; }
</style>
   <defs>
      <style type="text/css">
    @namespace "http://www.w3.org/2000/svg";
    .line                 {fill: none; stroke: #332900; stroke-width: 1;}
    .bold-line            {stroke: #141000; shape-rendering: crispEdges; stroke-width: 2;}
    .thin-line            {stroke: #1F1800; shape-rendering: crispEdges}
    .filled               {fill: #332900; stroke: none;}
    text.terminal         {font-family: Verdana, Sans-serif;
                            font-size: 12px;
                            fill: #141000;
                            font-weight: bold;
                          }
    text.nonterminal      {font-family: Verdana, Sans-serif;
                            font-size: 12px;
                            fill: #1A1400;
                            font-weight: normal;
                          }
    text.regexp           {font-family: Verdana, Sans-serif;
                            font-size: 12px;
                            fill: #1F1800;
                            font-weight: normal;
                          }
    rect, circle, polygon {fill: #332900; stroke: #332900;}
    rect.terminal         {fill: #FFDB4D; stroke: #332900; stroke-width: 1;}
    rect.nonterminal      {fill: #FFEC9E; stroke: #332900; stroke-width: 1;}
    rect.text             {fill: none; stroke: none;}
    polygon.regexp        {fill: #FFF4C7; stroke: #332900; stroke-width: 1;}
  </style>
   </defs>
   <polygon points="9 17 1 13 1 21"/>
   <polygon points="17 17 9 13 9 21"/>
   <a xmlns:xlink="http://www.w3.org/1999/xlink"
      xlink:href="#layer_minstep_type"
      xlink:title="layer_minstep_type">
      <rect x="51" y="3" width="146" height="32"/>
      <rect x="49" y="1" width="146" height="32" class="nonterminal"/>
      <text class="nonterminal" x="59" y="21">layer_minstep_type</text>
   </a>
   <a xmlns:xlink="http://www.w3.org/1999/xlink"
      xlink:href="#K_LENGTHSUM"
      xlink:title="K_LENGTHSUM">
      <rect x="71" y="47" width="112" height="32"/>
      <rect x="69" y="45" width="112" height="32" class="nonterminal"/>
      <text class="nonterminal" x="79" y="65">K_LENGTHSUM</text>
   </a>
   <a xmlns:xlink="http://www.w3.org/1999/xlink"
      xlink:href="#K_MAXEDGES"
      xlink:title="K_MAXEDGES">
      <rect x="71" y="91" width="104" height="32"/>
      <rect x="69" y="89" width="104" height="32" class="nonterminal"/>
      <text class="nonterminal" x="79" y="109">K_MAXEDGES</text>
   </a>
   <a xmlns:xlink="http://www.w3.org/1999/xlink"
      xlink:href="#int_number"
      xlink:title="int_number">
      <rect x="223" y="47" width="92" height="32"/>
      <rect x="221" y="45" width="92" height="32" class="nonterminal"/>
      <text class="nonterminal" x="231" y="65">int_number</text>
   </a>
   <path class="line"
         d="m17 17 h2 m20 0 h10 m146 0 h10 m0 0 h118 m-304 0 h20 m284 0 h20 m-324 0 q10 0 10 10 m304 0 q0 -10 10 -10 m-314 10 v24 m304 0 v-24 m-304 24 q0 10 10 10 m284 0 q10 0 10 -10 m-274 10 h10 m112 0 h10 m-152 0 h20 m132 0 h20 m-172 0 q10 0 10 10 m152 0 q0 -10 10 -10 m-162 10 v24 m152 0 v-24 m-152 24 q0 10 10 10 m132 0 q10 0 10 -10 m-142 10 h10 m104 0 h10 m0 0 h8 m20 -44 h10 m92 0 h10 m23 -44 h-3"/>
   <polygon points="353 17 361 13 361 21"/>
   <polygon points="353 17 345 13 345 21"/>
</svg>
