<?xml version="1.0" encoding="UTF-8"?>
<svg style="background: var(--diagram-bg, #FFFCF0)" xmlns="http://www.w3.org/2000/svg" width="553" height="101"><style>
  :root { --diagram-bg: #FFFCF0; }
</style>
   <defs>
      <style type="text/css">
    @namespace "http://www.w3.org/2000/svg";
    .line                 {fill: none; stroke: #332900; stroke-width: 1;}
    .bold-line            {stroke: #141000; shape-rendering: crispEdges; stroke-width: 2;}
    .thin-line            {stroke: #1F1800; shape-rendering: crispEdges}
    .filled               {fill: #332900; stroke: none;}
    text.terminal         {font-family: Verdana, Sans-serif;
                            font-size: 12px;
                            fill: #141000;
                            font-weight: bold;
                          }
    text.nonterminal      {font-family: Verdana, Sans-serif;
                            font-size: 12px;
                            fill: #1A1400;
                            font-weight: normal;
                          }
    text.regexp           {font-family: Verdana, Sans-serif;
                            font-size: 12px;
                            fill: #1F1800;
                            font-weight: normal;
                          }
    rect, circle, polygon {fill: #332900; stroke: #332900;}
    rect.terminal         {fill: #FFDB4D; stroke: #332900; stroke-width: 1;}
    rect.nonterminal      {fill: #FFEC9E; stroke: #332900; stroke-width: 1;}
    rect.text             {fill: none; stroke: none;}
    polygon.regexp        {fill: #FFF4C7; stroke: #332900; stroke-width: 1;}
  </style>
   </defs>
   <polygon points="9 5 1 1 1 9"/>
   <polygon points="17 5 9 1 9 9"/>
   <a xmlns:xlink="http://www.w3.org/1999/xlink"
      xlink:href="#K_WIDTH"
      xlink:title="K_WIDTH">
      <rect x="51" y="23" width="80" height="32"/>
      <rect x="49" y="21" width="80" height="32" class="nonterminal"/>
      <text class="nonterminal" x="59" y="41">K_WIDTH</text>
   </a>
   <a xmlns:xlink="http://www.w3.org/1999/xlink"
      xlink:href="#int_number"
      xlink:title="int_number">
      <rect x="151" y="23" width="92" height="32"/>
      <rect x="149" y="21" width="92" height="32" class="nonterminal"/>
      <text class="nonterminal" x="159" y="41">int_number</text>
   </a>
   <a xmlns:xlink="http://www.w3.org/1999/xlink"
      xlink:href="#layer_enclosure_width_except_opt"
      xlink:title="layer_enclosure_width_except_opt">
      <rect x="263" y="23" width="242" height="32"/>
      <rect x="261" y="21" width="242" height="32" class="nonterminal"/>
      <text class="nonterminal" x="271" y="41">layer_enclosure_width_except_opt</text>
   </a>
   <a xmlns:xlink="http://www.w3.org/1999/xlink"
      xlink:href="#K_LENGTH"
      xlink:title="K_LENGTH">
      <rect x="51" y="67" width="86" height="32"/>
      <rect x="49" y="65" width="86" height="32" class="nonterminal"/>
      <text class="nonterminal" x="59" y="85">K_LENGTH</text>
   </a>
   <a xmlns:xlink="http://www.w3.org/1999/xlink"
      xlink:href="#int_number"
      xlink:title="int_number">
      <rect x="157" y="67" width="92" height="32"/>
      <rect x="155" y="65" width="92" height="32" class="nonterminal"/>
      <text class="nonterminal" x="165" y="85">int_number</text>
   </a>
   <path class="line"
         d="m17 5 h2 m20 0 h10 m0 0 h464 m-494 0 h20 m474 0 h20 m-514 0 q10 0 10 10 m494 0 q0 -10 10 -10 m-504 10 v12 m494 0 v-12 m-494 12 q0 10 10 10 m474 0 q10 0 10 -10 m-484 10 h10 m80 0 h10 m0 0 h10 m92 0 h10 m0 0 h10 m242 0 h10 m-484 -10 v20 m494 0 v-20 m-494 20 v24 m494 0 v-24 m-494 24 q0 10 10 10 m474 0 q10 0 10 -10 m-484 10 h10 m86 0 h10 m0 0 h10 m92 0 h10 m0 0 h256 m23 -76 h-3"/>
   <polygon points="543 5 551 1 551 9"/>
   <polygon points="543 5 535 1 535 9"/>
</svg>
