<?xml version="1.0" encoding="UTF-8"?>
<svg style="background: var(--diagram-bg, #FFFCF0)" xmlns="http://www.w3.org/2000/svg" width="193" height="125"><style>
  :root { --diagram-bg: #FFFCF0; }
</style>
   <defs>
      <style type="text/css">
    @namespace "http://www.w3.org/2000/svg";
    .line                 {fill: none; stroke: #332900; stroke-width: 1;}
    .bold-line            {stroke: #141000; shape-rendering: crispEdges; stroke-width: 2;}
    .thin-line            {stroke: #1F1800; shape-rendering: crispEdges}
    .filled               {fill: #332900; stroke: none;}
    text.terminal         {font-family: Verdana, Sans-serif;
                            font-size: 12px;
                            fill: #141000;
                            font-weight: bold;
                          }
    text.nonterminal      {font-family: Verdana, Sans-serif;
                            font-size: 12px;
                            fill: #1A1400;
                            font-weight: normal;
                          }
    text.regexp           {font-family: Verdana, Sans-serif;
                            font-size: 12px;
                            fill: #1F1800;
                            font-weight: normal;
                          }
    rect, circle, polygon {fill: #332900; stroke: #332900;}
    rect.terminal         {fill: #FFDB4D; stroke: #332900; stroke-width: 1;}
    rect.nonterminal      {fill: #FFEC9E; stroke: #332900; stroke-width: 1;}
    rect.text             {fill: none; stroke: none;}
    polygon.regexp        {fill: #FFF4C7; stroke: #332900; stroke-width: 1;}
  </style>
   </defs>
   <polygon points="9 17 1 13 1 21"/>
   <polygon points="17 17 9 13 9 21"/>
   <a xmlns:xlink="http://www.w3.org/1999/xlink"
      xlink:href="#K_PEAK"
      xlink:title="K_PEAK">
      <rect x="51" y="3" width="68" height="32"/>
      <rect x="49" y="1" width="68" height="32" class="nonterminal"/>
      <text class="nonterminal" x="59" y="21">K_PEAK</text>
   </a>
   <a xmlns:xlink="http://www.w3.org/1999/xlink"
      xlink:href="#K_AVERAGE"
      xlink:title="K_AVERAGE">
      <rect x="51" y="47" width="94" height="32"/>
      <rect x="49" y="45" width="94" height="32" class="nonterminal"/>
      <text class="nonterminal" x="59" y="65">K_AVERAGE</text>
   </a>
   <a xmlns:xlink="http://www.w3.org/1999/xlink"
      xlink:href="#K_RMS"
      xlink:title="K_RMS">
      <rect x="51" y="91" width="62" height="32"/>
      <rect x="49" y="89" width="62" height="32" class="nonterminal"/>
      <text class="nonterminal" x="59" y="109">K_RMS</text>
   </a>
   <path class="line"
         d="m17 17 h2 m20 0 h10 m68 0 h10 m0 0 h26 m-134 0 h20 m114 0 h20 m-154 0 q10 0 10 10 m134 0 q0 -10 10 -10 m-144 10 v24 m134 0 v-24 m-134 24 q0 10 10 10 m114 0 q10 0 10 -10 m-124 10 h10 m94 0 h10 m-124 -10 v20 m134 0 v-20 m-134 20 v24 m134 0 v-24 m-134 24 q0 10 10 10 m114 0 q10 0 10 -10 m-124 10 h10 m62 0 h10 m0 0 h32 m23 -88 h-3"/>
   <polygon points="183 17 191 13 191 21"/>
   <polygon points="183 17 175 13 175 21"/>
</svg>
