<?xml version="1.0" encoding="UTF-8"?>
<svg style="background: var(--diagram-bg, #FFFCF0)" xmlns="http://www.w3.org/2000/svg" width="507" height="103"><style>
  :root { --diagram-bg: #FFFCF0; }
</style>
   <defs>
      <style type="text/css">
    @namespace "http://www.w3.org/2000/svg";
    .line                 {fill: none; stroke: #332900; stroke-width: 1;}
    .bold-line            {stroke: #141000; shape-rendering: crispEdges; stroke-width: 2;}
    .thin-line            {stroke: #1F1800; shape-rendering: crispEdges}
    .filled               {fill: #332900; stroke: none;}
    text.terminal         {font-family: Verdana, Sans-serif;
                            font-size: 12px;
                            fill: #141000;
                            font-weight: bold;
                          }
    text.nonterminal      {font-family: Verdana, Sans-serif;
                            font-size: 12px;
                            fill: #1A1400;
                            font-weight: normal;
                          }
    text.regexp           {font-family: Verdana, Sans-serif;
                            font-size: 12px;
                            fill: #1F1800;
                            font-weight: normal;
                          }
    rect, circle, polygon {fill: #332900; stroke: #332900;}
    rect.terminal         {fill: #FFDB4D; stroke: #332900; stroke-width: 1;}
    rect.nonterminal      {fill: #FFEC9E; stroke: #332900; stroke-width: 1;}
    rect.text             {fill: none; stroke: none;}
    polygon.regexp        {fill: #FFF4C7; stroke: #332900; stroke-width: 1;}
  </style>
   </defs>
   <polygon points="9 51 1 47 1 55"/>
   <polygon points="17 51 9 47 9 55"/>
   <a xmlns:xlink="http://www.w3.org/1999/xlink"
      xlink:href="#error"
      xlink:title="error">
      <rect x="51" y="69" width="50" height="32"/>
      <rect x="49" y="67" width="50" height="32" class="nonterminal"/>
      <text class="nonterminal" x="59" y="87">error</text>
   </a>
   <a xmlns:xlink="http://www.w3.org/1999/xlink"
      xlink:href="#rule"
      xlink:title="rule">
      <rect x="161" y="3" width="44" height="32"/>
      <rect x="159" y="1" width="44" height="32" class="nonterminal"/>
      <text class="nonterminal" x="169" y="21">rule</text>
   </a>
   <a xmlns:xlink="http://www.w3.org/1999/xlink"
      xlink:href="#extension"
      xlink:title="extension">
      <rect x="265" y="3" width="82" height="32"/>
      <rect x="263" y="1" width="82" height="32" class="nonterminal"/>
      <text class="nonterminal" x="273" y="21">extension</text>
   </a>
   <a xmlns:xlink="http://www.w3.org/1999/xlink"
      xlink:href="#end_library"
      xlink:title="end_library">
      <rect x="387" y="37" width="92" height="32"/>
      <rect x="385" y="35" width="92" height="32" class="nonterminal"/>
      <text class="nonterminal" x="395" y="55">end_library</text>
   </a>
   <path class="line"
         d="m17 51 h2 m20 0 h10 m0 0 h60 m-90 0 h20 m70 0 h20 m-110 0 q10 0 10 10 m90 0 q0 -10 10 -10 m-100 10 v12 m90 0 v-12 m-90 12 q0 10 10 10 m70 0 q10 0 10 -10 m-80 10 h10 m50 0 h10 m40 -32 h10 m0 0 h54 m-84 0 l20 0 m-1 0 q-9 0 -9 -10 l0 -14 q0 -10 10 -10 m64 34 l20 0 m-20 0 q10 0 10 -10 l0 -14 q0 -10 -10 -10 m-64 0 h10 m44 0 h10 m40 34 h10 m0 0 h92 m-122 0 l20 0 m-1 0 q-9 0 -9 -10 l0 -14 q0 -10 10 -10 m102 34 l20 0 m-20 0 q10 0 10 -10 l0 -14 q0 -10 -10 -10 m-102 0 h10 m82 0 h10 m20 34 h10 m92 0 h10 m3 0 h-3"/>
   <polygon points="497 51 505 47 505 55"/>
   <polygon points="497 51 489 47 489 55"/>
</svg>
