<?xml version="1.0" encoding="UTF-8"?>
<svg style="background: var(--diagram-bg, #FFFCF0)" xmlns="http://www.w3.org/2000/svg" width="519" height="939"><style>
  :root { --diagram-bg: #FFFCF0; }
</style>
   <defs>
      <style type="text/css">
    @namespace "http://www.w3.org/2000/svg";
    .line                 {fill: none; stroke: #332900; stroke-width: 1;}
    .bold-line            {stroke: #141000; shape-rendering: crispEdges; stroke-width: 2;}
    .thin-line            {stroke: #1F1800; shape-rendering: crispEdges}
    .filled               {fill: #332900; stroke: none;}
    text.terminal         {font-family: Verdana, Sans-serif;
                            font-size: 12px;
                            fill: #141000;
                            font-weight: bold;
                          }
    text.nonterminal      {font-family: Verdana, Sans-serif;
                            font-size: 12px;
                            fill: #1A1400;
                            font-weight: normal;
                          }
    text.regexp           {font-family: Verdana, Sans-serif;
                            font-size: 12px;
                            fill: #1F1800;
                            font-weight: normal;
                          }
    rect, circle, polygon {fill: #332900; stroke: #332900;}
    rect.terminal         {fill: #FFDB4D; stroke: #332900; stroke-width: 1;}
    rect.nonterminal      {fill: #FFEC9E; stroke: #332900; stroke-width: 1;}
    rect.text             {fill: none; stroke: none;}
    polygon.regexp        {fill: #FFF4C7; stroke: #332900; stroke-width: 1;}
  </style>
   </defs>
   <polygon points="9 17 1 13 1 21"/>
   <polygon points="17 17 9 13 9 21"/>
   <a xmlns:xlink="http://www.w3.org/1999/xlink"
      xlink:href="#macro_class"
      xlink:title="macro_class">
      <rect x="51" y="3" width="98" height="32"/>
      <rect x="49" y="1" width="98" height="32" class="nonterminal"/>
      <text class="nonterminal" x="59" y="21">macro_class</text>
   </a>
   <a xmlns:xlink="http://www.w3.org/1999/xlink"
      xlink:href="#macro_generator"
      xlink:title="macro_generator">
      <rect x="51" y="47" width="130" height="32"/>
      <rect x="49" y="45" width="130" height="32" class="nonterminal"/>
      <text class="nonterminal" x="59" y="65">macro_generator</text>
   </a>
   <a xmlns:xlink="http://www.w3.org/1999/xlink"
      xlink:href="#macro_generate"
      xlink:title="macro_generate">
      <rect x="51" y="91" width="124" height="32"/>
      <rect x="49" y="89" width="124" height="32" class="nonterminal"/>
      <text class="nonterminal" x="59" y="109">macro_generate</text>
   </a>
   <a xmlns:xlink="http://www.w3.org/1999/xlink"
      xlink:href="#macro_source"
      xlink:title="macro_source">
      <rect x="51" y="135" width="108" height="32"/>
      <rect x="49" y="133" width="108" height="32" class="nonterminal"/>
      <text class="nonterminal" x="59" y="153">macro_source</text>
   </a>
   <a xmlns:xlink="http://www.w3.org/1999/xlink"
      xlink:href="#macro_symmetry_statement"
      xlink:title="macro_symmetry_statement">
      <rect x="51" y="179" width="202" height="32"/>
      <rect x="49" y="177" width="202" height="32" class="nonterminal"/>
      <text class="nonterminal" x="59" y="197">macro_symmetry_statement</text>
   </a>
   <a xmlns:xlink="http://www.w3.org/1999/xlink"
      xlink:href="#macro_fixedMask"
      xlink:title="macro_fixedMask">
      <rect x="51" y="223" width="130" height="32"/>
      <rect x="49" y="221" width="130" height="32" class="nonterminal"/>
      <text class="nonterminal" x="59" y="241">macro_fixedMask</text>
   </a>
   <a xmlns:xlink="http://www.w3.org/1999/xlink"
      xlink:href="#macro_origin"
      xlink:title="macro_origin">
      <rect x="51" y="267" width="102" height="32"/>
      <rect x="49" y="265" width="102" height="32" class="nonterminal"/>
      <text class="nonterminal" x="59" y="285">macro_origin</text>
   </a>
   <a xmlns:xlink="http://www.w3.org/1999/xlink"
      xlink:href="#macro_power"
      xlink:title="macro_power">
      <rect x="51" y="311" width="106" height="32"/>
      <rect x="49" y="309" width="106" height="32" class="nonterminal"/>
      <text class="nonterminal" x="59" y="329">macro_power</text>
   </a>
   <a xmlns:xlink="http://www.w3.org/1999/xlink"
      xlink:href="#macro_foreign"
      xlink:title="macro_foreign">
      <rect x="51" y="355" width="112" height="32"/>
      <rect x="49" y="353" width="112" height="32" class="nonterminal"/>
      <text class="nonterminal" x="59" y="373">macro_foreign</text>
   </a>
   <a xmlns:xlink="http://www.w3.org/1999/xlink"
      xlink:href="#macro_eeq"
      xlink:title="macro_eeq">
      <rect x="51" y="399" width="90" height="32"/>
      <rect x="49" y="397" width="90" height="32" class="nonterminal"/>
      <text class="nonterminal" x="59" y="417">macro_eeq</text>
   </a>
   <a xmlns:xlink="http://www.w3.org/1999/xlink"
      xlink:href="#macro_leq"
      xlink:title="macro_leq">
      <rect x="51" y="443" width="86" height="32"/>
      <rect x="49" y="441" width="86" height="32" class="nonterminal"/>
      <text class="nonterminal" x="59" y="461">macro_leq</text>
   </a>
   <a xmlns:xlink="http://www.w3.org/1999/xlink"
      xlink:href="#macro_size"
      xlink:title="macro_size">
      <rect x="51" y="487" width="92" height="32"/>
      <rect x="49" y="485" width="92" height="32" class="nonterminal"/>
      <text class="nonterminal" x="59" y="505">macro_size</text>
   </a>
   <a xmlns:xlink="http://www.w3.org/1999/xlink"
      xlink:href="#macro_site"
      xlink:title="macro_site">
      <rect x="51" y="531" width="90" height="32"/>
      <rect x="49" y="529" width="90" height="32" class="nonterminal"/>
      <text class="nonterminal" x="59" y="549">macro_site</text>
   </a>
   <a xmlns:xlink="http://www.w3.org/1999/xlink"
      xlink:href="#macro_pin"
      xlink:title="macro_pin">
      <rect x="51" y="575" width="86" height="32"/>
      <rect x="49" y="573" width="86" height="32" class="nonterminal"/>
      <text class="nonterminal" x="59" y="593">macro_pin</text>
   </a>
   <a xmlns:xlink="http://www.w3.org/1999/xlink"
      xlink:href="#K_FUNCTION"
      xlink:title="K_FUNCTION">
      <rect x="71" y="619" width="100" height="32"/>
      <rect x="69" y="617" width="100" height="32" class="nonterminal"/>
      <text class="nonterminal" x="79" y="637">K_FUNCTION</text>
   </a>
   <a xmlns:xlink="http://www.w3.org/1999/xlink"
      xlink:href="#K_BUFFER"
      xlink:title="K_BUFFER">
      <rect x="211" y="619" width="84" height="32"/>
      <rect x="209" y="617" width="84" height="32" class="nonterminal"/>
      <text class="nonterminal" x="219" y="637">K_BUFFER</text>
   </a>
   <a xmlns:xlink="http://www.w3.org/1999/xlink"
      xlink:href="#K_INVERTER"
      xlink:title="K_INVERTER">
      <rect x="211" y="663" width="98" height="32"/>
      <rect x="209" y="661" width="98" height="32" class="nonterminal"/>
      <text class="nonterminal" x="219" y="681">K_INVERTER</text>
   </a>
   <a xmlns:xlink="http://www.w3.org/1999/xlink"
      xlink:href="#K_PROPERTY"
      xlink:title="K_PROPERTY">
      <rect x="71" y="729" width="100" height="32"/>
      <rect x="69" y="727" width="100" height="32" class="nonterminal"/>
      <text class="nonterminal" x="79" y="747">K_PROPERTY</text>
   </a>
   <a xmlns:xlink="http://www.w3.org/1999/xlink"
      xlink:href="#macro_name_value_pair"
      xlink:title="macro_name_value_pair">
      <rect x="211" y="729" width="176" height="32"/>
      <rect x="209" y="727" width="176" height="32" class="nonterminal"/>
      <text class="nonterminal" x="219" y="747">macro_name_value_pair</text>
   </a>
   <rect x="447" y="619" width="24" height="32" rx="10"/>
   <rect x="445"
         y="617"
         width="24"
         height="32"
         class="terminal"
         rx="10"/>
   <text class="terminal" x="455" y="637">;</text>
   <a xmlns:xlink="http://www.w3.org/1999/xlink"
      xlink:href="#macro_obs"
      xlink:title="macro_obs">
      <rect x="51" y="773" width="90" height="32"/>
      <rect x="49" y="771" width="90" height="32" class="nonterminal"/>
      <text class="nonterminal" x="59" y="791">macro_obs</text>
   </a>
   <a xmlns:xlink="http://www.w3.org/1999/xlink"
      xlink:href="#macro_density"
      xlink:title="macro_density">
      <rect x="51" y="817" width="112" height="32"/>
      <rect x="49" y="815" width="112" height="32" class="nonterminal"/>
      <text class="nonterminal" x="59" y="835">macro_density</text>
   </a>
   <a xmlns:xlink="http://www.w3.org/1999/xlink"
      xlink:href="#macro_clocktype"
      xlink:title="macro_clocktype">
      <rect x="51" y="861" width="126" height="32"/>
      <rect x="49" y="859" width="126" height="32" class="nonterminal"/>
      <text class="nonterminal" x="59" y="879">macro_clocktype</text>
   </a>
   <a xmlns:xlink="http://www.w3.org/1999/xlink"
      xlink:href="#timing"
      xlink:title="timing">
      <rect x="51" y="905" width="58" height="32"/>
      <rect x="49" y="903" width="58" height="32" class="nonterminal"/>
      <text class="nonterminal" x="59" y="923">timing</text>
   </a>
   <path class="line"
         d="m17 17 h2 m20 0 h10 m98 0 h10 m0 0 h322 m-460 0 h20 m440 0 h20 m-480 0 q10 0 10 10 m460 0 q0 -10 10 -10 m-470 10 v24 m460 0 v-24 m-460 24 q0 10 10 10 m440 0 q10 0 10 -10 m-450 10 h10 m130 0 h10 m0 0 h290 m-450 -10 v20 m460 0 v-20 m-460 20 v24 m460 0 v-24 m-460 24 q0 10 10 10 m440 0 q10 0 10 -10 m-450 10 h10 m124 0 h10 m0 0 h296 m-450 -10 v20 m460 0 v-20 m-460 20 v24 m460 0 v-24 m-460 24 q0 10 10 10 m440 0 q10 0 10 -10 m-450 10 h10 m108 0 h10 m0 0 h312 m-450 -10 v20 m460 0 v-20 m-460 20 v24 m460 0 v-24 m-460 24 q0 10 10 10 m440 0 q10 0 10 -10 m-450 10 h10 m202 0 h10 m0 0 h218 m-450 -10 v20 m460 0 v-20 m-460 20 v24 m460 0 v-24 m-460 24 q0 10 10 10 m440 0 q10 0 10 -10 m-450 10 h10 m130 0 h10 m0 0 h290 m-450 -10 v20 m460 0 v-20 m-460 20 v24 m460 0 v-24 m-460 24 q0 10 10 10 m440 0 q10 0 10 -10 m-450 10 h10 m102 0 h10 m0 0 h318 m-450 -10 v20 m460 0 v-20 m-460 20 v24 m460 0 v-24 m-460 24 q0 10 10 10 m440 0 q10 0 10 -10 m-450 10 h10 m106 0 h10 m0 0 h314 m-450 -10 v20 m460 0 v-20 m-460 20 v24 m460 0 v-24 m-460 24 q0 10 10 10 m440 0 q10 0 10 -10 m-450 10 h10 m112 0 h10 m0 0 h308 m-450 -10 v20 m460 0 v-20 m-460 20 v24 m460 0 v-24 m-460 24 q0 10 10 10 m440 0 q10 0 10 -10 m-450 10 h10 m90 0 h10 m0 0 h330 m-450 -10 v20 m460 0 v-20 m-460 20 v24 m460 0 v-24 m-460 24 q0 10 10 10 m440 0 q10 0 10 -10 m-450 10 h10 m86 0 h10 m0 0 h334 m-450 -10 v20 m460 0 v-20 m-460 20 v24 m460 0 v-24 m-460 24 q0 10 10 10 m440 0 q10 0 10 -10 m-450 10 h10 m92 0 h10 m0 0 h328 m-450 -10 v20 m460 0 v-20 m-460 20 v24 m460 0 v-24 m-460 24 q0 10 10 10 m440 0 q10 0 10 -10 m-450 10 h10 m90 0 h10 m0 0 h330 m-450 -10 v20 m460 0 v-20 m-460 20 v24 m460 0 v-24 m-460 24 q0 10 10 10 m440 0 q10 0 10 -10 m-450 10 h10 m86 0 h10 m0 0 h334 m-450 -10 v20 m460 0 v-20 m-460 20 v24 m460 0 v-24 m-460 24 q0 10 10 10 m440 0 q10 0 10 -10 m-430 10 h10 m100 0 h10 m20 0 h10 m84 0 h10 m0 0 h14 m-138 0 h20 m118 0 h20 m-158 0 q10 0 10 10 m138 0 q0 -10 10 -10 m-148 10 v24 m138 0 v-24 m-138 24 q0 10 10 10 m118 0 q10 0 10 -10 m-128 10 h10 m98 0 h10 m20 -44 h78 m-376 0 h20 m356 0 h20 m-396 0 q10 0 10 10 m376 0 q0 -10 10 -10 m-386 10 v90 m376 0 v-90 m-376 90 q0 10 10 10 m356 0 q10 0 10 -10 m-366 10 h10 m100 0 h10 m20 0 h10 m176 0 h10 m-216 0 l20 0 m-1 0 q-9 0 -9 -10 l0 -12 q0 -10 10 -10 m196 32 l20 0 m-20 0 q10 0 10 -10 l0 -12 q0 -10 -10 -10 m-196 0 h10 m0 0 h186 m40 -78 h10 m24 0 h10 m-450 -10 v20 m460 0 v-20 m-460 20 v134 m460 0 v-134 m-460 134 q0 10 10 10 m440 0 q10 0 10 -10 m-450 10 h10 m90 0 h10 m0 0 h330 m-450 -10 v20 m460 0 v-20 m-460 20 v24 m460 0 v-24 m-460 24 q0 10 10 10 m440 0 q10 0 10 -10 m-450 10 h10 m112 0 h10 m0 0 h308 m-450 -10 v20 m460 0 v-20 m-460 20 v24 m460 0 v-24 m-460 24 q0 10 10 10 m440 0 q10 0 10 -10 m-450 10 h10 m126 0 h10 m0 0 h294 m-450 -10 v20 m460 0 v-20 m-460 20 v24 m460 0 v-24 m-460 24 q0 10 10 10 m440 0 q10 0 10 -10 m-450 10 h10 m58 0 h10 m0 0 h362 m23 -902 h-3"/>
   <polygon points="509 17 517 13 517 21"/>
   <polygon points="509 17 501 13 501 21"/>
</svg>
