<?xml version="1.0" encoding="UTF-8"?>
<svg style="background: var(--diagram-bg, #FFFCF0)" xmlns="http://www.w3.org/2000/svg" width="465" height="37"><style>
  :root { --diagram-bg: #FFFCF0; }
</style>
   <defs>
      <style type="text/css">
    @namespace "http://www.w3.org/2000/svg";
    .line                 {fill: none; stroke: #332900; stroke-width: 1;}
    .bold-line            {stroke: #141000; shape-rendering: crispEdges; stroke-width: 2;}
    .thin-line            {stroke: #1F1800; shape-rendering: crispEdges}
    .filled               {fill: #332900; stroke: none;}
    text.terminal         {font-family: Verdana, Sans-serif;
                            font-size: 12px;
                            fill: #141000;
                            font-weight: bold;
                          }
    text.nonterminal      {font-family: Verdana, Sans-serif;
                            font-size: 12px;
                            fill: #1A1400;
                            font-weight: normal;
                          }
    text.regexp           {font-family: Verdana, Sans-serif;
                            font-size: 12px;
                            fill: #1F1800;
                            font-weight: normal;
                          }
    rect, circle, polygon {fill: #332900; stroke: #332900;}
    rect.terminal         {fill: #FFDB4D; stroke: #332900; stroke-width: 1;}
    rect.nonterminal      {fill: #FFEC9E; stroke: #332900; stroke-width: 1;}
    rect.text             {fill: none; stroke: none;}
    polygon.regexp        {fill: #FFF4C7; stroke: #332900; stroke-width: 1;}
  </style>
   </defs>
   <polygon points="9 17 1 13 1 21"/>
   <polygon points="17 17 9 13 9 21"/>
   <a xmlns:xlink="http://www.w3.org/1999/xlink"
      xlink:href="#K_SIZE"
      xlink:title="K_SIZE">
      <rect x="31" y="3" width="66" height="32"/>
      <rect x="29" y="1" width="66" height="32" class="nonterminal"/>
      <text class="nonterminal" x="39" y="21">K_SIZE</text>
   </a>
   <a xmlns:xlink="http://www.w3.org/1999/xlink"
      xlink:href="#int_number"
      xlink:title="int_number">
      <rect x="117" y="3" width="92" height="32"/>
      <rect x="115" y="1" width="92" height="32" class="nonterminal"/>
      <text class="nonterminal" x="125" y="21">int_number</text>
   </a>
   <a xmlns:xlink="http://www.w3.org/1999/xlink"
      xlink:href="#K_BY"
      xlink:title="K_BY">
      <rect x="229" y="3" width="52" height="32"/>
      <rect x="227" y="1" width="52" height="32" class="nonterminal"/>
      <text class="nonterminal" x="237" y="21">K_BY</text>
   </a>
   <a xmlns:xlink="http://www.w3.org/1999/xlink"
      xlink:href="#int_number"
      xlink:title="int_number">
      <rect x="301" y="3" width="92" height="32"/>
      <rect x="299" y="1" width="92" height="32" class="nonterminal"/>
      <text class="nonterminal" x="309" y="21">int_number</text>
   </a>
   <rect x="413" y="3" width="24" height="32" rx="10"/>
   <rect x="411"
         y="1"
         width="24"
         height="32"
         class="terminal"
         rx="10"/>
   <text class="terminal" x="421" y="21">;</text>
   <path class="line"
         d="m17 17 h2 m0 0 h10 m66 0 h10 m0 0 h10 m92 0 h10 m0 0 h10 m52 0 h10 m0 0 h10 m92 0 h10 m0 0 h10 m24 0 h10 m3 0 h-3"/>
   <polygon points="455 17 463 13 463 21"/>
   <polygon points="455 17 447 13 447 21"/>
</svg>
