<?xml version="1.0" encoding="UTF-8"?>
<svg style="background: var(--diagram-bg, #FFFCF0)" xmlns="http://www.w3.org/2000/svg" width="353" height="125"><style>
  :root { --diagram-bg: #FFFCF0; }
</style>
   <defs>
      <style type="text/css">
    @namespace "http://www.w3.org/2000/svg";
    .line                 {fill: none; stroke: #332900; stroke-width: 1;}
    .bold-line            {stroke: #141000; shape-rendering: crispEdges; stroke-width: 2;}
    .thin-line            {stroke: #1F1800; shape-rendering: crispEdges}
    .filled               {fill: #332900; stroke: none;}
    text.terminal         {font-family: Verdana, Sans-serif;
                            font-size: 12px;
                            fill: #141000;
                            font-weight: bold;
                          }
    text.nonterminal      {font-family: Verdana, Sans-serif;
                            font-size: 12px;
                            fill: #1A1400;
                            font-weight: normal;
                          }
    text.regexp           {font-family: Verdana, Sans-serif;
                            font-size: 12px;
                            fill: #1F1800;
                            font-weight: normal;
                          }
    rect, circle, polygon {fill: #332900; stroke: #332900;}
    rect.terminal         {fill: #FFDB4D; stroke: #332900; stroke-width: 1;}
    rect.nonterminal      {fill: #FFEC9E; stroke: #332900; stroke-width: 1;}
    rect.text             {fill: none; stroke: none;}
    polygon.regexp        {fill: #FFF4C7; stroke: #332900; stroke-width: 1;}
  </style>
   </defs>
   <polygon points="9 17 1 13 1 21"/>
   <polygon points="17 17 9 13 9 21"/>
   <a xmlns:xlink="http://www.w3.org/1999/xlink"
      xlink:href="#K_SOURCE"
      xlink:title="K_SOURCE">
      <rect x="31" y="3" width="88" height="32"/>
      <rect x="29" y="1" width="88" height="32" class="nonterminal"/>
      <text class="nonterminal" x="39" y="21">K_SOURCE</text>
   </a>
   <a xmlns:xlink="http://www.w3.org/1999/xlink"
      xlink:href="#K_USER"
      xlink:title="K_USER">
      <rect x="159" y="3" width="70" height="32"/>
      <rect x="157" y="1" width="70" height="32" class="nonterminal"/>
      <text class="nonterminal" x="167" y="21">K_USER</text>
   </a>
   <a xmlns:xlink="http://www.w3.org/1999/xlink"
      xlink:href="#K_GENERATE"
      xlink:title="K_GENERATE">
      <rect x="159" y="47" width="102" height="32"/>
      <rect x="157" y="45" width="102" height="32" class="nonterminal"/>
      <text class="nonterminal" x="167" y="65">K_GENERATE</text>
   </a>
   <a xmlns:xlink="http://www.w3.org/1999/xlink"
      xlink:href="#K_BLOCK"
      xlink:title="K_BLOCK">
      <rect x="159" y="91" width="78" height="32"/>
      <rect x="157" y="89" width="78" height="32" class="nonterminal"/>
      <text class="nonterminal" x="167" y="109">K_BLOCK</text>
   </a>
   <rect x="301" y="3" width="24" height="32" rx="10"/>
   <rect x="299"
         y="1"
         width="24"
         height="32"
         class="terminal"
         rx="10"/>
   <text class="terminal" x="309" y="21">;</text>
   <path class="line"
         d="m17 17 h2 m0 0 h10 m88 0 h10 m20 0 h10 m70 0 h10 m0 0 h32 m-142 0 h20 m122 0 h20 m-162 0 q10 0 10 10 m142 0 q0 -10 10 -10 m-152 10 v24 m142 0 v-24 m-142 24 q0 10 10 10 m122 0 q10 0 10 -10 m-132 10 h10 m102 0 h10 m-132 -10 v20 m142 0 v-20 m-142 20 v24 m142 0 v-24 m-142 24 q0 10 10 10 m122 0 q10 0 10 -10 m-132 10 h10 m78 0 h10 m0 0 h24 m20 -88 h10 m24 0 h10 m3 0 h-3"/>
   <polygon points="343 17 351 13 351 21"/>
   <polygon points="343 17 335 13 335 21"/>
</svg>
