<?xml version="1.0" encoding="UTF-8"?>
<svg style="background: var(--diagram-bg, #FFFCF0)" xmlns="http://www.w3.org/2000/svg" width="327" height="57"><style>
  :root { --diagram-bg: #FFFCF0; }
</style>
   <defs>
      <style type="text/css">
    @namespace "http://www.w3.org/2000/svg";
    .line                 {fill: none; stroke: #332900; stroke-width: 1;}
    .bold-line            {stroke: #141000; shape-rendering: crispEdges; stroke-width: 2;}
    .thin-line            {stroke: #1F1800; shape-rendering: crispEdges}
    .filled               {fill: #332900; stroke: none;}
    text.terminal         {font-family: Verdana, Sans-serif;
                            font-size: 12px;
                            fill: #141000;
                            font-weight: bold;
                          }
    text.nonterminal      {font-family: Verdana, Sans-serif;
                            font-size: 12px;
                            fill: #1A1400;
                            font-weight: normal;
                          }
    text.regexp           {font-family: Verdana, Sans-serif;
                            font-size: 12px;
                            fill: #1F1800;
                            font-weight: normal;
                          }
    rect, circle, polygon {fill: #332900; stroke: #332900;}
    rect.terminal         {fill: #FFDB4D; stroke: #332900; stroke-width: 1;}
    rect.nonterminal      {fill: #FFEC9E; stroke: #332900; stroke-width: 1;}
    rect.text             {fill: none; stroke: none;}
    polygon.regexp        {fill: #FFF4C7; stroke: #332900; stroke-width: 1;}
  </style>
   </defs>
   <polygon points="9 5 1 1 1 9"/>
   <polygon points="17 5 9 1 9 9"/>
   <a xmlns:xlink="http://www.w3.org/1999/xlink"
      xlink:href="#K_CLASS"
      xlink:title="K_CLASS">
      <rect x="51" y="23" width="76" height="32"/>
      <rect x="49" y="21" width="76" height="32" class="nonterminal"/>
      <text class="nonterminal" x="59" y="41">K_CLASS</text>
   </a>
   <a xmlns:xlink="http://www.w3.org/1999/xlink"
      xlink:href="#class_type"
      xlink:title="class_type">
      <rect x="147" y="23" width="88" height="32"/>
      <rect x="145" y="21" width="88" height="32" class="nonterminal"/>
      <text class="nonterminal" x="155" y="41">class_type</text>
   </a>
   <rect x="255" y="23" width="24" height="32" rx="10"/>
   <rect x="253"
         y="21"
         width="24"
         height="32"
         class="terminal"
         rx="10"/>
   <text class="terminal" x="263" y="41">;</text>
   <path class="line"
         d="m17 5 h2 m20 0 h10 m0 0 h238 m-268 0 h20 m248 0 h20 m-288 0 q10 0 10 10 m268 0 q0 -10 10 -10 m-278 10 v12 m268 0 v-12 m-268 12 q0 10 10 10 m248 0 q10 0 10 -10 m-258 10 h10 m76 0 h10 m0 0 h10 m88 0 h10 m0 0 h10 m24 0 h10 m23 -32 h-3"/>
   <polygon points="317 5 325 1 325 9"/>
   <polygon points="317 5 309 1 309 9"/>
</svg>
