<?xml version="1.0" encoding="UTF-8"?>
<svg style="background: var(--diagram-bg, #FFFCF0)" xmlns="http://www.w3.org/2000/svg" width="381" height="81"><style>
  :root { --diagram-bg: #FFFCF0; }
</style>
   <defs>
      <style type="text/css">
    @namespace "http://www.w3.org/2000/svg";
    .line                 {fill: none; stroke: #332900; stroke-width: 1;}
    .bold-line            {stroke: #141000; shape-rendering: crispEdges; stroke-width: 2;}
    .thin-line            {stroke: #1F1800; shape-rendering: crispEdges}
    .filled               {fill: #332900; stroke: none;}
    text.terminal         {font-family: Verdana, Sans-serif;
                            font-size: 12px;
                            fill: #141000;
                            font-weight: bold;
                          }
    text.nonterminal      {font-family: Verdana, Sans-serif;
                            font-size: 12px;
                            fill: #1A1400;
                            font-weight: normal;
                          }
    text.regexp           {font-family: Verdana, Sans-serif;
                            font-size: 12px;
                            fill: #1F1800;
                            font-weight: normal;
                          }
    rect, circle, polygon {fill: #332900; stroke: #332900;}
    rect.terminal         {fill: #FFDB4D; stroke: #332900; stroke-width: 1;}
    rect.nonterminal      {fill: #FFEC9E; stroke: #332900; stroke-width: 1;}
    rect.text             {fill: none; stroke: none;}
    polygon.regexp        {fill: #FFF4C7; stroke: #332900; stroke-width: 1;}
  </style>
   </defs>
   <polygon points="9 17 1 13 1 21"/>
   <polygon points="17 17 9 13 9 21"/>
   <a xmlns:xlink="http://www.w3.org/1999/xlink"
      xlink:href="#macro_site_word"
      xlink:title="macro_site_word">
      <rect x="31" y="3" width="128" height="32"/>
      <rect x="29" y="1" width="128" height="32" class="nonterminal"/>
      <text class="nonterminal" x="39" y="21">macro_site_word</text>
   </a>
   <a xmlns:xlink="http://www.w3.org/1999/xlink"
      xlink:href="#T_STRING"
      xlink:title="T_STRING">
      <rect x="199" y="3" width="82" height="32"/>
      <rect x="197" y="1" width="82" height="32" class="nonterminal"/>
      <text class="nonterminal" x="207" y="21">T_STRING</text>
   </a>
   <a xmlns:xlink="http://www.w3.org/1999/xlink"
      xlink:href="#sitePattern"
      xlink:title="sitePattern">
      <rect x="199" y="47" width="90" height="32"/>
      <rect x="197" y="45" width="90" height="32" class="nonterminal"/>
      <text class="nonterminal" x="207" y="65">sitePattern</text>
   </a>
   <rect x="329" y="3" width="24" height="32" rx="10"/>
   <rect x="327"
         y="1"
         width="24"
         height="32"
         class="terminal"
         rx="10"/>
   <text class="terminal" x="337" y="21">;</text>
   <path class="line"
         d="m17 17 h2 m0 0 h10 m128 0 h10 m20 0 h10 m82 0 h10 m0 0 h8 m-130 0 h20 m110 0 h20 m-150 0 q10 0 10 10 m130 0 q0 -10 10 -10 m-140 10 v24 m130 0 v-24 m-130 24 q0 10 10 10 m110 0 q10 0 10 -10 m-120 10 h10 m90 0 h10 m20 -44 h10 m24 0 h10 m3 0 h-3"/>
   <polygon points="371 17 379 13 379 21"/>
   <polygon points="371 17 363 13 363 21"/>
</svg>
