<?xml version="1.0" encoding="UTF-8"?>
<svg style="background: var(--diagram-bg, #FFFCF0)" xmlns="http://www.w3.org/2000/svg" width="847" height="71"><style>
  :root { --diagram-bg: #FFFCF0; }
</style>
   <defs>
      <style type="text/css">
    @namespace "http://www.w3.org/2000/svg";
    .line                 {fill: none; stroke: #332900; stroke-width: 1;}
    .bold-line            {stroke: #141000; shape-rendering: crispEdges; stroke-width: 2;}
    .thin-line            {stroke: #1F1800; shape-rendering: crispEdges}
    .filled               {fill: #332900; stroke: none;}
    text.terminal         {font-family: Verdana, Sans-serif;
                            font-size: 12px;
                            fill: #141000;
                            font-weight: bold;
                          }
    text.nonterminal      {font-family: Verdana, Sans-serif;
                            font-size: 12px;
                            fill: #1A1400;
                            font-weight: normal;
                          }
    text.regexp           {font-family: Verdana, Sans-serif;
                            font-size: 12px;
                            fill: #1F1800;
                            font-weight: normal;
                          }
    rect, circle, polygon {fill: #332900; stroke: #332900;}
    rect.terminal         {fill: #FFDB4D; stroke: #332900; stroke-width: 1;}
    rect.nonterminal      {fill: #FFEC9E; stroke: #332900; stroke-width: 1;}
    rect.text             {fill: none; stroke: none;}
    polygon.regexp        {fill: #FFF4C7; stroke: #332900; stroke-width: 1;}
  </style>
   </defs>
   <polygon points="9 51 1 47 1 55"/>
   <polygon points="17 51 9 47 9 55"/>
   <a xmlns:xlink="http://www.w3.org/1999/xlink"
      xlink:href="#K_LAYER"
      xlink:title="K_LAYER">
      <rect x="31" y="37" width="74" height="32"/>
      <rect x="29" y="35" width="74" height="32" class="nonterminal"/>
      <text class="nonterminal" x="39" y="55">K_LAYER</text>
   </a>
   <a xmlns:xlink="http://www.w3.org/1999/xlink"
      xlink:href="#T_STRING"
      xlink:title="T_STRING">
      <rect x="125" y="37" width="82" height="32"/>
      <rect x="123" y="35" width="82" height="32" class="nonterminal"/>
      <text class="nonterminal" x="133" y="55">T_STRING</text>
   </a>
   <a xmlns:xlink="http://www.w3.org/1999/xlink"
      xlink:href="#K_WIDTH"
      xlink:title="K_WIDTH">
      <rect x="227" y="37" width="80" height="32"/>
      <rect x="225" y="35" width="80" height="32" class="nonterminal"/>
      <text class="nonterminal" x="235" y="55">K_WIDTH</text>
   </a>
   <a xmlns:xlink="http://www.w3.org/1999/xlink"
      xlink:href="#int_number"
      xlink:title="int_number">
      <rect x="327" y="37" width="92" height="32"/>
      <rect x="325" y="35" width="92" height="32" class="nonterminal"/>
      <text class="nonterminal" x="335" y="55">int_number</text>
   </a>
   <rect x="439" y="37" width="24" height="32" rx="10"/>
   <rect x="437"
         y="35"
         width="24"
         height="32"
         class="terminal"
         rx="10"/>
   <text class="terminal" x="447" y="55">;</text>
   <a xmlns:xlink="http://www.w3.org/1999/xlink"
      xlink:href="#nd_layer_stmt"
      xlink:title="nd_layer_stmt">
      <rect x="503" y="3" width="112" height="32"/>
      <rect x="501" y="1" width="112" height="32" class="nonterminal"/>
      <text class="nonterminal" x="511" y="21">nd_layer_stmt</text>
   </a>
   <a xmlns:xlink="http://www.w3.org/1999/xlink"
      xlink:href="#K_END"
      xlink:title="K_END">
      <rect x="655" y="37" width="62" height="32"/>
      <rect x="653" y="35" width="62" height="32" class="nonterminal"/>
      <text class="nonterminal" x="663" y="55">K_END</text>
   </a>
   <a xmlns:xlink="http://www.w3.org/1999/xlink"
      xlink:href="#T_STRING"
      xlink:title="T_STRING">
      <rect x="737" y="37" width="82" height="32"/>
      <rect x="735" y="35" width="82" height="32" class="nonterminal"/>
      <text class="nonterminal" x="745" y="55">T_STRING</text>
   </a>
   <path class="line"
         d="m17 51 h2 m0 0 h10 m74 0 h10 m0 0 h10 m82 0 h10 m0 0 h10 m80 0 h10 m0 0 h10 m92 0 h10 m0 0 h10 m24 0 h10 m20 0 h10 m0 0 h122 m-152 0 l20 0 m-1 0 q-9 0 -9 -10 l0 -14 q0 -10 10 -10 m132 34 l20 0 m-20 0 q10 0 10 -10 l0 -14 q0 -10 -10 -10 m-132 0 h10 m112 0 h10 m20 34 h10 m62 0 h10 m0 0 h10 m82 0 h10 m3 0 h-3"/>
   <polygon points="837 51 845 47 845 55"/>
   <polygon points="837 51 829 47 829 55"/>
</svg>
