<?xml version="1.0" encoding="UTF-8"?>
<svg style="background: var(--diagram-bg, #FFFCF0)" xmlns="http://www.w3.org/2000/svg" width="757" height="57"><style>
  :root { --diagram-bg: #FFFCF0; }
</style>
   <defs>
      <style type="text/css">
    @namespace "http://www.w3.org/2000/svg";
    .line                 {fill: none; stroke: #332900; stroke-width: 1;}
    .bold-line            {stroke: #141000; shape-rendering: crispEdges; stroke-width: 2;}
    .thin-line            {stroke: #1F1800; shape-rendering: crispEdges}
    .filled               {fill: #332900; stroke: none;}
    text.terminal         {font-family: Verdana, Sans-serif;
                            font-size: 12px;
                            fill: #141000;
                            font-weight: bold;
                          }
    text.nonterminal      {font-family: Verdana, Sans-serif;
                            font-size: 12px;
                            fill: #1A1400;
                            font-weight: normal;
                          }
    text.regexp           {font-family: Verdana, Sans-serif;
                            font-size: 12px;
                            fill: #1F1800;
                            font-weight: normal;
                          }
    rect, circle, polygon {fill: #332900; stroke: #332900;}
    rect.terminal         {fill: #FFDB4D; stroke: #332900; stroke-width: 1;}
    rect.nonterminal      {fill: #FFEC9E; stroke: #332900; stroke-width: 1;}
    rect.text             {fill: none; stroke: none;}
    polygon.regexp        {fill: #FFF4C7; stroke: #332900; stroke-width: 1;}
  </style>
   </defs>
   <polygon points="9 5 1 1 1 9"/>
   <polygon points="17 5 9 1 9 9"/>
   <a xmlns:xlink="http://www.w3.org/1999/xlink"
      xlink:href="#K_PARALLELEDGE"
      xlink:title="K_PARALLELEDGE">
      <rect x="51" y="23" width="132" height="32"/>
      <rect x="49" y="21" width="132" height="32" class="nonterminal"/>
      <text class="nonterminal" x="59" y="41">K_PARALLELEDGE</text>
   </a>
   <a xmlns:xlink="http://www.w3.org/1999/xlink"
      xlink:href="#int_number"
      xlink:title="int_number">
      <rect x="203" y="23" width="92" height="32"/>
      <rect x="201" y="21" width="92" height="32" class="nonterminal"/>
      <text class="nonterminal" x="211" y="41">int_number</text>
   </a>
   <a xmlns:xlink="http://www.w3.org/1999/xlink"
      xlink:href="#K_WITHIN"
      xlink:title="K_WITHIN">
      <rect x="315" y="23" width="84" height="32"/>
      <rect x="313" y="21" width="84" height="32" class="nonterminal"/>
      <text class="nonterminal" x="323" y="41">K_WITHIN</text>
   </a>
   <a xmlns:xlink="http://www.w3.org/1999/xlink"
      xlink:href="#int_number"
      xlink:title="int_number">
      <rect x="419" y="23" width="92" height="32"/>
      <rect x="417" y="21" width="92" height="32" class="nonterminal"/>
      <text class="nonterminal" x="427" y="41">int_number</text>
   </a>
   <a xmlns:xlink="http://www.w3.org/1999/xlink"
      xlink:href="#opt_endofline_twoedges"
      xlink:title="opt_endofline_twoedges">
      <rect x="531" y="23" width="178" height="32"/>
      <rect x="529" y="21" width="178" height="32" class="nonterminal"/>
      <text class="nonterminal" x="539" y="41">opt_endofline_twoedges</text>
   </a>
   <path class="line"
         d="m17 5 h2 m20 0 h10 m0 0 h668 m-698 0 h20 m678 0 h20 m-718 0 q10 0 10 10 m698 0 q0 -10 10 -10 m-708 10 v12 m698 0 v-12 m-698 12 q0 10 10 10 m678 0 q10 0 10 -10 m-688 10 h10 m132 0 h10 m0 0 h10 m92 0 h10 m0 0 h10 m84 0 h10 m0 0 h10 m92 0 h10 m0 0 h10 m178 0 h10 m23 -32 h-3"/>
   <polygon points="747 5 755 1 755 9"/>
   <polygon points="747 5 739 1 739 9"/>
</svg>
