<?xml version="1.0" encoding="UTF-8"?>
<svg style="background: var(--diagram-bg, #FFFCF0)" xmlns="http://www.w3.org/2000/svg" width="401" height="57"><style>
  :root { --diagram-bg: #FFFCF0; }
</style>
   <defs>
      <style type="text/css">
    @namespace "http://www.w3.org/2000/svg";
    .line                 {fill: none; stroke: #332900; stroke-width: 1;}
    .bold-line            {stroke: #141000; shape-rendering: crispEdges; stroke-width: 2;}
    .thin-line            {stroke: #1F1800; shape-rendering: crispEdges}
    .filled               {fill: #332900; stroke: none;}
    text.terminal         {font-family: Verdana, Sans-serif;
                            font-size: 12px;
                            fill: #141000;
                            font-weight: bold;
                          }
    text.nonterminal      {font-family: Verdana, Sans-serif;
                            font-size: 12px;
                            fill: #1A1400;
                            font-weight: normal;
                          }
    text.regexp           {font-family: Verdana, Sans-serif;
                            font-size: 12px;
                            fill: #1F1800;
                            font-weight: normal;
                          }
    rect, circle, polygon {fill: #332900; stroke: #332900;}
    rect.terminal         {fill: #FFDB4D; stroke: #332900; stroke-width: 1;}
    rect.nonterminal      {fill: #FFEC9E; stroke: #332900; stroke-width: 1;}
    rect.text             {fill: none; stroke: none;}
    polygon.regexp        {fill: #FFF4C7; stroke: #332900; stroke-width: 1;}
  </style>
   </defs>
   <polygon points="9 5 1 1 1 9"/>
   <polygon points="17 5 9 1 9 9"/>
   <a xmlns:xlink="http://www.w3.org/1999/xlink"
      xlink:href="#K_RANGE"
      xlink:title="K_RANGE">
      <rect x="51" y="23" width="78" height="32"/>
      <rect x="49" y="21" width="78" height="32" class="nonterminal"/>
      <text class="nonterminal" x="59" y="41">K_RANGE</text>
   </a>
   <a xmlns:xlink="http://www.w3.org/1999/xlink"
      xlink:href="#int_number"
      xlink:title="int_number">
      <rect x="149" y="23" width="92" height="32"/>
      <rect x="147" y="21" width="92" height="32" class="nonterminal"/>
      <text class="nonterminal" x="157" y="41">int_number</text>
   </a>
   <a xmlns:xlink="http://www.w3.org/1999/xlink"
      xlink:href="#int_number"
      xlink:title="int_number">
      <rect x="261" y="23" width="92" height="32"/>
      <rect x="259" y="21" width="92" height="32" class="nonterminal"/>
      <text class="nonterminal" x="269" y="41">int_number</text>
   </a>
   <path class="line"
         d="m17 5 h2 m20 0 h10 m0 0 h312 m-342 0 h20 m322 0 h20 m-362 0 q10 0 10 10 m342 0 q0 -10 10 -10 m-352 10 v12 m342 0 v-12 m-342 12 q0 10 10 10 m322 0 q10 0 10 -10 m-332 10 h10 m78 0 h10 m0 0 h10 m92 0 h10 m0 0 h10 m92 0 h10 m23 -32 h-3"/>
   <polygon points="391 5 399 1 399 9"/>
   <polygon points="391 5 383 1 383 9"/>
</svg>
