<?xml version="1.0" encoding="UTF-8"?>
<svg style="background: var(--diagram-bg, #FFFCF0)" xmlns="http://www.w3.org/2000/svg" width="177" height="697"><style>
  :root { --diagram-bg: #FFFCF0; }
</style>
   <defs>
      <style type="text/css">
    @namespace "http://www.w3.org/2000/svg";
    .line                 {fill: none; stroke: #332900; stroke-width: 1;}
    .bold-line            {stroke: #141000; shape-rendering: crispEdges; stroke-width: 2;}
    .thin-line            {stroke: #1F1800; shape-rendering: crispEdges}
    .filled               {fill: #332900; stroke: none;}
    text.terminal         {font-family: Verdana, Sans-serif;
                            font-size: 12px;
                            fill: #141000;
                            font-weight: bold;
                          }
    text.nonterminal      {font-family: Verdana, Sans-serif;
                            font-size: 12px;
                            fill: #1A1400;
                            font-weight: normal;
                          }
    text.regexp           {font-family: Verdana, Sans-serif;
                            font-size: 12px;
                            fill: #1F1800;
                            font-weight: normal;
                          }
    rect, circle, polygon {fill: #332900; stroke: #332900;}
    rect.terminal         {fill: #FFDB4D; stroke: #332900; stroke-width: 1;}
    rect.nonterminal      {fill: #FFEC9E; stroke: #332900; stroke-width: 1;}
    rect.text             {fill: none; stroke: none;}
    polygon.regexp        {fill: #FFF4C7; stroke: #332900; stroke-width: 1;}
  </style>
   </defs>
   <polygon points="9 17 1 13 1 21"/>
   <polygon points="17 17 9 13 9 21"/>
   <a xmlns:xlink="http://www.w3.org/1999/xlink"
      xlink:href="#K_N"
      xlink:title="K_N">
      <rect x="51" y="3" width="44" height="32"/>
      <rect x="49" y="1" width="44" height="32" class="nonterminal"/>
      <text class="nonterminal" x="59" y="21">K_N</text>
   </a>
   <a xmlns:xlink="http://www.w3.org/1999/xlink"
      xlink:href="#K_W"
      xlink:title="K_W">
      <rect x="51" y="47" width="48" height="32"/>
      <rect x="49" y="45" width="48" height="32" class="nonterminal"/>
      <text class="nonterminal" x="59" y="65">K_W</text>
   </a>
   <a xmlns:xlink="http://www.w3.org/1999/xlink"
      xlink:href="#K_S"
      xlink:title="K_S">
      <rect x="51" y="91" width="44" height="32"/>
      <rect x="49" y="89" width="44" height="32" class="nonterminal"/>
      <text class="nonterminal" x="59" y="109">K_S</text>
   </a>
   <a xmlns:xlink="http://www.w3.org/1999/xlink"
      xlink:href="#K_E"
      xlink:title="K_E">
      <rect x="51" y="135" width="44" height="32"/>
      <rect x="49" y="133" width="44" height="32" class="nonterminal"/>
      <text class="nonterminal" x="59" y="153">K_E</text>
   </a>
   <a xmlns:xlink="http://www.w3.org/1999/xlink"
      xlink:href="#K_FN"
      xlink:title="K_FN">
      <rect x="51" y="179" width="52" height="32"/>
      <rect x="49" y="177" width="52" height="32" class="nonterminal"/>
      <text class="nonterminal" x="59" y="197">K_FN</text>
   </a>
   <a xmlns:xlink="http://www.w3.org/1999/xlink"
      xlink:href="#K_FW"
      xlink:title="K_FW">
      <rect x="51" y="223" width="56" height="32"/>
      <rect x="49" y="221" width="56" height="32" class="nonterminal"/>
      <text class="nonterminal" x="59" y="241">K_FW</text>
   </a>
   <a xmlns:xlink="http://www.w3.org/1999/xlink"
      xlink:href="#K_FS"
      xlink:title="K_FS">
      <rect x="51" y="267" width="50" height="32"/>
      <rect x="49" y="265" width="50" height="32" class="nonterminal"/>
      <text class="nonterminal" x="59" y="285">K_FS</text>
   </a>
   <a xmlns:xlink="http://www.w3.org/1999/xlink"
      xlink:href="#K_FE"
      xlink:title="K_FE">
      <rect x="51" y="311" width="50" height="32"/>
      <rect x="49" y="309" width="50" height="32" class="nonterminal"/>
      <text class="nonterminal" x="59" y="329">K_FE</text>
   </a>
   <a xmlns:xlink="http://www.w3.org/1999/xlink"
      xlink:href="#K_R0"
      xlink:title="K_R0">
      <rect x="51" y="355" width="52" height="32"/>
      <rect x="49" y="353" width="52" height="32" class="nonterminal"/>
      <text class="nonterminal" x="59" y="373">K_R0</text>
   </a>
   <a xmlns:xlink="http://www.w3.org/1999/xlink"
      xlink:href="#K_R90"
      xlink:title="K_R90">
      <rect x="51" y="399" width="60" height="32"/>
      <rect x="49" y="397" width="60" height="32" class="nonterminal"/>
      <text class="nonterminal" x="59" y="417">K_R90</text>
   </a>
   <a xmlns:xlink="http://www.w3.org/1999/xlink"
      xlink:href="#K_R180"
      xlink:title="K_R180">
      <rect x="51" y="443" width="68" height="32"/>
      <rect x="49" y="441" width="68" height="32" class="nonterminal"/>
      <text class="nonterminal" x="59" y="461">K_R180</text>
   </a>
   <a xmlns:xlink="http://www.w3.org/1999/xlink"
      xlink:href="#K_R270"
      xlink:title="K_R270">
      <rect x="51" y="487" width="68" height="32"/>
      <rect x="49" y="485" width="68" height="32" class="nonterminal"/>
      <text class="nonterminal" x="59" y="505">K_R270</text>
   </a>
   <a xmlns:xlink="http://www.w3.org/1999/xlink"
      xlink:href="#K_MY"
      xlink:title="K_MY">
      <rect x="51" y="531" width="54" height="32"/>
      <rect x="49" y="529" width="54" height="32" class="nonterminal"/>
      <text class="nonterminal" x="59" y="549">K_MY</text>
   </a>
   <a xmlns:xlink="http://www.w3.org/1999/xlink"
      xlink:href="#K_MYR90"
      xlink:title="K_MYR90">
      <rect x="51" y="575" width="78" height="32"/>
      <rect x="49" y="573" width="78" height="32" class="nonterminal"/>
      <text class="nonterminal" x="59" y="593">K_MYR90</text>
   </a>
   <a xmlns:xlink="http://www.w3.org/1999/xlink"
      xlink:href="#K_MX"
      xlink:title="K_MX">
      <rect x="51" y="619" width="54" height="32"/>
      <rect x="49" y="617" width="54" height="32" class="nonterminal"/>
      <text class="nonterminal" x="59" y="637">K_MX</text>
   </a>
   <a xmlns:xlink="http://www.w3.org/1999/xlink"
      xlink:href="#K_MXR90"
      xlink:title="K_MXR90">
      <rect x="51" y="663" width="78" height="32"/>
      <rect x="49" y="661" width="78" height="32" class="nonterminal"/>
      <text class="nonterminal" x="59" y="681">K_MXR90</text>
   </a>
   <path class="line"
         d="m17 17 h2 m20 0 h10 m44 0 h10 m0 0 h34 m-118 0 h20 m98 0 h20 m-138 0 q10 0 10 10 m118 0 q0 -10 10 -10 m-128 10 v24 m118 0 v-24 m-118 24 q0 10 10 10 m98 0 q10 0 10 -10 m-108 10 h10 m48 0 h10 m0 0 h30 m-108 -10 v20 m118 0 v-20 m-118 20 v24 m118 0 v-24 m-118 24 q0 10 10 10 m98 0 q10 0 10 -10 m-108 10 h10 m44 0 h10 m0 0 h34 m-108 -10 v20 m118 0 v-20 m-118 20 v24 m118 0 v-24 m-118 24 q0 10 10 10 m98 0 q10 0 10 -10 m-108 10 h10 m44 0 h10 m0 0 h34 m-108 -10 v20 m118 0 v-20 m-118 20 v24 m118 0 v-24 m-118 24 q0 10 10 10 m98 0 q10 0 10 -10 m-108 10 h10 m52 0 h10 m0 0 h26 m-108 -10 v20 m118 0 v-20 m-118 20 v24 m118 0 v-24 m-118 24 q0 10 10 10 m98 0 q10 0 10 -10 m-108 10 h10 m56 0 h10 m0 0 h22 m-108 -10 v20 m118 0 v-20 m-118 20 v24 m118 0 v-24 m-118 24 q0 10 10 10 m98 0 q10 0 10 -10 m-108 10 h10 m50 0 h10 m0 0 h28 m-108 -10 v20 m118 0 v-20 m-118 20 v24 m118 0 v-24 m-118 24 q0 10 10 10 m98 0 q10 0 10 -10 m-108 10 h10 m50 0 h10 m0 0 h28 m-108 -10 v20 m118 0 v-20 m-118 20 v24 m118 0 v-24 m-118 24 q0 10 10 10 m98 0 q10 0 10 -10 m-108 10 h10 m52 0 h10 m0 0 h26 m-108 -10 v20 m118 0 v-20 m-118 20 v24 m118 0 v-24 m-118 24 q0 10 10 10 m98 0 q10 0 10 -10 m-108 10 h10 m60 0 h10 m0 0 h18 m-108 -10 v20 m118 0 v-20 m-118 20 v24 m118 0 v-24 m-118 24 q0 10 10 10 m98 0 q10 0 10 -10 m-108 10 h10 m68 0 h10 m0 0 h10 m-108 -10 v20 m118 0 v-20 m-118 20 v24 m118 0 v-24 m-118 24 q0 10 10 10 m98 0 q10 0 10 -10 m-108 10 h10 m68 0 h10 m0 0 h10 m-108 -10 v20 m118 0 v-20 m-118 20 v24 m118 0 v-24 m-118 24 q0 10 10 10 m98 0 q10 0 10 -10 m-108 10 h10 m54 0 h10 m0 0 h24 m-108 -10 v20 m118 0 v-20 m-118 20 v24 m118 0 v-24 m-118 24 q0 10 10 10 m98 0 q10 0 10 -10 m-108 10 h10 m78 0 h10 m-108 -10 v20 m118 0 v-20 m-118 20 v24 m118 0 v-24 m-118 24 q0 10 10 10 m98 0 q10 0 10 -10 m-108 10 h10 m54 0 h10 m0 0 h24 m-108 -10 v20 m118 0 v-20 m-118 20 v24 m118 0 v-24 m-118 24 q0 10 10 10 m98 0 q10 0 10 -10 m-108 10 h10 m78 0 h10 m23 -660 h-3"/>
   <polygon points="167 17 175 13 175 21"/>
   <polygon points="167 17 159 13 159 21"/>
</svg>
