<?xml version="1.0" encoding="UTF-8"?>
<svg style="background: var(--diagram-bg, #FFFCF0)" xmlns="http://www.w3.org/2000/svg" width="535" height="53"><style>
  :root { --diagram-bg: #FFFCF0; }
</style>
   <defs>
      <style type="text/css">
    @namespace "http://www.w3.org/2000/svg";
    .line                 {fill: none; stroke: #332900; stroke-width: 1;}
    .bold-line            {stroke: #141000; shape-rendering: crispEdges; stroke-width: 2;}
    .thin-line            {stroke: #1F1800; shape-rendering: crispEdges}
    .filled               {fill: #332900; stroke: none;}
    text.terminal         {font-family: Verdana, Sans-serif;
                            font-size: 12px;
                            fill: #141000;
                            font-weight: bold;
                          }
    text.nonterminal      {font-family: Verdana, Sans-serif;
                            font-size: 12px;
                            fill: #1A1400;
                            font-weight: normal;
                          }
    text.regexp           {font-family: Verdana, Sans-serif;
                            font-size: 12px;
                            fill: #1F1800;
                            font-weight: normal;
                          }
    rect, circle, polygon {fill: #332900; stroke: #332900;}
    rect.terminal         {fill: #FFDB4D; stroke: #332900; stroke-width: 1;}
    rect.nonterminal      {fill: #FFEC9E; stroke: #332900; stroke-width: 1;}
    rect.text             {fill: none; stroke: none;}
    polygon.regexp        {fill: #FFF4C7; stroke: #332900; stroke-width: 1;}
  </style>
   </defs>
   <polygon points="9 33 1 29 1 37"/>
   <polygon points="17 33 9 29 9 37"/>
   <a xmlns:xlink="http://www.w3.org/1999/xlink"
      xlink:href="#K_OUTPUTRESISTANCE"
      xlink:title="K_OUTPUTRESISTANCE">
      <rect x="31" y="19" width="164" height="32"/>
      <rect x="29" y="17" width="164" height="32" class="nonterminal"/>
      <text class="nonterminal" x="39" y="37">K_OUTPUTRESISTANCE</text>
   </a>
   <a xmlns:xlink="http://www.w3.org/1999/xlink"
      xlink:href="#int_number"
      xlink:title="int_number">
      <rect x="235" y="19" width="92" height="32"/>
      <rect x="233" y="17" width="92" height="32" class="nonterminal"/>
      <text class="nonterminal" x="243" y="37">int_number</text>
   </a>
   <rect x="367" y="19" width="24" height="32" rx="10"/>
   <rect x="365"
         y="17"
         width="24"
         height="32"
         class="terminal"
         rx="10"/>
   <text class="terminal" x="375" y="37">;</text>
   <a xmlns:xlink="http://www.w3.org/1999/xlink"
      xlink:href="#victim"
      xlink:title="victim">
      <rect x="431" y="19" width="56" height="32"/>
      <rect x="429" y="17" width="56" height="32" class="nonterminal"/>
      <text class="nonterminal" x="439" y="37">victim</text>
   </a>
   <path class="line"
         d="m17 33 h2 m0 0 h10 m164 0 h10 m20 0 h10 m92 0 h10 m-132 0 l20 0 m-1 0 q-9 0 -9 -10 l0 -12 q0 -10 10 -10 m112 32 l20 0 m-20 0 q10 0 10 -10 l0 -12 q0 -10 -10 -10 m-112 0 h10 m0 0 h102 m20 32 h10 m24 0 h10 m20 0 h10 m56 0 h10 m-96 0 l20 0 m-1 0 q-9 0 -9 -10 l0 -12 q0 -10 10 -10 m76 32 l20 0 m-20 0 q10 0 10 -10 l0 -12 q0 -10 -10 -10 m-76 0 h10 m0 0 h66 m23 32 h-3"/>
   <polygon points="525 33 533 29 533 37"/>
   <polygon points="525 33 517 29 517 37"/>
</svg>
