<?xml version="1.0" encoding="UTF-8"?>
<svg style="background: var(--diagram-bg, #FFFCF0)" xmlns="http://www.w3.org/2000/svg" width="463" height="201"><style>
  :root { --diagram-bg: #FFFCF0; }
</style>
   <defs>
      <style type="text/css">
    @namespace "http://www.w3.org/2000/svg";
    .line                 {fill: none; stroke: #332900; stroke-width: 1;}
    .bold-line            {stroke: #141000; shape-rendering: crispEdges; stroke-width: 2;}
    .thin-line            {stroke: #1F1800; shape-rendering: crispEdges}
    .filled               {fill: #332900; stroke: none;}
    text.terminal         {font-family: Verdana, Sans-serif;
                            font-size: 12px;
                            fill: #141000;
                            font-weight: bold;
                          }
    text.nonterminal      {font-family: Verdana, Sans-serif;
                            font-size: 12px;
                            fill: #1A1400;
                            font-weight: normal;
                          }
    text.regexp           {font-family: Verdana, Sans-serif;
                            font-size: 12px;
                            fill: #1F1800;
                            font-weight: normal;
                          }
    rect, circle, polygon {fill: #332900; stroke: #332900;}
    rect.terminal         {fill: #FFDB4D; stroke: #332900; stroke-width: 1;}
    rect.nonterminal      {fill: #FFEC9E; stroke: #332900; stroke-width: 1;}
    rect.text             {fill: none; stroke: none;}
    polygon.regexp        {fill: #FFF4C7; stroke: #332900; stroke-width: 1;}
  </style>
   </defs>
   <polygon points="9 17 1 13 1 21"/>
   <polygon points="17 17 9 13 9 21"/>
   <a xmlns:xlink="http://www.w3.org/1999/xlink"
      xlink:href="#K_INTEGER"
      xlink:title="K_INTEGER">
      <rect x="51" y="3" width="90" height="32"/>
      <rect x="49" y="1" width="90" height="32" class="nonterminal"/>
      <text class="nonterminal" x="59" y="21">K_INTEGER</text>
   </a>
   <a xmlns:xlink="http://www.w3.org/1999/xlink"
      xlink:href="#opt_def_range"
      xlink:title="opt_def_range">
      <rect x="161" y="3" width="114" height="32"/>
      <rect x="159" y="1" width="114" height="32" class="nonterminal"/>
      <text class="nonterminal" x="169" y="21">opt_def_range</text>
   </a>
   <a xmlns:xlink="http://www.w3.org/1999/xlink"
      xlink:href="#opt_def_dvalue"
      xlink:title="opt_def_dvalue">
      <rect x="295" y="3" width="120" height="32"/>
      <rect x="293" y="1" width="120" height="32" class="nonterminal"/>
      <text class="nonterminal" x="303" y="21">opt_def_dvalue</text>
   </a>
   <a xmlns:xlink="http://www.w3.org/1999/xlink"
      xlink:href="#K_REAL"
      xlink:title="K_REAL">
      <rect x="51" y="47" width="68" height="32"/>
      <rect x="49" y="45" width="68" height="32" class="nonterminal"/>
      <text class="nonterminal" x="59" y="65">K_REAL</text>
   </a>
   <a xmlns:xlink="http://www.w3.org/1999/xlink"
      xlink:href="#opt_def_range"
      xlink:title="opt_def_range">
      <rect x="139" y="47" width="114" height="32"/>
      <rect x="137" y="45" width="114" height="32" class="nonterminal"/>
      <text class="nonterminal" x="147" y="65">opt_def_range</text>
   </a>
   <a xmlns:xlink="http://www.w3.org/1999/xlink"
      xlink:href="#opt_def_value"
      xlink:title="opt_def_value">
      <rect x="273" y="47" width="112" height="32"/>
      <rect x="271" y="45" width="112" height="32" class="nonterminal"/>
      <text class="nonterminal" x="281" y="65">opt_def_value</text>
   </a>
   <a xmlns:xlink="http://www.w3.org/1999/xlink"
      xlink:href="#K_STRING"
      xlink:title="K_STRING">
      <rect x="51" y="91" width="82" height="32"/>
      <rect x="49" y="89" width="82" height="32" class="nonterminal"/>
      <text class="nonterminal" x="59" y="109">K_STRING</text>
   </a>
   <a xmlns:xlink="http://www.w3.org/1999/xlink"
      xlink:href="#QSTRING"
      xlink:title="QSTRING">
      <rect x="173" y="123" width="76" height="32"/>
      <rect x="171" y="121" width="76" height="32" class="nonterminal"/>
      <text class="nonterminal" x="181" y="141">QSTRING</text>
   </a>
   <a xmlns:xlink="http://www.w3.org/1999/xlink"
      xlink:href="#K_NAMEMAPSTRING"
      xlink:title="K_NAMEMAPSTRING">
      <rect x="51" y="167" width="144" height="32"/>
      <rect x="49" y="165" width="144" height="32" class="nonterminal"/>
      <text class="nonterminal" x="59" y="185">K_NAMEMAPSTRING</text>
   </a>
   <a xmlns:xlink="http://www.w3.org/1999/xlink"
      xlink:href="#T_STRING"
      xlink:title="T_STRING">
      <rect x="215" y="167" width="82" height="32"/>
      <rect x="213" y="165" width="82" height="32" class="nonterminal"/>
      <text class="nonterminal" x="223" y="185">T_STRING</text>
   </a>
   <path class="line"
         d="m17 17 h2 m20 0 h10 m90 0 h10 m0 0 h10 m114 0 h10 m0 0 h10 m120 0 h10 m-404 0 h20 m384 0 h20 m-424 0 q10 0 10 10 m404 0 q0 -10 10 -10 m-414 10 v24 m404 0 v-24 m-404 24 q0 10 10 10 m384 0 q10 0 10 -10 m-394 10 h10 m68 0 h10 m0 0 h10 m114 0 h10 m0 0 h10 m112 0 h10 m0 0 h30 m-394 -10 v20 m404 0 v-20 m-404 20 v24 m404 0 v-24 m-404 24 q0 10 10 10 m384 0 q10 0 10 -10 m-394 10 h10 m82 0 h10 m20 0 h10 m0 0 h86 m-116 0 h20 m96 0 h20 m-136 0 q10 0 10 10 m116 0 q0 -10 10 -10 m-126 10 v12 m116 0 v-12 m-116 12 q0 10 10 10 m96 0 q10 0 10 -10 m-106 10 h10 m76 0 h10 m20 -32 h146 m-394 -10 v20 m404 0 v-20 m-404 20 v56 m404 0 v-56 m-404 56 q0 10 10 10 m384 0 q10 0 10 -10 m-394 10 h10 m144 0 h10 m0 0 h10 m82 0 h10 m0 0 h118 m23 -164 h-3"/>
   <polygon points="453 17 461 13 461 21"/>
   <polygon points="453 17 445 13 445 21"/>
</svg>
