<?xml version="1.0" encoding="UTF-8"?>
<svg style="background: var(--diagram-bg, #FFFCF0)" xmlns="http://www.w3.org/2000/svg" width="495" height="71"><style>
  :root { --diagram-bg: #FFFCF0; }
</style>
   <defs>
      <style type="text/css">
    @namespace "http://www.w3.org/2000/svg";
    .line                 {fill: none; stroke: #332900; stroke-width: 1;}
    .bold-line            {stroke: #141000; shape-rendering: crispEdges; stroke-width: 2;}
    .thin-line            {stroke: #1F1800; shape-rendering: crispEdges}
    .filled               {fill: #332900; stroke: none;}
    text.terminal         {font-family: Verdana, Sans-serif;
                            font-size: 12px;
                            fill: #141000;
                            font-weight: bold;
                          }
    text.nonterminal      {font-family: Verdana, Sans-serif;
                            font-size: 12px;
                            fill: #1A1400;
                            font-weight: normal;
                          }
    text.regexp           {font-family: Verdana, Sans-serif;
                            font-size: 12px;
                            fill: #1F1800;
                            font-weight: normal;
                          }
    rect, circle, polygon {fill: #332900; stroke: #332900;}
    rect.terminal         {fill: #FFDB4D; stroke: #332900; stroke-width: 1;}
    rect.nonterminal      {fill: #FFEC9E; stroke: #332900; stroke-width: 1;}
    rect.text             {fill: none; stroke: none;}
    polygon.regexp        {fill: #FFF4C7; stroke: #332900; stroke-width: 1;}
  </style>
   </defs>
   <polygon points="9 51 1 47 1 55"/>
   <polygon points="17 51 9 47 9 55"/>
   <a xmlns:xlink="http://www.w3.org/1999/xlink"
      xlink:href="#K_PROPDEF"
      xlink:title="K_PROPDEF">
      <rect x="31" y="37" width="94" height="32"/>
      <rect x="29" y="35" width="94" height="32" class="nonterminal"/>
      <text class="nonterminal" x="39" y="55">K_PROPDEF</text>
   </a>
   <a xmlns:xlink="http://www.w3.org/1999/xlink"
      xlink:href="#prop_stmt"
      xlink:title="prop_stmt">
      <rect x="165" y="3" width="86" height="32"/>
      <rect x="163" y="1" width="86" height="32" class="nonterminal"/>
      <text class="nonterminal" x="173" y="21">prop_stmt</text>
   </a>
   <a xmlns:xlink="http://www.w3.org/1999/xlink"
      xlink:href="#K_END"
      xlink:title="K_END">
      <rect x="291" y="37" width="62" height="32"/>
      <rect x="289" y="35" width="62" height="32" class="nonterminal"/>
      <text class="nonterminal" x="299" y="55">K_END</text>
   </a>
   <a xmlns:xlink="http://www.w3.org/1999/xlink"
      xlink:href="#K_PROPDEF"
      xlink:title="K_PROPDEF">
      <rect x="373" y="37" width="94" height="32"/>
      <rect x="371" y="35" width="94" height="32" class="nonterminal"/>
      <text class="nonterminal" x="381" y="55">K_PROPDEF</text>
   </a>
   <path class="line"
         d="m17 51 h2 m0 0 h10 m94 0 h10 m20 0 h10 m0 0 h96 m-126 0 l20 0 m-1 0 q-9 0 -9 -10 l0 -14 q0 -10 10 -10 m106 34 l20 0 m-20 0 q10 0 10 -10 l0 -14 q0 -10 -10 -10 m-106 0 h10 m86 0 h10 m20 34 h10 m62 0 h10 m0 0 h10 m94 0 h10 m3 0 h-3"/>
   <polygon points="485 51 493 47 493 55"/>
   <polygon points="485 51 477 47 477 55"/>
</svg>
