<?xml version="1.0" encoding="UTF-8"?>
<svg style="background: var(--diagram-bg, #FFFCF0)" xmlns="http://www.w3.org/2000/svg" width="569" height="169"><style>
  :root { --diagram-bg: #FFFCF0; }
</style>
   <defs>
      <style type="text/css">
    @namespace "http://www.w3.org/2000/svg";
    .line                 {fill: none; stroke: #332900; stroke-width: 1;}
    .bold-line            {stroke: #141000; shape-rendering: crispEdges; stroke-width: 2;}
    .thin-line            {stroke: #1F1800; shape-rendering: crispEdges}
    .filled               {fill: #332900; stroke: none;}
    text.terminal         {font-family: Verdana, Sans-serif;
                            font-size: 12px;
                            fill: #141000;
                            font-weight: bold;
                          }
    text.nonterminal      {font-family: Verdana, Sans-serif;
                            font-size: 12px;
                            fill: #1A1400;
                            font-weight: normal;
                          }
    text.regexp           {font-family: Verdana, Sans-serif;
                            font-size: 12px;
                            fill: #1F1800;
                            font-weight: normal;
                          }
    rect, circle, polygon {fill: #332900; stroke: #332900;}
    rect.terminal         {fill: #FFDB4D; stroke: #332900; stroke-width: 1;}
    rect.nonterminal      {fill: #FFEC9E; stroke: #332900; stroke-width: 1;}
    rect.text             {fill: none; stroke: none;}
    polygon.regexp        {fill: #FFF4C7; stroke: #332900; stroke-width: 1;}
  </style>
   </defs>
   <polygon points="9 17 1 13 1 21"/>
   <polygon points="17 17 9 13 9 21"/>
   <a xmlns:xlink="http://www.w3.org/1999/xlink"
      xlink:href="#s_expr"
      xlink:title="s_expr">
      <rect x="71" y="3" width="62" height="32"/>
      <rect x="69" y="1" width="62" height="32" class="nonterminal"/>
      <text class="nonterminal" x="79" y="21">s_expr</text>
   </a>
   <rect x="153" y="3" width="30" height="32" rx="10"/>
   <rect x="151"
         y="1"
         width="30"
         height="32"
         class="terminal"
         rx="10"/>
   <text class="terminal" x="161" y="21">+</text>
   <a xmlns:xlink="http://www.w3.org/1999/xlink"
      xlink:href="#K_IF"
      xlink:title="K_IF">
      <rect x="71" y="47" width="48" height="32"/>
      <rect x="69" y="45" width="48" height="32" class="nonterminal"/>
      <text class="nonterminal" x="79" y="65">K_IF</text>
   </a>
   <a xmlns:xlink="http://www.w3.org/1999/xlink"
      xlink:href="#b_expr"
      xlink:title="b_expr">
      <rect x="139" y="47" width="64" height="32"/>
      <rect x="137" y="45" width="64" height="32" class="nonterminal"/>
      <text class="nonterminal" x="147" y="65">b_expr</text>
   </a>
   <a xmlns:xlink="http://www.w3.org/1999/xlink"
      xlink:href="#then"
      xlink:title="then">
      <rect x="223" y="47" width="48" height="32"/>
      <rect x="221" y="45" width="48" height="32" class="nonterminal"/>
      <text class="nonterminal" x="231" y="65">then</text>
   </a>
   <a xmlns:xlink="http://www.w3.org/1999/xlink"
      xlink:href="#s_expr"
      xlink:title="s_expr">
      <rect x="291" y="47" width="62" height="32"/>
      <rect x="289" y="45" width="62" height="32" class="nonterminal"/>
      <text class="nonterminal" x="299" y="65">s_expr</text>
   </a>
   <a xmlns:xlink="http://www.w3.org/1999/xlink"
      xlink:href="#else"
      xlink:title="else">
      <rect x="373" y="47" width="46" height="32"/>
      <rect x="371" y="45" width="46" height="32" class="nonterminal"/>
      <text class="nonterminal" x="381" y="65">else</text>
   </a>
   <a xmlns:xlink="http://www.w3.org/1999/xlink"
      xlink:href="#s_expr"
      xlink:title="s_expr">
      <rect x="459" y="3" width="62" height="32"/>
      <rect x="457" y="1" width="62" height="32" class="nonterminal"/>
      <text class="nonterminal" x="467" y="21">s_expr</text>
   </a>
   <rect x="51" y="91" width="26" height="32" rx="10"/>
   <rect x="49"
         y="89"
         width="26"
         height="32"
         class="terminal"
         rx="10"/>
   <text class="terminal" x="59" y="109">(</text>
   <a xmlns:xlink="http://www.w3.org/1999/xlink"
      xlink:href="#s_expr"
      xlink:title="s_expr">
      <rect x="97" y="91" width="62" height="32"/>
      <rect x="95" y="89" width="62" height="32" class="nonterminal"/>
      <text class="nonterminal" x="105" y="109">s_expr</text>
   </a>
   <rect x="179" y="91" width="26" height="32" rx="10"/>
   <rect x="177"
         y="89"
         width="26"
         height="32"
         class="terminal"
         rx="10"/>
   <text class="terminal" x="187" y="109">)</text>
   <a xmlns:xlink="http://www.w3.org/1999/xlink"
      xlink:href="#QSTRING"
      xlink:title="QSTRING">
      <rect x="51" y="135" width="76" height="32"/>
      <rect x="49" y="133" width="76" height="32" class="nonterminal"/>
      <text class="nonterminal" x="59" y="153">QSTRING</text>
   </a>
   <path class="line"
         d="m17 17 h2 m40 0 h10 m62 0 h10 m0 0 h10 m30 0 h10 m0 0 h236 m-388 0 h20 m368 0 h20 m-408 0 q10 0 10 10 m388 0 q0 -10 10 -10 m-398 10 v24 m388 0 v-24 m-388 24 q0 10 10 10 m368 0 q10 0 10 -10 m-378 10 h10 m48 0 h10 m0 0 h10 m64 0 h10 m0 0 h10 m48 0 h10 m0 0 h10 m62 0 h10 m0 0 h10 m46 0 h10 m20 -44 h10 m62 0 h10 m-510 0 h20 m490 0 h20 m-530 0 q10 0 10 10 m510 0 q0 -10 10 -10 m-520 10 v68 m510 0 v-68 m-510 68 q0 10 10 10 m490 0 q10 0 10 -10 m-500 10 h10 m26 0 h10 m0 0 h10 m62 0 h10 m0 0 h10 m26 0 h10 m0 0 h316 m-500 -10 v20 m510 0 v-20 m-510 20 v24 m510 0 v-24 m-510 24 q0 10 10 10 m490 0 q10 0 10 -10 m-500 10 h10 m76 0 h10 m0 0 h394 m23 -132 h-3"/>
   <polygon points="559 17 567 13 567 21"/>
   <polygon points="559 17 551 13 551 21"/>
</svg>
