<?xml version="1.0" encoding="UTF-8"?>
<svg style="background: var(--diagram-bg, #FFFCF0)" xmlns="http://www.w3.org/2000/svg" width="505" height="169"><style>
  :root { --diagram-bg: #FFFCF0; }
</style>
   <defs>
      <style type="text/css">
    @namespace "http://www.w3.org/2000/svg";
    .line                 {fill: none; stroke: #332900; stroke-width: 1;}
    .bold-line            {stroke: #141000; shape-rendering: crispEdges; stroke-width: 2;}
    .thin-line            {stroke: #1F1800; shape-rendering: crispEdges}
    .filled               {fill: #332900; stroke: none;}
    text.terminal         {font-family: Verdana, Sans-serif;
                            font-size: 12px;
                            fill: #141000;
                            font-weight: bold;
                          }
    text.nonterminal      {font-family: Verdana, Sans-serif;
                            font-size: 12px;
                            fill: #1A1400;
                            font-weight: normal;
                          }
    text.regexp           {font-family: Verdana, Sans-serif;
                            font-size: 12px;
                            fill: #1F1800;
                            font-weight: normal;
                          }
    rect, circle, polygon {fill: #332900; stroke: #332900;}
    rect.terminal         {fill: #FFDB4D; stroke: #332900; stroke-width: 1;}
    rect.nonterminal      {fill: #FFEC9E; stroke: #332900; stroke-width: 1;}
    rect.text             {fill: none; stroke: none;}
    polygon.regexp        {fill: #FFF4C7; stroke: #332900; stroke-width: 1;}
  </style>
   </defs>
   <polygon points="9 17 1 13 1 21"/>
   <polygon points="17 17 9 13 9 21"/>
   <a xmlns:xlink="http://www.w3.org/1999/xlink"
      xlink:href="#K_SIZE"
      xlink:title="K_SIZE">
      <rect x="51" y="3" width="66" height="32"/>
      <rect x="49" y="1" width="66" height="32" class="nonterminal"/>
      <text class="nonterminal" x="59" y="21">K_SIZE</text>
   </a>
   <a xmlns:xlink="http://www.w3.org/1999/xlink"
      xlink:href="#int_number"
      xlink:title="int_number">
      <rect x="137" y="3" width="92" height="32"/>
      <rect x="135" y="1" width="92" height="32" class="nonterminal"/>
      <text class="nonterminal" x="145" y="21">int_number</text>
   </a>
   <a xmlns:xlink="http://www.w3.org/1999/xlink"
      xlink:href="#K_BY"
      xlink:title="K_BY">
      <rect x="249" y="3" width="52" height="32"/>
      <rect x="247" y="1" width="52" height="32" class="nonterminal"/>
      <text class="nonterminal" x="257" y="21">K_BY</text>
   </a>
   <a xmlns:xlink="http://www.w3.org/1999/xlink"
      xlink:href="#int_number"
      xlink:title="int_number">
      <rect x="321" y="3" width="92" height="32"/>
      <rect x="319" y="1" width="92" height="32" class="nonterminal"/>
      <text class="nonterminal" x="329" y="21">int_number</text>
   </a>
   <rect x="433" y="3" width="24" height="32" rx="10"/>
   <rect x="431"
         y="1"
         width="24"
         height="32"
         class="terminal"
         rx="10"/>
   <text class="terminal" x="441" y="21">;</text>
   <a xmlns:xlink="http://www.w3.org/1999/xlink"
      xlink:href="#site_symmetry_statement"
      xlink:title="site_symmetry_statement">
      <rect x="51" y="47" width="186" height="32"/>
      <rect x="49" y="45" width="186" height="32" class="nonterminal"/>
      <text class="nonterminal" x="59" y="65">site_symmetry_statement</text>
   </a>
   <a xmlns:xlink="http://www.w3.org/1999/xlink"
      xlink:href="#site_class"
      xlink:title="site_class">
      <rect x="51" y="91" width="82" height="32"/>
      <rect x="49" y="89" width="82" height="32" class="nonterminal"/>
      <text class="nonterminal" x="59" y="109">site_class</text>
   </a>
   <a xmlns:xlink="http://www.w3.org/1999/xlink"
      xlink:href="#site_rowpattern_statement"
      xlink:title="site_rowpattern_statement">
      <rect x="51" y="135" width="194" height="32"/>
      <rect x="49" y="133" width="194" height="32" class="nonterminal"/>
      <text class="nonterminal" x="59" y="153">site_rowpattern_statement</text>
   </a>
   <path class="line"
         d="m17 17 h2 m20 0 h10 m66 0 h10 m0 0 h10 m92 0 h10 m0 0 h10 m52 0 h10 m0 0 h10 m92 0 h10 m0 0 h10 m24 0 h10 m-446 0 h20 m426 0 h20 m-466 0 q10 0 10 10 m446 0 q0 -10 10 -10 m-456 10 v24 m446 0 v-24 m-446 24 q0 10 10 10 m426 0 q10 0 10 -10 m-436 10 h10 m186 0 h10 m0 0 h220 m-436 -10 v20 m446 0 v-20 m-446 20 v24 m446 0 v-24 m-446 24 q0 10 10 10 m426 0 q10 0 10 -10 m-436 10 h10 m82 0 h10 m0 0 h324 m-436 -10 v20 m446 0 v-20 m-446 20 v24 m446 0 v-24 m-446 24 q0 10 10 10 m426 0 q10 0 10 -10 m-436 10 h10 m194 0 h10 m0 0 h212 m23 -132 h-3"/>
   <polygon points="495 17 503 13 503 21"/>
   <polygon points="495 17 487 13 487 21"/>
</svg>
