<?xml version="1.0" encoding="UTF-8"?>
<svg style="background: var(--diagram-bg, #FFFCF0)" xmlns="http://www.w3.org/2000/svg" width="405" height="71"><style>
  :root { --diagram-bg: #FFFCF0; }
</style>
   <defs>
      <style type="text/css">
    @namespace "http://www.w3.org/2000/svg";
    .line                 {fill: none; stroke: #332900; stroke-width: 1;}
    .bold-line            {stroke: #141000; shape-rendering: crispEdges; stroke-width: 2;}
    .thin-line            {stroke: #1F1800; shape-rendering: crispEdges}
    .filled               {fill: #332900; stroke: none;}
    text.terminal         {font-family: Verdana, Sans-serif;
                            font-size: 12px;
                            fill: #141000;
                            font-weight: bold;
                          }
    text.nonterminal      {font-family: Verdana, Sans-serif;
                            font-size: 12px;
                            fill: #1A1400;
                            font-weight: normal;
                          }
    text.regexp           {font-family: Verdana, Sans-serif;
                            font-size: 12px;
                            fill: #1F1800;
                            font-weight: normal;
                          }
    rect, circle, polygon {fill: #332900; stroke: #332900;}
    rect.terminal         {fill: #FFDB4D; stroke: #332900; stroke-width: 1;}
    rect.nonterminal      {fill: #FFEC9E; stroke: #332900; stroke-width: 1;}
    rect.text             {fill: none; stroke: none;}
    polygon.regexp        {fill: #FFF4C7; stroke: #332900; stroke-width: 1;}
  </style>
   </defs>
   <polygon points="9 51 1 47 1 55"/>
   <polygon points="17 51 9 47 9 55"/>
   <a xmlns:xlink="http://www.w3.org/1999/xlink"
      xlink:href="#K_ROWPATTERN"
      xlink:title="K_ROWPATTERN">
      <rect x="31" y="37" width="122" height="32"/>
      <rect x="29" y="35" width="122" height="32" class="nonterminal"/>
      <text class="nonterminal" x="39" y="55">K_ROWPATTERN</text>
   </a>
   <a xmlns:xlink="http://www.w3.org/1999/xlink"
      xlink:href="#site_rowpattern"
      xlink:title="site_rowpattern">
      <rect x="193" y="3" width="120" height="32"/>
      <rect x="191" y="1" width="120" height="32" class="nonterminal"/>
      <text class="nonterminal" x="201" y="21">site_rowpattern</text>
   </a>
   <rect x="353" y="37" width="24" height="32" rx="10"/>
   <rect x="351"
         y="35"
         width="24"
         height="32"
         class="terminal"
         rx="10"/>
   <text class="terminal" x="361" y="55">;</text>
   <path class="line"
         d="m17 51 h2 m0 0 h10 m122 0 h10 m20 0 h10 m0 0 h130 m-160 0 l20 0 m-1 0 q-9 0 -9 -10 l0 -14 q0 -10 10 -10 m140 34 l20 0 m-20 0 q10 0 10 -10 l0 -14 q0 -10 -10 -10 m-140 0 h10 m120 0 h10 m20 34 h10 m24 0 h10 m3 0 h-3"/>
   <polygon points="395 51 403 47 403 55"/>
   <polygon points="395 51 387 47 387 55"/>
</svg>
