<?xml version="1.0" encoding="UTF-8"?>
<svg style="background: var(--diagram-bg, #FFFCF0)" xmlns="http://www.w3.org/2000/svg" width="753" height="123"><style>
  :root { --diagram-bg: #FFFCF0; }
</style>
   <defs>
      <style type="text/css">
    @namespace "http://www.w3.org/2000/svg";
    .line                 {fill: none; stroke: #332900; stroke-width: 1;}
    .bold-line            {stroke: #141000; shape-rendering: crispEdges; stroke-width: 2;}
    .thin-line            {stroke: #1F1800; shape-rendering: crispEdges}
    .filled               {fill: #332900; stroke: none;}
    text.terminal         {font-family: Verdana, Sans-serif;
                            font-size: 12px;
                            fill: #141000;
                            font-weight: bold;
                          }
    text.nonterminal      {font-family: Verdana, Sans-serif;
                            font-size: 12px;
                            fill: #1A1400;
                            font-weight: normal;
                          }
    text.regexp           {font-family: Verdana, Sans-serif;
                            font-size: 12px;
                            fill: #1F1800;
                            font-weight: normal;
                          }
    rect, circle, polygon {fill: #332900; stroke: #332900;}
    rect.terminal         {fill: #FFDB4D; stroke: #332900; stroke-width: 1;}
    rect.nonterminal      {fill: #FFEC9E; stroke: #332900; stroke-width: 1;}
    rect.text             {fill: none; stroke: none;}
    polygon.regexp        {fill: #FFF4C7; stroke: #332900; stroke-width: 1;}
  </style>
   </defs>
   <polygon points="11 17 3 13 3 21"/>
   <polygon points="19 17 11 13 11 21"/>
   <a xmlns:xlink="http://www.w3.org/1999/xlink"
      xlink:href="#T_STRING"
      xlink:title="T_STRING">
      <rect x="33" y="3" width="82" height="32"/>
      <rect x="31" y="1" width="82" height="32" class="nonterminal"/>
      <text class="nonterminal" x="41" y="21">T_STRING</text>
   </a>
   <a xmlns:xlink="http://www.w3.org/1999/xlink"
      xlink:href="#int_number"
      xlink:title="int_number">
      <rect x="135" y="3" width="92" height="32"/>
      <rect x="133" y="1" width="92" height="32" class="nonterminal"/>
      <text class="nonterminal" x="143" y="21">int_number</text>
   </a>
   <a xmlns:xlink="http://www.w3.org/1999/xlink"
      xlink:href="#int_number"
      xlink:title="int_number">
      <rect x="247" y="3" width="92" height="32"/>
      <rect x="245" y="1" width="92" height="32" class="nonterminal"/>
      <text class="nonterminal" x="255" y="21">int_number</text>
   </a>
   <a xmlns:xlink="http://www.w3.org/1999/xlink"
      xlink:href="#orientation"
      xlink:title="orientation">
      <rect x="359" y="3" width="90" height="32"/>
      <rect x="357" y="1" width="90" height="32" class="nonterminal"/>
      <text class="nonterminal" x="367" y="21">orientation</text>
   </a>
   <a xmlns:xlink="http://www.w3.org/1999/xlink"
      xlink:href="#K_DO"
      xlink:title="K_DO">
      <rect x="45" y="89" width="54" height="32"/>
      <rect x="43" y="87" width="54" height="32" class="nonterminal"/>
      <text class="nonterminal" x="53" y="107">K_DO</text>
   </a>
   <a xmlns:xlink="http://www.w3.org/1999/xlink"
      xlink:href="#int_number"
      xlink:title="int_number">
      <rect x="119" y="89" width="92" height="32"/>
      <rect x="117" y="87" width="92" height="32" class="nonterminal"/>
      <text class="nonterminal" x="127" y="107">int_number</text>
   </a>
   <a xmlns:xlink="http://www.w3.org/1999/xlink"
      xlink:href="#K_BY"
      xlink:title="K_BY">
      <rect x="231" y="89" width="52" height="32"/>
      <rect x="229" y="87" width="52" height="32" class="nonterminal"/>
      <text class="nonterminal" x="239" y="107">K_BY</text>
   </a>
   <a xmlns:xlink="http://www.w3.org/1999/xlink"
      xlink:href="#int_number"
      xlink:title="int_number">
      <rect x="303" y="89" width="92" height="32"/>
      <rect x="301" y="87" width="92" height="32" class="nonterminal"/>
      <text class="nonterminal" x="311" y="107">int_number</text>
   </a>
   <a xmlns:xlink="http://www.w3.org/1999/xlink"
      xlink:href="#K_STEP"
      xlink:title="K_STEP">
      <rect x="415" y="89" width="66" height="32"/>
      <rect x="413" y="87" width="66" height="32" class="nonterminal"/>
      <text class="nonterminal" x="423" y="107">K_STEP</text>
   </a>
   <a xmlns:xlink="http://www.w3.org/1999/xlink"
      xlink:href="#int_number"
      xlink:title="int_number">
      <rect x="501" y="89" width="92" height="32"/>
      <rect x="499" y="87" width="92" height="32" class="nonterminal"/>
      <text class="nonterminal" x="509" y="107">int_number</text>
   </a>
   <a xmlns:xlink="http://www.w3.org/1999/xlink"
      xlink:href="#int_number"
      xlink:title="int_number">
      <rect x="613" y="89" width="92" height="32"/>
      <rect x="611" y="87" width="92" height="32" class="nonterminal"/>
      <text class="nonterminal" x="621" y="107">int_number</text>
   </a>
   <path class="line"
         d="m19 17 h2 m0 0 h10 m82 0 h10 m0 0 h10 m92 0 h10 m0 0 h10 m92 0 h10 m0 0 h10 m90 0 h10 m2 0 l2 0 m2 0 l2 0 m2 0 l2 0 m-468 54 l2 0 m2 0 l2 0 m2 0 l2 0 m22 0 h10 m0 0 h670 m-700 0 h20 m680 0 h20 m-720 0 q10 0 10 10 m700 0 q0 -10 10 -10 m-710 10 v12 m700 0 v-12 m-700 12 q0 10 10 10 m680 0 q10 0 10 -10 m-690 10 h10 m54 0 h10 m0 0 h10 m92 0 h10 m0 0 h10 m52 0 h10 m0 0 h10 m92 0 h10 m0 0 h10 m66 0 h10 m0 0 h10 m92 0 h10 m0 0 h10 m92 0 h10 m23 -32 h-3"/>
   <polygon points="743 71 751 67 751 75"/>
   <polygon points="743 71 735 67 735 75"/>
</svg>
