<?xml version="1.0" encoding="UTF-8"?>
<svg style="background: var(--diagram-bg, #FFFCF0)" xmlns="http://www.w3.org/2000/svg" width="691" height="69"><style>
  :root { --diagram-bg: #FFFCF0; }
</style>
   <defs>
      <style type="text/css">
    @namespace "http://www.w3.org/2000/svg";
    .line                 {fill: none; stroke: #332900; stroke-width: 1;}
    .bold-line            {stroke: #141000; shape-rendering: crispEdges; stroke-width: 2;}
    .thin-line            {stroke: #1F1800; shape-rendering: crispEdges}
    .filled               {fill: #332900; stroke: none;}
    text.terminal         {font-family: Verdana, Sans-serif;
                            font-size: 12px;
                            fill: #141000;
                            font-weight: bold;
                          }
    text.nonterminal      {font-family: Verdana, Sans-serif;
                            font-size: 12px;
                            fill: #1A1400;
                            font-weight: normal;
                          }
    text.regexp           {font-family: Verdana, Sans-serif;
                            font-size: 12px;
                            fill: #1F1800;
                            font-weight: normal;
                          }
    rect, circle, polygon {fill: #332900; stroke: #332900;}
    rect.terminal         {fill: #FFDB4D; stroke: #332900; stroke-width: 1;}
    rect.nonterminal      {fill: #FFEC9E; stroke: #332900; stroke-width: 1;}
    rect.text             {fill: none; stroke: none;}
    polygon.regexp        {fill: #FFF4C7; stroke: #332900; stroke-width: 1;}
  </style>
   </defs>
   <polygon points="9 17 1 13 1 21"/>
   <polygon points="17 17 9 13 9 21"/>
   <a xmlns:xlink="http://www.w3.org/1999/xlink"
      xlink:href="#samenet_keyword"
      xlink:title="samenet_keyword">
      <rect x="31" y="3" width="136" height="32"/>
      <rect x="29" y="1" width="136" height="32" class="nonterminal"/>
      <text class="nonterminal" x="39" y="21">samenet_keyword</text>
   </a>
   <a xmlns:xlink="http://www.w3.org/1999/xlink"
      xlink:href="#T_STRING"
      xlink:title="T_STRING">
      <rect x="187" y="3" width="82" height="32"/>
      <rect x="185" y="1" width="82" height="32" class="nonterminal"/>
      <text class="nonterminal" x="195" y="21">T_STRING</text>
   </a>
   <a xmlns:xlink="http://www.w3.org/1999/xlink"
      xlink:href="#T_STRING"
      xlink:title="T_STRING">
      <rect x="289" y="3" width="82" height="32"/>
      <rect x="287" y="1" width="82" height="32" class="nonterminal"/>
      <text class="nonterminal" x="297" y="21">T_STRING</text>
   </a>
   <a xmlns:xlink="http://www.w3.org/1999/xlink"
      xlink:href="#int_number"
      xlink:title="int_number">
      <rect x="391" y="3" width="92" height="32"/>
      <rect x="389" y="1" width="92" height="32" class="nonterminal"/>
      <text class="nonterminal" x="399" y="21">int_number</text>
   </a>
   <a xmlns:xlink="http://www.w3.org/1999/xlink"
      xlink:href="#K_STACK"
      xlink:title="K_STACK">
      <rect x="523" y="35" width="76" height="32"/>
      <rect x="521" y="33" width="76" height="32" class="nonterminal"/>
      <text class="nonterminal" x="531" y="53">K_STACK</text>
   </a>
   <rect x="639" y="3" width="24" height="32" rx="10"/>
   <rect x="637"
         y="1"
         width="24"
         height="32"
         class="terminal"
         rx="10"/>
   <text class="terminal" x="647" y="21">;</text>
   <path class="line"
         d="m17 17 h2 m0 0 h10 m136 0 h10 m0 0 h10 m82 0 h10 m0 0 h10 m82 0 h10 m0 0 h10 m92 0 h10 m20 0 h10 m0 0 h86 m-116 0 h20 m96 0 h20 m-136 0 q10 0 10 10 m116 0 q0 -10 10 -10 m-126 10 v12 m116 0 v-12 m-116 12 q0 10 10 10 m96 0 q10 0 10 -10 m-106 10 h10 m76 0 h10 m20 -32 h10 m24 0 h10 m3 0 h-3"/>
   <polygon points="681 17 689 13 689 21"/>
   <polygon points="681 17 673 13 673 21"/>
</svg>
