<?xml version="1.0" encoding="UTF-8"?>
<svg style="background: var(--diagram-bg, #FFFCF0)" xmlns="http://www.w3.org/2000/svg" width="431" height="113"><style>
  :root { --diagram-bg: #FFFCF0; }
</style>
   <defs>
      <style type="text/css">
    @namespace "http://www.w3.org/2000/svg";
    .line                 {fill: none; stroke: #332900; stroke-width: 1;}
    .bold-line            {stroke: #141000; shape-rendering: crispEdges; stroke-width: 2;}
    .thin-line            {stroke: #1F1800; shape-rendering: crispEdges}
    .filled               {fill: #332900; stroke: none;}
    text.terminal         {font-family: Verdana, Sans-serif;
                            font-size: 12px;
                            fill: #141000;
                            font-weight: bold;
                          }
    text.nonterminal      {font-family: Verdana, Sans-serif;
                            font-size: 12px;
                            fill: #1A1400;
                            font-weight: normal;
                          }
    text.regexp           {font-family: Verdana, Sans-serif;
                            font-size: 12px;
                            fill: #1F1800;
                            font-weight: normal;
                          }
    rect, circle, polygon {fill: #332900; stroke: #332900;}
    rect.terminal         {fill: #FFDB4D; stroke: #332900; stroke-width: 1;}
    rect.nonterminal      {fill: #FFEC9E; stroke: #332900; stroke-width: 1;}
    rect.text             {fill: none; stroke: none;}
    polygon.regexp        {fill: #FFF4C7; stroke: #332900; stroke-width: 1;}
  </style>
   </defs>
   <polygon points="9 17 1 13 1 21"/>
   <polygon points="17 17 9 13 9 21"/>
   <a xmlns:xlink="http://www.w3.org/1999/xlink"
      xlink:href="#via_keyword"
      xlink:title="via_keyword">
      <rect x="31" y="3" width="100" height="32"/>
      <rect x="29" y="1" width="100" height="32" class="nonterminal"/>
      <text class="nonterminal" x="39" y="21">via_keyword</text>
   </a>
   <a xmlns:xlink="http://www.w3.org/1999/xlink"
      xlink:href="#T_STRING"
      xlink:title="T_STRING">
      <rect x="151" y="3" width="82" height="32"/>
      <rect x="149" y="1" width="82" height="32" class="nonterminal"/>
      <text class="nonterminal" x="159" y="21">T_STRING</text>
   </a>
   <a xmlns:xlink="http://www.w3.org/1999/xlink"
      xlink:href="#K_DEFAULT"
      xlink:title="K_DEFAULT">
      <rect x="273" y="35" width="92" height="32"/>
      <rect x="271" y="33" width="92" height="32" class="nonterminal"/>
      <text class="nonterminal" x="281" y="53">K_DEFAULT</text>
   </a>
   <a xmlns:xlink="http://www.w3.org/1999/xlink"
      xlink:href="#K_GENERATED"
      xlink:title="K_GENERATED">
      <rect x="273" y="79" width="110" height="32"/>
      <rect x="271" y="77" width="110" height="32" class="nonterminal"/>
      <text class="nonterminal" x="281" y="97">K_GENERATED</text>
   </a>
   <path class="line"
         d="m17 17 h2 m0 0 h10 m100 0 h10 m0 0 h10 m82 0 h10 m20 0 h10 m0 0 h120 m-150 0 h20 m130 0 h20 m-170 0 q10 0 10 10 m150 0 q0 -10 10 -10 m-160 10 v12 m150 0 v-12 m-150 12 q0 10 10 10 m130 0 q10 0 10 -10 m-140 10 h10 m92 0 h10 m0 0 h18 m-140 -10 v20 m150 0 v-20 m-150 20 v24 m150 0 v-24 m-150 24 q0 10 10 10 m130 0 q10 0 10 -10 m-140 10 h10 m110 0 h10 m23 -76 h-3"/>
   <polygon points="421 17 429 13 429 21"/>
   <polygon points="421 17 413 13 413 21"/>
</svg>
