<?xml version="1.0" encoding="UTF-8"?>
<svg style="background: var(--diagram-bg, #FFFCF0)" xmlns="http://www.w3.org/2000/svg" width="719" height="37"><style>
  :root { --diagram-bg: #FFFCF0; }
</style>
   <defs>
      <style type="text/css">
    @namespace "http://www.w3.org/2000/svg";
    .line                 {fill: none; stroke: #332900; stroke-width: 1;}
    .bold-line            {stroke: #141000; shape-rendering: crispEdges; stroke-width: 2;}
    .thin-line            {stroke: #1F1800; shape-rendering: crispEdges}
    .filled               {fill: #332900; stroke: none;}
    text.terminal         {font-family: Verdana, Sans-serif;
                            font-size: 12px;
                            fill: #141000;
                            font-weight: bold;
                          }
    text.nonterminal      {font-family: Verdana, Sans-serif;
                            font-size: 12px;
                            fill: #1A1400;
                            font-weight: normal;
                          }
    text.regexp           {font-family: Verdana, Sans-serif;
                            font-size: 12px;
                            fill: #1F1800;
                            font-weight: normal;
                          }
    rect, circle, polygon {fill: #332900; stroke: #332900;}
    rect.terminal         {fill: #FFDB4D; stroke: #332900; stroke-width: 1;}
    rect.nonterminal      {fill: #FFEC9E; stroke: #332900; stroke-width: 1;}
    rect.text             {fill: none; stroke: none;}
    polygon.regexp        {fill: #FFF4C7; stroke: #332900; stroke-width: 1;}
  </style>
   </defs>
   <polygon points="9 17 1 13 1 21"/>
   <polygon points="17 17 9 13 9 21"/>
   <a xmlns:xlink="http://www.w3.org/1999/xlink"
      xlink:href="#K_DO"
      xlink:title="K_DO">
      <rect x="31" y="3" width="54" height="32"/>
      <rect x="29" y="1" width="54" height="32" class="nonterminal"/>
      <text class="nonterminal" x="39" y="21">K_DO</text>
   </a>
   <a xmlns:xlink="http://www.w3.org/1999/xlink"
      xlink:href="#int_number"
      xlink:title="int_number">
      <rect x="105" y="3" width="92" height="32"/>
      <rect x="103" y="1" width="92" height="32" class="nonterminal"/>
      <text class="nonterminal" x="113" y="21">int_number</text>
   </a>
   <a xmlns:xlink="http://www.w3.org/1999/xlink"
      xlink:href="#K_BY"
      xlink:title="K_BY">
      <rect x="217" y="3" width="52" height="32"/>
      <rect x="215" y="1" width="52" height="32" class="nonterminal"/>
      <text class="nonterminal" x="225" y="21">K_BY</text>
   </a>
   <a xmlns:xlink="http://www.w3.org/1999/xlink"
      xlink:href="#int_number"
      xlink:title="int_number">
      <rect x="289" y="3" width="92" height="32"/>
      <rect x="287" y="1" width="92" height="32" class="nonterminal"/>
      <text class="nonterminal" x="297" y="21">int_number</text>
   </a>
   <a xmlns:xlink="http://www.w3.org/1999/xlink"
      xlink:href="#K_STEP"
      xlink:title="K_STEP">
      <rect x="401" y="3" width="66" height="32"/>
      <rect x="399" y="1" width="66" height="32" class="nonterminal"/>
      <text class="nonterminal" x="409" y="21">K_STEP</text>
   </a>
   <a xmlns:xlink="http://www.w3.org/1999/xlink"
      xlink:href="#int_number"
      xlink:title="int_number">
      <rect x="487" y="3" width="92" height="32"/>
      <rect x="485" y="1" width="92" height="32" class="nonterminal"/>
      <text class="nonterminal" x="495" y="21">int_number</text>
   </a>
   <a xmlns:xlink="http://www.w3.org/1999/xlink"
      xlink:href="#int_number"
      xlink:title="int_number">
      <rect x="599" y="3" width="92" height="32"/>
      <rect x="597" y="1" width="92" height="32" class="nonterminal"/>
      <text class="nonterminal" x="607" y="21">int_number</text>
   </a>
   <path class="line"
         d="m17 17 h2 m0 0 h10 m54 0 h10 m0 0 h10 m92 0 h10 m0 0 h10 m52 0 h10 m0 0 h10 m92 0 h10 m0 0 h10 m66 0 h10 m0 0 h10 m92 0 h10 m0 0 h10 m92 0 h10 m3 0 h-3"/>
   <polygon points="709 17 717 13 717 21"/>
   <polygon points="709 17 701 13 701 21"/>
</svg>
