<?xml version="1.0" encoding="UTF-8"?>
<svg style="background: var(--diagram-bg, #FFFCF0)" xmlns="http://www.w3.org/2000/svg" width="223" height="69"><style>
  :root { --diagram-bg: #FFFCF0; }
</style>
   <defs>
      <style type="text/css">
    @namespace "http://www.w3.org/2000/svg";
    .line                 {fill: none; stroke: #332900; stroke-width: 1;}
    .bold-line            {stroke: #141000; shape-rendering: crispEdges; stroke-width: 2;}
    .thin-line            {stroke: #1F1800; shape-rendering: crispEdges}
    .filled               {fill: #332900; stroke: none;}
    text.terminal         {font-family: Verdana, Sans-serif;
                            font-size: 12px;
                            fill: #141000;
                            font-weight: bold;
                          }
    text.nonterminal      {font-family: Verdana, Sans-serif;
                            font-size: 12px;
                            fill: #1A1400;
                            font-weight: normal;
                          }
    text.regexp           {font-family: Verdana, Sans-serif;
                            font-size: 12px;
                            fill: #1F1800;
                            font-weight: normal;
                          }
    rect, circle, polygon {fill: #332900; stroke: #332900;}
    rect.terminal         {fill: #FFDB4D; stroke: #332900; stroke-width: 1;}
    rect.nonterminal      {fill: #FFEC9E; stroke: #332900; stroke-width: 1;}
    rect.text             {fill: none; stroke: none;}
    polygon.regexp        {fill: #FFF4C7; stroke: #332900; stroke-width: 1;}
  </style>
   </defs>
   <polygon points="9 17 1 13 1 21"/>
   <polygon points="17 17 9 13 9 21"/>
   <rect x="51" y="35" width="36" height="32" rx="10"/>
   <rect x="49"
         y="33"
         width="36"
         height="32"
         class="terminal"
         rx="10"/>
   <text class="terminal" x="59" y="53">\n</text>
   <a xmlns:xlink="http://www.w3.org/1999/xlink"
      xlink:href="#K_THEN"
      xlink:title="K_THEN">
      <rect x="127" y="3" width="68" height="32"/>
      <rect x="125" y="1" width="68" height="32" class="nonterminal"/>
      <text class="nonterminal" x="135" y="21">K_THEN</text>
   </a>
   <path class="line"
         d="m17 17 h2 m20 0 h10 m0 0 h46 m-76 0 h20 m56 0 h20 m-96 0 q10 0 10 10 m76 0 q0 -10 10 -10 m-86 10 v12 m76 0 v-12 m-76 12 q0 10 10 10 m56 0 q10 0 10 -10 m-66 10 h10 m36 0 h10 m20 -32 h10 m68 0 h10 m3 0 h-3"/>
   <polygon points="213 17 221 13 221 21"/>
   <polygon points="213 17 205 13 205 21"/>
</svg>
