<?xml version="1.0" encoding="UTF-8"?>
<svg style="background: var(--diagram-bg, #FFFCF0)" xmlns="http://www.w3.org/2000/svg" width="927" height="115"><style>
  :root { --diagram-bg: #FFFCF0; }
</style>
   <defs>
      <style type="text/css">
    @namespace "http://www.w3.org/2000/svg";
    .line                 {fill: none; stroke: #332900; stroke-width: 1;}
    .bold-line            {stroke: #141000; shape-rendering: crispEdges; stroke-width: 2;}
    .thin-line            {stroke: #1F1800; shape-rendering: crispEdges}
    .filled               {fill: #332900; stroke: none;}
    text.terminal         {font-family: Verdana, Sans-serif;
                            font-size: 12px;
                            fill: #141000;
                            font-weight: bold;
                          }
    text.nonterminal      {font-family: Verdana, Sans-serif;
                            font-size: 12px;
                            fill: #1A1400;
                            font-weight: normal;
                          }
    text.regexp           {font-family: Verdana, Sans-serif;
                            font-size: 12px;
                            fill: #1F1800;
                            font-weight: normal;
                          }
    rect, circle, polygon {fill: #332900; stroke: #332900;}
    rect.terminal         {fill: #FFDB4D; stroke: #332900; stroke-width: 1;}
    rect.nonterminal      {fill: #FFEC9E; stroke: #332900; stroke-width: 1;}
    rect.text             {fill: none; stroke: none;}
    polygon.regexp        {fill: #FFF4C7; stroke: #332900; stroke-width: 1;}
  </style>
   </defs>
   <polygon points="9 51 1 47 1 55"/>
   <polygon points="17 51 9 47 9 55"/>
   <a xmlns:xlink="http://www.w3.org/1999/xlink"
      xlink:href="#K_X"
      xlink:title="K_X">
      <rect x="51" y="37" width="44" height="32"/>
      <rect x="49" y="35" width="44" height="32" class="nonterminal"/>
      <text class="nonterminal" x="59" y="55">K_X</text>
   </a>
   <a xmlns:xlink="http://www.w3.org/1999/xlink"
      xlink:href="#K_Y"
      xlink:title="K_Y">
      <rect x="51" y="81" width="44" height="32"/>
      <rect x="49" y="79" width="44" height="32" class="nonterminal"/>
      <text class="nonterminal" x="59" y="99">K_Y</text>
   </a>
   <a xmlns:xlink="http://www.w3.org/1999/xlink"
      xlink:href="#int_number"
      xlink:title="int_number">
      <rect x="135" y="37" width="92" height="32"/>
      <rect x="133" y="35" width="92" height="32" class="nonterminal"/>
      <text class="nonterminal" x="143" y="55">int_number</text>
   </a>
   <a xmlns:xlink="http://www.w3.org/1999/xlink"
      xlink:href="#K_DO"
      xlink:title="K_DO">
      <rect x="247" y="37" width="54" height="32"/>
      <rect x="245" y="35" width="54" height="32" class="nonterminal"/>
      <text class="nonterminal" x="255" y="55">K_DO</text>
   </a>
   <a xmlns:xlink="http://www.w3.org/1999/xlink"
      xlink:href="#int_number"
      xlink:title="int_number">
      <rect x="321" y="37" width="92" height="32"/>
      <rect x="319" y="35" width="92" height="32" class="nonterminal"/>
      <text class="nonterminal" x="329" y="55">int_number</text>
   </a>
   <a xmlns:xlink="http://www.w3.org/1999/xlink"
      xlink:href="#K_STEP"
      xlink:title="K_STEP">
      <rect x="433" y="37" width="66" height="32"/>
      <rect x="431" y="35" width="66" height="32" class="nonterminal"/>
      <text class="nonterminal" x="441" y="55">K_STEP</text>
   </a>
   <a xmlns:xlink="http://www.w3.org/1999/xlink"
      xlink:href="#int_number"
      xlink:title="int_number">
      <rect x="519" y="37" width="92" height="32"/>
      <rect x="517" y="35" width="92" height="32" class="nonterminal"/>
      <text class="nonterminal" x="527" y="55">int_number</text>
   </a>
   <a xmlns:xlink="http://www.w3.org/1999/xlink"
      xlink:href="#K_LAYER"
      xlink:title="K_LAYER">
      <rect x="651" y="37" width="74" height="32"/>
      <rect x="649" y="35" width="74" height="32" class="nonterminal"/>
      <text class="nonterminal" x="659" y="55">K_LAYER</text>
   </a>
   <a xmlns:xlink="http://www.w3.org/1999/xlink"
      xlink:href="#layer_name"
      xlink:title="layer_name">
      <rect x="765" y="3" width="94" height="32"/>
      <rect x="763" y="1" width="94" height="32" class="nonterminal"/>
      <text class="nonterminal" x="773" y="21">layer_name</text>
   </a>
   <path class="line"
         d="m17 51 h2 m20 0 h10 m44 0 h10 m-84 0 h20 m64 0 h20 m-104 0 q10 0 10 10 m84 0 q0 -10 10 -10 m-94 10 v24 m84 0 v-24 m-84 24 q0 10 10 10 m64 0 q10 0 10 -10 m-74 10 h10 m44 0 h10 m20 -44 h10 m92 0 h10 m0 0 h10 m54 0 h10 m0 0 h10 m92 0 h10 m0 0 h10 m66 0 h10 m0 0 h10 m92 0 h10 m20 0 h10 m74 0 h10 m20 0 h10 m0 0 h104 m-134 0 l20 0 m-1 0 q-9 0 -9 -10 l0 -14 q0 -10 10 -10 m114 34 l20 0 m-20 0 q10 0 10 -10 l0 -14 q0 -10 -10 -10 m-114 0 h10 m94 0 h10 m-248 34 h20 m248 0 h20 m-288 0 q10 0 10 10 m268 0 q0 -10 10 -10 m-278 10 v14 m268 0 v-14 m-268 14 q0 10 10 10 m248 0 q10 0 10 -10 m-258 10 h10 m0 0 h238 m23 -34 h-3"/>
   <polygon points="917 51 925 47 925 55"/>
   <polygon points="917 51 909 47 909 55"/>
</svg>
