<?xml version="1.0" encoding="UTF-8"?>
<svg style="background: var(--diagram-bg, #FFFCF0)" xmlns="http://www.w3.org/2000/svg" width="499" height="37"><style>
  :root { --diagram-bg: #FFFCF0; }
</style>
   <defs>
      <style type="text/css">
    @namespace "http://www.w3.org/2000/svg";
    .line                 {fill: none; stroke: #332900; stroke-width: 1;}
    .bold-line            {stroke: #141000; shape-rendering: crispEdges; stroke-width: 2;}
    .thin-line            {stroke: #1F1800; shape-rendering: crispEdges}
    .filled               {fill: #332900; stroke: none;}
    text.terminal         {font-family: Verdana, Sans-serif;
                            font-size: 12px;
                            fill: #141000;
                            font-weight: bold;
                          }
    text.nonterminal      {font-family: Verdana, Sans-serif;
                            font-size: 12px;
                            fill: #1A1400;
                            font-weight: normal;
                          }
    text.regexp           {font-family: Verdana, Sans-serif;
                            font-size: 12px;
                            fill: #1F1800;
                            font-weight: normal;
                          }
    rect, circle, polygon {fill: #332900; stroke: #332900;}
    rect.terminal         {fill: #FFDB4D; stroke: #332900; stroke-width: 1;}
    rect.nonterminal      {fill: #FFEC9E; stroke: #332900; stroke-width: 1;}
    rect.text             {fill: none; stroke: none;}
    polygon.regexp        {fill: #FFF4C7; stroke: #332900; stroke-width: 1;}
  </style>
   </defs>
   <polygon points="9 17 1 13 1 21"/>
   <polygon points="17 17 9 13 9 21"/>
   <a xmlns:xlink="http://www.w3.org/1999/xlink"
      xlink:href="#K_USEMINSPACING"
      xlink:title="K_USEMINSPACING">
      <rect x="31" y="3" width="142" height="32"/>
      <rect x="29" y="1" width="142" height="32" class="nonterminal"/>
      <text class="nonterminal" x="39" y="21">K_USEMINSPACING</text>
   </a>
   <a xmlns:xlink="http://www.w3.org/1999/xlink"
      xlink:href="#spacing_type"
      xlink:title="spacing_type">
      <rect x="193" y="3" width="104" height="32"/>
      <rect x="191" y="1" width="104" height="32" class="nonterminal"/>
      <text class="nonterminal" x="201" y="21">spacing_type</text>
   </a>
   <a xmlns:xlink="http://www.w3.org/1999/xlink"
      xlink:href="#spacing_value"
      xlink:title="spacing_value">
      <rect x="317" y="3" width="110" height="32"/>
      <rect x="315" y="1" width="110" height="32" class="nonterminal"/>
      <text class="nonterminal" x="325" y="21">spacing_value</text>
   </a>
   <rect x="447" y="3" width="24" height="32" rx="10"/>
   <rect x="445"
         y="1"
         width="24"
         height="32"
         class="terminal"
         rx="10"/>
   <text class="terminal" x="455" y="21">;</text>
   <path class="line"
         d="m17 17 h2 m0 0 h10 m142 0 h10 m0 0 h10 m104 0 h10 m0 0 h10 m110 0 h10 m0 0 h10 m24 0 h10 m3 0 h-3"/>
   <polygon points="489 17 497 13 497 21"/>
   <polygon points="489 17 481 13 481 21"/>
</svg>
