<?xml version="1.0" encoding="UTF-8"?>
<svg style="background: var(--diagram-bg, #FFFCF0)" xmlns="http://www.w3.org/2000/svg" width="683" height="81"><style>
  :root { --diagram-bg: #FFFCF0; }
</style>
   <defs>
      <style type="text/css">
    @namespace "http://www.w3.org/2000/svg";
    .line                 {fill: none; stroke: #332900; stroke-width: 1;}
    .bold-line            {stroke: #141000; shape-rendering: crispEdges; stroke-width: 2;}
    .thin-line            {stroke: #1F1800; shape-rendering: crispEdges}
    .filled               {fill: #332900; stroke: none;}
    text.terminal         {font-family: Verdana, Sans-serif;
                            font-size: 12px;
                            fill: #141000;
                            font-weight: bold;
                          }
    text.nonterminal      {font-family: Verdana, Sans-serif;
                            font-size: 12px;
                            fill: #1A1400;
                            font-weight: normal;
                          }
    text.regexp           {font-family: Verdana, Sans-serif;
                            font-size: 12px;
                            fill: #1F1800;
                            font-weight: normal;
                          }
    rect, circle, polygon {fill: #332900; stroke: #332900;}
    rect.terminal         {fill: #FFDB4D; stroke: #332900; stroke-width: 1;}
    rect.nonterminal      {fill: #FFEC9E; stroke: #332900; stroke-width: 1;}
    rect.text             {fill: none; stroke: none;}
    polygon.regexp        {fill: #FFF4C7; stroke: #332900; stroke-width: 1;}
  </style>
   </defs>
   <polygon points="9 17 1 13 1 21"/>
   <polygon points="17 17 9 13 9 21"/>
   <a xmlns:xlink="http://www.w3.org/1999/xlink"
      xlink:href="#K_VIA"
      xlink:title="K_VIA">
      <rect x="31" y="3" width="58" height="32"/>
      <rect x="29" y="1" width="58" height="32" class="nonterminal"/>
      <text class="nonterminal" x="39" y="21">K_VIA</text>
   </a>
   <a xmlns:xlink="http://www.w3.org/1999/xlink"
      xlink:href="#maskColor"
      xlink:title="maskColor">
      <rect x="129" y="3" width="86" height="32"/>
      <rect x="127" y="1" width="86" height="32" class="nonterminal"/>
      <text class="nonterminal" x="137" y="21">maskColor</text>
   </a>
   <a xmlns:xlink="http://www.w3.org/1999/xlink"
      xlink:href="#pt"
      xlink:title="pt">
      <rect x="235" y="3" width="32" height="32"/>
      <rect x="233" y="1" width="32" height="32" class="nonterminal"/>
      <text class="nonterminal" x="243" y="21">pt</text>
   </a>
   <a xmlns:xlink="http://www.w3.org/1999/xlink"
      xlink:href="#T_STRING"
      xlink:title="T_STRING">
      <rect x="287" y="3" width="82" height="32"/>
      <rect x="285" y="1" width="82" height="32" class="nonterminal"/>
      <text class="nonterminal" x="295" y="21">T_STRING</text>
   </a>
   <a xmlns:xlink="http://www.w3.org/1999/xlink"
      xlink:href="#K_ITERATE"
      xlink:title="K_ITERATE">
      <rect x="129" y="47" width="88" height="32"/>
      <rect x="127" y="45" width="88" height="32" class="nonterminal"/>
      <text class="nonterminal" x="137" y="65">K_ITERATE</text>
   </a>
   <a xmlns:xlink="http://www.w3.org/1999/xlink"
      xlink:href="#maskColor"
      xlink:title="maskColor">
      <rect x="237" y="47" width="86" height="32"/>
      <rect x="235" y="45" width="86" height="32" class="nonterminal"/>
      <text class="nonterminal" x="245" y="65">maskColor</text>
   </a>
   <a xmlns:xlink="http://www.w3.org/1999/xlink"
      xlink:href="#pt"
      xlink:title="pt">
      <rect x="343" y="47" width="32" height="32"/>
      <rect x="341" y="45" width="32" height="32" class="nonterminal"/>
      <text class="nonterminal" x="351" y="65">pt</text>
   </a>
   <a xmlns:xlink="http://www.w3.org/1999/xlink"
      xlink:href="#T_STRING"
      xlink:title="T_STRING">
      <rect x="395" y="47" width="82" height="32"/>
      <rect x="393" y="45" width="82" height="32" class="nonterminal"/>
      <text class="nonterminal" x="403" y="65">T_STRING</text>
   </a>
   <a xmlns:xlink="http://www.w3.org/1999/xlink"
      xlink:href="#stepPattern"
      xlink:title="stepPattern">
      <rect x="497" y="47" width="94" height="32"/>
      <rect x="495" y="45" width="94" height="32" class="nonterminal"/>
      <text class="nonterminal" x="505" y="65">stepPattern</text>
   </a>
   <rect x="631" y="3" width="24" height="32" rx="10"/>
   <rect x="629"
         y="1"
         width="24"
         height="32"
         class="terminal"
         rx="10"/>
   <text class="terminal" x="639" y="21">;</text>
   <path class="line"
         d="m17 17 h2 m0 0 h10 m58 0 h10 m20 0 h10 m86 0 h10 m0 0 h10 m32 0 h10 m0 0 h10 m82 0 h10 m0 0 h222 m-502 0 h20 m482 0 h20 m-522 0 q10 0 10 10 m502 0 q0 -10 10 -10 m-512 10 v24 m502 0 v-24 m-502 24 q0 10 10 10 m482 0 q10 0 10 -10 m-492 10 h10 m88 0 h10 m0 0 h10 m86 0 h10 m0 0 h10 m32 0 h10 m0 0 h10 m82 0 h10 m0 0 h10 m94 0 h10 m20 -44 h10 m24 0 h10 m3 0 h-3"/>
   <polygon points="673 17 681 13 681 21"/>
   <polygon points="673 17 665 13 665 21"/>
</svg>
