<?xml version="1.0" encoding="UTF-8"?>
<svg style="background: var(--diagram-bg, #FFFCF0)" xmlns="http://www.w3.org/2000/svg" width="499" height="235"><style>
  :root { --diagram-bg: #FFFCF0; }
</style>
   <defs>
      <style type="text/css">
    @namespace "http://www.w3.org/2000/svg";
    .line                 {fill: none; stroke: #332900; stroke-width: 1;}
    .bold-line            {stroke: #141000; shape-rendering: crispEdges; stroke-width: 2;}
    .thin-line            {stroke: #1F1800; shape-rendering: crispEdges}
    .filled               {fill: #332900; stroke: none;}
    text.terminal         {font-family: Verdana, Sans-serif;
                            font-size: 12px;
                            fill: #141000;
                            font-weight: bold;
                          }
    text.nonterminal      {font-family: Verdana, Sans-serif;
                            font-size: 12px;
                            fill: #1A1400;
                            font-weight: normal;
                          }
    text.regexp           {font-family: Verdana, Sans-serif;
                            font-size: 12px;
                            fill: #1F1800;
                            font-weight: normal;
                          }
    rect, circle, polygon {fill: #332900; stroke: #332900;}
    rect.terminal         {fill: #FFDB4D; stroke: #332900; stroke-width: 1;}
    rect.nonterminal      {fill: #FFEC9E; stroke: #332900; stroke-width: 1;}
    rect.text             {fill: none; stroke: none;}
    polygon.regexp        {fill: #FFF4C7; stroke: #332900; stroke-width: 1;}
  </style>
   </defs>
   <polygon points="9 17 1 13 1 21"/>
   <polygon points="17 17 9 13 9 21"/>
   <a xmlns:xlink="http://www.w3.org/1999/xlink"
      xlink:href="#via_foreign"
      xlink:title="via_foreign">
      <rect x="51" y="3" width="90" height="32"/>
      <rect x="49" y="1" width="90" height="32" class="nonterminal"/>
      <text class="nonterminal" x="59" y="21">via_foreign</text>
   </a>
   <a xmlns:xlink="http://www.w3.org/1999/xlink"
      xlink:href="#via_layer_rule"
      xlink:title="via_layer_rule">
      <rect x="51" y="47" width="110" height="32"/>
      <rect x="49" y="45" width="110" height="32" class="nonterminal"/>
      <text class="nonterminal" x="59" y="65">via_layer_rule</text>
   </a>
   <a xmlns:xlink="http://www.w3.org/1999/xlink"
      xlink:href="#K_RESISTANCE"
      xlink:title="K_RESISTANCE">
      <rect x="71" y="91" width="114" height="32"/>
      <rect x="69" y="89" width="114" height="32" class="nonterminal"/>
      <text class="nonterminal" x="79" y="109">K_RESISTANCE</text>
   </a>
   <a xmlns:xlink="http://www.w3.org/1999/xlink"
      xlink:href="#int_number"
      xlink:title="int_number">
      <rect x="205" y="91" width="92" height="32"/>
      <rect x="203" y="89" width="92" height="32" class="nonterminal"/>
      <text class="nonterminal" x="213" y="109">int_number</text>
   </a>
   <a xmlns:xlink="http://www.w3.org/1999/xlink"
      xlink:href="#K_PROPERTY"
      xlink:title="K_PROPERTY">
      <rect x="71" y="157" width="100" height="32"/>
      <rect x="69" y="155" width="100" height="32" class="nonterminal"/>
      <text class="nonterminal" x="79" y="175">K_PROPERTY</text>
   </a>
   <a xmlns:xlink="http://www.w3.org/1999/xlink"
      xlink:href="#via_name_value_pair"
      xlink:title="via_name_value_pair">
      <rect x="211" y="157" width="156" height="32"/>
      <rect x="209" y="155" width="156" height="32" class="nonterminal"/>
      <text class="nonterminal" x="219" y="175">via_name_value_pair</text>
   </a>
   <rect x="427" y="91" width="24" height="32" rx="10"/>
   <rect x="425"
         y="89"
         width="24"
         height="32"
         class="terminal"
         rx="10"/>
   <text class="terminal" x="435" y="109">;</text>
   <a xmlns:xlink="http://www.w3.org/1999/xlink"
      xlink:href="#K_TOPOFSTACKONLY"
      xlink:title="K_TOPOFSTACKONLY">
      <rect x="51" y="201" width="150" height="32"/>
      <rect x="49" y="199" width="150" height="32" class="nonterminal"/>
      <text class="nonterminal" x="59" y="219">K_TOPOFSTACKONLY</text>
   </a>
   <path class="line"
         d="m17 17 h2 m20 0 h10 m90 0 h10 m0 0 h310 m-440 0 h20 m420 0 h20 m-460 0 q10 0 10 10 m440 0 q0 -10 10 -10 m-450 10 v24 m440 0 v-24 m-440 24 q0 10 10 10 m420 0 q10 0 10 -10 m-430 10 h10 m110 0 h10 m0 0 h290 m-430 -10 v20 m440 0 v-20 m-440 20 v24 m440 0 v-24 m-440 24 q0 10 10 10 m420 0 q10 0 10 -10 m-410 10 h10 m114 0 h10 m0 0 h10 m92 0 h10 m0 0 h90 m-356 0 h20 m336 0 h20 m-376 0 q10 0 10 10 m356 0 q0 -10 10 -10 m-366 10 v46 m356 0 v-46 m-356 46 q0 10 10 10 m336 0 q10 0 10 -10 m-346 10 h10 m100 0 h10 m20 0 h10 m156 0 h10 m-196 0 l20 0 m-1 0 q-9 0 -9 -10 l0 -12 q0 -10 10 -10 m176 32 l20 0 m-20 0 q10 0 10 -10 l0 -12 q0 -10 -10 -10 m-176 0 h10 m0 0 h166 m40 -34 h10 m24 0 h10 m-430 -10 v20 m440 0 v-20 m-440 20 v90 m440 0 v-90 m-440 90 q0 10 10 10 m420 0 q10 0 10 -10 m-430 10 h10 m150 0 h10 m0 0 h250 m23 -198 h-3"/>
   <polygon points="489 17 497 13 497 21"/>
   <polygon points="489 17 481 13 481 21"/>
</svg>
