<?xml version="1.0" encoding="UTF-8"?>
<svg style="background: var(--diagram-bg, #FFFCF0)" xmlns="http://www.w3.org/2000/svg" width="713" height="169"><style>
  :root { --diagram-bg: #FFFCF0; }
</style>
   <defs>
      <style type="text/css">
    @namespace "http://www.w3.org/2000/svg";
    .line                 {fill: none; stroke: #332900; stroke-width: 1;}
    .bold-line            {stroke: #141000; shape-rendering: crispEdges; stroke-width: 2;}
    .thin-line            {stroke: #1F1800; shape-rendering: crispEdges}
    .filled               {fill: #332900; stroke: none;}
    text.terminal         {font-family: Verdana, Sans-serif;
                            font-size: 12px;
                            fill: #141000;
                            font-weight: bold;
                          }
    text.nonterminal      {font-family: Verdana, Sans-serif;
                            font-size: 12px;
                            fill: #1A1400;
                            font-weight: normal;
                          }
    text.regexp           {font-family: Verdana, Sans-serif;
                            font-size: 12px;
                            fill: #1F1800;
                            font-weight: normal;
                          }
    rect, circle, polygon {fill: #332900; stroke: #332900;}
    rect.terminal         {fill: #FFDB4D; stroke: #332900; stroke-width: 1;}
    rect.nonterminal      {fill: #FFEC9E; stroke: #332900; stroke-width: 1;}
    rect.text             {fill: none; stroke: none;}
    polygon.regexp        {fill: #FFF4C7; stroke: #332900; stroke-width: 1;}
  </style>
   </defs>
   <polygon points="9 17 1 13 1 21"/>
   <polygon points="17 17 9 13 9 21"/>
   <a xmlns:xlink="http://www.w3.org/1999/xlink"
      xlink:href="#K_ROWCOL"
      xlink:title="K_ROWCOL">
      <rect x="71" y="3" width="92" height="32"/>
      <rect x="69" y="1" width="92" height="32" class="nonterminal"/>
      <text class="nonterminal" x="79" y="21">K_ROWCOL</text>
   </a>
   <a xmlns:xlink="http://www.w3.org/1999/xlink"
      xlink:href="#K_ORIGIN"
      xlink:title="K_ORIGIN">
      <rect x="71" y="47" width="82" height="32"/>
      <rect x="69" y="45" width="82" height="32" class="nonterminal"/>
      <text class="nonterminal" x="79" y="65">K_ORIGIN</text>
   </a>
   <a xmlns:xlink="http://www.w3.org/1999/xlink"
      xlink:href="#K_OFFSET"
      xlink:title="K_OFFSET">
      <rect x="71" y="91" width="82" height="32"/>
      <rect x="69" y="89" width="82" height="32" class="nonterminal"/>
      <text class="nonterminal" x="79" y="109">K_OFFSET</text>
   </a>
   <a xmlns:xlink="http://www.w3.org/1999/xlink"
      xlink:href="#int_number"
      xlink:title="int_number">
      <rect x="173" y="91" width="92" height="32"/>
      <rect x="171" y="89" width="92" height="32" class="nonterminal"/>
      <text class="nonterminal" x="181" y="109">int_number</text>
   </a>
   <a xmlns:xlink="http://www.w3.org/1999/xlink"
      xlink:href="#int_number"
      xlink:title="int_number">
      <rect x="285" y="91" width="92" height="32"/>
      <rect x="283" y="89" width="92" height="32" class="nonterminal"/>
      <text class="nonterminal" x="293" y="109">int_number</text>
   </a>
   <a xmlns:xlink="http://www.w3.org/1999/xlink"
      xlink:href="#int_number"
      xlink:title="int_number">
      <rect x="417" y="3" width="92" height="32"/>
      <rect x="415" y="1" width="92" height="32" class="nonterminal"/>
      <text class="nonterminal" x="425" y="21">int_number</text>
   </a>
   <a xmlns:xlink="http://www.w3.org/1999/xlink"
      xlink:href="#int_number"
      xlink:title="int_number">
      <rect x="529" y="3" width="92" height="32"/>
      <rect x="527" y="1" width="92" height="32" class="nonterminal"/>
      <text class="nonterminal" x="537" y="21">int_number</text>
   </a>
   <a xmlns:xlink="http://www.w3.org/1999/xlink"
      xlink:href="#K_PATTERN"
      xlink:title="K_PATTERN">
      <rect x="51" y="135" width="92" height="32"/>
      <rect x="49" y="133" width="92" height="32" class="nonterminal"/>
      <text class="nonterminal" x="59" y="153">K_PATTERN</text>
   </a>
   <a xmlns:xlink="http://www.w3.org/1999/xlink"
      xlink:href="#T_STRING"
      xlink:title="T_STRING">
      <rect x="163" y="135" width="82" height="32"/>
      <rect x="161" y="133" width="82" height="32" class="nonterminal"/>
      <text class="nonterminal" x="171" y="153">T_STRING</text>
   </a>
   <rect x="661" y="3" width="24" height="32" rx="10"/>
   <rect x="659"
         y="1"
         width="24"
         height="32"
         class="terminal"
         rx="10"/>
   <text class="terminal" x="669" y="21">;</text>
   <path class="line"
         d="m17 17 h2 m40 0 h10 m92 0 h10 m0 0 h214 m-346 0 h20 m326 0 h20 m-366 0 q10 0 10 10 m346 0 q0 -10 10 -10 m-356 10 v24 m346 0 v-24 m-346 24 q0 10 10 10 m326 0 q10 0 10 -10 m-336 10 h10 m82 0 h10 m0 0 h224 m-336 -10 v20 m346 0 v-20 m-346 20 v24 m346 0 v-24 m-346 24 q0 10 10 10 m326 0 q10 0 10 -10 m-336 10 h10 m82 0 h10 m0 0 h10 m92 0 h10 m0 0 h10 m92 0 h10 m20 -88 h10 m92 0 h10 m0 0 h10 m92 0 h10 m-610 0 h20 m590 0 h20 m-630 0 q10 0 10 10 m610 0 q0 -10 10 -10 m-620 10 v112 m610 0 v-112 m-610 112 q0 10 10 10 m590 0 q10 0 10 -10 m-600 10 h10 m92 0 h10 m0 0 h10 m82 0 h10 m0 0 h376 m20 -132 h10 m24 0 h10 m3 0 h-3"/>
   <polygon points="703 17 711 13 711 21"/>
   <polygon points="703 17 695 13 695 21"/>
</svg>
