<?xml version="1.0" encoding="UTF-8"?>
<svg style="background: var(--diagram-bg, #FFFCF0)" xmlns="http://www.w3.org/2000/svg" width="677" height="81"><style>
  :root { --diagram-bg: #FFFCF0; }
</style>
   <defs>
      <style type="text/css">
    @namespace "http://www.w3.org/2000/svg";
    .line                 {fill: none; stroke: #332900; stroke-width: 1;}
    .bold-line            {stroke: #141000; shape-rendering: crispEdges; stroke-width: 2;}
    .thin-line            {stroke: #1F1800; shape-rendering: crispEdges}
    .filled               {fill: #332900; stroke: none;}
    text.terminal         {font-family: Verdana, Sans-serif;
                            font-size: 12px;
                            fill: #141000;
                            font-weight: bold;
                          }
    text.nonterminal      {font-family: Verdana, Sans-serif;
                            font-size: 12px;
                            fill: #1A1400;
                            font-weight: normal;
                          }
    text.regexp           {font-family: Verdana, Sans-serif;
                            font-size: 12px;
                            fill: #1F1800;
                            font-weight: normal;
                          }
    rect, circle, polygon {fill: #332900; stroke: #332900;}
    rect.terminal         {fill: #FFDB4D; stroke: #332900; stroke-width: 1;}
    rect.nonterminal      {fill: #FFEC9E; stroke: #332900; stroke-width: 1;}
    rect.text             {fill: none; stroke: none;}
    polygon.regexp        {fill: #FFF4C7; stroke: #332900; stroke-width: 1;}
  </style>
   </defs>
   <polygon points="9 17 1 13 1 21"/>
   <polygon points="17 17 9 13 9 21"/>
   <a xmlns:xlink="http://www.w3.org/1999/xlink"
      xlink:href="#K_RECT"
      xlink:title="K_RECT">
      <rect x="51" y="3" width="68" height="32"/>
      <rect x="49" y="1" width="68" height="32" class="nonterminal"/>
      <text class="nonterminal" x="59" y="21">K_RECT</text>
   </a>
   <a xmlns:xlink="http://www.w3.org/1999/xlink"
      xlink:href="#maskColor"
      xlink:title="maskColor">
      <rect x="139" y="3" width="86" height="32"/>
      <rect x="137" y="1" width="86" height="32" class="nonterminal"/>
      <text class="nonterminal" x="147" y="21">maskColor</text>
   </a>
   <a xmlns:xlink="http://www.w3.org/1999/xlink"
      xlink:href="#pt"
      xlink:title="pt">
      <rect x="245" y="3" width="32" height="32"/>
      <rect x="243" y="1" width="32" height="32" class="nonterminal"/>
      <text class="nonterminal" x="253" y="21">pt</text>
   </a>
   <a xmlns:xlink="http://www.w3.org/1999/xlink"
      xlink:href="#pt"
      xlink:title="pt">
      <rect x="297" y="3" width="32" height="32"/>
      <rect x="295" y="1" width="32" height="32" class="nonterminal"/>
      <text class="nonterminal" x="305" y="21">pt</text>
   </a>
   <a xmlns:xlink="http://www.w3.org/1999/xlink"
      xlink:href="#K_POLYGON"
      xlink:title="K_POLYGON">
      <rect x="51" y="47" width="96" height="32"/>
      <rect x="49" y="45" width="96" height="32" class="nonterminal"/>
      <text class="nonterminal" x="59" y="65">K_POLYGON</text>
   </a>
   <a xmlns:xlink="http://www.w3.org/1999/xlink"
      xlink:href="#maskColor"
      xlink:title="maskColor">
      <rect x="167" y="47" width="86" height="32"/>
      <rect x="165" y="45" width="86" height="32" class="nonterminal"/>
      <text class="nonterminal" x="175" y="65">maskColor</text>
   </a>
   <a xmlns:xlink="http://www.w3.org/1999/xlink"
      xlink:href="#firstPt"
      xlink:title="firstPt">
      <rect x="273" y="47" width="58" height="32"/>
      <rect x="271" y="45" width="58" height="32" class="nonterminal"/>
      <text class="nonterminal" x="281" y="65">firstPt</text>
   </a>
   <a xmlns:xlink="http://www.w3.org/1999/xlink"
      xlink:href="#nextPt"
      xlink:title="nextPt">
      <rect x="351" y="47" width="60" height="32"/>
      <rect x="349" y="45" width="60" height="32" class="nonterminal"/>
      <text class="nonterminal" x="359" y="65">nextPt</text>
   </a>
   <a xmlns:xlink="http://www.w3.org/1999/xlink"
      xlink:href="#nextPt"
      xlink:title="nextPt">
      <rect x="431" y="47" width="60" height="32"/>
      <rect x="429" y="45" width="60" height="32" class="nonterminal"/>
      <text class="nonterminal" x="439" y="65">nextPt</text>
   </a>
   <a xmlns:xlink="http://www.w3.org/1999/xlink"
      xlink:href="#otherPts"
      xlink:title="otherPts">
      <rect x="511" y="47" width="74" height="32"/>
      <rect x="509" y="45" width="74" height="32" class="nonterminal"/>
      <text class="nonterminal" x="519" y="65">otherPts</text>
   </a>
   <rect x="625" y="3" width="24" height="32" rx="10"/>
   <rect x="623"
         y="1"
         width="24"
         height="32"
         class="terminal"
         rx="10"/>
   <text class="terminal" x="633" y="21">;</text>
   <path class="line"
         d="m17 17 h2 m20 0 h10 m68 0 h10 m0 0 h10 m86 0 h10 m0 0 h10 m32 0 h10 m0 0 h10 m32 0 h10 m0 0 h256 m-574 0 h20 m554 0 h20 m-594 0 q10 0 10 10 m574 0 q0 -10 10 -10 m-584 10 v24 m574 0 v-24 m-574 24 q0 10 10 10 m554 0 q10 0 10 -10 m-564 10 h10 m96 0 h10 m0 0 h10 m86 0 h10 m0 0 h10 m58 0 h10 m0 0 h10 m60 0 h10 m0 0 h10 m60 0 h10 m0 0 h10 m74 0 h10 m20 -44 h10 m24 0 h10 m3 0 h-3"/>
   <polygon points="667 17 675 13 675 21"/>
   <polygon points="667 17 659 13 659 21"/>
</svg>
