<?xml version="1.0" encoding="UTF-8"?>
<svg style="background: var(--diagram-bg, #FFFCF0)" xmlns="http://www.w3.org/2000/svg" width="303" height="71"><style>
  :root { --diagram-bg: #FFFCF0; }
</style>
   <defs>
      <style type="text/css">
    @namespace "http://www.w3.org/2000/svg";
    .line                 {fill: none; stroke: #332900; stroke-width: 1;}
    .bold-line            {stroke: #141000; shape-rendering: crispEdges; stroke-width: 2;}
    .thin-line            {stroke: #1F1800; shape-rendering: crispEdges}
    .filled               {fill: #332900; stroke: none;}
    text.terminal         {font-family: Verdana, Sans-serif;
                            font-size: 12px;
                            fill: #141000;
                            font-weight: bold;
                          }
    text.nonterminal      {font-family: Verdana, Sans-serif;
                            font-size: 12px;
                            fill: #1A1400;
                            font-weight: normal;
                          }
    text.regexp           {font-family: Verdana, Sans-serif;
                            font-size: 12px;
                            fill: #1F1800;
                            font-weight: normal;
                          }
    rect, circle, polygon {fill: #332900; stroke: #332900;}
    rect.terminal         {fill: #FFDB4D; stroke: #332900; stroke-width: 1;}
    rect.nonterminal      {fill: #FFEC9E; stroke: #332900; stroke-width: 1;}
    rect.text             {fill: none; stroke: none;}
    polygon.regexp        {fill: #FFF4C7; stroke: #332900; stroke-width: 1;}
  </style>
   </defs>
   <polygon points="9 51 1 47 1 55"/>
   <polygon points="17 51 9 47 9 55"/>
   <a xmlns:xlink="http://www.w3.org/1999/xlink"
      xlink:href="#via_layer"
      xlink:title="via_layer">
      <rect x="31" y="37" width="78" height="32"/>
      <rect x="29" y="35" width="78" height="32" class="nonterminal"/>
      <text class="nonterminal" x="39" y="55">via_layer</text>
   </a>
   <a xmlns:xlink="http://www.w3.org/1999/xlink"
      xlink:href="#via_geometry"
      xlink:title="via_geometry">
      <rect x="149" y="3" width="106" height="32"/>
      <rect x="147" y="1" width="106" height="32" class="nonterminal"/>
      <text class="nonterminal" x="157" y="21">via_geometry</text>
   </a>
   <path class="line"
         d="m17 51 h2 m0 0 h10 m78 0 h10 m20 0 h10 m0 0 h116 m-146 0 l20 0 m-1 0 q-9 0 -9 -10 l0 -14 q0 -10 10 -10 m126 34 l20 0 m-20 0 q10 0 10 -10 l0 -14 q0 -10 -10 -10 m-126 0 h10 m106 0 h10 m23 34 h-3"/>
   <polygon points="293 51 301 47 301 55"/>
   <polygon points="293 51 285 47 285 55"/>
</svg>
