<?xml version="1.0" encoding="UTF-8"?>
<svg style="background: var(--diagram-bg, #FFFCF0)" xmlns="http://www.w3.org/2000/svg" width="403" height="185"><style>
  :root { --diagram-bg: #FFFCF0; }
</style>
   <defs>
      <style type="text/css">
    @namespace "http://www.w3.org/2000/svg";
    .line                 {fill: none; stroke: #332900; stroke-width: 1;}
    .bold-line            {stroke: #141000; shape-rendering: crispEdges; stroke-width: 2;}
    .thin-line            {stroke: #1F1800; shape-rendering: crispEdges}
    .filled               {fill: #332900; stroke: none;}
    text.terminal         {font-family: Verdana, Sans-serif;
                            font-size: 12px;
                            fill: #141000;
                            font-weight: bold;
                          }
    text.nonterminal      {font-family: Verdana, Sans-serif;
                            font-size: 12px;
                            fill: #1A1400;
                            font-weight: normal;
                          }
    text.regexp           {font-family: Verdana, Sans-serif;
                            font-size: 12px;
                            fill: #1F1800;
                            font-weight: normal;
                          }
    rect, circle, polygon {fill: #332900; stroke: #332900;}
    rect.terminal         {fill: #FFDB4D; stroke: #332900; stroke-width: 1;}
    rect.nonterminal      {fill: #FFEC9E; stroke: #332900; stroke-width: 1;}
    rect.text             {fill: none; stroke: none;}
    polygon.regexp        {fill: #FFF4C7; stroke: #332900; stroke-width: 1;}
  </style>
   </defs>
   <polygon points="9 33 1 29 1 37"/>
   <polygon points="17 33 9 29 9 37"/>
   <a xmlns:xlink="http://www.w3.org/1999/xlink"
      xlink:href="#K_PROPERTY"
      xlink:title="K_PROPERTY">
      <rect x="51" y="19" width="100" height="32"/>
      <rect x="49" y="17" width="100" height="32" class="nonterminal"/>
      <text class="nonterminal" x="59" y="37">K_PROPERTY</text>
   </a>
   <a xmlns:xlink="http://www.w3.org/1999/xlink"
      xlink:href="#viarule_prop"
      xlink:title="viarule_prop">
      <rect x="191" y="19" width="100" height="32"/>
      <rect x="189" y="17" width="100" height="32" class="nonterminal"/>
      <text class="nonterminal" x="199" y="37">viarule_prop</text>
   </a>
   <rect x="331" y="19" width="24" height="32" rx="10"/>
   <rect x="329"
         y="17"
         width="24"
         height="32"
         class="terminal"
         rx="10"/>
   <text class="terminal" x="339" y="37">;</text>
   <a xmlns:xlink="http://www.w3.org/1999/xlink"
      xlink:href="#T_STRING"
      xlink:title="T_STRING">
      <rect x="51" y="63" width="82" height="32"/>
      <rect x="49" y="61" width="82" height="32" class="nonterminal"/>
      <text class="nonterminal" x="59" y="81">T_STRING</text>
   </a>
   <a xmlns:xlink="http://www.w3.org/1999/xlink"
      xlink:href="#T_STRING"
      xlink:title="T_STRING">
      <rect x="173" y="63" width="82" height="32"/>
      <rect x="171" y="61" width="82" height="32" class="nonterminal"/>
      <text class="nonterminal" x="181" y="81">T_STRING</text>
   </a>
   <a xmlns:xlink="http://www.w3.org/1999/xlink"
      xlink:href="#QSTRING"
      xlink:title="QSTRING">
      <rect x="173" y="107" width="76" height="32"/>
      <rect x="171" y="105" width="76" height="32" class="nonterminal"/>
      <text class="nonterminal" x="181" y="125">QSTRING</text>
   </a>
   <a xmlns:xlink="http://www.w3.org/1999/xlink"
      xlink:href="#NUMBER"
      xlink:title="NUMBER">
      <rect x="173" y="151" width="72" height="32"/>
      <rect x="171" y="149" width="72" height="32" class="nonterminal"/>
      <text class="nonterminal" x="181" y="169">NUMBER</text>
   </a>
   <path class="line"
         d="m17 33 h2 m20 0 h10 m100 0 h10 m20 0 h10 m100 0 h10 m-140 0 l20 0 m-1 0 q-9 0 -9 -10 l0 -12 q0 -10 10 -10 m120 32 l20 0 m-20 0 q10 0 10 -10 l0 -12 q0 -10 -10 -10 m-120 0 h10 m0 0 h110 m20 32 h10 m24 0 h10 m-344 0 h20 m324 0 h20 m-364 0 q10 0 10 10 m344 0 q0 -10 10 -10 m-354 10 v24 m344 0 v-24 m-344 24 q0 10 10 10 m324 0 q10 0 10 -10 m-334 10 h10 m82 0 h10 m20 0 h10 m82 0 h10 m-122 0 h20 m102 0 h20 m-142 0 q10 0 10 10 m122 0 q0 -10 10 -10 m-132 10 v24 m122 0 v-24 m-122 24 q0 10 10 10 m102 0 q10 0 10 -10 m-112 10 h10 m76 0 h10 m0 0 h6 m-112 -10 v20 m122 0 v-20 m-122 20 v24 m122 0 v-24 m-122 24 q0 10 10 10 m102 0 q10 0 10 -10 m-112 10 h10 m72 0 h10 m0 0 h10 m20 -88 h80 m23 -44 h-3"/>
   <polygon points="393 33 401 29 401 37"/>
   <polygon points="393 33 385 29 385 37"/>
</svg>
