<?xml version="1.0" encoding="UTF-8"?>
<svg style="background: var(--diagram-bg, #FFFCF0)" xmlns="http://www.w3.org/2000/svg" width="923" height="37"><style>
  :root { --diagram-bg: #FFFCF0; }
</style>
   <defs>
      <style type="text/css">
    @namespace "http://www.w3.org/2000/svg";
    .line                 {fill: none; stroke: #332900; stroke-width: 1;}
    .bold-line            {stroke: #141000; shape-rendering: crispEdges; stroke-width: 2;}
    .thin-line            {stroke: #1F1800; shape-rendering: crispEdges}
    .filled               {fill: #332900; stroke: none;}
    text.terminal         {font-family: Verdana, Sans-serif;
                            font-size: 12px;
                            fill: #141000;
                            font-weight: bold;
                          }
    text.nonterminal      {font-family: Verdana, Sans-serif;
                            font-size: 12px;
                            fill: #1A1400;
                            font-weight: normal;
                          }
    text.regexp           {font-family: Verdana, Sans-serif;
                            font-size: 12px;
                            fill: #1F1800;
                            font-weight: normal;
                          }
    rect, circle, polygon {fill: #332900; stroke: #332900;}
    rect.terminal         {fill: #FFDB4D; stroke: #332900; stroke-width: 1;}
    rect.nonterminal      {fill: #FFEC9E; stroke: #332900; stroke-width: 1;}
    rect.text             {fill: none; stroke: none;}
    polygon.regexp        {fill: #FFF4C7; stroke: #332900; stroke-width: 1;}
  </style>
   </defs>
   <polygon points="9 17 1 13 1 21"/>
   <polygon points="17 17 9 13 9 21"/>
   <a xmlns:xlink="http://www.w3.org/1999/xlink"
      xlink:href="#viarule_keyword"
      xlink:title="viarule_keyword">
      <rect x="31" y="3" width="124" height="32"/>
      <rect x="29" y="1" width="124" height="32" class="nonterminal"/>
      <text class="nonterminal" x="39" y="21">viarule_keyword</text>
   </a>
   <a xmlns:xlink="http://www.w3.org/1999/xlink"
      xlink:href="#K_GENERATE"
      xlink:title="K_GENERATE">
      <rect x="175" y="3" width="102" height="32"/>
      <rect x="173" y="1" width="102" height="32" class="nonterminal"/>
      <text class="nonterminal" x="183" y="21">K_GENERATE</text>
   </a>
   <a xmlns:xlink="http://www.w3.org/1999/xlink"
      xlink:href="#viarule_generate_default"
      xlink:title="viarule_generate_default">
      <rect x="297" y="3" width="180" height="32"/>
      <rect x="295" y="1" width="180" height="32" class="nonterminal"/>
      <text class="nonterminal" x="305" y="21">viarule_generate_default</text>
   </a>
   <a xmlns:xlink="http://www.w3.org/1999/xlink"
      xlink:href="#viarule_layer_list"
      xlink:title="viarule_layer_list">
      <rect x="497" y="3" width="128" height="32"/>
      <rect x="495" y="1" width="128" height="32" class="nonterminal"/>
      <text class="nonterminal" x="505" y="21">viarule_layer_list</text>
   </a>
   <a xmlns:xlink="http://www.w3.org/1999/xlink"
      xlink:href="#opt_viarule_props"
      xlink:title="opt_viarule_props">
      <rect x="645" y="3" width="136" height="32"/>
      <rect x="643" y="1" width="136" height="32" class="nonterminal"/>
      <text class="nonterminal" x="653" y="21">opt_viarule_props</text>
   </a>
   <a xmlns:xlink="http://www.w3.org/1999/xlink"
      xlink:href="#end_viarule"
      xlink:title="end_viarule">
      <rect x="801" y="3" width="94" height="32"/>
      <rect x="799" y="1" width="94" height="32" class="nonterminal"/>
      <text class="nonterminal" x="809" y="21">end_viarule</text>
   </a>
   <path class="line"
         d="m17 17 h2 m0 0 h10 m124 0 h10 m0 0 h10 m102 0 h10 m0 0 h10 m180 0 h10 m0 0 h10 m128 0 h10 m0 0 h10 m136 0 h10 m0 0 h10 m94 0 h10 m3 0 h-3"/>
   <polygon points="913 17 921 13 921 21"/>
   <polygon points="913 17 905 13 905 21"/>
</svg>
