<?xml version="1.0" encoding="UTF-8"?>
<svg style="background: var(--diagram-bg, #FFFCF0)" xmlns="http://www.w3.org/2000/svg" width="743" height="71"><style>
  :root { --diagram-bg: #FFFCF0; }
</style>
   <defs>
      <style type="text/css">
    @namespace "http://www.w3.org/2000/svg";
    .line                 {fill: none; stroke: #332900; stroke-width: 1;}
    .bold-line            {stroke: #141000; shape-rendering: crispEdges; stroke-width: 2;}
    .thin-line            {stroke: #1F1800; shape-rendering: crispEdges}
    .filled               {fill: #332900; stroke: none;}
    text.terminal         {font-family: Verdana, Sans-serif;
                            font-size: 12px;
                            fill: #141000;
                            font-weight: bold;
                          }
    text.nonterminal      {font-family: Verdana, Sans-serif;
                            font-size: 12px;
                            fill: #1A1400;
                            font-weight: normal;
                          }
    text.regexp           {font-family: Verdana, Sans-serif;
                            font-size: 12px;
                            fill: #1F1800;
                            font-weight: normal;
                          }
    rect, circle, polygon {fill: #332900; stroke: #332900;}
    rect.terminal         {fill: #FFDB4D; stroke: #332900; stroke-width: 1;}
    rect.nonterminal      {fill: #FFEC9E; stroke: #332900; stroke-width: 1;}
    rect.text             {fill: none; stroke: none;}
    polygon.regexp        {fill: #FFF4C7; stroke: #332900; stroke-width: 1;}
  </style>
   </defs>
   <polygon points="9 51 1 47 1 55"/>
   <polygon points="17 51 9 47 9 55"/>
   <a xmlns:xlink="http://www.w3.org/1999/xlink"
      xlink:href="#viarule_keyword"
      xlink:title="viarule_keyword">
      <rect x="31" y="37" width="124" height="32"/>
      <rect x="29" y="35" width="124" height="32" class="nonterminal"/>
      <text class="nonterminal" x="39" y="55">viarule_keyword</text>
   </a>
   <a xmlns:xlink="http://www.w3.org/1999/xlink"
      xlink:href="#viarule_layer_list"
      xlink:title="viarule_layer_list">
      <rect x="175" y="37" width="128" height="32"/>
      <rect x="173" y="35" width="128" height="32" class="nonterminal"/>
      <text class="nonterminal" x="183" y="55">viarule_layer_list</text>
   </a>
   <a xmlns:xlink="http://www.w3.org/1999/xlink"
      xlink:href="#via_name"
      xlink:title="via_name">
      <rect x="343" y="3" width="82" height="32"/>
      <rect x="341" y="1" width="82" height="32" class="nonterminal"/>
      <text class="nonterminal" x="351" y="21">via_name</text>
   </a>
   <a xmlns:xlink="http://www.w3.org/1999/xlink"
      xlink:href="#opt_viarule_props"
      xlink:title="opt_viarule_props">
      <rect x="465" y="37" width="136" height="32"/>
      <rect x="463" y="35" width="136" height="32" class="nonterminal"/>
      <text class="nonterminal" x="473" y="55">opt_viarule_props</text>
   </a>
   <a xmlns:xlink="http://www.w3.org/1999/xlink"
      xlink:href="#end_viarule"
      xlink:title="end_viarule">
      <rect x="621" y="37" width="94" height="32"/>
      <rect x="619" y="35" width="94" height="32" class="nonterminal"/>
      <text class="nonterminal" x="629" y="55">end_viarule</text>
   </a>
   <path class="line"
         d="m17 51 h2 m0 0 h10 m124 0 h10 m0 0 h10 m128 0 h10 m20 0 h10 m0 0 h92 m-122 0 l20 0 m-1 0 q-9 0 -9 -10 l0 -14 q0 -10 10 -10 m102 34 l20 0 m-20 0 q10 0 10 -10 l0 -14 q0 -10 -10 -10 m-102 0 h10 m82 0 h10 m20 34 h10 m136 0 h10 m0 0 h10 m94 0 h10 m3 0 h-3"/>
   <polygon points="733 51 741 47 741 55"/>
   <polygon points="733 51 725 47 725 55"/>
</svg>
