<?xml version="1.0" encoding="UTF-8"?>
<svg style="background: var(--diagram-bg, #FFFCF0)" xmlns="http://www.w3.org/2000/svg" width="529" height="149"><style>
  :root { --diagram-bg: #FFFCF0; }
</style>
   <defs>
      <style type="text/css">
    @namespace "http://www.w3.org/2000/svg";
    .line                 {fill: none; stroke: #332900; stroke-width: 1;}
    .bold-line            {stroke: #141000; shape-rendering: crispEdges; stroke-width: 2;}
    .thin-line            {stroke: #1F1800; shape-rendering: crispEdges}
    .filled               {fill: #332900; stroke: none;}
    text.terminal         {font-family: Verdana, Sans-serif;
                            font-size: 12px;
                            fill: #141000;
                            font-weight: bold;
                          }
    text.nonterminal      {font-family: Verdana, Sans-serif;
                            font-size: 12px;
                            fill: #1A1400;
                            font-weight: normal;
                          }
    text.regexp           {font-family: Verdana, Sans-serif;
                            font-size: 12px;
                            fill: #1F1800;
                            font-weight: normal;
                          }
    rect, circle, polygon {fill: #332900; stroke: #332900;}
    rect.terminal         {fill: #FFDB4D; stroke: #332900; stroke-width: 1;}
    rect.nonterminal      {fill: #FFEC9E; stroke: #332900; stroke-width: 1;}
    rect.text             {fill: none; stroke: none;}
    polygon.regexp        {fill: #FFF4C7; stroke: #332900; stroke-width: 1;}
  </style>
   </defs>
   <polygon points="9 51 1 47 1 55"/>
   <polygon points="17 51 9 47 9 55"/>
   <rect x="31" y="37" width="26" height="32" rx="10"/>
   <rect x="29"
         y="35"
         width="26"
         height="32"
         class="terminal"
         rx="10"/>
   <text class="terminal" x="39" y="55">-</text>
   <a xmlns:xlink="http://www.w3.org/1999/xlink"
      xlink:href="#K_LAYER"
      xlink:title="K_LAYER">
      <rect x="97" y="37" width="74" height="32"/>
      <rect x="95" y="35" width="74" height="32" class="nonterminal"/>
      <text class="nonterminal" x="105" y="55">K_LAYER</text>
   </a>
   <a xmlns:xlink="http://www.w3.org/1999/xlink"
      xlink:href="#T_STRING"
      xlink:title="T_STRING">
      <rect x="191" y="37" width="82" height="32"/>
      <rect x="189" y="35" width="82" height="32" class="nonterminal"/>
      <text class="nonterminal" x="199" y="55">T_STRING</text>
   </a>
   <a xmlns:xlink="http://www.w3.org/1999/xlink"
      xlink:href="#layer_blockage_rule"
      xlink:title="layer_blockage_rule">
      <rect x="313" y="3" width="148" height="32"/>
      <rect x="311" y="1" width="148" height="32" class="nonterminal"/>
      <text class="nonterminal" x="321" y="21">layer_blockage_rule</text>
   </a>
   <a xmlns:xlink="http://www.w3.org/1999/xlink"
      xlink:href="#K_PLACEMENT"
      xlink:title="K_PLACEMENT">
      <rect x="97" y="115" width="110" height="32"/>
      <rect x="95" y="113" width="110" height="32" class="nonterminal"/>
      <text class="nonterminal" x="105" y="133">K_PLACEMENT</text>
   </a>
   <a xmlns:xlink="http://www.w3.org/1999/xlink"
      xlink:href="#placement_comp_rule"
      xlink:title="placement_comp_rule">
      <rect x="247" y="81" width="160" height="32"/>
      <rect x="245" y="79" width="160" height="32" class="nonterminal"/>
      <text class="nonterminal" x="255" y="99">placement_comp_rule</text>
   </a>
   <path class="line"
         d="m17 51 h2 m0 0 h10 m26 0 h10 m20 0 h10 m74 0 h10 m0 0 h10 m82 0 h10 m20 0 h10 m0 0 h158 m-188 0 l20 0 m-1 0 q-9 0 -9 -10 l0 -14 q0 -10 10 -10 m168 34 l20 0 m-20 0 q10 0 10 -10 l0 -14 q0 -10 -10 -10 m-168 0 h10 m148 0 h10 m-404 34 h20 m404 0 h20 m-444 0 q10 0 10 10 m424 0 q0 -10 10 -10 m-434 10 v58 m424 0 v-58 m-424 58 q0 10 10 10 m404 0 q10 0 10 -10 m-414 10 h10 m110 0 h10 m20 0 h10 m0 0 h170 m-200 0 l20 0 m-1 0 q-9 0 -9 -10 l0 -14 q0 -10 10 -10 m180 34 l20 0 m-20 0 q10 0 10 -10 l0 -14 q0 -10 -10 -10 m-180 0 h10 m160 0 h10 m20 34 h54 m23 -78 h-3"/>
   <polygon points="519 51 527 47 527 55"/>
   <polygon points="519 51 511 47 511 55"/>
</svg>
