<?xml version="1.0" encoding="UTF-8"?>
<svg style="background: var(--diagram-bg, #FFFCF0)" xmlns="http://www.w3.org/2000/svg" width="323" height="37"><style>
  :root { --diagram-bg: #FFFCF0; }
</style>
   <defs>
      <style type="text/css">
    @namespace "http://www.w3.org/2000/svg";
    .line                 {fill: none; stroke: #332900; stroke-width: 1;}
    .bold-line            {stroke: #141000; shape-rendering: crispEdges; stroke-width: 2;}
    .thin-line            {stroke: #1F1800; shape-rendering: crispEdges}
    .filled               {fill: #332900; stroke: none;}
    text.terminal         {font-family: Verdana, Sans-serif;
                            font-size: 12px;
                            fill: #141000;
                            font-weight: bold;
                          }
    text.nonterminal      {font-family: Verdana, Sans-serif;
                            font-size: 12px;
                            fill: #1A1400;
                            font-weight: normal;
                          }
    text.regexp           {font-family: Verdana, Sans-serif;
                            font-size: 12px;
                            fill: #1F1800;
                            font-weight: normal;
                          }
    rect, circle, polygon {fill: #332900; stroke: #332900;}
    rect.terminal         {fill: #FFDB4D; stroke: #332900; stroke-width: 1;}
    rect.nonterminal      {fill: #FFEC9E; stroke: #332900; stroke-width: 1;}
    rect.text             {fill: none; stroke: none;}
    polygon.regexp        {fill: #FFF4C7; stroke: #332900; stroke-width: 1;}
  </style>
   </defs>
   <polygon points="9 17 1 13 1 21"/>
   <polygon points="17 17 9 13 9 21"/>
   <a xmlns:xlink="http://www.w3.org/1999/xlink"
      xlink:href="#K_BUSBITCHARS"
      xlink:title="K_BUSBITCHARS">
      <rect x="31" y="3" width="124" height="32"/>
      <rect x="29" y="1" width="124" height="32" class="nonterminal"/>
      <text class="nonterminal" x="39" y="21">K_BUSBITCHARS</text>
   </a>
   <a xmlns:xlink="http://www.w3.org/1999/xlink"
      xlink:href="#QSTRING"
      xlink:title="QSTRING">
      <rect x="175" y="3" width="76" height="32"/>
      <rect x="173" y="1" width="76" height="32" class="nonterminal"/>
      <text class="nonterminal" x="183" y="21">QSTRING</text>
   </a>
   <rect x="271" y="3" width="24" height="32" rx="10"/>
   <rect x="269"
         y="1"
         width="24"
         height="32"
         class="terminal"
         rx="10"/>
   <text class="terminal" x="279" y="21">;</text>
   <path class="line"
         d="m17 17 h2 m0 0 h10 m124 0 h10 m0 0 h10 m76 0 h10 m0 0 h10 m24 0 h10 m3 0 h-3"/>
   <polygon points="313 17 321 13 321 21"/>
   <polygon points="313 17 305 13 305 21"/>
</svg>
