<?xml version="1.0" encoding="UTF-8"?>
<svg style="background: var(--diagram-bg, #FFFCF0)" xmlns="http://www.w3.org/2000/svg" width="441" height="101"><style>
  :root { --diagram-bg: #FFFCF0; }
</style>
   <defs>
      <style type="text/css">
    @namespace "http://www.w3.org/2000/svg";
    .line                 {fill: none; stroke: #332900; stroke-width: 1;}
    .bold-line            {stroke: #141000; shape-rendering: crispEdges; stroke-width: 2;}
    .thin-line            {stroke: #1F1800; shape-rendering: crispEdges}
    .filled               {fill: #332900; stroke: none;}
    text.terminal         {font-family: Verdana, Sans-serif;
                            font-size: 12px;
                            fill: #141000;
                            font-weight: bold;
                          }
    text.nonterminal      {font-family: Verdana, Sans-serif;
                            font-size: 12px;
                            fill: #1A1400;
                            font-weight: normal;
                          }
    text.regexp           {font-family: Verdana, Sans-serif;
                            font-size: 12px;
                            fill: #1F1800;
                            font-weight: normal;
                          }
    rect, circle, polygon {fill: #332900; stroke: #332900;}
    rect.terminal         {fill: #FFDB4D; stroke: #332900; stroke-width: 1;}
    rect.nonterminal      {fill: #FFEC9E; stroke: #332900; stroke-width: 1;}
    rect.text             {fill: none; stroke: none;}
    polygon.regexp        {fill: #FFF4C7; stroke: #332900; stroke-width: 1;}
  </style>
   </defs>
   <polygon points="9 5 1 1 1 9"/>
   <polygon points="17 5 9 1 9 9"/>
   <a xmlns:xlink="http://www.w3.org/1999/xlink"
      xlink:href="#K_NAMESCASESENSITIVE"
      xlink:title="K_NAMESCASESENSITIVE">
      <rect x="51" y="23" width="178" height="32"/>
      <rect x="49" y="21" width="178" height="32" class="nonterminal"/>
      <text class="nonterminal" x="59" y="41">K_NAMESCASESENSITIVE</text>
   </a>
   <a xmlns:xlink="http://www.w3.org/1999/xlink"
      xlink:href="#K_ON"
      xlink:title="K_ON">
      <rect x="269" y="23" width="54" height="32"/>
      <rect x="267" y="21" width="54" height="32" class="nonterminal"/>
      <text class="nonterminal" x="277" y="41">K_ON</text>
   </a>
   <a xmlns:xlink="http://www.w3.org/1999/xlink"
      xlink:href="#K_OFF"
      xlink:title="K_OFF">
      <rect x="269" y="67" width="60" height="32"/>
      <rect x="267" y="65" width="60" height="32" class="nonterminal"/>
      <text class="nonterminal" x="277" y="85">K_OFF</text>
   </a>
   <rect x="369" y="23" width="24" height="32" rx="10"/>
   <rect x="367"
         y="21"
         width="24"
         height="32"
         class="terminal"
         rx="10"/>
   <text class="terminal" x="377" y="41">;</text>
   <path class="line"
         d="m17 5 h2 m20 0 h10 m0 0 h352 m-382 0 h20 m362 0 h20 m-402 0 q10 0 10 10 m382 0 q0 -10 10 -10 m-392 10 v12 m382 0 v-12 m-382 12 q0 10 10 10 m362 0 q10 0 10 -10 m-372 10 h10 m178 0 h10 m20 0 h10 m54 0 h10 m0 0 h6 m-100 0 h20 m80 0 h20 m-120 0 q10 0 10 10 m100 0 q0 -10 10 -10 m-110 10 v24 m100 0 v-24 m-100 24 q0 10 10 10 m80 0 q10 0 10 -10 m-90 10 h10 m60 0 h10 m20 -44 h10 m24 0 h10 m23 -32 h-3"/>
   <polygon points="431 5 439 1 439 9"/>
   <polygon points="431 5 423 1 423 9"/>
</svg>
