<?xml version="1.0" encoding="UTF-8"?>
<svg style="background: var(--diagram-bg, #FFFCF0)" xmlns="http://www.w3.org/2000/svg" width="259" height="521"><style>
  :root { --diagram-bg: #FFFCF0; }
</style>
   <defs>
      <style type="text/css">
    @namespace "http://www.w3.org/2000/svg";
    .line                 {fill: none; stroke: #332900; stroke-width: 1;}
    .bold-line            {stroke: #141000; shape-rendering: crispEdges; stroke-width: 2;}
    .thin-line            {stroke: #1F1800; shape-rendering: crispEdges}
    .filled               {fill: #332900; stroke: none;}
    text.terminal         {font-family: Verdana, Sans-serif;
                            font-size: 12px;
                            fill: #141000;
                            font-weight: bold;
                          }
    text.nonterminal      {font-family: Verdana, Sans-serif;
                            font-size: 12px;
                            fill: #1A1400;
                            font-weight: normal;
                          }
    text.regexp           {font-family: Verdana, Sans-serif;
                            font-size: 12px;
                            fill: #1F1800;
                            font-weight: normal;
                          }
    rect, circle, polygon {fill: #332900; stroke: #332900;}
    rect.terminal         {fill: #FFDB4D; stroke: #332900; stroke-width: 1;}
    rect.nonterminal      {fill: #FFEC9E; stroke: #332900; stroke-width: 1;}
    rect.text             {fill: none; stroke: none;}
    polygon.regexp        {fill: #FFF4C7; stroke: #332900; stroke-width: 1;}
  </style>
   </defs>
   <polygon points="9 17 1 13 1 21"/>
   <polygon points="17 17 9 13 9 21"/>
   <a xmlns:xlink="http://www.w3.org/1999/xlink"
      xlink:href="#comp_generate"
      xlink:title="comp_generate">
      <rect x="51" y="3" width="120" height="32"/>
      <rect x="49" y="1" width="120" height="32" class="nonterminal"/>
      <text class="nonterminal" x="59" y="21">comp_generate</text>
   </a>
   <a xmlns:xlink="http://www.w3.org/1999/xlink"
      xlink:href="#comp_source"
      xlink:title="comp_source">
      <rect x="51" y="47" width="104" height="32"/>
      <rect x="49" y="45" width="104" height="32" class="nonterminal"/>
      <text class="nonterminal" x="59" y="65">comp_source</text>
   </a>
   <a xmlns:xlink="http://www.w3.org/1999/xlink"
      xlink:href="#comp_type"
      xlink:title="comp_type">
      <rect x="51" y="91" width="90" height="32"/>
      <rect x="49" y="89" width="90" height="32" class="nonterminal"/>
      <text class="nonterminal" x="59" y="109">comp_type</text>
   </a>
   <a xmlns:xlink="http://www.w3.org/1999/xlink"
      xlink:href="#weight"
      xlink:title="weight">
      <rect x="51" y="135" width="62" height="32"/>
      <rect x="49" y="133" width="62" height="32" class="nonterminal"/>
      <text class="nonterminal" x="59" y="153">weight</text>
   </a>
   <a xmlns:xlink="http://www.w3.org/1999/xlink"
      xlink:href="#maskShift"
      xlink:title="maskShift">
      <rect x="51" y="179" width="82" height="32"/>
      <rect x="49" y="177" width="82" height="32" class="nonterminal"/>
      <text class="nonterminal" x="59" y="197">maskShift</text>
   </a>
   <a xmlns:xlink="http://www.w3.org/1999/xlink"
      xlink:href="#comp_foreign"
      xlink:title="comp_foreign">
      <rect x="51" y="223" width="106" height="32"/>
      <rect x="49" y="221" width="106" height="32" class="nonterminal"/>
      <text class="nonterminal" x="59" y="241">comp_foreign</text>
   </a>
   <a xmlns:xlink="http://www.w3.org/1999/xlink"
      xlink:href="#comp_region"
      xlink:title="comp_region">
      <rect x="51" y="267" width="102" height="32"/>
      <rect x="49" y="265" width="102" height="32" class="nonterminal"/>
      <text class="nonterminal" x="59" y="285">comp_region</text>
   </a>
   <a xmlns:xlink="http://www.w3.org/1999/xlink"
      xlink:href="#comp_eeq"
      xlink:title="comp_eeq">
      <rect x="51" y="311" width="86" height="32"/>
      <rect x="49" y="309" width="86" height="32" class="nonterminal"/>
      <text class="nonterminal" x="59" y="329">comp_eeq</text>
   </a>
   <a xmlns:xlink="http://www.w3.org/1999/xlink"
      xlink:href="#comp_halo"
      xlink:title="comp_halo">
      <rect x="51" y="355" width="88" height="32"/>
      <rect x="49" y="353" width="88" height="32" class="nonterminal"/>
      <text class="nonterminal" x="59" y="373">comp_halo</text>
   </a>
   <a xmlns:xlink="http://www.w3.org/1999/xlink"
      xlink:href="#comp_routehalo"
      xlink:title="comp_routehalo">
      <rect x="51" y="399" width="122" height="32"/>
      <rect x="49" y="397" width="122" height="32" class="nonterminal"/>
      <text class="nonterminal" x="59" y="417">comp_routehalo</text>
   </a>
   <a xmlns:xlink="http://www.w3.org/1999/xlink"
      xlink:href="#comp_property"
      xlink:title="comp_property">
      <rect x="51" y="443" width="116" height="32"/>
      <rect x="49" y="441" width="116" height="32" class="nonterminal"/>
      <text class="nonterminal" x="59" y="461">comp_property</text>
   </a>
   <a xmlns:xlink="http://www.w3.org/1999/xlink"
      xlink:href="#comp_extension_stmt"
      xlink:title="comp_extension_stmt">
      <rect x="51" y="487" width="160" height="32"/>
      <rect x="49" y="485" width="160" height="32" class="nonterminal"/>
      <text class="nonterminal" x="59" y="505">comp_extension_stmt</text>
   </a>
   <path class="line"
         d="m17 17 h2 m20 0 h10 m120 0 h10 m0 0 h40 m-200 0 h20 m180 0 h20 m-220 0 q10 0 10 10 m200 0 q0 -10 10 -10 m-210 10 v24 m200 0 v-24 m-200 24 q0 10 10 10 m180 0 q10 0 10 -10 m-190 10 h10 m104 0 h10 m0 0 h56 m-190 -10 v20 m200 0 v-20 m-200 20 v24 m200 0 v-24 m-200 24 q0 10 10 10 m180 0 q10 0 10 -10 m-190 10 h10 m90 0 h10 m0 0 h70 m-190 -10 v20 m200 0 v-20 m-200 20 v24 m200 0 v-24 m-200 24 q0 10 10 10 m180 0 q10 0 10 -10 m-190 10 h10 m62 0 h10 m0 0 h98 m-190 -10 v20 m200 0 v-20 m-200 20 v24 m200 0 v-24 m-200 24 q0 10 10 10 m180 0 q10 0 10 -10 m-190 10 h10 m82 0 h10 m0 0 h78 m-190 -10 v20 m200 0 v-20 m-200 20 v24 m200 0 v-24 m-200 24 q0 10 10 10 m180 0 q10 0 10 -10 m-190 10 h10 m106 0 h10 m0 0 h54 m-190 -10 v20 m200 0 v-20 m-200 20 v24 m200 0 v-24 m-200 24 q0 10 10 10 m180 0 q10 0 10 -10 m-190 10 h10 m102 0 h10 m0 0 h58 m-190 -10 v20 m200 0 v-20 m-200 20 v24 m200 0 v-24 m-200 24 q0 10 10 10 m180 0 q10 0 10 -10 m-190 10 h10 m86 0 h10 m0 0 h74 m-190 -10 v20 m200 0 v-20 m-200 20 v24 m200 0 v-24 m-200 24 q0 10 10 10 m180 0 q10 0 10 -10 m-190 10 h10 m88 0 h10 m0 0 h72 m-190 -10 v20 m200 0 v-20 m-200 20 v24 m200 0 v-24 m-200 24 q0 10 10 10 m180 0 q10 0 10 -10 m-190 10 h10 m122 0 h10 m0 0 h38 m-190 -10 v20 m200 0 v-20 m-200 20 v24 m200 0 v-24 m-200 24 q0 10 10 10 m180 0 q10 0 10 -10 m-190 10 h10 m116 0 h10 m0 0 h44 m-190 -10 v20 m200 0 v-20 m-200 20 v24 m200 0 v-24 m-200 24 q0 10 10 10 m180 0 q10 0 10 -10 m-190 10 h10 m160 0 h10 m23 -484 h-3"/>
   <polygon points="249 17 257 13 257 21"/>
   <polygon points="249 17 241 13 241 21"/>
</svg>
