<?xml version="1.0" encoding="UTF-8"?>
<svg style="background: var(--diagram-bg, #FFFCF0)" xmlns="http://www.w3.org/2000/svg" width="485" height="37"><style>
  :root { --diagram-bg: #FFFCF0; }
</style>
   <defs>
      <style type="text/css">
    @namespace "http://www.w3.org/2000/svg";
    .line                 {fill: none; stroke: #332900; stroke-width: 1;}
    .bold-line            {stroke: #141000; shape-rendering: crispEdges; stroke-width: 2;}
    .thin-line            {stroke: #1F1800; shape-rendering: crispEdges}
    .filled               {fill: #332900; stroke: none;}
    text.terminal         {font-family: Verdana, Sans-serif;
                            font-size: 12px;
                            fill: #141000;
                            font-weight: bold;
                          }
    text.nonterminal      {font-family: Verdana, Sans-serif;
                            font-size: 12px;
                            fill: #1A1400;
                            font-weight: normal;
                          }
    text.regexp           {font-family: Verdana, Sans-serif;
                            font-size: 12px;
                            fill: #1F1800;
                            font-weight: normal;
                          }
    rect, circle, polygon {fill: #332900; stroke: #332900;}
    rect.terminal         {fill: #FFDB4D; stroke: #332900; stroke-width: 1;}
    rect.nonterminal      {fill: #FFEC9E; stroke: #332900; stroke-width: 1;}
    rect.text             {fill: none; stroke: none;}
    polygon.regexp        {fill: #FFF4C7; stroke: #332900; stroke-width: 1;}
  </style>
   </defs>
   <polygon points="9 17 1 13 1 21"/>
   <polygon points="17 17 9 13 9 21"/>
   <rect x="31" y="3" width="30" height="32" rx="10"/>
   <rect x="29"
         y="1"
         width="30"
         height="32"
         class="terminal"
         rx="10"/>
   <text class="terminal" x="39" y="21">+</text>
   <a xmlns:xlink="http://www.w3.org/1999/xlink"
      xlink:href="#K_FOREIGN"
      xlink:title="K_FOREIGN">
      <rect x="81" y="3" width="92" height="32"/>
      <rect x="79" y="1" width="92" height="32" class="nonterminal"/>
      <text class="nonterminal" x="89" y="21">K_FOREIGN</text>
   </a>
   <a xmlns:xlink="http://www.w3.org/1999/xlink"
      xlink:href="#T_STRING"
      xlink:title="T_STRING">
      <rect x="193" y="3" width="82" height="32"/>
      <rect x="191" y="1" width="82" height="32" class="nonterminal"/>
      <text class="nonterminal" x="201" y="21">T_STRING</text>
   </a>
   <a xmlns:xlink="http://www.w3.org/1999/xlink"
      xlink:href="#opt_paren"
      xlink:title="opt_paren">
      <rect x="295" y="3" width="86" height="32"/>
      <rect x="293" y="1" width="86" height="32" class="nonterminal"/>
      <text class="nonterminal" x="303" y="21">opt_paren</text>
   </a>
   <a xmlns:xlink="http://www.w3.org/1999/xlink"
      xlink:href="#orient"
      xlink:title="orient">
      <rect x="401" y="3" width="56" height="32"/>
      <rect x="399" y="1" width="56" height="32" class="nonterminal"/>
      <text class="nonterminal" x="409" y="21">orient</text>
   </a>
   <path class="line"
         d="m17 17 h2 m0 0 h10 m30 0 h10 m0 0 h10 m92 0 h10 m0 0 h10 m82 0 h10 m0 0 h10 m86 0 h10 m0 0 h10 m56 0 h10 m3 0 h-3"/>
   <polygon points="475 17 483 13 483 21"/>
   <polygon points="475 17 467 13 467 21"/>
</svg>
