<?xml version="1.0" encoding="UTF-8"?>
<svg style="background: var(--diagram-bg, #FFFCF0)" xmlns="http://www.w3.org/2000/svg" width="357" height="71"><style>
  :root { --diagram-bg: #FFFCF0; }
</style>
   <defs>
      <style type="text/css">
    @namespace "http://www.w3.org/2000/svg";
    .line                 {fill: none; stroke: #332900; stroke-width: 1;}
    .bold-line            {stroke: #141000; shape-rendering: crispEdges; stroke-width: 2;}
    .thin-line            {stroke: #1F1800; shape-rendering: crispEdges}
    .filled               {fill: #332900; stroke: none;}
    text.terminal         {font-family: Verdana, Sans-serif;
                            font-size: 12px;
                            fill: #141000;
                            font-weight: bold;
                          }
    text.nonterminal      {font-family: Verdana, Sans-serif;
                            font-size: 12px;
                            fill: #1A1400;
                            font-weight: normal;
                          }
    text.regexp           {font-family: Verdana, Sans-serif;
                            font-size: 12px;
                            fill: #1F1800;
                            font-weight: normal;
                          }
    rect, circle, polygon {fill: #332900; stroke: #332900;}
    rect.terminal         {fill: #FFDB4D; stroke: #332900; stroke-width: 1;}
    rect.nonterminal      {fill: #FFEC9E; stroke: #332900; stroke-width: 1;}
    rect.text             {fill: none; stroke: none;}
    polygon.regexp        {fill: #FFF4C7; stroke: #332900; stroke-width: 1;}
  </style>
   </defs>
   <polygon points="9 51 1 47 1 55"/>
   <polygon points="17 51 9 47 9 55"/>
   <a xmlns:xlink="http://www.w3.org/1999/xlink"
      xlink:href="#comp_start"
      xlink:title="comp_start">
      <rect x="31" y="37" width="92" height="32"/>
      <rect x="29" y="35" width="92" height="32" class="nonterminal"/>
      <text class="nonterminal" x="39" y="55">comp_start</text>
   </a>
   <a xmlns:xlink="http://www.w3.org/1999/xlink"
      xlink:href="#comp_option"
      xlink:title="comp_option">
      <rect x="163" y="3" width="102" height="32"/>
      <rect x="161" y="1" width="102" height="32" class="nonterminal"/>
      <text class="nonterminal" x="171" y="21">comp_option</text>
   </a>
   <rect x="305" y="37" width="24" height="32" rx="10"/>
   <rect x="303"
         y="35"
         width="24"
         height="32"
         class="terminal"
         rx="10"/>
   <text class="terminal" x="313" y="55">;</text>
   <path class="line"
         d="m17 51 h2 m0 0 h10 m92 0 h10 m20 0 h10 m0 0 h112 m-142 0 l20 0 m-1 0 q-9 0 -9 -10 l0 -14 q0 -10 10 -10 m122 34 l20 0 m-20 0 q10 0 10 -10 l0 -14 q0 -10 -10 -10 m-122 0 h10 m102 0 h10 m20 34 h10 m24 0 h10 m3 0 h-3"/>
   <polygon points="347 51 355 47 355 55"/>
   <polygon points="347 51 339 47 339 55"/>
</svg>
