<?xml version="1.0" encoding="UTF-8"?>
<svg style="background: var(--diagram-bg, #FFFCF0)" xmlns="http://www.w3.org/2000/svg" width="365" height="213"><style>
  :root { --diagram-bg: #FFFCF0; }
</style>
   <defs>
      <style type="text/css">
    @namespace "http://www.w3.org/2000/svg";
    .line                 {fill: none; stroke: #332900; stroke-width: 1;}
    .bold-line            {stroke: #141000; shape-rendering: crispEdges; stroke-width: 2;}
    .thin-line            {stroke: #1F1800; shape-rendering: crispEdges}
    .filled               {fill: #332900; stroke: none;}
    text.terminal         {font-family: Verdana, Sans-serif;
                            font-size: 12px;
                            fill: #141000;
                            font-weight: bold;
                          }
    text.nonterminal      {font-family: Verdana, Sans-serif;
                            font-size: 12px;
                            fill: #1A1400;
                            font-weight: normal;
                          }
    text.regexp           {font-family: Verdana, Sans-serif;
                            font-size: 12px;
                            fill: #1F1800;
                            font-weight: normal;
                          }
    rect, circle, polygon {fill: #332900; stroke: #332900;}
    rect.terminal         {fill: #FFDB4D; stroke: #332900; stroke-width: 1;}
    rect.nonterminal      {fill: #FFEC9E; stroke: #332900; stroke-width: 1;}
    rect.text             {fill: none; stroke: none;}
    polygon.regexp        {fill: #FFF4C7; stroke: #332900; stroke-width: 1;}
  </style>
   </defs>
   <polygon points="9 17 1 13 1 21"/>
   <polygon points="17 17 9 13 9 21"/>
   <rect x="31" y="3" width="30" height="32" rx="10"/>
   <rect x="29"
         y="1"
         width="30"
         height="32"
         class="terminal"
         rx="10"/>
   <text class="terminal" x="39" y="21">+</text>
   <a xmlns:xlink="http://www.w3.org/1999/xlink"
      xlink:href="#K_COMPONENT"
      xlink:title="K_COMPONENT">
      <rect x="101" y="3" width="114" height="32"/>
      <rect x="99" y="1" width="114" height="32" class="nonterminal"/>
      <text class="nonterminal" x="109" y="21">K_COMPONENT</text>
   </a>
   <a xmlns:xlink="http://www.w3.org/1999/xlink"
      xlink:href="#T_STRING"
      xlink:title="T_STRING">
      <rect x="235" y="3" width="82" height="32"/>
      <rect x="233" y="1" width="82" height="32" class="nonterminal"/>
      <text class="nonterminal" x="243" y="21">T_STRING</text>
   </a>
   <a xmlns:xlink="http://www.w3.org/1999/xlink"
      xlink:href="#K_SLOTS"
      xlink:title="K_SLOTS">
      <rect x="101" y="47" width="76" height="32"/>
      <rect x="99" y="45" width="76" height="32" class="nonterminal"/>
      <text class="nonterminal" x="109" y="65">K_SLOTS</text>
   </a>
   <a xmlns:xlink="http://www.w3.org/1999/xlink"
      xlink:href="#K_FILLS"
      xlink:title="K_FILLS">
      <rect x="101" y="91" width="70" height="32"/>
      <rect x="99" y="89" width="70" height="32" class="nonterminal"/>
      <text class="nonterminal" x="109" y="109">K_FILLS</text>
   </a>
   <a xmlns:xlink="http://www.w3.org/1999/xlink"
      xlink:href="#K_PUSHDOWN"
      xlink:title="K_PUSHDOWN">
      <rect x="101" y="135" width="110" height="32"/>
      <rect x="99" y="133" width="110" height="32" class="nonterminal"/>
      <text class="nonterminal" x="109" y="153">K_PUSHDOWN</text>
   </a>
   <a xmlns:xlink="http://www.w3.org/1999/xlink"
      xlink:href="#K_EXCEPTPGNET"
      xlink:title="K_EXCEPTPGNET">
      <rect x="101" y="179" width="126" height="32"/>
      <rect x="99" y="177" width="126" height="32" class="nonterminal"/>
      <text class="nonterminal" x="109" y="197">K_EXCEPTPGNET</text>
   </a>
   <path class="line"
         d="m17 17 h2 m0 0 h10 m30 0 h10 m20 0 h10 m114 0 h10 m0 0 h10 m82 0 h10 m-256 0 h20 m236 0 h20 m-276 0 q10 0 10 10 m256 0 q0 -10 10 -10 m-266 10 v24 m256 0 v-24 m-256 24 q0 10 10 10 m236 0 q10 0 10 -10 m-246 10 h10 m76 0 h10 m0 0 h140 m-246 -10 v20 m256 0 v-20 m-256 20 v24 m256 0 v-24 m-256 24 q0 10 10 10 m236 0 q10 0 10 -10 m-246 10 h10 m70 0 h10 m0 0 h146 m-246 -10 v20 m256 0 v-20 m-256 20 v24 m256 0 v-24 m-256 24 q0 10 10 10 m236 0 q10 0 10 -10 m-246 10 h10 m110 0 h10 m0 0 h106 m-246 -10 v20 m256 0 v-20 m-256 20 v24 m256 0 v-24 m-256 24 q0 10 10 10 m236 0 q10 0 10 -10 m-246 10 h10 m126 0 h10 m0 0 h90 m23 -176 h-3"/>
   <polygon points="355 17 363 13 363 21"/>
   <polygon points="355 17 347 13 347 21"/>
</svg>
