<?xml version="1.0" encoding="UTF-8"?>
<svg style="background: var(--diagram-bg, #FFFCF0)" xmlns="http://www.w3.org/2000/svg" width="383" height="97"><style>
  :root { --diagram-bg: #FFFCF0; }
</style>
   <defs>
      <style type="text/css">
    @namespace "http://www.w3.org/2000/svg";
    .line                 {fill: none; stroke: #332900; stroke-width: 1;}
    .bold-line            {stroke: #141000; shape-rendering: crispEdges; stroke-width: 2;}
    .thin-line            {stroke: #1F1800; shape-rendering: crispEdges}
    .filled               {fill: #332900; stroke: none;}
    text.terminal         {font-family: Verdana, Sans-serif;
                            font-size: 12px;
                            fill: #141000;
                            font-weight: bold;
                          }
    text.nonterminal      {font-family: Verdana, Sans-serif;
                            font-size: 12px;
                            fill: #1A1400;
                            font-weight: normal;
                          }
    text.regexp           {font-family: Verdana, Sans-serif;
                            font-size: 12px;
                            fill: #1F1800;
                            font-weight: normal;
                          }
    rect, circle, polygon {fill: #332900; stroke: #332900;}
    rect.terminal         {fill: #FFDB4D; stroke: #332900; stroke-width: 1;}
    rect.nonterminal      {fill: #FFEC9E; stroke: #332900; stroke-width: 1;}
    rect.text             {fill: none; stroke: none;}
    polygon.regexp        {fill: #FFF4C7; stroke: #332900; stroke-width: 1;}
  </style>
   </defs>
   <polygon points="9 33 1 29 1 37"/>
   <polygon points="17 33 9 29 9 37"/>
   <a xmlns:xlink="http://www.w3.org/1999/xlink"
      xlink:href="#comp_region_start"
      xlink:title="comp_region_start">
      <rect x="31" y="19" width="140" height="32"/>
      <rect x="29" y="17" width="140" height="32" class="nonterminal"/>
      <text class="nonterminal" x="39" y="37">comp_region_start</text>
   </a>
   <a xmlns:xlink="http://www.w3.org/1999/xlink"
      xlink:href="#pt"
      xlink:title="pt">
      <rect x="231" y="19" width="32" height="32"/>
      <rect x="229" y="17" width="32" height="32" class="nonterminal"/>
      <text class="nonterminal" x="239" y="37">pt</text>
   </a>
   <a xmlns:xlink="http://www.w3.org/1999/xlink"
      xlink:href="#pt"
      xlink:title="pt">
      <rect x="283" y="19" width="32" height="32"/>
      <rect x="281" y="17" width="32" height="32" class="nonterminal"/>
      <text class="nonterminal" x="291" y="37">pt</text>
   </a>
   <a xmlns:xlink="http://www.w3.org/1999/xlink"
      xlink:href="#T_STRING"
      xlink:title="T_STRING">
      <rect x="211" y="63" width="82" height="32"/>
      <rect x="209" y="61" width="82" height="32" class="nonterminal"/>
      <text class="nonterminal" x="219" y="81">T_STRING</text>
   </a>
   <path class="line"
         d="m17 33 h2 m0 0 h10 m140 0 h10 m40 0 h10 m32 0 h10 m0 0 h10 m32 0 h10 m-124 0 l20 0 m-1 0 q-9 0 -9 -10 l0 -12 q0 -10 10 -10 m104 32 l20 0 m-20 0 q10 0 10 -10 l0 -12 q0 -10 -10 -10 m-104 0 h10 m0 0 h94 m-144 32 h20 m144 0 h20 m-184 0 q10 0 10 10 m164 0 q0 -10 10 -10 m-174 10 v24 m164 0 v-24 m-164 24 q0 10 10 10 m144 0 q10 0 10 -10 m-154 10 h10 m82 0 h10 m0 0 h42 m23 -44 h-3"/>
   <polygon points="373 33 381 29 381 37"/>
   <polygon points="373 33 365 29 365 37"/>
</svg>
