<?xml version="1.0" encoding="UTF-8"?>
<svg style="background: var(--diagram-bg, #FFFCF0)" xmlns="http://www.w3.org/2000/svg" width="431" height="115"><style>
  :root { --diagram-bg: #FFFCF0; }
</style>
   <defs>
      <style type="text/css">
    @namespace "http://www.w3.org/2000/svg";
    .line                 {fill: none; stroke: #332900; stroke-width: 1;}
    .bold-line            {stroke: #141000; shape-rendering: crispEdges; stroke-width: 2;}
    .thin-line            {stroke: #1F1800; shape-rendering: crispEdges}
    .filled               {fill: #332900; stroke: none;}
    text.terminal         {font-family: Verdana, Sans-serif;
                            font-size: 12px;
                            fill: #141000;
                            font-weight: bold;
                          }
    text.nonterminal      {font-family: Verdana, Sans-serif;
                            font-size: 12px;
                            fill: #1A1400;
                            font-weight: normal;
                          }
    text.regexp           {font-family: Verdana, Sans-serif;
                            font-size: 12px;
                            fill: #1F1800;
                            font-weight: normal;
                          }
    rect, circle, polygon {fill: #332900; stroke: #332900;}
    rect.terminal         {fill: #FFDB4D; stroke: #332900; stroke-width: 1;}
    rect.nonterminal      {fill: #FFEC9E; stroke: #332900; stroke-width: 1;}
    rect.text             {fill: none; stroke: none;}
    polygon.regexp        {fill: #FFF4C7; stroke: #332900; stroke-width: 1;}
  </style>
   </defs>
   <polygon points="9 51 1 47 1 55"/>
   <polygon points="17 51 9 47 9 55"/>
   <rect x="31" y="37" width="30" height="32" rx="10"/>
   <rect x="29"
         y="35"
         width="30"
         height="32"
         class="terminal"
         rx="10"/>
   <text class="terminal" x="39" y="55">+</text>
   <a xmlns:xlink="http://www.w3.org/1999/xlink"
      xlink:href="#K_BOTTOMLEFT"
      xlink:title="K_BOTTOMLEFT">
      <rect x="101" y="37" width="116" height="32"/>
      <rect x="99" y="35" width="116" height="32" class="nonterminal"/>
      <text class="nonterminal" x="109" y="55">K_BOTTOMLEFT</text>
   </a>
   <a xmlns:xlink="http://www.w3.org/1999/xlink"
      xlink:href="#K_TOPRIGHT"
      xlink:title="K_TOPRIGHT">
      <rect x="101" y="81" width="98" height="32"/>
      <rect x="99" y="79" width="98" height="32" class="nonterminal"/>
      <text class="nonterminal" x="109" y="99">K_TOPRIGHT</text>
   </a>
   <a xmlns:xlink="http://www.w3.org/1999/xlink"
      xlink:href="#row_or_comp"
      xlink:title="row_or_comp">
      <rect x="277" y="3" width="106" height="32"/>
      <rect x="275" y="1" width="106" height="32" class="nonterminal"/>
      <text class="nonterminal" x="285" y="21">row_or_comp</text>
   </a>
   <path class="line"
         d="m17 51 h2 m0 0 h10 m30 0 h10 m20 0 h10 m116 0 h10 m-156 0 h20 m136 0 h20 m-176 0 q10 0 10 10 m156 0 q0 -10 10 -10 m-166 10 v24 m156 0 v-24 m-156 24 q0 10 10 10 m136 0 q10 0 10 -10 m-146 10 h10 m98 0 h10 m0 0 h18 m40 -44 h10 m0 0 h116 m-146 0 l20 0 m-1 0 q-9 0 -9 -10 l0 -14 q0 -10 10 -10 m126 34 l20 0 m-20 0 q10 0 10 -10 l0 -14 q0 -10 -10 -10 m-126 0 h10 m106 0 h10 m23 34 h-3"/>
   <polygon points="421 51 429 47 429 55"/>
   <polygon points="421 51 413 47 413 55"/>
</svg>
