<?xml version="1.0" encoding="UTF-8"?>
<svg style="background: var(--diagram-bg, #FFFCF0)" xmlns="http://www.w3.org/2000/svg" width="633" height="103"><style>
  :root { --diagram-bg: #FFFCF0; }
</style>
   <defs>
      <style type="text/css">
    @namespace "http://www.w3.org/2000/svg";
    .line                 {fill: none; stroke: #332900; stroke-width: 1;}
    .bold-line            {stroke: #141000; shape-rendering: crispEdges; stroke-width: 2;}
    .thin-line            {stroke: #1F1800; shape-rendering: crispEdges}
    .filled               {fill: #332900; stroke: none;}
    text.terminal         {font-family: Verdana, Sans-serif;
                            font-size: 12px;
                            fill: #141000;
                            font-weight: bold;
                          }
    text.nonterminal      {font-family: Verdana, Sans-serif;
                            font-size: 12px;
                            fill: #1A1400;
                            font-weight: normal;
                          }
    text.regexp           {font-family: Verdana, Sans-serif;
                            font-size: 12px;
                            fill: #1F1800;
                            font-weight: normal;
                          }
    rect, circle, polygon {fill: #332900; stroke: #332900;}
    rect.terminal         {fill: #FFDB4D; stroke: #332900; stroke-width: 1;}
    rect.nonterminal      {fill: #FFEC9E; stroke: #332900; stroke-width: 1;}
    rect.text             {fill: none; stroke: none;}
    polygon.regexp        {fill: #FFF4C7; stroke: #332900; stroke-width: 1;}
  </style>
   </defs>
   <polygon points="9 51 1 47 1 55"/>
   <polygon points="17 51 9 47 9 55"/>
   <a xmlns:xlink="http://www.w3.org/1999/xlink"
      xlink:href="#version_stmt"
      xlink:title="version_stmt">
      <rect x="31" y="37" width="102" height="32"/>
      <rect x="29" y="35" width="102" height="32" class="nonterminal"/>
      <text class="nonterminal" x="39" y="55">version_stmt</text>
   </a>
   <a xmlns:xlink="http://www.w3.org/1999/xlink"
      xlink:href="#case_sens_stmt"
      xlink:title="case_sens_stmt">
      <rect x="153" y="37" width="124" height="32"/>
      <rect x="151" y="35" width="124" height="32" class="nonterminal"/>
      <text class="nonterminal" x="161" y="55">case_sens_stmt</text>
   </a>
   <a xmlns:xlink="http://www.w3.org/1999/xlink"
      xlink:href="#error"
      xlink:title="error">
      <rect x="317" y="69" width="50" height="32"/>
      <rect x="315" y="67" width="50" height="32" class="nonterminal"/>
      <text class="nonterminal" x="325" y="87">error</text>
   </a>
   <a xmlns:xlink="http://www.w3.org/1999/xlink"
      xlink:href="#rule"
      xlink:title="rule">
      <rect x="427" y="3" width="44" height="32"/>
      <rect x="425" y="1" width="44" height="32" class="nonterminal"/>
      <text class="nonterminal" x="435" y="21">rule</text>
   </a>
   <a xmlns:xlink="http://www.w3.org/1999/xlink"
      xlink:href="#end_design"
      xlink:title="end_design">
      <rect x="511" y="37" width="94" height="32"/>
      <rect x="509" y="35" width="94" height="32" class="nonterminal"/>
      <text class="nonterminal" x="519" y="55">end_design</text>
   </a>
   <path class="line"
         d="m17 51 h2 m0 0 h10 m102 0 h10 m0 0 h10 m124 0 h10 m20 0 h10 m0 0 h60 m-90 0 h20 m70 0 h20 m-110 0 q10 0 10 10 m90 0 q0 -10 10 -10 m-100 10 v12 m90 0 v-12 m-90 12 q0 10 10 10 m70 0 q10 0 10 -10 m-80 10 h10 m50 0 h10 m40 -32 h10 m0 0 h54 m-84 0 l20 0 m-1 0 q-9 0 -9 -10 l0 -14 q0 -10 10 -10 m64 34 l20 0 m-20 0 q10 0 10 -10 l0 -14 q0 -10 -10 -10 m-64 0 h10 m44 0 h10 m20 34 h10 m94 0 h10 m3 0 h-3"/>
   <polygon points="623 51 631 47 631 55"/>
   <polygon points="623 51 615 47 615 55"/>
</svg>
