<?xml version="1.0" encoding="UTF-8"?>
<svg style="background: var(--diagram-bg, #FFFCF0)" xmlns="http://www.w3.org/2000/svg" width="623" height="149"><style>
  :root { --diagram-bg: #FFFCF0; }
</style>
   <defs>
      <style type="text/css">
    @namespace "http://www.w3.org/2000/svg";
    .line                 {fill: none; stroke: #332900; stroke-width: 1;}
    .bold-line            {stroke: #141000; shape-rendering: crispEdges; stroke-width: 2;}
    .thin-line            {stroke: #1F1800; shape-rendering: crispEdges}
    .filled               {fill: #332900; stroke: none;}
    text.terminal         {font-family: Verdana, Sans-serif;
                            font-size: 12px;
                            fill: #141000;
                            font-weight: bold;
                          }
    text.nonterminal      {font-family: Verdana, Sans-serif;
                            font-size: 12px;
                            fill: #1A1400;
                            font-weight: normal;
                          }
    text.regexp           {font-family: Verdana, Sans-serif;
                            font-size: 12px;
                            fill: #1F1800;
                            font-weight: normal;
                          }
    rect, circle, polygon {fill: #332900; stroke: #332900;}
    rect.terminal         {fill: #FFDB4D; stroke: #332900; stroke-width: 1;}
    rect.nonterminal      {fill: #FFEC9E; stroke: #332900; stroke-width: 1;}
    rect.text             {fill: none; stroke: none;}
    polygon.regexp        {fill: #FFF4C7; stroke: #332900; stroke-width: 1;}
  </style>
   </defs>
   <polygon points="9 51 1 47 1 55"/>
   <polygon points="17 51 9 47 9 55"/>
   <a xmlns:xlink="http://www.w3.org/1999/xlink"
      xlink:href="#fill_rule"
      xlink:title="fill_rule">
      <rect x="51" y="37" width="66" height="32"/>
      <rect x="49" y="35" width="66" height="32" class="nonterminal"/>
      <text class="nonterminal" x="59" y="55">fill_rule</text>
   </a>
   <a xmlns:xlink="http://www.w3.org/1999/xlink"
      xlink:href="#geom_fill"
      xlink:title="geom_fill">
      <rect x="157" y="3" width="78" height="32"/>
      <rect x="155" y="1" width="78" height="32" class="nonterminal"/>
      <text class="nonterminal" x="165" y="21">geom_fill</text>
   </a>
   <rect x="51" y="115" width="26" height="32" rx="10"/>
   <rect x="49"
         y="113"
         width="26"
         height="32"
         class="terminal"
         rx="10"/>
   <text class="terminal" x="59" y="133">-</text>
   <a xmlns:xlink="http://www.w3.org/1999/xlink"
      xlink:href="#K_VIA"
      xlink:title="K_VIA">
      <rect x="97" y="115" width="58" height="32"/>
      <rect x="95" y="113" width="58" height="32" class="nonterminal"/>
      <text class="nonterminal" x="105" y="133">K_VIA</text>
   </a>
   <a xmlns:xlink="http://www.w3.org/1999/xlink"
      xlink:href="#T_STRING"
      xlink:title="T_STRING">
      <rect x="175" y="115" width="82" height="32"/>
      <rect x="173" y="113" width="82" height="32" class="nonterminal"/>
      <text class="nonterminal" x="183" y="133">T_STRING</text>
   </a>
   <a xmlns:xlink="http://www.w3.org/1999/xlink"
      xlink:href="#opt_mask_opc"
      xlink:title="opt_mask_opc">
      <rect x="297" y="81" width="112" height="32"/>
      <rect x="295" y="79" width="112" height="32" class="nonterminal"/>
      <text class="nonterminal" x="305" y="99">opt_mask_opc</text>
   </a>
   <a xmlns:xlink="http://www.w3.org/1999/xlink"
      xlink:href="#fill_via_pt"
      xlink:title="fill_via_pt">
      <rect x="449" y="115" width="82" height="32"/>
      <rect x="447" y="113" width="82" height="32" class="nonterminal"/>
      <text class="nonterminal" x="457" y="133">fill_via_pt</text>
   </a>
   <rect x="571" y="37" width="24" height="32" rx="10"/>
   <rect x="569"
         y="35"
         width="24"
         height="32"
         class="terminal"
         rx="10"/>
   <text class="terminal" x="579" y="55">;</text>
   <path class="line"
         d="m17 51 h2 m20 0 h10 m66 0 h10 m20 0 h10 m0 0 h88 m-118 0 l20 0 m-1 0 q-9 0 -9 -10 l0 -14 q0 -10 10 -10 m98 34 l20 0 m-20 0 q10 0 10 -10 l0 -14 q0 -10 -10 -10 m-98 0 h10 m78 0 h10 m20 34 h276 m-520 0 h20 m500 0 h20 m-540 0 q10 0 10 10 m520 0 q0 -10 10 -10 m-530 10 v58 m520 0 v-58 m-520 58 q0 10 10 10 m500 0 q10 0 10 -10 m-510 10 h10 m26 0 h10 m0 0 h10 m58 0 h10 m0 0 h10 m82 0 h10 m20 0 h10 m0 0 h122 m-152 0 l20 0 m-1 0 q-9 0 -9 -10 l0 -14 q0 -10 10 -10 m132 34 l20 0 m-20 0 q10 0 10 -10 l0 -14 q0 -10 -10 -10 m-132 0 h10 m112 0 h10 m20 34 h10 m82 0 h10 m20 -78 h10 m24 0 h10 m3 0 h-3"/>
   <polygon points="613 51 621 47 621 55"/>
   <polygon points="613 51 605 47 605 55"/>
</svg>
