<?xml version="1.0" encoding="UTF-8"?>
<svg style="background: var(--diagram-bg, #FFFCF0)" xmlns="http://www.w3.org/2000/svg" width="631" height="71"><style>
  :root { --diagram-bg: #FFFCF0; }
</style>
   <defs>
      <style type="text/css">
    @namespace "http://www.w3.org/2000/svg";
    .line                 {fill: none; stroke: #332900; stroke-width: 1;}
    .bold-line            {stroke: #141000; shape-rendering: crispEdges; stroke-width: 2;}
    .thin-line            {stroke: #1F1800; shape-rendering: crispEdges}
    .filled               {fill: #332900; stroke: none;}
    text.terminal         {font-family: Verdana, Sans-serif;
                            font-size: 12px;
                            fill: #141000;
                            font-weight: bold;
                          }
    text.nonterminal      {font-family: Verdana, Sans-serif;
                            font-size: 12px;
                            fill: #1A1400;
                            font-weight: normal;
                          }
    text.regexp           {font-family: Verdana, Sans-serif;
                            font-size: 12px;
                            fill: #1F1800;
                            font-weight: normal;
                          }
    rect, circle, polygon {fill: #332900; stroke: #332900;}
    rect.terminal         {fill: #FFDB4D; stroke: #332900; stroke-width: 1;}
    rect.nonterminal      {fill: #FFEC9E; stroke: #332900; stroke-width: 1;}
    rect.text             {fill: none; stroke: none;}
    polygon.regexp        {fill: #FFF4C7; stroke: #332900; stroke-width: 1;}
  </style>
   </defs>
   <polygon points="9 51 1 47 1 55"/>
   <polygon points="17 51 9 47 9 55"/>
   <rect x="31" y="37" width="26" height="32" rx="10"/>
   <rect x="29"
         y="35"
         width="26"
         height="32"
         class="terminal"
         rx="10"/>
   <text class="terminal" x="39" y="55">-</text>
   <a xmlns:xlink="http://www.w3.org/1999/xlink"
      xlink:href="#T_STRING"
      xlink:title="T_STRING">
      <rect x="77" y="37" width="82" height="32"/>
      <rect x="75" y="35" width="82" height="32" class="nonterminal"/>
      <text class="nonterminal" x="85" y="55">T_STRING</text>
   </a>
   <a xmlns:xlink="http://www.w3.org/1999/xlink"
      xlink:href="#h_or_v"
      xlink:title="h_or_v">
      <rect x="179" y="37" width="64" height="32"/>
      <rect x="177" y="35" width="64" height="32" class="nonterminal"/>
      <text class="nonterminal" x="187" y="55">h_or_v</text>
   </a>
   <a xmlns:xlink="http://www.w3.org/1999/xlink"
      xlink:href="#constraint_type"
      xlink:title="constraint_type">
      <rect x="263" y="37" width="120" height="32"/>
      <rect x="261" y="35" width="120" height="32" class="nonterminal"/>
      <text class="nonterminal" x="271" y="55">constraint_type</text>
   </a>
   <a xmlns:xlink="http://www.w3.org/1999/xlink"
      xlink:href="#constrain_what"
      xlink:title="constrain_what">
      <rect x="423" y="3" width="116" height="32"/>
      <rect x="421" y="1" width="116" height="32" class="nonterminal"/>
      <text class="nonterminal" x="431" y="21">constrain_what</text>
   </a>
   <rect x="579" y="37" width="24" height="32" rx="10"/>
   <rect x="577"
         y="35"
         width="24"
         height="32"
         class="terminal"
         rx="10"/>
   <text class="terminal" x="587" y="55">;</text>
   <path class="line"
         d="m17 51 h2 m0 0 h10 m26 0 h10 m0 0 h10 m82 0 h10 m0 0 h10 m64 0 h10 m0 0 h10 m120 0 h10 m20 0 h10 m0 0 h126 m-156 0 l20 0 m-1 0 q-9 0 -9 -10 l0 -14 q0 -10 10 -10 m136 34 l20 0 m-20 0 q10 0 10 -10 l0 -14 q0 -10 -10 -10 m-136 0 h10 m116 0 h10 m20 34 h10 m24 0 h10 m3 0 h-3"/>
   <polygon points="621 51 629 47 629 55"/>
   <polygon points="621 51 613 47 613 55"/>
</svg>
