<?xml version="1.0" encoding="UTF-8"?>
<svg style="background: var(--diagram-bg, #FFFCF0)" xmlns="http://www.w3.org/2000/svg" width="755" height="37"><style>
  :root { --diagram-bg: #FFFCF0; }
</style>
   <defs>
      <style type="text/css">
    @namespace "http://www.w3.org/2000/svg";
    .line                 {fill: none; stroke: #332900; stroke-width: 1;}
    .bold-line            {stroke: #141000; shape-rendering: crispEdges; stroke-width: 2;}
    .thin-line            {stroke: #1F1800; shape-rendering: crispEdges}
    .filled               {fill: #332900; stroke: none;}
    text.terminal         {font-family: Verdana, Sans-serif;
                            font-size: 12px;
                            fill: #141000;
                            font-weight: bold;
                          }
    text.nonterminal      {font-family: Verdana, Sans-serif;
                            font-size: 12px;
                            fill: #1A1400;
                            font-weight: normal;
                          }
    text.regexp           {font-family: Verdana, Sans-serif;
                            font-size: 12px;
                            fill: #1F1800;
                            font-weight: normal;
                          }
    rect, circle, polygon {fill: #332900; stroke: #332900;}
    rect.terminal         {fill: #FFDB4D; stroke: #332900; stroke-width: 1;}
    rect.nonterminal      {fill: #FFEC9E; stroke: #332900; stroke-width: 1;}
    rect.text             {fill: none; stroke: none;}
    polygon.regexp        {fill: #FFF4C7; stroke: #332900; stroke-width: 1;}
  </style>
   </defs>
   <polygon points="9 17 1 13 1 21"/>
   <polygon points="17 17 9 13 9 21"/>
   <a xmlns:xlink="http://www.w3.org/1999/xlink"
      xlink:href="#K_GCELLGRID"
      xlink:title="K_GCELLGRID">
      <rect x="31" y="3" width="108" height="32"/>
      <rect x="29" y="1" width="108" height="32" class="nonterminal"/>
      <text class="nonterminal" x="39" y="21">K_GCELLGRID</text>
   </a>
   <a xmlns:xlink="http://www.w3.org/1999/xlink"
      xlink:href="#track_type"
      xlink:title="track_type">
      <rect x="159" y="3" width="88" height="32"/>
      <rect x="157" y="1" width="88" height="32" class="nonterminal"/>
      <text class="nonterminal" x="167" y="21">track_type</text>
   </a>
   <a xmlns:xlink="http://www.w3.org/1999/xlink"
      xlink:href="#NUMBER"
      xlink:title="NUMBER">
      <rect x="267" y="3" width="72" height="32"/>
      <rect x="265" y="1" width="72" height="32" class="nonterminal"/>
      <text class="nonterminal" x="275" y="21">NUMBER</text>
   </a>
   <a xmlns:xlink="http://www.w3.org/1999/xlink"
      xlink:href="#K_DO"
      xlink:title="K_DO">
      <rect x="359" y="3" width="54" height="32"/>
      <rect x="357" y="1" width="54" height="32" class="nonterminal"/>
      <text class="nonterminal" x="367" y="21">K_DO</text>
   </a>
   <a xmlns:xlink="http://www.w3.org/1999/xlink"
      xlink:href="#NUMBER"
      xlink:title="NUMBER">
      <rect x="433" y="3" width="72" height="32"/>
      <rect x="431" y="1" width="72" height="32" class="nonterminal"/>
      <text class="nonterminal" x="441" y="21">NUMBER</text>
   </a>
   <a xmlns:xlink="http://www.w3.org/1999/xlink"
      xlink:href="#K_STEP"
      xlink:title="K_STEP">
      <rect x="525" y="3" width="66" height="32"/>
      <rect x="523" y="1" width="66" height="32" class="nonterminal"/>
      <text class="nonterminal" x="533" y="21">K_STEP</text>
   </a>
   <a xmlns:xlink="http://www.w3.org/1999/xlink"
      xlink:href="#NUMBER"
      xlink:title="NUMBER">
      <rect x="611" y="3" width="72" height="32"/>
      <rect x="609" y="1" width="72" height="32" class="nonterminal"/>
      <text class="nonterminal" x="619" y="21">NUMBER</text>
   </a>
   <rect x="703" y="3" width="24" height="32" rx="10"/>
   <rect x="701"
         y="1"
         width="24"
         height="32"
         class="terminal"
         rx="10"/>
   <text class="terminal" x="711" y="21">;</text>
   <path class="line"
         d="m17 17 h2 m0 0 h10 m108 0 h10 m0 0 h10 m88 0 h10 m0 0 h10 m72 0 h10 m0 0 h10 m54 0 h10 m0 0 h10 m72 0 h10 m0 0 h10 m66 0 h10 m0 0 h10 m72 0 h10 m0 0 h10 m24 0 h10 m3 0 h-3"/>
   <polygon points="745 17 753 13 753 21"/>
   <polygon points="745 17 737 13 737 21"/>
</svg>
