<?xml version="1.0" encoding="UTF-8"?>
<svg style="background: var(--diagram-bg, #FFFCF0)" xmlns="http://www.w3.org/2000/svg" width="527" height="81"><style>
  :root { --diagram-bg: #FFFCF0; }
</style>
   <defs>
      <style type="text/css">
    @namespace "http://www.w3.org/2000/svg";
    .line                 {fill: none; stroke: #332900; stroke-width: 1;}
    .bold-line            {stroke: #141000; shape-rendering: crispEdges; stroke-width: 2;}
    .thin-line            {stroke: #1F1800; shape-rendering: crispEdges}
    .filled               {fill: #332900; stroke: none;}
    text.terminal         {font-family: Verdana, Sans-serif;
                            font-size: 12px;
                            fill: #141000;
                            font-weight: bold;
                          }
    text.nonterminal      {font-family: Verdana, Sans-serif;
                            font-size: 12px;
                            fill: #1A1400;
                            font-weight: normal;
                          }
    text.regexp           {font-family: Verdana, Sans-serif;
                            font-size: 12px;
                            fill: #1F1800;
                            font-weight: normal;
                          }
    rect, circle, polygon {fill: #332900; stroke: #332900;}
    rect.terminal         {fill: #FFDB4D; stroke: #332900; stroke-width: 1;}
    rect.nonterminal      {fill: #FFEC9E; stroke: #332900; stroke-width: 1;}
    rect.text             {fill: none; stroke: none;}
    polygon.regexp        {fill: #FFF4C7; stroke: #332900; stroke-width: 1;}
  </style>
   </defs>
   <polygon points="9 17 1 13 1 21"/>
   <polygon points="17 17 9 13 9 21"/>
   <a xmlns:xlink="http://www.w3.org/1999/xlink"
      xlink:href="#K_RECT"
      xlink:title="K_RECT">
      <rect x="51" y="3" width="68" height="32"/>
      <rect x="49" y="1" width="68" height="32" class="nonterminal"/>
      <text class="nonterminal" x="59" y="21">K_RECT</text>
   </a>
   <a xmlns:xlink="http://www.w3.org/1999/xlink"
      xlink:href="#pt"
      xlink:title="pt">
      <rect x="139" y="3" width="32" height="32"/>
      <rect x="137" y="1" width="32" height="32" class="nonterminal"/>
      <text class="nonterminal" x="147" y="21">pt</text>
   </a>
   <a xmlns:xlink="http://www.w3.org/1999/xlink"
      xlink:href="#pt"
      xlink:title="pt">
      <rect x="191" y="3" width="32" height="32"/>
      <rect x="189" y="1" width="32" height="32" class="nonterminal"/>
      <text class="nonterminal" x="199" y="21">pt</text>
   </a>
   <a xmlns:xlink="http://www.w3.org/1999/xlink"
      xlink:href="#K_POLYGON"
      xlink:title="K_POLYGON">
      <rect x="51" y="47" width="96" height="32"/>
      <rect x="49" y="45" width="96" height="32" class="nonterminal"/>
      <text class="nonterminal" x="59" y="65">K_POLYGON</text>
   </a>
   <a xmlns:xlink="http://www.w3.org/1999/xlink"
      xlink:href="#firstPt"
      xlink:title="firstPt">
      <rect x="167" y="47" width="58" height="32"/>
      <rect x="165" y="45" width="58" height="32" class="nonterminal"/>
      <text class="nonterminal" x="175" y="65">firstPt</text>
   </a>
   <a xmlns:xlink="http://www.w3.org/1999/xlink"
      xlink:href="#nextPt"
      xlink:title="nextPt">
      <rect x="245" y="47" width="60" height="32"/>
      <rect x="243" y="45" width="60" height="32" class="nonterminal"/>
      <text class="nonterminal" x="253" y="65">nextPt</text>
   </a>
   <a xmlns:xlink="http://www.w3.org/1999/xlink"
      xlink:href="#nextPt"
      xlink:title="nextPt">
      <rect x="325" y="47" width="60" height="32"/>
      <rect x="323" y="45" width="60" height="32" class="nonterminal"/>
      <text class="nonterminal" x="333" y="65">nextPt</text>
   </a>
   <a xmlns:xlink="http://www.w3.org/1999/xlink"
      xlink:href="#otherPts"
      xlink:title="otherPts">
      <rect x="405" y="47" width="74" height="32"/>
      <rect x="403" y="45" width="74" height="32" class="nonterminal"/>
      <text class="nonterminal" x="413" y="65">otherPts</text>
   </a>
   <path class="line"
         d="m17 17 h2 m20 0 h10 m68 0 h10 m0 0 h10 m32 0 h10 m0 0 h10 m32 0 h10 m0 0 h256 m-468 0 h20 m448 0 h20 m-488 0 q10 0 10 10 m468 0 q0 -10 10 -10 m-478 10 v24 m468 0 v-24 m-468 24 q0 10 10 10 m448 0 q10 0 10 -10 m-458 10 h10 m96 0 h10 m0 0 h10 m58 0 h10 m0 0 h10 m60 0 h10 m0 0 h10 m60 0 h10 m0 0 h10 m74 0 h10 m23 -44 h-3"/>
   <polygon points="517 17 525 13 525 21"/>
   <polygon points="517 17 509 13 509 21"/>
</svg>
