<?xml version="1.0" encoding="UTF-8"?>
<svg style="background: var(--diagram-bg, #FFFCF0)" xmlns="http://www.w3.org/2000/svg" width="455" height="237"><style>
  :root { --diagram-bg: #FFFCF0; }
</style>
   <defs>
      <style type="text/css">
    @namespace "http://www.w3.org/2000/svg";
    .line                 {fill: none; stroke: #332900; stroke-width: 1;}
    .bold-line            {stroke: #141000; shape-rendering: crispEdges; stroke-width: 2;}
    .thin-line            {stroke: #1F1800; shape-rendering: crispEdges}
    .filled               {fill: #332900; stroke: none;}
    text.terminal         {font-family: Verdana, Sans-serif;
                            font-size: 12px;
                            fill: #141000;
                            font-weight: bold;
                          }
    text.nonterminal      {font-family: Verdana, Sans-serif;
                            font-size: 12px;
                            fill: #1A1400;
                            font-weight: normal;
                          }
    text.regexp           {font-family: Verdana, Sans-serif;
                            font-size: 12px;
                            fill: #1F1800;
                            font-weight: normal;
                          }
    rect, circle, polygon {fill: #332900; stroke: #332900;}
    rect.terminal         {fill: #FFDB4D; stroke: #332900; stroke-width: 1;}
    rect.nonterminal      {fill: #FFEC9E; stroke: #332900; stroke-width: 1;}
    rect.text             {fill: none; stroke: none;}
    polygon.regexp        {fill: #FFF4C7; stroke: #332900; stroke-width: 1;}
  </style>
   </defs>
   <polygon points="9 51 1 47 1 55"/>
   <polygon points="17 51 9 47 9 55"/>
   <rect x="51" y="37" width="30" height="32" rx="10"/>
   <rect x="49"
         y="35"
         width="30"
         height="32"
         class="terminal"
         rx="10"/>
   <text class="terminal" x="59" y="55">+</text>
   <a xmlns:xlink="http://www.w3.org/1999/xlink"
      xlink:href="#K_SOFT"
      xlink:title="K_SOFT">
      <rect x="121" y="37" width="68" height="32"/>
      <rect x="119" y="35" width="68" height="32" class="nonterminal"/>
      <text class="nonterminal" x="129" y="55">K_SOFT</text>
   </a>
   <a xmlns:xlink="http://www.w3.org/1999/xlink"
      xlink:href="#group_soft_option"
      xlink:title="group_soft_option">
      <rect x="229" y="3" width="138" height="32"/>
      <rect x="227" y="1" width="138" height="32" class="nonterminal"/>
      <text class="nonterminal" x="237" y="21">group_soft_option</text>
   </a>
   <a xmlns:xlink="http://www.w3.org/1999/xlink"
      xlink:href="#K_PROPERTY"
      xlink:title="K_PROPERTY">
      <rect x="121" y="115" width="100" height="32"/>
      <rect x="119" y="113" width="100" height="32" class="nonterminal"/>
      <text class="nonterminal" x="129" y="133">K_PROPERTY</text>
   </a>
   <a xmlns:xlink="http://www.w3.org/1999/xlink"
      xlink:href="#group_prop"
      xlink:title="group_prop">
      <rect x="261" y="81" width="94" height="32"/>
      <rect x="259" y="79" width="94" height="32" class="nonterminal"/>
      <text class="nonterminal" x="269" y="99">group_prop</text>
   </a>
   <a xmlns:xlink="http://www.w3.org/1999/xlink"
      xlink:href="#K_REGION"
      xlink:title="K_REGION">
      <rect x="121" y="159" width="84" height="32"/>
      <rect x="119" y="157" width="84" height="32" class="nonterminal"/>
      <text class="nonterminal" x="129" y="177">K_REGION</text>
   </a>
   <a xmlns:xlink="http://www.w3.org/1999/xlink"
      xlink:href="#group_region"
      xlink:title="group_region">
      <rect x="225" y="159" width="106" height="32"/>
      <rect x="223" y="157" width="106" height="32" class="nonterminal"/>
      <text class="nonterminal" x="233" y="177">group_region</text>
   </a>
   <a xmlns:xlink="http://www.w3.org/1999/xlink"
      xlink:href="#extension_stmt"
      xlink:title="extension_stmt">
      <rect x="51" y="203" width="118" height="32"/>
      <rect x="49" y="201" width="118" height="32" class="nonterminal"/>
      <text class="nonterminal" x="59" y="221">extension_stmt</text>
   </a>
   <path class="line"
         d="m17 51 h2 m20 0 h10 m30 0 h10 m20 0 h10 m68 0 h10 m20 0 h10 m0 0 h148 m-178 0 l20 0 m-1 0 q-9 0 -9 -10 l0 -14 q0 -10 10 -10 m158 34 l20 0 m-20 0 q10 0 10 -10 l0 -14 q0 -10 -10 -10 m-158 0 h10 m138 0 h10 m-286 34 h20 m286 0 h20 m-326 0 q10 0 10 10 m306 0 q0 -10 10 -10 m-316 10 v58 m306 0 v-58 m-306 58 q0 10 10 10 m286 0 q10 0 10 -10 m-296 10 h10 m100 0 h10 m20 0 h10 m0 0 h104 m-134 0 l20 0 m-1 0 q-9 0 -9 -10 l0 -14 q0 -10 10 -10 m114 34 l20 0 m-20 0 q10 0 10 -10 l0 -14 q0 -10 -10 -10 m-114 0 h10 m94 0 h10 m20 34 h12 m-296 -10 v20 m306 0 v-20 m-306 20 v24 m306 0 v-24 m-306 24 q0 10 10 10 m286 0 q10 0 10 -10 m-296 10 h10 m84 0 h10 m0 0 h10 m106 0 h10 m0 0 h56 m-376 -122 h20 m376 0 h20 m-416 0 q10 0 10 10 m396 0 q0 -10 10 -10 m-406 10 v146 m396 0 v-146 m-396 146 q0 10 10 10 m376 0 q10 0 10 -10 m-386 10 h10 m118 0 h10 m0 0 h238 m23 -166 h-3"/>
   <polygon points="445 51 453 47 453 55"/>
   <polygon points="445 51 437 47 437 55"/>
</svg>
