<?xml version="1.0" encoding="UTF-8"?>
<svg style="background: var(--diagram-bg, #FFFCF0)" xmlns="http://www.w3.org/2000/svg" width="355" height="125"><style>
  :root { --diagram-bg: #FFFCF0; }
</style>
   <defs>
      <style type="text/css">
    @namespace "http://www.w3.org/2000/svg";
    .line                 {fill: none; stroke: #332900; stroke-width: 1;}
    .bold-line            {stroke: #141000; shape-rendering: crispEdges; stroke-width: 2;}
    .thin-line            {stroke: #1F1800; shape-rendering: crispEdges}
    .filled               {fill: #332900; stroke: none;}
    text.terminal         {font-family: Verdana, Sans-serif;
                            font-size: 12px;
                            fill: #141000;
                            font-weight: bold;
                          }
    text.nonterminal      {font-family: Verdana, Sans-serif;
                            font-size: 12px;
                            fill: #1A1400;
                            font-weight: normal;
                          }
    text.regexp           {font-family: Verdana, Sans-serif;
                            font-size: 12px;
                            fill: #1F1800;
                            font-weight: normal;
                          }
    rect, circle, polygon {fill: #332900; stroke: #332900;}
    rect.terminal         {fill: #FFDB4D; stroke: #332900; stroke-width: 1;}
    rect.nonterminal      {fill: #FFEC9E; stroke: #332900; stroke-width: 1;}
    rect.text             {fill: none; stroke: none;}
    polygon.regexp        {fill: #FFF4C7; stroke: #332900; stroke-width: 1;}
  </style>
   </defs>
   <polygon points="9 17 1 13 1 21"/>
   <polygon points="17 17 9 13 9 21"/>
   <a xmlns:xlink="http://www.w3.org/1999/xlink"
      xlink:href="#K_MAXX"
      xlink:title="K_MAXX">
      <rect x="51" y="3" width="70" height="32"/>
      <rect x="49" y="1" width="70" height="32" class="nonterminal"/>
      <text class="nonterminal" x="59" y="21">K_MAXX</text>
   </a>
   <a xmlns:xlink="http://www.w3.org/1999/xlink"
      xlink:href="#K_MAXY"
      xlink:title="K_MAXY">
      <rect x="51" y="47" width="70" height="32"/>
      <rect x="49" y="45" width="70" height="32" class="nonterminal"/>
      <text class="nonterminal" x="59" y="65">K_MAXY</text>
   </a>
   <a xmlns:xlink="http://www.w3.org/1999/xlink"
      xlink:href="#K_MAXHALFPERIMETER"
      xlink:title="K_MAXHALFPERIMETER">
      <rect x="51" y="91" width="164" height="32"/>
      <rect x="49" y="89" width="164" height="32" class="nonterminal"/>
      <text class="nonterminal" x="59" y="109">K_MAXHALFPERIMETER</text>
   </a>
   <a xmlns:xlink="http://www.w3.org/1999/xlink"
      xlink:href="#NUMBER"
      xlink:title="NUMBER">
      <rect x="255" y="3" width="72" height="32"/>
      <rect x="253" y="1" width="72" height="32" class="nonterminal"/>
      <text class="nonterminal" x="263" y="21">NUMBER</text>
   </a>
   <path class="line"
         d="m17 17 h2 m20 0 h10 m70 0 h10 m0 0 h94 m-204 0 h20 m184 0 h20 m-224 0 q10 0 10 10 m204 0 q0 -10 10 -10 m-214 10 v24 m204 0 v-24 m-204 24 q0 10 10 10 m184 0 q10 0 10 -10 m-194 10 h10 m70 0 h10 m0 0 h94 m-194 -10 v20 m204 0 v-20 m-204 20 v24 m204 0 v-24 m-204 24 q0 10 10 10 m184 0 q10 0 10 -10 m-194 10 h10 m164 0 h10 m20 -88 h10 m72 0 h10 m3 0 h-3"/>
   <polygon points="345 17 353 13 353 21"/>
   <polygon points="345 17 337 13 337 21"/>
</svg>
