<?xml version="1.0" encoding="UTF-8"?>
<svg style="background: var(--diagram-bg, #FFFCF0)" xmlns="http://www.w3.org/2000/svg" width="527" height="37"><style>
  :root { --diagram-bg: #FFFCF0; }
</style>
   <defs>
      <style type="text/css">
    @namespace "http://www.w3.org/2000/svg";
    .line                 {fill: none; stroke: #332900; stroke-width: 1;}
    .bold-line            {stroke: #141000; shape-rendering: crispEdges; stroke-width: 2;}
    .thin-line            {stroke: #1F1800; shape-rendering: crispEdges}
    .filled               {fill: #332900; stroke: none;}
    text.terminal         {font-family: Verdana, Sans-serif;
                            font-size: 12px;
                            fill: #141000;
                            font-weight: bold;
                          }
    text.nonterminal      {font-family: Verdana, Sans-serif;
                            font-size: 12px;
                            fill: #1A1400;
                            font-weight: normal;
                          }
    text.regexp           {font-family: Verdana, Sans-serif;
                            font-size: 12px;
                            fill: #1F1800;
                            font-weight: normal;
                          }
    rect, circle, polygon {fill: #332900; stroke: #332900;}
    rect.terminal         {fill: #FFDB4D; stroke: #332900; stroke-width: 1;}
    rect.nonterminal      {fill: #FFEC9E; stroke: #332900; stroke-width: 1;}
    rect.text             {fill: none; stroke: none;}
    polygon.regexp        {fill: #FFF4C7; stroke: #332900; stroke-width: 1;}
  </style>
   </defs>
   <polygon points="9 17 1 13 1 21"/>
   <polygon points="17 17 9 13 9 21"/>
   <a xmlns:xlink="http://www.w3.org/1999/xlink"
      xlink:href="#iotiming_frompin"
      xlink:title="iotiming_frompin">
      <rect x="31" y="3" width="126" height="32"/>
      <rect x="29" y="1" width="126" height="32" class="nonterminal"/>
      <text class="nonterminal" x="39" y="21">iotiming_frompin</text>
   </a>
   <a xmlns:xlink="http://www.w3.org/1999/xlink"
      xlink:href="#K_TOPIN"
      xlink:title="K_TOPIN">
      <rect x="177" y="3" width="74" height="32"/>
      <rect x="175" y="1" width="74" height="32" class="nonterminal"/>
      <text class="nonterminal" x="185" y="21">K_TOPIN</text>
   </a>
   <a xmlns:xlink="http://www.w3.org/1999/xlink"
      xlink:href="#T_STRING"
      xlink:title="T_STRING">
      <rect x="271" y="3" width="82" height="32"/>
      <rect x="269" y="1" width="82" height="32" class="nonterminal"/>
      <text class="nonterminal" x="279" y="21">T_STRING</text>
   </a>
   <a xmlns:xlink="http://www.w3.org/1999/xlink"
      xlink:href="#iotiming_parallel"
      xlink:title="iotiming_parallel">
      <rect x="373" y="3" width="126" height="32"/>
      <rect x="371" y="1" width="126" height="32" class="nonterminal"/>
      <text class="nonterminal" x="381" y="21">iotiming_parallel</text>
   </a>
   <path class="line"
         d="m17 17 h2 m0 0 h10 m126 0 h10 m0 0 h10 m74 0 h10 m0 0 h10 m82 0 h10 m0 0 h10 m126 0 h10 m3 0 h-3"/>
   <polygon points="517 17 525 13 525 21"/>
   <polygon points="517 17 509 13 509 21"/>
</svg>
