<?xml version="1.0" encoding="UTF-8"?>
<svg style="background: var(--diagram-bg, #FFFCF0)" xmlns="http://www.w3.org/2000/svg" width="639" height="213"><style>
  :root { --diagram-bg: #FFFCF0; }
</style>
   <defs>
      <style type="text/css">
    @namespace "http://www.w3.org/2000/svg";
    .line                 {fill: none; stroke: #332900; stroke-width: 1;}
    .bold-line            {stroke: #141000; shape-rendering: crispEdges; stroke-width: 2;}
    .thin-line            {stroke: #1F1800; shape-rendering: crispEdges}
    .filled               {fill: #332900; stroke: none;}
    text.terminal         {font-family: Verdana, Sans-serif;
                            font-size: 12px;
                            fill: #141000;
                            font-weight: bold;
                          }
    text.nonterminal      {font-family: Verdana, Sans-serif;
                            font-size: 12px;
                            fill: #1A1400;
                            font-weight: normal;
                          }
    text.regexp           {font-family: Verdana, Sans-serif;
                            font-size: 12px;
                            fill: #1F1800;
                            font-weight: normal;
                          }
    rect, circle, polygon {fill: #332900; stroke: #332900;}
    rect.terminal         {fill: #FFDB4D; stroke: #332900; stroke-width: 1;}
    rect.nonterminal      {fill: #FFEC9E; stroke: #332900; stroke-width: 1;}
    rect.text             {fill: none; stroke: none;}
    polygon.regexp        {fill: #FFF4C7; stroke: #332900; stroke-width: 1;}
  </style>
   </defs>
   <polygon points="9 17 1 13 1 21"/>
   <polygon points="17 17 9 13 9 21"/>
   <rect x="51" y="3" width="30" height="32" rx="10"/>
   <rect x="49"
         y="1"
         width="30"
         height="32"
         class="terminal"
         rx="10"/>
   <text class="terminal" x="59" y="21">+</text>
   <a xmlns:xlink="http://www.w3.org/1999/xlink"
      xlink:href="#risefall"
      xlink:title="risefall">
      <rect x="141" y="3" width="62" height="32"/>
      <rect x="139" y="1" width="62" height="32" class="nonterminal"/>
      <text class="nonterminal" x="149" y="21">risefall</text>
   </a>
   <a xmlns:xlink="http://www.w3.org/1999/xlink"
      xlink:href="#K_VARIABLE"
      xlink:title="K_VARIABLE">
      <rect x="243" y="3" width="96" height="32"/>
      <rect x="241" y="1" width="96" height="32" class="nonterminal"/>
      <text class="nonterminal" x="251" y="21">K_VARIABLE</text>
   </a>
   <a xmlns:xlink="http://www.w3.org/1999/xlink"
      xlink:href="#K_SLEWRATE"
      xlink:title="K_SLEWRATE">
      <rect x="243" y="47" width="104" height="32"/>
      <rect x="241" y="45" width="104" height="32" class="nonterminal"/>
      <text class="nonterminal" x="251" y="65">K_SLEWRATE</text>
   </a>
   <a xmlns:xlink="http://www.w3.org/1999/xlink"
      xlink:href="#NUMBER"
      xlink:title="NUMBER">
      <rect x="387" y="3" width="72" height="32"/>
      <rect x="385" y="1" width="72" height="32" class="nonterminal"/>
      <text class="nonterminal" x="395" y="21">NUMBER</text>
   </a>
   <a xmlns:xlink="http://www.w3.org/1999/xlink"
      xlink:href="#K_CAPACITANCE"
      xlink:title="K_CAPACITANCE">
      <rect x="141" y="91" width="124" height="32"/>
      <rect x="139" y="89" width="124" height="32" class="nonterminal"/>
      <text class="nonterminal" x="149" y="109">K_CAPACITANCE</text>
   </a>
   <a xmlns:xlink="http://www.w3.org/1999/xlink"
      xlink:href="#NUMBER"
      xlink:title="NUMBER">
      <rect x="499" y="3" width="72" height="32"/>
      <rect x="497" y="1" width="72" height="32" class="nonterminal"/>
      <text class="nonterminal" x="507" y="21">NUMBER</text>
   </a>
   <a xmlns:xlink="http://www.w3.org/1999/xlink"
      xlink:href="#K_DRIVECELL"
      xlink:title="K_DRIVECELL">
      <rect x="121" y="135" width="106" height="32"/>
      <rect x="119" y="133" width="106" height="32" class="nonterminal"/>
      <text class="nonterminal" x="129" y="153">K_DRIVECELL</text>
   </a>
   <a xmlns:xlink="http://www.w3.org/1999/xlink"
      xlink:href="#T_STRING"
      xlink:title="T_STRING">
      <rect x="247" y="135" width="82" height="32"/>
      <rect x="245" y="133" width="82" height="32" class="nonterminal"/>
      <text class="nonterminal" x="255" y="153">T_STRING</text>
   </a>
   <a xmlns:xlink="http://www.w3.org/1999/xlink"
      xlink:href="#iotiming_drivecell_opt"
      xlink:title="iotiming_drivecell_opt">
      <rect x="349" y="135" width="160" height="32"/>
      <rect x="347" y="133" width="160" height="32" class="nonterminal"/>
      <text class="nonterminal" x="357" y="153">iotiming_drivecell_opt</text>
   </a>
   <a xmlns:xlink="http://www.w3.org/1999/xlink"
      xlink:href="#extension_stmt"
      xlink:title="extension_stmt">
      <rect x="51" y="179" width="118" height="32"/>
      <rect x="49" y="177" width="118" height="32" class="nonterminal"/>
      <text class="nonterminal" x="59" y="197">extension_stmt</text>
   </a>
   <path class="line"
         d="m17 17 h2 m20 0 h10 m30 0 h10 m40 0 h10 m62 0 h10 m20 0 h10 m96 0 h10 m0 0 h8 m-144 0 h20 m124 0 h20 m-164 0 q10 0 10 10 m144 0 q0 -10 10 -10 m-154 10 v24 m144 0 v-24 m-144 24 q0 10 10 10 m124 0 q10 0 10 -10 m-134 10 h10 m104 0 h10 m20 -44 h10 m72 0 h10 m-358 0 h20 m338 0 h20 m-378 0 q10 0 10 10 m358 0 q0 -10 10 -10 m-368 10 v68 m358 0 v-68 m-358 68 q0 10 10 10 m338 0 q10 0 10 -10 m-348 10 h10 m124 0 h10 m0 0 h194 m20 -88 h10 m72 0 h10 m-490 0 h20 m470 0 h20 m-510 0 q10 0 10 10 m490 0 q0 -10 10 -10 m-500 10 v112 m490 0 v-112 m-490 112 q0 10 10 10 m470 0 q10 0 10 -10 m-480 10 h10 m106 0 h10 m0 0 h10 m82 0 h10 m0 0 h10 m160 0 h10 m0 0 h62 m-560 -132 h20 m560 0 h20 m-600 0 q10 0 10 10 m580 0 q0 -10 10 -10 m-590 10 v156 m580 0 v-156 m-580 156 q0 10 10 10 m560 0 q10 0 10 -10 m-570 10 h10 m118 0 h10 m0 0 h422 m23 -176 h-3"/>
   <polygon points="629 17 637 13 637 21"/>
   <polygon points="629 17 621 13 621 21"/>
</svg>
