<?xml version="1.0" encoding="UTF-8"?>
<svg style="background: var(--diagram-bg, #FFFCF0)" xmlns="http://www.w3.org/2000/svg" width="441" height="169"><style>
  :root { --diagram-bg: #FFFCF0; }
</style>
   <defs>
      <style type="text/css">
    @namespace "http://www.w3.org/2000/svg";
    .line                 {fill: none; stroke: #332900; stroke-width: 1;}
    .bold-line            {stroke: #141000; shape-rendering: crispEdges; stroke-width: 2;}
    .thin-line            {stroke: #1F1800; shape-rendering: crispEdges}
    .filled               {fill: #332900; stroke: none;}
    text.terminal         {font-family: Verdana, Sans-serif;
                            font-size: 12px;
                            fill: #141000;
                            font-weight: bold;
                          }
    text.nonterminal      {font-family: Verdana, Sans-serif;
                            font-size: 12px;
                            fill: #1A1400;
                            font-weight: normal;
                          }
    text.regexp           {font-family: Verdana, Sans-serif;
                            font-size: 12px;
                            fill: #1F1800;
                            font-weight: normal;
                          }
    rect, circle, polygon {fill: #332900; stroke: #332900;}
    rect.terminal         {fill: #FFDB4D; stroke: #332900; stroke-width: 1;}
    rect.nonterminal      {fill: #FFEC9E; stroke: #332900; stroke-width: 1;}
    rect.text             {fill: none; stroke: none;}
    polygon.regexp        {fill: #FFF4C7; stroke: #332900; stroke-width: 1;}
  </style>
   </defs>
   <polygon points="9 17 1 13 1 21"/>
   <polygon points="17 17 9 13 9 21"/>
   <rect x="51" y="3" width="30" height="32" rx="10"/>
   <rect x="49"
         y="1"
         width="30"
         height="32"
         class="terminal"
         rx="10"/>
   <text class="terminal" x="59" y="21">+</text>
   <a xmlns:xlink="http://www.w3.org/1999/xlink"
      xlink:href="#K_SPACING"
      xlink:title="K_SPACING">
      <rect x="121" y="3" width="92" height="32"/>
      <rect x="119" y="1" width="92" height="32" class="nonterminal"/>
      <text class="nonterminal" x="129" y="21">K_SPACING</text>
   </a>
   <a xmlns:xlink="http://www.w3.org/1999/xlink"
      xlink:href="#K_DESIGNRULEWIDTH"
      xlink:title="K_DESIGNRULEWIDTH">
      <rect x="121" y="47" width="160" height="32"/>
      <rect x="119" y="45" width="160" height="32" class="nonterminal"/>
      <text class="nonterminal" x="129" y="65">K_DESIGNRULEWIDTH</text>
   </a>
   <a xmlns:xlink="http://www.w3.org/1999/xlink"
      xlink:href="#NUMBER"
      xlink:title="NUMBER">
      <rect x="321" y="3" width="72" height="32"/>
      <rect x="319" y="1" width="72" height="32" class="nonterminal"/>
      <text class="nonterminal" x="329" y="21">NUMBER</text>
   </a>
   <a xmlns:xlink="http://www.w3.org/1999/xlink"
      xlink:href="#mask_blockage_rule"
      xlink:title="mask_blockage_rule">
      <rect x="51" y="91" width="150" height="32"/>
      <rect x="49" y="89" width="150" height="32" class="nonterminal"/>
      <text class="nonterminal" x="59" y="109">mask_blockage_rule</text>
   </a>
   <a xmlns:xlink="http://www.w3.org/1999/xlink"
      xlink:href="#comp_blockage_rule"
      xlink:title="comp_blockage_rule">
      <rect x="51" y="135" width="150" height="32"/>
      <rect x="49" y="133" width="150" height="32" class="nonterminal"/>
      <text class="nonterminal" x="59" y="153">comp_blockage_rule</text>
   </a>
   <path class="line"
         d="m17 17 h2 m20 0 h10 m30 0 h10 m20 0 h10 m92 0 h10 m0 0 h68 m-200 0 h20 m180 0 h20 m-220 0 q10 0 10 10 m200 0 q0 -10 10 -10 m-210 10 v24 m200 0 v-24 m-200 24 q0 10 10 10 m180 0 q10 0 10 -10 m-190 10 h10 m160 0 h10 m20 -44 h10 m72 0 h10 m-382 0 h20 m362 0 h20 m-402 0 q10 0 10 10 m382 0 q0 -10 10 -10 m-392 10 v68 m382 0 v-68 m-382 68 q0 10 10 10 m362 0 q10 0 10 -10 m-372 10 h10 m150 0 h10 m0 0 h192 m-372 -10 v20 m382 0 v-20 m-382 20 v24 m382 0 v-24 m-382 24 q0 10 10 10 m362 0 q10 0 10 -10 m-372 10 h10 m150 0 h10 m0 0 h192 m23 -132 h-3"/>
   <polygon points="431 17 439 13 439 21"/>
   <polygon points="431 17 423 13 423 21"/>
</svg>
