<?xml version="1.0" encoding="UTF-8"?>
<svg style="background: var(--diagram-bg, #FFFCF0)" xmlns="http://www.w3.org/2000/svg" width="485" height="71"><style>
  :root { --diagram-bg: #FFFCF0; }
</style>
   <defs>
      <style type="text/css">
    @namespace "http://www.w3.org/2000/svg";
    .line                 {fill: none; stroke: #332900; stroke-width: 1;}
    .bold-line            {stroke: #141000; shape-rendering: crispEdges; stroke-width: 2;}
    .thin-line            {stroke: #1F1800; shape-rendering: crispEdges}
    .filled               {fill: #332900; stroke: none;}
    text.terminal         {font-family: Verdana, Sans-serif;
                            font-size: 12px;
                            fill: #141000;
                            font-weight: bold;
                          }
    text.nonterminal      {font-family: Verdana, Sans-serif;
                            font-size: 12px;
                            fill: #1A1400;
                            font-weight: normal;
                          }
    text.regexp           {font-family: Verdana, Sans-serif;
                            font-size: 12px;
                            fill: #1F1800;
                            font-weight: normal;
                          }
    rect, circle, polygon {fill: #332900; stroke: #332900;}
    rect.terminal         {fill: #FFDB4D; stroke: #332900; stroke-width: 1;}
    rect.nonterminal      {fill: #FFEC9E; stroke: #332900; stroke-width: 1;}
    rect.text             {fill: none; stroke: none;}
    polygon.regexp        {fill: #FFF4C7; stroke: #332900; stroke-width: 1;}
  </style>
   </defs>
   <polygon points="9 51 1 47 1 55"/>
   <polygon points="17 51 9 47 9 55"/>
   <a xmlns:xlink="http://www.w3.org/1999/xlink"
      xlink:href="#min_or_max_member"
      xlink:title="min_or_max_member">
      <rect x="51" y="3" width="158" height="32"/>
      <rect x="49" y="1" width="158" height="32" class="nonterminal"/>
      <text class="nonterminal" x="59" y="21">min_or_max_member</text>
   </a>
   <a xmlns:xlink="http://www.w3.org/1999/xlink"
      xlink:href="#K_PINS"
      xlink:title="K_PINS">
      <rect x="249" y="37" width="66" height="32"/>
      <rect x="247" y="35" width="66" height="32" class="nonterminal"/>
      <text class="nonterminal" x="257" y="55">K_PINS</text>
   </a>
   <a xmlns:xlink="http://www.w3.org/1999/xlink"
      xlink:href="#T_STRING"
      xlink:title="T_STRING">
      <rect x="355" y="3" width="82" height="32"/>
      <rect x="353" y="1" width="82" height="32" class="nonterminal"/>
      <text class="nonterminal" x="363" y="21">T_STRING</text>
   </a>
   <path class="line"
         d="m17 51 h2 m20 0 h10 m0 0 h168 m-198 0 l20 0 m-1 0 q-9 0 -9 -10 l0 -14 q0 -10 10 -10 m178 34 l20 0 m-20 0 q10 0 10 -10 l0 -14 q0 -10 -10 -10 m-178 0 h10 m158 0 h10 m20 34 h10 m66 0 h10 m20 0 h10 m0 0 h92 m-122 0 l20 0 m-1 0 q-9 0 -9 -10 l0 -14 q0 -10 10 -10 m102 34 l20 0 m-20 0 q10 0 10 -10 l0 -14 q0 -10 -10 -10 m-102 0 h10 m82 0 h10 m23 34 h-3"/>
   <polygon points="475 51 483 47 483 55"/>
   <polygon points="475 51 467 47 467 55"/>
</svg>
