<?xml version="1.0" encoding="UTF-8"?>
<svg style="background: var(--diagram-bg, #FFFCF0)" xmlns="http://www.w3.org/2000/svg" width="473" height="125"><style>
  :root { --diagram-bg: #FFFCF0; }
</style>
   <defs>
      <style type="text/css">
    @namespace "http://www.w3.org/2000/svg";
    .line                 {fill: none; stroke: #332900; stroke-width: 1;}
    .bold-line            {stroke: #141000; shape-rendering: crispEdges; stroke-width: 2;}
    .thin-line            {stroke: #1F1800; shape-rendering: crispEdges}
    .filled               {fill: #332900; stroke: none;}
    text.terminal         {font-family: Verdana, Sans-serif;
                            font-size: 12px;
                            fill: #141000;
                            font-weight: bold;
                          }
    text.nonterminal      {font-family: Verdana, Sans-serif;
                            font-size: 12px;
                            fill: #1A1400;
                            font-weight: normal;
                          }
    text.regexp           {font-family: Verdana, Sans-serif;
                            font-size: 12px;
                            fill: #1F1800;
                            font-weight: normal;
                          }
    rect, circle, polygon {fill: #332900; stroke: #332900;}
    rect.terminal         {fill: #FFDB4D; stroke: #332900; stroke-width: 1;}
    rect.nonterminal      {fill: #FFEC9E; stroke: #332900; stroke-width: 1;}
    rect.text             {fill: none; stroke: none;}
    polygon.regexp        {fill: #FFF4C7; stroke: #332900; stroke-width: 1;}
  </style>
   </defs>
   <polygon points="9 17 1 13 1 21"/>
   <polygon points="17 17 9 13 9 21"/>
   <rect x="31" y="3" width="26" height="32" rx="10"/>
   <rect x="29"
         y="1"
         width="26"
         height="32"
         class="terminal"
         rx="10"/>
   <text class="terminal" x="39" y="21">(</text>
   <a xmlns:xlink="http://www.w3.org/1999/xlink"
      xlink:href="#T_STRING"
      xlink:title="T_STRING">
      <rect x="97" y="3" width="82" height="32"/>
      <rect x="95" y="1" width="82" height="32" class="nonterminal"/>
      <text class="nonterminal" x="105" y="21">T_STRING</text>
   </a>
   <rect x="97" y="47" width="28" height="32" rx="10"/>
   <rect x="95"
         y="45"
         width="28"
         height="32"
         class="terminal"
         rx="10"/>
   <text class="terminal" x="105" y="65">*</text>
   <a xmlns:xlink="http://www.w3.org/1999/xlink"
      xlink:href="#K_PIN"
      xlink:title="K_PIN">
      <rect x="97" y="91" width="58" height="32"/>
      <rect x="95" y="89" width="58" height="32" class="nonterminal"/>
      <text class="nonterminal" x="105" y="109">K_PIN</text>
   </a>
   <a xmlns:xlink="http://www.w3.org/1999/xlink"
      xlink:href="#T_STRING"
      xlink:title="T_STRING">
      <rect x="219" y="3" width="82" height="32"/>
      <rect x="217" y="1" width="82" height="32" class="nonterminal"/>
      <text class="nonterminal" x="227" y="21">T_STRING</text>
   </a>
   <a xmlns:xlink="http://www.w3.org/1999/xlink"
      xlink:href="#conn_opt"
      xlink:title="conn_opt">
      <rect x="321" y="3" width="78" height="32"/>
      <rect x="319" y="1" width="78" height="32" class="nonterminal"/>
      <text class="nonterminal" x="329" y="21">conn_opt</text>
   </a>
   <rect x="419" y="3" width="26" height="32" rx="10"/>
   <rect x="417"
         y="1"
         width="26"
         height="32"
         class="terminal"
         rx="10"/>
   <text class="terminal" x="427" y="21">)</text>
   <path class="line"
         d="m17 17 h2 m0 0 h10 m26 0 h10 m20 0 h10 m82 0 h10 m-122 0 h20 m102 0 h20 m-142 0 q10 0 10 10 m122 0 q0 -10 10 -10 m-132 10 v24 m122 0 v-24 m-122 24 q0 10 10 10 m102 0 q10 0 10 -10 m-112 10 h10 m28 0 h10 m0 0 h54 m-112 -10 v20 m122 0 v-20 m-122 20 v24 m122 0 v-24 m-122 24 q0 10 10 10 m102 0 q10 0 10 -10 m-112 10 h10 m58 0 h10 m0 0 h24 m20 -88 h10 m82 0 h10 m0 0 h10 m78 0 h10 m0 0 h10 m26 0 h10 m3 0 h-3"/>
   <polygon points="463 17 471 13 471 21"/>
   <polygon points="463 17 455 13 455 21"/>
</svg>
