<?xml version="1.0" encoding="UTF-8"?>
<svg style="background: var(--diagram-bg, #FFFCF0)" xmlns="http://www.w3.org/2000/svg" width="493" height="115"><style>
  :root { --diagram-bg: #FFFCF0; }
</style>
   <defs>
      <style type="text/css">
    @namespace "http://www.w3.org/2000/svg";
    .line                 {fill: none; stroke: #332900; stroke-width: 1;}
    .bold-line            {stroke: #141000; shape-rendering: crispEdges; stroke-width: 2;}
    .thin-line            {stroke: #1F1800; shape-rendering: crispEdges}
    .filled               {fill: #332900; stroke: none;}
    text.terminal         {font-family: Verdana, Sans-serif;
                            font-size: 12px;
                            fill: #141000;
                            font-weight: bold;
                          }
    text.nonterminal      {font-family: Verdana, Sans-serif;
                            font-size: 12px;
                            fill: #1A1400;
                            font-weight: normal;
                          }
    text.regexp           {font-family: Verdana, Sans-serif;
                            font-size: 12px;
                            fill: #1F1800;
                            font-weight: normal;
                          }
    rect, circle, polygon {fill: #332900; stroke: #332900;}
    rect.terminal         {fill: #FFDB4D; stroke: #332900; stroke-width: 1;}
    rect.nonterminal      {fill: #FFEC9E; stroke: #332900; stroke-width: 1;}
    rect.text             {fill: none; stroke: none;}
    polygon.regexp        {fill: #FFF4C7; stroke: #332900; stroke-width: 1;}
  </style>
   </defs>
   <polygon points="9 51 1 47 1 55"/>
   <polygon points="17 51 9 47 9 55"/>
   <a xmlns:xlink="http://www.w3.org/1999/xlink"
      xlink:href="#T_STRING"
      xlink:title="T_STRING">
      <rect x="51" y="37" width="82" height="32"/>
      <rect x="49" y="35" width="82" height="32" class="nonterminal"/>
      <text class="nonterminal" x="59" y="55">T_STRING</text>
   </a>
   <a xmlns:xlink="http://www.w3.org/1999/xlink"
      xlink:href="#net_connection"
      xlink:title="net_connection">
      <rect x="173" y="3" width="118" height="32"/>
      <rect x="171" y="1" width="118" height="32" class="nonterminal"/>
      <text class="nonterminal" x="181" y="21">net_connection</text>
   </a>
   <a xmlns:xlink="http://www.w3.org/1999/xlink"
      xlink:href="#K_MUSTJOIN"
      xlink:title="K_MUSTJOIN">
      <rect x="51" y="81" width="98" height="32"/>
      <rect x="49" y="79" width="98" height="32" class="nonterminal"/>
      <text class="nonterminal" x="59" y="99">K_MUSTJOIN</text>
   </a>
   <rect x="169" y="81" width="26" height="32" rx="10"/>
   <rect x="167"
         y="79"
         width="26"
         height="32"
         class="terminal"
         rx="10"/>
   <text class="terminal" x="177" y="99">(</text>
   <a xmlns:xlink="http://www.w3.org/1999/xlink"
      xlink:href="#T_STRING"
      xlink:title="T_STRING">
      <rect x="215" y="81" width="82" height="32"/>
      <rect x="213" y="79" width="82" height="32" class="nonterminal"/>
      <text class="nonterminal" x="223" y="99">T_STRING</text>
   </a>
   <a xmlns:xlink="http://www.w3.org/1999/xlink"
      xlink:href="#T_STRING"
      xlink:title="T_STRING">
      <rect x="317" y="81" width="82" height="32"/>
      <rect x="315" y="79" width="82" height="32" class="nonterminal"/>
      <text class="nonterminal" x="325" y="99">T_STRING</text>
   </a>
   <rect x="419" y="81" width="26" height="32" rx="10"/>
   <rect x="417"
         y="79"
         width="26"
         height="32"
         class="terminal"
         rx="10"/>
   <text class="terminal" x="427" y="99">)</text>
   <path class="line"
         d="m17 51 h2 m20 0 h10 m82 0 h10 m20 0 h10 m0 0 h128 m-158 0 l20 0 m-1 0 q-9 0 -9 -10 l0 -14 q0 -10 10 -10 m138 34 l20 0 m-20 0 q10 0 10 -10 l0 -14 q0 -10 -10 -10 m-138 0 h10 m118 0 h10 m20 34 h134 m-434 0 h20 m414 0 h20 m-454 0 q10 0 10 10 m434 0 q0 -10 10 -10 m-444 10 v24 m434 0 v-24 m-434 24 q0 10 10 10 m414 0 q10 0 10 -10 m-424 10 h10 m98 0 h10 m0 0 h10 m26 0 h10 m0 0 h10 m82 0 h10 m0 0 h10 m82 0 h10 m0 0 h10 m26 0 h10 m23 -44 h-3"/>
   <polygon points="483 51 491 47 491 55"/>
   <polygon points="483 51 475 47 475 55"/>
</svg>
