<?xml version="1.0" encoding="UTF-8"?>
<svg style="background: var(--diagram-bg, #FFFCF0)" xmlns="http://www.w3.org/2000/svg" width="185" height="213"><style>
  :root { --diagram-bg: #FFFCF0; }
</style>
   <defs>
      <style type="text/css">
    @namespace "http://www.w3.org/2000/svg";
    .line                 {fill: none; stroke: #332900; stroke-width: 1;}
    .bold-line            {stroke: #141000; shape-rendering: crispEdges; stroke-width: 2;}
    .thin-line            {stroke: #1F1800; shape-rendering: crispEdges}
    .filled               {fill: #332900; stroke: none;}
    text.terminal         {font-family: Verdana, Sans-serif;
                            font-size: 12px;
                            fill: #141000;
                            font-weight: bold;
                          }
    text.nonterminal      {font-family: Verdana, Sans-serif;
                            font-size: 12px;
                            fill: #1A1400;
                            font-weight: normal;
                          }
    text.regexp           {font-family: Verdana, Sans-serif;
                            font-size: 12px;
                            fill: #1F1800;
                            font-weight: normal;
                          }
    rect, circle, polygon {fill: #332900; stroke: #332900;}
    rect.terminal         {fill: #FFDB4D; stroke: #332900; stroke-width: 1;}
    rect.nonterminal      {fill: #FFEC9E; stroke: #332900; stroke-width: 1;}
    rect.text             {fill: none; stroke: none;}
    polygon.regexp        {fill: #FFF4C7; stroke: #332900; stroke-width: 1;}
  </style>
   </defs>
   <polygon points="9 17 1 13 1 21"/>
   <polygon points="17 17 9 13 9 21"/>
   <a xmlns:xlink="http://www.w3.org/1999/xlink"
      xlink:href="#K_NETLIST"
      xlink:title="K_NETLIST">
      <rect x="51" y="3" width="86" height="32"/>
      <rect x="49" y="1" width="86" height="32" class="nonterminal"/>
      <text class="nonterminal" x="59" y="21">K_NETLIST</text>
   </a>
   <a xmlns:xlink="http://www.w3.org/1999/xlink"
      xlink:href="#K_DIST"
      xlink:title="K_DIST">
      <rect x="51" y="47" width="66" height="32"/>
      <rect x="49" y="45" width="66" height="32" class="nonterminal"/>
      <text class="nonterminal" x="59" y="65">K_DIST</text>
   </a>
   <a xmlns:xlink="http://www.w3.org/1999/xlink"
      xlink:href="#K_USER"
      xlink:title="K_USER">
      <rect x="51" y="91" width="70" height="32"/>
      <rect x="49" y="89" width="70" height="32" class="nonterminal"/>
      <text class="nonterminal" x="59" y="109">K_USER</text>
   </a>
   <a xmlns:xlink="http://www.w3.org/1999/xlink"
      xlink:href="#K_TIMING"
      xlink:title="K_TIMING">
      <rect x="51" y="135" width="82" height="32"/>
      <rect x="49" y="133" width="82" height="32" class="nonterminal"/>
      <text class="nonterminal" x="59" y="153">K_TIMING</text>
   </a>
   <a xmlns:xlink="http://www.w3.org/1999/xlink"
      xlink:href="#K_TEST"
      xlink:title="K_TEST">
      <rect x="51" y="179" width="66" height="32"/>
      <rect x="49" y="177" width="66" height="32" class="nonterminal"/>
      <text class="nonterminal" x="59" y="197">K_TEST</text>
   </a>
   <path class="line"
         d="m17 17 h2 m20 0 h10 m86 0 h10 m-126 0 h20 m106 0 h20 m-146 0 q10 0 10 10 m126 0 q0 -10 10 -10 m-136 10 v24 m126 0 v-24 m-126 24 q0 10 10 10 m106 0 q10 0 10 -10 m-116 10 h10 m66 0 h10 m0 0 h20 m-116 -10 v20 m126 0 v-20 m-126 20 v24 m126 0 v-24 m-126 24 q0 10 10 10 m106 0 q10 0 10 -10 m-116 10 h10 m70 0 h10 m0 0 h16 m-116 -10 v20 m126 0 v-20 m-126 20 v24 m126 0 v-24 m-126 24 q0 10 10 10 m106 0 q10 0 10 -10 m-116 10 h10 m82 0 h10 m0 0 h4 m-116 -10 v20 m126 0 v-20 m-126 20 v24 m126 0 v-24 m-126 24 q0 10 10 10 m106 0 q10 0 10 -10 m-116 10 h10 m66 0 h10 m0 0 h20 m23 -176 h-3"/>
   <polygon points="175 17 183 13 183 21"/>
   <polygon points="175 17 167 13 167 21"/>
</svg>
