<?xml version="1.0" encoding="UTF-8"?>
<svg style="background: var(--diagram-bg, #FFFCF0)" xmlns="http://www.w3.org/2000/svg" width="377" height="71"><style>
  :root { --diagram-bg: #FFFCF0; }
</style>
   <defs>
      <style type="text/css">
    @namespace "http://www.w3.org/2000/svg";
    .line                 {fill: none; stroke: #332900; stroke-width: 1;}
    .bold-line            {stroke: #141000; shape-rendering: crispEdges; stroke-width: 2;}
    .thin-line            {stroke: #1F1800; shape-rendering: crispEdges}
    .filled               {fill: #332900; stroke: none;}
    text.terminal         {font-family: Verdana, Sans-serif;
                            font-size: 12px;
                            fill: #141000;
                            font-weight: bold;
                          }
    text.nonterminal      {font-family: Verdana, Sans-serif;
                            font-size: 12px;
                            fill: #1A1400;
                            font-weight: normal;
                          }
    text.regexp           {font-family: Verdana, Sans-serif;
                            font-size: 12px;
                            fill: #1F1800;
                            font-weight: normal;
                          }
    rect, circle, polygon {fill: #332900; stroke: #332900;}
    rect.terminal         {fill: #FFDB4D; stroke: #332900; stroke-width: 1;}
    rect.nonterminal      {fill: #FFEC9E; stroke: #332900; stroke-width: 1;}
    rect.text             {fill: none; stroke: none;}
    polygon.regexp        {fill: #FFF4C7; stroke: #332900; stroke-width: 1;}
  </style>
   </defs>
   <polygon points="9 51 1 47 1 55"/>
   <polygon points="17 51 9 47 9 55"/>
   <a xmlns:xlink="http://www.w3.org/1999/xlink"
      xlink:href="#start_nets"
      xlink:title="start_nets">
      <rect x="31" y="37" width="86" height="32"/>
      <rect x="29" y="35" width="86" height="32" class="nonterminal"/>
      <text class="nonterminal" x="39" y="55">start_nets</text>
   </a>
   <a xmlns:xlink="http://www.w3.org/1999/xlink"
      xlink:href="#one_net"
      xlink:title="one_net">
      <rect x="157" y="3" width="72" height="32"/>
      <rect x="155" y="1" width="72" height="32" class="nonterminal"/>
      <text class="nonterminal" x="165" y="21">one_net</text>
   </a>
   <a xmlns:xlink="http://www.w3.org/1999/xlink"
      xlink:href="#end_nets"
      xlink:title="end_nets">
      <rect x="269" y="37" width="80" height="32"/>
      <rect x="267" y="35" width="80" height="32" class="nonterminal"/>
      <text class="nonterminal" x="277" y="55">end_nets</text>
   </a>
   <path class="line"
         d="m17 51 h2 m0 0 h10 m86 0 h10 m20 0 h10 m0 0 h82 m-112 0 l20 0 m-1 0 q-9 0 -9 -10 l0 -14 q0 -10 10 -10 m92 34 l20 0 m-20 0 q10 0 10 -10 l0 -14 q0 -10 -10 -10 m-92 0 h10 m72 0 h10 m20 34 h10 m80 0 h10 m3 0 h-3"/>
   <polygon points="367 51 375 47 375 55"/>
   <polygon points="367 51 359 47 359 55"/>
</svg>
