<?xml version="1.0" encoding="UTF-8"?>
<svg style="background: var(--diagram-bg, #FFFCF0)" xmlns="http://www.w3.org/2000/svg" width="501" height="53"><style>
  :root { --diagram-bg: #FFFCF0; }
</style>
   <defs>
      <style type="text/css">
    @namespace "http://www.w3.org/2000/svg";
    .line                 {fill: none; stroke: #332900; stroke-width: 1;}
    .bold-line            {stroke: #141000; shape-rendering: crispEdges; stroke-width: 2;}
    .thin-line            {stroke: #1F1800; shape-rendering: crispEdges}
    .filled               {fill: #332900; stroke: none;}
    text.terminal         {font-family: Verdana, Sans-serif;
                            font-size: 12px;
                            fill: #141000;
                            font-weight: bold;
                          }
    text.nonterminal      {font-family: Verdana, Sans-serif;
                            font-size: 12px;
                            fill: #1A1400;
                            font-weight: normal;
                          }
    text.regexp           {font-family: Verdana, Sans-serif;
                            font-size: 12px;
                            fill: #1F1800;
                            font-weight: normal;
                          }
    rect, circle, polygon {fill: #332900; stroke: #332900;}
    rect.terminal         {fill: #FFDB4D; stroke: #332900; stroke-width: 1;}
    rect.nonterminal      {fill: #FFEC9E; stroke: #332900; stroke-width: 1;}
    rect.text             {fill: none; stroke: none;}
    polygon.regexp        {fill: #FFF4C7; stroke: #332900; stroke-width: 1;}
  </style>
   </defs>
   <polygon points="9 33 1 29 1 37"/>
   <polygon points="17 33 9 29 9 37"/>
   <a xmlns:xlink="http://www.w3.org/1999/xlink"
      xlink:href="#nondefault_start"
      xlink:title="nondefault_start">
      <rect x="31" y="19" width="126" height="32"/>
      <rect x="29" y="17" width="126" height="32" class="nonterminal"/>
      <text class="nonterminal" x="39" y="37">nondefault_start</text>
   </a>
   <a xmlns:xlink="http://www.w3.org/1999/xlink"
      xlink:href="#nondefault_def"
      xlink:title="nondefault_def">
      <rect x="197" y="19" width="116" height="32"/>
      <rect x="195" y="17" width="116" height="32" class="nonterminal"/>
      <text class="nonterminal" x="205" y="37">nondefault_def</text>
   </a>
   <a xmlns:xlink="http://www.w3.org/1999/xlink"
      xlink:href="#nondefault_end"
      xlink:title="nondefault_end">
      <rect x="353" y="19" width="120" height="32"/>
      <rect x="351" y="17" width="120" height="32" class="nonterminal"/>
      <text class="nonterminal" x="361" y="37">nondefault_end</text>
   </a>
   <path class="line"
         d="m17 33 h2 m0 0 h10 m126 0 h10 m20 0 h10 m116 0 h10 m-156 0 l20 0 m-1 0 q-9 0 -9 -10 l0 -12 q0 -10 10 -10 m136 32 l20 0 m-20 0 q10 0 10 -10 l0 -12 q0 -10 -10 -10 m-136 0 h10 m0 0 h126 m20 32 h10 m120 0 h10 m3 0 h-3"/>
   <polygon points="491 33 499 29 499 37"/>
   <polygon points="491 33 483 29 483 37"/>
</svg>
