<?xml version="1.0" encoding="UTF-8"?>
<svg style="background: var(--diagram-bg, #FFFCF0)" xmlns="http://www.w3.org/2000/svg" width="395" height="71"><style>
  :root { --diagram-bg: #FFFCF0; }
</style>
   <defs>
      <style type="text/css">
    @namespace "http://www.w3.org/2000/svg";
    .line                 {fill: none; stroke: #332900; stroke-width: 1;}
    .bold-line            {stroke: #141000; shape-rendering: crispEdges; stroke-width: 2;}
    .thin-line            {stroke: #1F1800; shape-rendering: crispEdges}
    .filled               {fill: #332900; stroke: none;}
    text.terminal         {font-family: Verdana, Sans-serif;
                            font-size: 12px;
                            fill: #141000;
                            font-weight: bold;
                          }
    text.nonterminal      {font-family: Verdana, Sans-serif;
                            font-size: 12px;
                            fill: #1A1400;
                            font-weight: normal;
                          }
    text.regexp           {font-family: Verdana, Sans-serif;
                            font-size: 12px;
                            fill: #1F1800;
                            font-weight: normal;
                          }
    rect, circle, polygon {fill: #332900; stroke: #332900;}
    rect.terminal         {fill: #FFDB4D; stroke: #332900; stroke-width: 1;}
    rect.nonterminal      {fill: #FFEC9E; stroke: #332900; stroke-width: 1;}
    rect.text             {fill: none; stroke: none;}
    polygon.regexp        {fill: #FFF4C7; stroke: #332900; stroke-width: 1;}
  </style>
   </defs>
   <polygon points="9 51 1 47 1 55"/>
   <polygon points="17 51 9 47 9 55"/>
   <rect x="31" y="37" width="30" height="32" rx="10"/>
   <rect x="29"
         y="35"
         width="30"
         height="32"
         class="terminal"
         rx="10"/>
   <text class="terminal" x="39" y="55">+</text>
   <a xmlns:xlink="http://www.w3.org/1999/xlink"
      xlink:href="#K_PROPERTY"
      xlink:title="K_PROPERTY">
      <rect x="81" y="37" width="100" height="32"/>
      <rect x="79" y="35" width="100" height="32" class="nonterminal"/>
      <text class="nonterminal" x="89" y="55">K_PROPERTY</text>
   </a>
   <a xmlns:xlink="http://www.w3.org/1999/xlink"
      xlink:href="#nondefault_prop"
      xlink:title="nondefault_prop">
      <rect x="221" y="3" width="126" height="32"/>
      <rect x="219" y="1" width="126" height="32" class="nonterminal"/>
      <text class="nonterminal" x="229" y="21">nondefault_prop</text>
   </a>
   <path class="line"
         d="m17 51 h2 m0 0 h10 m30 0 h10 m0 0 h10 m100 0 h10 m20 0 h10 m0 0 h136 m-166 0 l20 0 m-1 0 q-9 0 -9 -10 l0 -14 q0 -10 10 -10 m146 34 l20 0 m-20 0 q10 0 10 -10 l0 -14 q0 -10 -10 -10 m-146 0 h10 m126 0 h10 m23 34 h-3"/>
   <polygon points="385 51 393 47 393 55"/>
   <polygon points="385 51 377 47 377 55"/>
</svg>
