<?xml version="1.0" encoding="UTF-8"?>
<svg style="background: var(--diagram-bg, #FFFCF0)" xmlns="http://www.w3.org/2000/svg" width="793" height="291"><style>
  :root { --diagram-bg: #FFFCF0; }
</style>
   <defs>
      <style type="text/css">
    @namespace "http://www.w3.org/2000/svg";
    .line                 {fill: none; stroke: #332900; stroke-width: 1;}
    .bold-line            {stroke: #141000; shape-rendering: crispEdges; stroke-width: 2;}
    .thin-line            {stroke: #1F1800; shape-rendering: crispEdges}
    .filled               {fill: #332900; stroke: none;}
    text.terminal         {font-family: Verdana, Sans-serif;
                            font-size: 12px;
                            fill: #141000;
                            font-weight: bold;
                          }
    text.nonterminal      {font-family: Verdana, Sans-serif;
                            font-size: 12px;
                            fill: #1A1400;
                            font-weight: normal;
                          }
    text.regexp           {font-family: Verdana, Sans-serif;
                            font-size: 12px;
                            fill: #1F1800;
                            font-weight: normal;
                          }
    rect, circle, polygon {fill: #332900; stroke: #332900;}
    rect.terminal         {fill: #FFDB4D; stroke: #332900; stroke-width: 1;}
    rect.nonterminal      {fill: #FFEC9E; stroke: #332900; stroke-width: 1;}
    rect.text             {fill: none; stroke: none;}
    polygon.regexp        {fill: #FFF4C7; stroke: #332900; stroke-width: 1;}
  </style>
   </defs>
   <polygon points="9 51 1 47 1 55"/>
   <polygon points="17 51 9 47 9 55"/>
   <rect x="51" y="37" width="30" height="32" rx="10"/>
   <rect x="49"
         y="35"
         width="30"
         height="32"
         class="terminal"
         rx="10"/>
   <text class="terminal" x="59" y="55">+</text>
   <a xmlns:xlink="http://www.w3.org/1999/xlink"
      xlink:href="#K_LAYER"
      xlink:title="K_LAYER">
      <rect x="121" y="37" width="74" height="32"/>
      <rect x="119" y="35" width="74" height="32" class="nonterminal"/>
      <text class="nonterminal" x="129" y="55">K_LAYER</text>
   </a>
   <a xmlns:xlink="http://www.w3.org/1999/xlink"
      xlink:href="#T_STRING"
      xlink:title="T_STRING">
      <rect x="215" y="37" width="82" height="32"/>
      <rect x="213" y="35" width="82" height="32" class="nonterminal"/>
      <text class="nonterminal" x="223" y="55">T_STRING</text>
   </a>
   <a xmlns:xlink="http://www.w3.org/1999/xlink"
      xlink:href="#K_WIDTH"
      xlink:title="K_WIDTH">
      <rect x="317" y="37" width="80" height="32"/>
      <rect x="315" y="35" width="80" height="32" class="nonterminal"/>
      <text class="nonterminal" x="325" y="55">K_WIDTH</text>
   </a>
   <a xmlns:xlink="http://www.w3.org/1999/xlink"
      xlink:href="#NUMBER"
      xlink:title="NUMBER">
      <rect x="417" y="37" width="72" height="32"/>
      <rect x="415" y="35" width="72" height="32" class="nonterminal"/>
      <text class="nonterminal" x="425" y="55">NUMBER</text>
   </a>
   <a xmlns:xlink="http://www.w3.org/1999/xlink"
      xlink:href="#nondefault_layer_option"
      xlink:title="nondefault_layer_option">
      <rect x="529" y="3" width="176" height="32"/>
      <rect x="527" y="1" width="176" height="32" class="nonterminal"/>
      <text class="nonterminal" x="537" y="21">nondefault_layer_option</text>
   </a>
   <a xmlns:xlink="http://www.w3.org/1999/xlink"
      xlink:href="#K_HARDSPACING"
      xlink:title="K_HARDSPACING">
      <rect x="121" y="81" width="128" height="32"/>
      <rect x="119" y="79" width="128" height="32" class="nonterminal"/>
      <text class="nonterminal" x="129" y="99">K_HARDSPACING</text>
   </a>
   <a xmlns:xlink="http://www.w3.org/1999/xlink"
      xlink:href="#K_VIA"
      xlink:title="K_VIA">
      <rect x="141" y="125" width="58" height="32"/>
      <rect x="139" y="123" width="58" height="32" class="nonterminal"/>
      <text class="nonterminal" x="149" y="143">K_VIA</text>
   </a>
   <a xmlns:xlink="http://www.w3.org/1999/xlink"
      xlink:href="#K_VIARULE"
      xlink:title="K_VIARULE">
      <rect x="141" y="169" width="90" height="32"/>
      <rect x="139" y="167" width="90" height="32" class="nonterminal"/>
      <text class="nonterminal" x="149" y="187">K_VIARULE</text>
   </a>
   <a xmlns:xlink="http://www.w3.org/1999/xlink"
      xlink:href="#T_STRING"
      xlink:title="T_STRING">
      <rect x="271" y="125" width="82" height="32"/>
      <rect x="269" y="123" width="82" height="32" class="nonterminal"/>
      <text class="nonterminal" x="279" y="143">T_STRING</text>
   </a>
   <a xmlns:xlink="http://www.w3.org/1999/xlink"
      xlink:href="#K_MINCUTS"
      xlink:title="K_MINCUTS">
      <rect x="121" y="213" width="94" height="32"/>
      <rect x="119" y="211" width="94" height="32" class="nonterminal"/>
      <text class="nonterminal" x="129" y="231">K_MINCUTS</text>
   </a>
   <a xmlns:xlink="http://www.w3.org/1999/xlink"
      xlink:href="#T_STRING"
      xlink:title="T_STRING">
      <rect x="235" y="213" width="82" height="32"/>
      <rect x="233" y="211" width="82" height="32" class="nonterminal"/>
      <text class="nonterminal" x="243" y="231">T_STRING</text>
   </a>
   <a xmlns:xlink="http://www.w3.org/1999/xlink"
      xlink:href="#NUMBER"
      xlink:title="NUMBER">
      <rect x="337" y="213" width="72" height="32"/>
      <rect x="335" y="211" width="72" height="32" class="nonterminal"/>
      <text class="nonterminal" x="345" y="231">NUMBER</text>
   </a>
   <a xmlns:xlink="http://www.w3.org/1999/xlink"
      xlink:href="#nondefault_prop_opt"
      xlink:title="nondefault_prop_opt">
      <rect x="51" y="257" width="154" height="32"/>
      <rect x="49" y="255" width="154" height="32" class="nonterminal"/>
      <text class="nonterminal" x="59" y="275">nondefault_prop_opt</text>
   </a>
   <path class="line"
         d="m17 51 h2 m20 0 h10 m30 0 h10 m20 0 h10 m74 0 h10 m0 0 h10 m82 0 h10 m0 0 h10 m80 0 h10 m0 0 h10 m72 0 h10 m20 0 h10 m0 0 h186 m-216 0 l20 0 m-1 0 q-9 0 -9 -10 l0 -14 q0 -10 10 -10 m196 34 l20 0 m-20 0 q10 0 10 -10 l0 -14 q0 -10 -10 -10 m-196 0 h10 m176 0 h10 m-624 34 h20 m624 0 h20 m-664 0 q10 0 10 10 m644 0 q0 -10 10 -10 m-654 10 v24 m644 0 v-24 m-644 24 q0 10 10 10 m624 0 q10 0 10 -10 m-634 10 h10 m128 0 h10 m0 0 h476 m-634 -10 v20 m644 0 v-20 m-644 20 v24 m644 0 v-24 m-644 24 q0 10 10 10 m624 0 q10 0 10 -10 m-614 10 h10 m58 0 h10 m0 0 h32 m-130 0 h20 m110 0 h20 m-150 0 q10 0 10 10 m130 0 q0 -10 10 -10 m-140 10 v24 m130 0 v-24 m-130 24 q0 10 10 10 m110 0 q10 0 10 -10 m-120 10 h10 m90 0 h10 m20 -44 h10 m82 0 h10 m0 0 h372 m-634 -10 v20 m644 0 v-20 m-644 20 v68 m644 0 v-68 m-644 68 q0 10 10 10 m624 0 q10 0 10 -10 m-634 10 h10 m94 0 h10 m0 0 h10 m82 0 h10 m0 0 h10 m72 0 h10 m0 0 h316 m-714 -176 h20 m714 0 h20 m-754 0 q10 0 10 10 m734 0 q0 -10 10 -10 m-744 10 v200 m734 0 v-200 m-734 200 q0 10 10 10 m714 0 q10 0 10 -10 m-724 10 h10 m154 0 h10 m0 0 h540 m23 -220 h-3"/>
   <polygon points="783 51 791 47 791 55"/>
   <polygon points="783 51 775 47 775 55"/>
</svg>
