<?xml version="1.0" encoding="UTF-8"?>
<svg style="background: var(--diagram-bg, #FFFCF0)" xmlns="http://www.w3.org/2000/svg" width="615" height="235"><style>
  :root { --diagram-bg: #FFFCF0; }
</style>
   <defs>
      <style type="text/css">
    @namespace "http://www.w3.org/2000/svg";
    .line                 {fill: none; stroke: #332900; stroke-width: 1;}
    .bold-line            {stroke: #141000; shape-rendering: crispEdges; stroke-width: 2;}
    .thin-line            {stroke: #1F1800; shape-rendering: crispEdges}
    .filled               {fill: #332900; stroke: none;}
    text.terminal         {font-family: Verdana, Sans-serif;
                            font-size: 12px;
                            fill: #141000;
                            font-weight: bold;
                          }
    text.nonterminal      {font-family: Verdana, Sans-serif;
                            font-size: 12px;
                            fill: #1A1400;
                            font-weight: normal;
                          }
    text.regexp           {font-family: Verdana, Sans-serif;
                            font-size: 12px;
                            fill: #1F1800;
                            font-weight: normal;
                          }
    rect, circle, polygon {fill: #332900; stroke: #332900;}
    rect.terminal         {fill: #FFDB4D; stroke: #332900; stroke-width: 1;}
    rect.nonterminal      {fill: #FFEC9E; stroke: #332900; stroke-width: 1;}
    rect.text             {fill: none; stroke: none;}
    polygon.regexp        {fill: #FFF4C7; stroke: #332900; stroke-width: 1;}
  </style>
   </defs>
   <polygon points="9 17 1 13 1 21"/>
   <polygon points="17 17 9 13 9 21"/>
   <a xmlns:xlink="http://www.w3.org/1999/xlink"
      xlink:href="#K_NET"
      xlink:title="K_NET">
      <rect x="71" y="3" width="60" height="32"/>
      <rect x="69" y="1" width="60" height="32" class="nonterminal"/>
      <text class="nonterminal" x="79" y="21">K_NET</text>
   </a>
   <a xmlns:xlink="http://www.w3.org/1999/xlink"
      xlink:href="#K_PATH"
      xlink:title="K_PATH">
      <rect x="71" y="47" width="68" height="32"/>
      <rect x="69" y="45" width="68" height="32" class="nonterminal"/>
      <text class="nonterminal" x="79" y="65">K_PATH</text>
   </a>
   <a xmlns:xlink="http://www.w3.org/1999/xlink"
      xlink:href="#T_STRING"
      xlink:title="T_STRING">
      <rect x="159" y="47" width="82" height="32"/>
      <rect x="157" y="45" width="82" height="32" class="nonterminal"/>
      <text class="nonterminal" x="167" y="65">T_STRING</text>
   </a>
   <a xmlns:xlink="http://www.w3.org/1999/xlink"
      xlink:href="#T_STRING"
      xlink:title="T_STRING">
      <rect x="261" y="47" width="82" height="32"/>
      <rect x="259" y="45" width="82" height="32" class="nonterminal"/>
      <text class="nonterminal" x="269" y="65">T_STRING</text>
   </a>
   <a xmlns:xlink="http://www.w3.org/1999/xlink"
      xlink:href="#T_STRING"
      xlink:title="T_STRING">
      <rect x="363" y="47" width="82" height="32"/>
      <rect x="361" y="45" width="82" height="32" class="nonterminal"/>
      <text class="nonterminal" x="371" y="65">T_STRING</text>
   </a>
   <a xmlns:xlink="http://www.w3.org/1999/xlink"
      xlink:href="#T_STRING"
      xlink:title="T_STRING">
      <rect x="485" y="3" width="82" height="32"/>
      <rect x="483" y="1" width="82" height="32" class="nonterminal"/>
      <text class="nonterminal" x="493" y="21">T_STRING</text>
   </a>
   <a xmlns:xlink="http://www.w3.org/1999/xlink"
      xlink:href="#K_SUM"
      xlink:title="K_SUM">
      <rect x="71" y="157" width="64" height="32"/>
      <rect x="69" y="155" width="64" height="32" class="nonterminal"/>
      <text class="nonterminal" x="79" y="175">K_SUM</text>
   </a>
   <a xmlns:xlink="http://www.w3.org/1999/xlink"
      xlink:href="#K_DIFF"
      xlink:title="K_DIFF">
      <rect x="71" y="201" width="64" height="32"/>
      <rect x="69" y="199" width="64" height="32" class="nonterminal"/>
      <text class="nonterminal" x="79" y="219">K_DIFF</text>
   </a>
   <rect x="175" y="157" width="26" height="32" rx="10"/>
   <rect x="173"
         y="155"
         width="26"
         height="32"
         class="terminal"
         rx="10"/>
   <text class="terminal" x="183" y="175">(</text>
   <a xmlns:xlink="http://www.w3.org/1999/xlink"
      xlink:href="#operand"
      xlink:title="operand">
      <rect x="241" y="157" width="72" height="32"/>
      <rect x="239" y="155" width="72" height="32" class="nonterminal"/>
      <text class="nonterminal" x="249" y="175">operand</text>
   </a>
   <rect x="241" y="91" width="24" height="32" rx="10"/>
   <rect x="239"
         y="89"
         width="24"
         height="32"
         class="terminal"
         rx="10"/>
   <text class="terminal" x="249" y="109">,</text>
   <rect x="353" y="157" width="26" height="32" rx="10"/>
   <rect x="351"
         y="155"
         width="26"
         height="32"
         class="terminal"
         rx="10"/>
   <text class="terminal" x="361" y="175">)</text>
   <path class="line"
         d="m17 17 h2 m40 0 h10 m60 0 h10 m0 0 h314 m-414 0 h20 m394 0 h20 m-434 0 q10 0 10 10 m414 0 q0 -10 10 -10 m-424 10 v24 m414 0 v-24 m-414 24 q0 10 10 10 m394 0 q10 0 10 -10 m-404 10 h10 m68 0 h10 m0 0 h10 m82 0 h10 m0 0 h10 m82 0 h10 m0 0 h10 m82 0 h10 m20 -44 h10 m82 0 h10 m-556 0 h20 m536 0 h20 m-576 0 q10 0 10 10 m556 0 q0 -10 10 -10 m-566 10 v134 m556 0 v-134 m-556 134 q0 10 10 10 m536 0 q10 0 10 -10 m-526 10 h10 m64 0 h10 m-104 0 h20 m84 0 h20 m-124 0 q10 0 10 10 m104 0 q0 -10 10 -10 m-114 10 v24 m104 0 v-24 m-104 24 q0 10 10 10 m84 0 q10 0 10 -10 m-94 10 h10 m64 0 h10 m20 -44 h10 m26 0 h10 m20 0 h10 m72 0 h10 m-112 0 l20 0 m-1 0 q-9 0 -9 -10 l0 -12 q0 -10 10 -10 m92 32 l20 0 m-20 0 q10 0 10 -10 l0 -12 q0 -10 -10 -10 m-92 0 h10 m0 0 h82 m-102 10 l0 -34 q0 -10 10 -10 m102 44 l0 -34 q0 -10 -10 -10 m-92 0 h10 m24 0 h10 m0 0 h48 m20 66 h10 m26 0 h10 m0 0 h188 m23 -154 h-3"/>
   <polygon points="605 17 613 13 613 21"/>
   <polygon points="605 17 597 13 597 21"/>
</svg>
