<?xml version="1.0" encoding="UTF-8"?>
<svg style="background: var(--diagram-bg, #FFFCF0)" xmlns="http://www.w3.org/2000/svg" width="711" height="89"><style>
  :root { --diagram-bg: #FFFCF0; }
</style>
   <defs>
      <style type="text/css">
    @namespace "http://www.w3.org/2000/svg";
    .line                 {fill: none; stroke: #332900; stroke-width: 1;}
    .bold-line            {stroke: #141000; shape-rendering: crispEdges; stroke-width: 2;}
    .thin-line            {stroke: #1F1800; shape-rendering: crispEdges}
    .filled               {fill: #332900; stroke: none;}
    text.terminal         {font-family: Verdana, Sans-serif;
                            font-size: 12px;
                            fill: #141000;
                            font-weight: bold;
                          }
    text.nonterminal      {font-family: Verdana, Sans-serif;
                            font-size: 12px;
                            fill: #1A1400;
                            font-weight: normal;
                          }
    text.regexp           {font-family: Verdana, Sans-serif;
                            font-size: 12px;
                            fill: #1F1800;
                            font-weight: normal;
                          }
    rect, circle, polygon {fill: #332900; stroke: #332900;}
    rect.terminal         {fill: #FFDB4D; stroke: #332900; stroke-width: 1;}
    rect.nonterminal      {fill: #FFEC9E; stroke: #332900; stroke-width: 1;}
    rect.text             {fill: none; stroke: none;}
    polygon.regexp        {fill: #FFF4C7; stroke: #332900; stroke-width: 1;}
  </style>
   </defs>
   <polygon points="9 5 1 1 1 9"/>
   <polygon points="17 5 9 1 9 9"/>
   <rect x="51" y="23" width="26" height="32" rx="10"/>
   <rect x="49"
         y="21"
         width="26"
         height="32"
         class="terminal"
         rx="10"/>
   <text class="terminal" x="59" y="41">(</text>
   <a xmlns:xlink="http://www.w3.org/1999/xlink"
      xlink:href="#T_STRING"
      xlink:title="T_STRING">
      <rect x="97" y="23" width="82" height="32"/>
      <rect x="95" y="21" width="82" height="32" class="nonterminal"/>
      <text class="nonterminal" x="105" y="41">T_STRING</text>
   </a>
   <a xmlns:xlink="http://www.w3.org/1999/xlink"
      xlink:href="#T_STRING"
      xlink:title="T_STRING">
      <rect x="199" y="23" width="82" height="32"/>
      <rect x="197" y="21" width="82" height="32" class="nonterminal"/>
      <text class="nonterminal" x="207" y="41">T_STRING</text>
   </a>
   <rect x="301" y="23" width="26" height="32" rx="10"/>
   <rect x="299"
         y="21"
         width="26"
         height="32"
         class="terminal"
         rx="10"/>
   <text class="terminal" x="309" y="41">)</text>
   <rect x="367" y="55" width="26" height="32" rx="10"/>
   <rect x="365"
         y="53"
         width="26"
         height="32"
         class="terminal"
         rx="10"/>
   <text class="terminal" x="375" y="73">(</text>
   <a xmlns:xlink="http://www.w3.org/1999/xlink"
      xlink:href="#T_STRING"
      xlink:title="T_STRING">
      <rect x="413" y="55" width="82" height="32"/>
      <rect x="411" y="53" width="82" height="32" class="nonterminal"/>
      <text class="nonterminal" x="421" y="73">T_STRING</text>
   </a>
   <a xmlns:xlink="http://www.w3.org/1999/xlink"
      xlink:href="#T_STRING"
      xlink:title="T_STRING">
      <rect x="515" y="55" width="82" height="32"/>
      <rect x="513" y="53" width="82" height="32" class="nonterminal"/>
      <text class="nonterminal" x="523" y="73">T_STRING</text>
   </a>
   <rect x="617" y="55" width="26" height="32" rx="10"/>
   <rect x="615"
         y="53"
         width="26"
         height="32"
         class="terminal"
         rx="10"/>
   <text class="terminal" x="625" y="73">)</text>
   <path class="line"
         d="m17 5 h2 m20 0 h10 m0 0 h622 m-652 0 h20 m632 0 h20 m-672 0 q10 0 10 10 m652 0 q0 -10 10 -10 m-662 10 v12 m652 0 v-12 m-652 12 q0 10 10 10 m632 0 q10 0 10 -10 m-642 10 h10 m26 0 h10 m0 0 h10 m82 0 h10 m0 0 h10 m82 0 h10 m0 0 h10 m26 0 h10 m20 0 h10 m0 0 h286 m-316 0 h20 m296 0 h20 m-336 0 q10 0 10 10 m316 0 q0 -10 10 -10 m-326 10 v12 m316 0 v-12 m-316 12 q0 10 10 10 m296 0 q10 0 10 -10 m-306 10 h10 m26 0 h10 m0 0 h10 m82 0 h10 m0 0 h10 m82 0 h10 m0 0 h10 m26 0 h10 m43 -64 h-3"/>
   <polygon points="701 5 709 1 709 9"/>
   <polygon points="701 5 693 1 693 9"/>
</svg>
