<?xml version="1.0" encoding="UTF-8"?>
<svg style="background: var(--diagram-bg, #FFFCF0)" xmlns="http://www.w3.org/2000/svg" width="263" height="81"><style>
  :root { --diagram-bg: #FFFCF0; }
</style>
   <defs>
      <style type="text/css">
    @namespace "http://www.w3.org/2000/svg";
    .line                 {fill: none; stroke: #332900; stroke-width: 1;}
    .bold-line            {stroke: #141000; shape-rendering: crispEdges; stroke-width: 2;}
    .thin-line            {stroke: #1F1800; shape-rendering: crispEdges}
    .filled               {fill: #332900; stroke: none;}
    text.terminal         {font-family: Verdana, Sans-serif;
                            font-size: 12px;
                            fill: #141000;
                            font-weight: bold;
                          }
    text.nonterminal      {font-family: Verdana, Sans-serif;
                            font-size: 12px;
                            fill: #1A1400;
                            font-weight: normal;
                          }
    text.regexp           {font-family: Verdana, Sans-serif;
                            font-size: 12px;
                            fill: #1F1800;
                            font-weight: normal;
                          }
    rect, circle, polygon {fill: #332900; stroke: #332900;}
    rect.terminal         {fill: #FFDB4D; stroke: #332900; stroke-width: 1;}
    rect.nonterminal      {fill: #FFEC9E; stroke: #332900; stroke-width: 1;}
    rect.text             {fill: none; stroke: none;}
    polygon.regexp        {fill: #FFF4C7; stroke: #332900; stroke-width: 1;}
  </style>
   </defs>
   <polygon points="9 17 1 13 1 21"/>
   <polygon points="17 17 9 13 9 21"/>
   <a xmlns:xlink="http://www.w3.org/1999/xlink"
      xlink:href="#pt"
      xlink:title="pt">
      <rect x="51" y="3" width="32" height="32"/>
      <rect x="49" y="1" width="32" height="32" class="nonterminal"/>
      <text class="nonterminal" x="59" y="21">pt</text>
   </a>
   <a xmlns:xlink="http://www.w3.org/1999/xlink"
      xlink:href="#NUMBER"
      xlink:title="NUMBER">
      <rect x="51" y="47" width="72" height="32"/>
      <rect x="49" y="45" width="72" height="32" class="nonterminal"/>
      <text class="nonterminal" x="59" y="65">NUMBER</text>
   </a>
   <a xmlns:xlink="http://www.w3.org/1999/xlink"
      xlink:href="#NUMBER"
      xlink:title="NUMBER">
      <rect x="143" y="47" width="72" height="32"/>
      <rect x="141" y="45" width="72" height="32" class="nonterminal"/>
      <text class="nonterminal" x="151" y="65">NUMBER</text>
   </a>
   <path class="line"
         d="m17 17 h2 m20 0 h10 m32 0 h10 m0 0 h132 m-204 0 h20 m184 0 h20 m-224 0 q10 0 10 10 m204 0 q0 -10 10 -10 m-214 10 v24 m204 0 v-24 m-204 24 q0 10 10 10 m184 0 q10 0 10 -10 m-194 10 h10 m72 0 h10 m0 0 h10 m72 0 h10 m23 -44 h-3"/>
   <polygon points="253 17 261 13 261 21"/>
   <polygon points="253 17 245 13 245 21"/>
</svg>
