<?xml version="1.0" encoding="UTF-8"?>
<svg style="background: var(--diagram-bg, #FFFCF0)" xmlns="http://www.w3.org/2000/svg" width="203" height="81"><style>
  :root { --diagram-bg: #FFFCF0; }
</style>
   <defs>
      <style type="text/css">
    @namespace "http://www.w3.org/2000/svg";
    .line                 {fill: none; stroke: #332900; stroke-width: 1;}
    .bold-line            {stroke: #141000; shape-rendering: crispEdges; stroke-width: 2;}
    .thin-line            {stroke: #1F1800; shape-rendering: crispEdges}
    .filled               {fill: #332900; stroke: none;}
    text.terminal         {font-family: Verdana, Sans-serif;
                            font-size: 12px;
                            fill: #141000;
                            font-weight: bold;
                          }
    text.nonterminal      {font-family: Verdana, Sans-serif;
                            font-size: 12px;
                            fill: #1A1400;
                            font-weight: normal;
                          }
    text.regexp           {font-family: Verdana, Sans-serif;
                            font-size: 12px;
                            fill: #1F1800;
                            font-weight: normal;
                          }
    rect, circle, polygon {fill: #332900; stroke: #332900;}
    rect.terminal         {fill: #FFDB4D; stroke: #332900; stroke-width: 1;}
    rect.nonterminal      {fill: #FFEC9E; stroke: #332900; stroke-width: 1;}
    rect.text             {fill: none; stroke: none;}
    polygon.regexp        {fill: #FFF4C7; stroke: #332900; stroke-width: 1;}
  </style>
   </defs>
   <polygon points="9 17 1 13 1 21"/>
   <polygon points="17 17 9 13 9 21"/>
   <a xmlns:xlink="http://www.w3.org/1999/xlink"
      xlink:href="#fill_layer_opc"
      xlink:title="fill_layer_opc">
      <rect x="51" y="3" width="104" height="32"/>
      <rect x="49" y="1" width="104" height="32" class="nonterminal"/>
      <text class="nonterminal" x="59" y="21">fill_layer_opc</text>
   </a>
   <a xmlns:xlink="http://www.w3.org/1999/xlink"
      xlink:href="#fill_mask"
      xlink:title="fill_mask">
      <rect x="51" y="47" width="76" height="32"/>
      <rect x="49" y="45" width="76" height="32" class="nonterminal"/>
      <text class="nonterminal" x="59" y="65">fill_mask</text>
   </a>
   <path class="line"
         d="m17 17 h2 m20 0 h10 m104 0 h10 m-144 0 h20 m124 0 h20 m-164 0 q10 0 10 10 m144 0 q0 -10 10 -10 m-154 10 v24 m144 0 v-24 m-144 24 q0 10 10 10 m124 0 q10 0 10 -10 m-134 10 h10 m76 0 h10 m0 0 h28 m23 -44 h-3"/>
   <polygon points="193 17 201 13 201 21"/>
   <polygon points="193 17 185 13 185 21"/>
</svg>
