<?xml version="1.0" encoding="UTF-8"?>
<svg style="background: var(--diagram-bg, #FFFCF0)" xmlns="http://www.w3.org/2000/svg" width="409" height="71"><style>
  :root { --diagram-bg: #FFFCF0; }
</style>
   <defs>
      <style type="text/css">
    @namespace "http://www.w3.org/2000/svg";
    .line                 {fill: none; stroke: #332900; stroke-width: 1;}
    .bold-line            {stroke: #141000; shape-rendering: crispEdges; stroke-width: 2;}
    .thin-line            {stroke: #1F1800; shape-rendering: crispEdges}
    .filled               {fill: #332900; stroke: none;}
    text.terminal         {font-family: Verdana, Sans-serif;
                            font-size: 12px;
                            fill: #141000;
                            font-weight: bold;
                          }
    text.nonterminal      {font-family: Verdana, Sans-serif;
                            font-size: 12px;
                            fill: #1A1400;
                            font-weight: normal;
                          }
    text.regexp           {font-family: Verdana, Sans-serif;
                            font-size: 12px;
                            fill: #1F1800;
                            font-weight: normal;
                          }
    rect, circle, polygon {fill: #332900; stroke: #332900;}
    rect.terminal         {fill: #FFDB4D; stroke: #332900; stroke-width: 1;}
    rect.nonterminal      {fill: #FFEC9E; stroke: #332900; stroke-width: 1;}
    rect.text             {fill: none; stroke: none;}
    polygon.regexp        {fill: #FFF4C7; stroke: #332900; stroke-width: 1;}
  </style>
   </defs>
   <polygon points="9 51 1 47 1 55"/>
   <polygon points="17 51 9 47 9 55"/>
   <a xmlns:xlink="http://www.w3.org/1999/xlink"
      xlink:href="#start_partition"
      xlink:title="start_partition">
      <rect x="31" y="37" width="112" height="32"/>
      <rect x="29" y="35" width="112" height="32" class="nonterminal"/>
      <text class="nonterminal" x="39" y="55">start_partition</text>
   </a>
   <a xmlns:xlink="http://www.w3.org/1999/xlink"
      xlink:href="#partition_member"
      xlink:title="partition_member">
      <rect x="183" y="3" width="134" height="32"/>
      <rect x="181" y="1" width="134" height="32" class="nonterminal"/>
      <text class="nonterminal" x="191" y="21">partition_member</text>
   </a>
   <rect x="357" y="37" width="24" height="32" rx="10"/>
   <rect x="355"
         y="35"
         width="24"
         height="32"
         class="terminal"
         rx="10"/>
   <text class="terminal" x="365" y="55">;</text>
   <path class="line"
         d="m17 51 h2 m0 0 h10 m112 0 h10 m20 0 h10 m0 0 h144 m-174 0 l20 0 m-1 0 q-9 0 -9 -10 l0 -14 q0 -10 10 -10 m154 34 l20 0 m-20 0 q10 0 10 -10 l0 -14 q0 -10 -10 -10 m-154 0 h10 m134 0 h10 m20 34 h10 m24 0 h10 m3 0 h-3"/>
   <polygon points="399 51 407 47 407 55"/>
   <polygon points="399 51 391 47 391 55"/>
</svg>
