<?xml version="1.0" encoding="UTF-8"?>
<svg style="background: var(--diagram-bg, #FFFCF0)" xmlns="http://www.w3.org/2000/svg" width="249" height="71"><style>
  :root { --diagram-bg: #FFFCF0; }
</style>
   <defs>
      <style type="text/css">
    @namespace "http://www.w3.org/2000/svg";
    .line                 {fill: none; stroke: #332900; stroke-width: 1;}
    .bold-line            {stroke: #141000; shape-rendering: crispEdges; stroke-width: 2;}
    .thin-line            {stroke: #1F1800; shape-rendering: crispEdges}
    .filled               {fill: #332900; stroke: none;}
    text.terminal         {font-family: Verdana, Sans-serif;
                            font-size: 12px;
                            fill: #141000;
                            font-weight: bold;
                          }
    text.nonterminal      {font-family: Verdana, Sans-serif;
                            font-size: 12px;
                            fill: #1A1400;
                            font-weight: normal;
                          }
    text.regexp           {font-family: Verdana, Sans-serif;
                            font-size: 12px;
                            fill: #1F1800;
                            font-weight: normal;
                          }
    rect, circle, polygon {fill: #332900; stroke: #332900;}
    rect.terminal         {fill: #FFDB4D; stroke: #332900; stroke-width: 1;}
    rect.nonterminal      {fill: #FFEC9E; stroke: #332900; stroke-width: 1;}
    rect.text             {fill: none; stroke: none;}
    polygon.regexp        {fill: #FFF4C7; stroke: #332900; stroke-width: 1;}
  </style>
   </defs>
   <polygon points="9 51 1 47 1 55"/>
   <polygon points="17 51 9 47 9 55"/>
   <a xmlns:xlink="http://www.w3.org/1999/xlink"
      xlink:href="#path"
      xlink:title="path">
      <rect x="31" y="37" width="48" height="32"/>
      <rect x="29" y="35" width="48" height="32" class="nonterminal"/>
      <text class="nonterminal" x="39" y="55">path</text>
   </a>
   <a xmlns:xlink="http://www.w3.org/1999/xlink"
      xlink:href="#new_path"
      xlink:title="new_path">
      <rect x="119" y="3" width="82" height="32"/>
      <rect x="117" y="1" width="82" height="32" class="nonterminal"/>
      <text class="nonterminal" x="127" y="21">new_path</text>
   </a>
   <path class="line"
         d="m17 51 h2 m0 0 h10 m48 0 h10 m20 0 h10 m0 0 h92 m-122 0 l20 0 m-1 0 q-9 0 -9 -10 l0 -14 q0 -10 10 -10 m102 34 l20 0 m-20 0 q10 0 10 -10 l0 -14 q0 -10 -10 -10 m-102 0 h10 m82 0 h10 m23 34 h-3"/>
   <polygon points="239 51 247 47 247 55"/>
   <polygon points="239 51 231 47 231 55"/>
</svg>
