<?xml version="1.0" encoding="UTF-8"?>
<svg style="background: var(--diagram-bg, #FFFCF0)" xmlns="http://www.w3.org/2000/svg" width="1159" height="365"><style>
  :root { --diagram-bg: #FFFCF0; }
</style>
   <defs>
      <style type="text/css">
    @namespace "http://www.w3.org/2000/svg";
    .line                 {fill: none; stroke: #332900; stroke-width: 1;}
    .bold-line            {stroke: #141000; shape-rendering: crispEdges; stroke-width: 2;}
    .thin-line            {stroke: #1F1800; shape-rendering: crispEdges}
    .filled               {fill: #332900; stroke: none;}
    text.terminal         {font-family: Verdana, Sans-serif;
                            font-size: 12px;
                            fill: #141000;
                            font-weight: bold;
                          }
    text.nonterminal      {font-family: Verdana, Sans-serif;
                            font-size: 12px;
                            fill: #1A1400;
                            font-weight: normal;
                          }
    text.regexp           {font-family: Verdana, Sans-serif;
                            font-size: 12px;
                            fill: #1F1800;
                            font-weight: normal;
                          }
    rect, circle, polygon {fill: #332900; stroke: #332900;}
    rect.terminal         {fill: #FFDB4D; stroke: #332900; stroke-width: 1;}
    rect.nonterminal      {fill: #FFEC9E; stroke: #332900; stroke-width: 1;}
    rect.text             {fill: none; stroke: none;}
    polygon.regexp        {fill: #FFF4C7; stroke: #332900; stroke-width: 1;}
  </style>
   </defs>
   <polygon points="9 17 1 13 1 21"/>
   <polygon points="17 17 9 13 9 21"/>
   <a xmlns:xlink="http://www.w3.org/1999/xlink"
      xlink:href="#T_STRING"
      xlink:title="T_STRING">
      <rect x="51" y="3" width="82" height="32"/>
      <rect x="49" y="1" width="82" height="32" class="nonterminal"/>
      <text class="nonterminal" x="59" y="21">T_STRING</text>
   </a>
   <a xmlns:xlink="http://www.w3.org/1999/xlink"
      xlink:href="#orient"
      xlink:title="orient">
      <rect x="173" y="35" width="56" height="32"/>
      <rect x="171" y="33" width="56" height="32" class="nonterminal"/>
      <text class="nonterminal" x="181" y="53">orient</text>
   </a>
   <a xmlns:xlink="http://www.w3.org/1999/xlink"
      xlink:href="#K_DO"
      xlink:title="K_DO">
      <rect x="289" y="35" width="54" height="32"/>
      <rect x="287" y="33" width="54" height="32" class="nonterminal"/>
      <text class="nonterminal" x="297" y="53">K_DO</text>
   </a>
   <a xmlns:xlink="http://www.w3.org/1999/xlink"
      xlink:href="#NUMBER"
      xlink:title="NUMBER">
      <rect x="363" y="35" width="72" height="32"/>
      <rect x="361" y="33" width="72" height="32" class="nonterminal"/>
      <text class="nonterminal" x="371" y="53">NUMBER</text>
   </a>
   <a xmlns:xlink="http://www.w3.org/1999/xlink"
      xlink:href="#K_BY"
      xlink:title="K_BY">
      <rect x="455" y="35" width="52" height="32"/>
      <rect x="453" y="33" width="52" height="32" class="nonterminal"/>
      <text class="nonterminal" x="463" y="53">K_BY</text>
   </a>
   <a xmlns:xlink="http://www.w3.org/1999/xlink"
      xlink:href="#NUMBER"
      xlink:title="NUMBER">
      <rect x="527" y="35" width="72" height="32"/>
      <rect x="525" y="33" width="72" height="32" class="nonterminal"/>
      <text class="nonterminal" x="535" y="53">NUMBER</text>
   </a>
   <a xmlns:xlink="http://www.w3.org/1999/xlink"
      xlink:href="#K_STEP"
      xlink:title="K_STEP">
      <rect x="619" y="35" width="66" height="32"/>
      <rect x="617" y="33" width="66" height="32" class="nonterminal"/>
      <text class="nonterminal" x="627" y="53">K_STEP</text>
   </a>
   <a xmlns:xlink="http://www.w3.org/1999/xlink"
      xlink:href="#NUMBER"
      xlink:title="NUMBER">
      <rect x="705" y="35" width="72" height="32"/>
      <rect x="703" y="33" width="72" height="32" class="nonterminal"/>
      <text class="nonterminal" x="713" y="53">NUMBER</text>
   </a>
   <a xmlns:xlink="http://www.w3.org/1999/xlink"
      xlink:href="#NUMBER"
      xlink:title="NUMBER">
      <rect x="797" y="35" width="72" height="32"/>
      <rect x="795" y="33" width="72" height="32" class="nonterminal"/>
      <text class="nonterminal" x="805" y="53">NUMBER</text>
   </a>
   <a xmlns:xlink="http://www.w3.org/1999/xlink"
      xlink:href="#K_MASK"
      xlink:title="K_MASK">
      <rect x="51" y="79" width="70" height="32"/>
      <rect x="49" y="77" width="70" height="32" class="nonterminal"/>
      <text class="nonterminal" x="59" y="97">K_MASK</text>
   </a>
   <a xmlns:xlink="http://www.w3.org/1999/xlink"
      xlink:href="#NUMBER"
      xlink:title="NUMBER">
      <rect x="141" y="79" width="72" height="32"/>
      <rect x="139" y="77" width="72" height="32" class="nonterminal"/>
      <text class="nonterminal" x="149" y="97">NUMBER</text>
   </a>
   <a xmlns:xlink="http://www.w3.org/1999/xlink"
      xlink:href="#T_STRING"
      xlink:title="T_STRING">
      <rect x="253" y="79" width="82" height="32"/>
      <rect x="251" y="77" width="82" height="32" class="nonterminal"/>
      <text class="nonterminal" x="261" y="97">T_STRING</text>
   </a>
   <a xmlns:xlink="http://www.w3.org/1999/xlink"
      xlink:href="#orient"
      xlink:title="orient">
      <rect x="375" y="111" width="56" height="32"/>
      <rect x="373" y="109" width="56" height="32" class="nonterminal"/>
      <text class="nonterminal" x="383" y="129">orient</text>
   </a>
   <a xmlns:xlink="http://www.w3.org/1999/xlink"
      xlink:href="#K_DO"
      xlink:title="K_DO">
      <rect x="491" y="111" width="54" height="32"/>
      <rect x="489" y="109" width="54" height="32" class="nonterminal"/>
      <text class="nonterminal" x="499" y="129">K_DO</text>
   </a>
   <a xmlns:xlink="http://www.w3.org/1999/xlink"
      xlink:href="#NUMBER"
      xlink:title="NUMBER">
      <rect x="565" y="111" width="72" height="32"/>
      <rect x="563" y="109" width="72" height="32" class="nonterminal"/>
      <text class="nonterminal" x="573" y="129">NUMBER</text>
   </a>
   <a xmlns:xlink="http://www.w3.org/1999/xlink"
      xlink:href="#K_BY"
      xlink:title="K_BY">
      <rect x="657" y="111" width="52" height="32"/>
      <rect x="655" y="109" width="52" height="32" class="nonterminal"/>
      <text class="nonterminal" x="665" y="129">K_BY</text>
   </a>
   <a xmlns:xlink="http://www.w3.org/1999/xlink"
      xlink:href="#NUMBER"
      xlink:title="NUMBER">
      <rect x="729" y="111" width="72" height="32"/>
      <rect x="727" y="109" width="72" height="32" class="nonterminal"/>
      <text class="nonterminal" x="737" y="129">NUMBER</text>
   </a>
   <a xmlns:xlink="http://www.w3.org/1999/xlink"
      xlink:href="#K_STEP"
      xlink:title="K_STEP">
      <rect x="821" y="111" width="66" height="32"/>
      <rect x="819" y="109" width="66" height="32" class="nonterminal"/>
      <text class="nonterminal" x="829" y="129">K_STEP</text>
   </a>
   <a xmlns:xlink="http://www.w3.org/1999/xlink"
      xlink:href="#NUMBER"
      xlink:title="NUMBER">
      <rect x="907" y="111" width="72" height="32"/>
      <rect x="905" y="109" width="72" height="32" class="nonterminal"/>
      <text class="nonterminal" x="915" y="129">NUMBER</text>
   </a>
   <a xmlns:xlink="http://www.w3.org/1999/xlink"
      xlink:href="#NUMBER"
      xlink:title="NUMBER">
      <rect x="999" y="111" width="72" height="32"/>
      <rect x="997" y="109" width="72" height="32" class="nonterminal"/>
      <text class="nonterminal" x="1007" y="129">NUMBER</text>
   </a>
   <a xmlns:xlink="http://www.w3.org/1999/xlink"
      xlink:href="#K_RECT"
      xlink:title="K_RECT">
      <rect x="253" y="155" width="68" height="32"/>
      <rect x="251" y="153" width="68" height="32" class="nonterminal"/>
      <text class="nonterminal" x="261" y="173">K_RECT</text>
   </a>
   <rect x="341" y="155" width="26" height="32" rx="10"/>
   <rect x="339"
         y="153"
         width="26"
         height="32"
         class="terminal"
         rx="10"/>
   <text class="terminal" x="349" y="173">(</text>
   <a xmlns:xlink="http://www.w3.org/1999/xlink"
      xlink:href="#NUMBER"
      xlink:title="NUMBER">
      <rect x="387" y="155" width="72" height="32"/>
      <rect x="385" y="153" width="72" height="32" class="nonterminal"/>
      <text class="nonterminal" x="395" y="173">NUMBER</text>
   </a>
   <a xmlns:xlink="http://www.w3.org/1999/xlink"
      xlink:href="#NUMBER"
      xlink:title="NUMBER">
      <rect x="479" y="155" width="72" height="32"/>
      <rect x="477" y="153" width="72" height="32" class="nonterminal"/>
      <text class="nonterminal" x="487" y="173">NUMBER</text>
   </a>
   <a xmlns:xlink="http://www.w3.org/1999/xlink"
      xlink:href="#NUMBER"
      xlink:title="NUMBER">
      <rect x="571" y="155" width="72" height="32"/>
      <rect x="569" y="153" width="72" height="32" class="nonterminal"/>
      <text class="nonterminal" x="579" y="173">NUMBER</text>
   </a>
   <a xmlns:xlink="http://www.w3.org/1999/xlink"
      xlink:href="#NUMBER"
      xlink:title="NUMBER">
      <rect x="663" y="155" width="72" height="32"/>
      <rect x="661" y="153" width="72" height="32" class="nonterminal"/>
      <text class="nonterminal" x="671" y="173">NUMBER</text>
   </a>
   <rect x="755" y="155" width="26" height="32" rx="10"/>
   <rect x="753"
         y="153"
         width="26"
         height="32"
         class="terminal"
         rx="10"/>
   <text class="terminal" x="763" y="173">)</text>
   <a xmlns:xlink="http://www.w3.org/1999/xlink"
      xlink:href="#path_pt"
      xlink:title="path_pt">
      <rect x="253" y="199" width="70" height="32"/>
      <rect x="251" y="197" width="70" height="32" class="nonterminal"/>
      <text class="nonterminal" x="261" y="217">path_pt</text>
   </a>
   <a xmlns:xlink="http://www.w3.org/1999/xlink"
      xlink:href="#virtual_statement"
      xlink:title="virtual_statement">
      <rect x="51" y="243" width="132" height="32"/>
      <rect x="49" y="241" width="132" height="32" class="nonterminal"/>
      <text class="nonterminal" x="59" y="261">virtual_statement</text>
   </a>
   <a xmlns:xlink="http://www.w3.org/1999/xlink"
      xlink:href="#rect_statement"
      xlink:title="rect_statement">
      <rect x="51" y="287" width="118" height="32"/>
      <rect x="49" y="285" width="118" height="32" class="nonterminal"/>
      <text class="nonterminal" x="59" y="305">rect_statement</text>
   </a>
   <a xmlns:xlink="http://www.w3.org/1999/xlink"
      xlink:href="#path_pt"
      xlink:title="path_pt">
      <rect x="51" y="331" width="70" height="32"/>
      <rect x="49" y="329" width="70" height="32" class="nonterminal"/>
      <text class="nonterminal" x="59" y="349">path_pt</text>
   </a>
   <path class="line"
         d="m17 17 h2 m20 0 h10 m82 0 h10 m20 0 h10 m0 0 h66 m-96 0 h20 m76 0 h20 m-116 0 q10 0 10 10 m96 0 q0 -10 10 -10 m-106 10 v12 m96 0 v-12 m-96 12 q0 10 10 10 m76 0 q10 0 10 -10 m-86 10 h10 m56 0 h10 m40 -32 h10 m0 0 h590 m-620 0 h20 m600 0 h20 m-640 0 q10 0 10 10 m620 0 q0 -10 10 -10 m-630 10 v12 m620 0 v-12 m-620 12 q0 10 10 10 m600 0 q10 0 10 -10 m-610 10 h10 m54 0 h10 m0 0 h10 m72 0 h10 m0 0 h10 m52 0 h10 m0 0 h10 m72 0 h10 m0 0 h10 m66 0 h10 m0 0 h10 m72 0 h10 m0 0 h10 m72 0 h10 m20 -32 h222 m-1100 0 h20 m1080 0 h20 m-1120 0 q10 0 10 10 m1100 0 q0 -10 10 -10 m-1110 10 v56 m1100 0 v-56 m-1100 56 q0 10 10 10 m1080 0 q10 0 10 -10 m-1090 10 h10 m70 0 h10 m0 0 h10 m72 0 h10 m20 0 h10 m82 0 h10 m20 0 h10 m0 0 h66 m-96 0 h20 m76 0 h20 m-116 0 q10 0 10 10 m96 0 q0 -10 10 -10 m-106 10 v12 m96 0 v-12 m-96 12 q0 10 10 10 m76 0 q10 0 10 -10 m-86 10 h10 m56 0 h10 m40 -32 h10 m0 0 h590 m-620 0 h20 m600 0 h20 m-640 0 q10 0 10 10 m620 0 q0 -10 10 -10 m-630 10 v12 m620 0 v-12 m-620 12 q0 10 10 10 m600 0 q10 0 10 -10 m-610 10 h10 m54 0 h10 m0 0 h10 m72 0 h10 m0 0 h10 m52 0 h10 m0 0 h10 m72 0 h10 m0 0 h10 m66 0 h10 m0 0 h10 m72 0 h10 m0 0 h10 m72 0 h10 m-858 -32 h20 m858 0 h20 m-898 0 q10 0 10 10 m878 0 q0 -10 10 -10 m-888 10 v56 m878 0 v-56 m-878 56 q0 10 10 10 m858 0 q10 0 10 -10 m-868 10 h10 m68 0 h10 m0 0 h10 m26 0 h10 m0 0 h10 m72 0 h10 m0 0 h10 m72 0 h10 m0 0 h10 m72 0 h10 m0 0 h10 m72 0 h10 m0 0 h10 m26 0 h10 m0 0 h310 m-868 -10 v20 m878 0 v-20 m-878 20 v24 m878 0 v-24 m-878 24 q0 10 10 10 m858 0 q10 0 10 -10 m-868 10 h10 m70 0 h10 m0 0 h768 m-1070 -130 v20 m1100 0 v-20 m-1100 20 v144 m1100 0 v-144 m-1100 144 q0 10 10 10 m1080 0 q10 0 10 -10 m-1090 10 h10 m132 0 h10 m0 0 h928 m-1090 -10 v20 m1100 0 v-20 m-1100 20 v24 m1100 0 v-24 m-1100 24 q0 10 10 10 m1080 0 q10 0 10 -10 m-1090 10 h10 m118 0 h10 m0 0 h942 m-1090 -10 v20 m1100 0 v-20 m-1100 20 v24 m1100 0 v-24 m-1100 24 q0 10 10 10 m1080 0 q10 0 10 -10 m-1090 10 h10 m70 0 h10 m0 0 h990 m23 -328 h-3"/>
   <polygon points="1149 17 1157 13 1157 21"/>
   <polygon points="1149 17 1141 13 1141 21"/>
</svg>
