<?xml version="1.0" encoding="UTF-8"?>
<svg style="background: var(--diagram-bg, #FFFCF0)" xmlns="http://www.w3.org/2000/svg" width="493" height="37"><style>
  :root { --diagram-bg: #FFFCF0; }
</style>
   <defs>
      <style type="text/css">
    @namespace "http://www.w3.org/2000/svg";
    .line                 {fill: none; stroke: #332900; stroke-width: 1;}
    .bold-line            {stroke: #141000; shape-rendering: crispEdges; stroke-width: 2;}
    .thin-line            {stroke: #1F1800; shape-rendering: crispEdges}
    .filled               {fill: #332900; stroke: none;}
    text.terminal         {font-family: Verdana, Sans-serif;
                            font-size: 12px;
                            fill: #141000;
                            font-weight: bold;
                          }
    text.nonterminal      {font-family: Verdana, Sans-serif;
                            font-size: 12px;
                            fill: #1A1400;
                            font-weight: normal;
                          }
    text.regexp           {font-family: Verdana, Sans-serif;
                            font-size: 12px;
                            fill: #1F1800;
                            font-weight: normal;
                          }
    rect, circle, polygon {fill: #332900; stroke: #332900;}
    rect.terminal         {fill: #FFDB4D; stroke: #332900; stroke-width: 1;}
    rect.nonterminal      {fill: #FFEC9E; stroke: #332900; stroke-width: 1;}
    rect.text             {fill: none; stroke: none;}
    polygon.regexp        {fill: #FFF4C7; stroke: #332900; stroke-width: 1;}
  </style>
   </defs>
   <polygon points="9 17 1 13 1 21"/>
   <polygon points="17 17 9 13 9 21"/>
   <a xmlns:xlink="http://www.w3.org/1999/xlink"
      xlink:href="#K_MINPINS"
      xlink:title="K_MINPINS">
      <rect x="31" y="3" width="90" height="32"/>
      <rect x="29" y="1" width="90" height="32" class="nonterminal"/>
      <text class="nonterminal" x="39" y="21">K_MINPINS</text>
   </a>
   <a xmlns:xlink="http://www.w3.org/1999/xlink"
      xlink:href="#NUMBER"
      xlink:title="NUMBER">
      <rect x="141" y="3" width="72" height="32"/>
      <rect x="139" y="1" width="72" height="32" class="nonterminal"/>
      <text class="nonterminal" x="149" y="21">NUMBER</text>
   </a>
   <a xmlns:xlink="http://www.w3.org/1999/xlink"
      xlink:href="#K_WIRECAP"
      xlink:title="K_WIRECAP">
      <rect x="233" y="3" width="96" height="32"/>
      <rect x="231" y="1" width="96" height="32" class="nonterminal"/>
      <text class="nonterminal" x="241" y="21">K_WIRECAP</text>
   </a>
   <a xmlns:xlink="http://www.w3.org/1999/xlink"
      xlink:href="#NUMBER"
      xlink:title="NUMBER">
      <rect x="349" y="3" width="72" height="32"/>
      <rect x="347" y="1" width="72" height="32" class="nonterminal"/>
      <text class="nonterminal" x="357" y="21">NUMBER</text>
   </a>
   <rect x="441" y="3" width="24" height="32" rx="10"/>
   <rect x="439"
         y="1"
         width="24"
         height="32"
         class="terminal"
         rx="10"/>
   <text class="terminal" x="449" y="21">;</text>
   <path class="line"
         d="m17 17 h2 m0 0 h10 m90 0 h10 m0 0 h10 m72 0 h10 m0 0 h10 m96 0 h10 m0 0 h10 m72 0 h10 m0 0 h10 m24 0 h10 m3 0 h-3"/>
   <polygon points="483 17 491 13 491 21"/>
   <polygon points="483 17 475 13 475 21"/>
</svg>
