<?xml version="1.0" encoding="UTF-8"?>
<svg style="background: var(--diagram-bg, #FFFCF0)" xmlns="http://www.w3.org/2000/svg" width="457" height="201"><style>
  :root { --diagram-bg: #FFFCF0; }
</style>
   <defs>
      <style type="text/css">
    @namespace "http://www.w3.org/2000/svg";
    .line                 {fill: none; stroke: #332900; stroke-width: 1;}
    .bold-line            {stroke: #141000; shape-rendering: crispEdges; stroke-width: 2;}
    .thin-line            {stroke: #1F1800; shape-rendering: crispEdges}
    .filled               {fill: #332900; stroke: none;}
    text.terminal         {font-family: Verdana, Sans-serif;
                            font-size: 12px;
                            fill: #141000;
                            font-weight: bold;
                          }
    text.nonterminal      {font-family: Verdana, Sans-serif;
                            font-size: 12px;
                            fill: #1A1400;
                            font-weight: normal;
                          }
    text.regexp           {font-family: Verdana, Sans-serif;
                            font-size: 12px;
                            fill: #1F1800;
                            font-weight: normal;
                          }
    rect, circle, polygon {fill: #332900; stroke: #332900;}
    rect.terminal         {fill: #FFDB4D; stroke: #332900; stroke-width: 1;}
    rect.nonterminal      {fill: #FFEC9E; stroke: #332900; stroke-width: 1;}
    rect.text             {fill: none; stroke: none;}
    polygon.regexp        {fill: #FFF4C7; stroke: #332900; stroke-width: 1;}
  </style>
   </defs>
   <polygon points="9 17 1 13 1 21"/>
   <polygon points="17 17 9 13 9 21"/>
   <a xmlns:xlink="http://www.w3.org/1999/xlink"
      xlink:href="#K_INTEGER"
      xlink:title="K_INTEGER">
      <rect x="71" y="3" width="90" height="32"/>
      <rect x="69" y="1" width="90" height="32" class="nonterminal"/>
      <text class="nonterminal" x="79" y="21">K_INTEGER</text>
   </a>
   <a xmlns:xlink="http://www.w3.org/1999/xlink"
      xlink:href="#K_REAL"
      xlink:title="K_REAL">
      <rect x="71" y="47" width="68" height="32"/>
      <rect x="69" y="45" width="68" height="32" class="nonterminal"/>
      <text class="nonterminal" x="79" y="65">K_REAL</text>
   </a>
   <a xmlns:xlink="http://www.w3.org/1999/xlink"
      xlink:href="#opt_range"
      xlink:title="opt_range">
      <rect x="201" y="3" width="86" height="32"/>
      <rect x="199" y="1" width="86" height="32" class="nonterminal"/>
      <text class="nonterminal" x="209" y="21">opt_range</text>
   </a>
   <a xmlns:xlink="http://www.w3.org/1999/xlink"
      xlink:href="#opt_num_val"
      xlink:title="opt_num_val">
      <rect x="307" y="3" width="102" height="32"/>
      <rect x="305" y="1" width="102" height="32" class="nonterminal"/>
      <text class="nonterminal" x="315" y="21">opt_num_val</text>
   </a>
   <a xmlns:xlink="http://www.w3.org/1999/xlink"
      xlink:href="#K_STRING"
      xlink:title="K_STRING">
      <rect x="51" y="91" width="82" height="32"/>
      <rect x="49" y="89" width="82" height="32" class="nonterminal"/>
      <text class="nonterminal" x="59" y="109">K_STRING</text>
   </a>
   <a xmlns:xlink="http://www.w3.org/1999/xlink"
      xlink:href="#QSTRING"
      xlink:title="QSTRING">
      <rect x="173" y="123" width="76" height="32"/>
      <rect x="171" y="121" width="76" height="32" class="nonterminal"/>
      <text class="nonterminal" x="181" y="141">QSTRING</text>
   </a>
   <a xmlns:xlink="http://www.w3.org/1999/xlink"
      xlink:href="#K_NAMEMAPSTRING"
      xlink:title="K_NAMEMAPSTRING">
      <rect x="51" y="167" width="144" height="32"/>
      <rect x="49" y="165" width="144" height="32" class="nonterminal"/>
      <text class="nonterminal" x="59" y="185">K_NAMEMAPSTRING</text>
   </a>
   <a xmlns:xlink="http://www.w3.org/1999/xlink"
      xlink:href="#T_STRING"
      xlink:title="T_STRING">
      <rect x="215" y="167" width="82" height="32"/>
      <rect x="213" y="165" width="82" height="32" class="nonterminal"/>
      <text class="nonterminal" x="223" y="185">T_STRING</text>
   </a>
   <path class="line"
         d="m17 17 h2 m40 0 h10 m90 0 h10 m-130 0 h20 m110 0 h20 m-150 0 q10 0 10 10 m130 0 q0 -10 10 -10 m-140 10 v24 m130 0 v-24 m-130 24 q0 10 10 10 m110 0 q10 0 10 -10 m-120 10 h10 m68 0 h10 m0 0 h22 m20 -44 h10 m86 0 h10 m0 0 h10 m102 0 h10 m-398 0 h20 m378 0 h20 m-418 0 q10 0 10 10 m398 0 q0 -10 10 -10 m-408 10 v68 m398 0 v-68 m-398 68 q0 10 10 10 m378 0 q10 0 10 -10 m-388 10 h10 m82 0 h10 m20 0 h10 m0 0 h86 m-116 0 h20 m96 0 h20 m-136 0 q10 0 10 10 m116 0 q0 -10 10 -10 m-126 10 v12 m116 0 v-12 m-116 12 q0 10 10 10 m96 0 q10 0 10 -10 m-106 10 h10 m76 0 h10 m20 -32 h140 m-388 -10 v20 m398 0 v-20 m-398 20 v56 m398 0 v-56 m-398 56 q0 10 10 10 m378 0 q10 0 10 -10 m-388 10 h10 m144 0 h10 m0 0 h10 m82 0 h10 m0 0 h112 m23 -164 h-3"/>
   <polygon points="447 17 455 13 455 21"/>
   <polygon points="447 17 439 13 439 21"/>
</svg>
