<?xml version="1.0" encoding="UTF-8"?>
<svg style="background: var(--diagram-bg, #FFFCF0)" xmlns="http://www.w3.org/2000/svg" width="687" height="71"><style>
  :root { --diagram-bg: #FFFCF0; }
</style>
   <defs>
      <style type="text/css">
    @namespace "http://www.w3.org/2000/svg";
    .line                 {fill: none; stroke: #332900; stroke-width: 1;}
    .bold-line            {stroke: #141000; shape-rendering: crispEdges; stroke-width: 2;}
    .thin-line            {stroke: #1F1800; shape-rendering: crispEdges}
    .filled               {fill: #332900; stroke: none;}
    text.terminal         {font-family: Verdana, Sans-serif;
                            font-size: 12px;
                            fill: #141000;
                            font-weight: bold;
                          }
    text.nonterminal      {font-family: Verdana, Sans-serif;
                            font-size: 12px;
                            fill: #1A1400;
                            font-weight: normal;
                          }
    text.regexp           {font-family: Verdana, Sans-serif;
                            font-size: 12px;
                            fill: #1F1800;
                            font-weight: normal;
                          }
    rect, circle, polygon {fill: #332900; stroke: #332900;}
    rect.terminal         {fill: #FFDB4D; stroke: #332900; stroke-width: 1;}
    rect.nonterminal      {fill: #FFEC9E; stroke: #332900; stroke-width: 1;}
    rect.text             {fill: none; stroke: none;}
    polygon.regexp        {fill: #FFF4C7; stroke: #332900; stroke-width: 1;}
  </style>
   </defs>
   <polygon points="9 51 1 47 1 55"/>
   <polygon points="17 51 9 47 9 55"/>
   <a xmlns:xlink="http://www.w3.org/1999/xlink"
      xlink:href="#K_PROPERTYDEFINITIONS"
      xlink:title="K_PROPERTYDEFINITIONS">
      <rect x="31" y="37" width="182" height="32"/>
      <rect x="29" y="35" width="182" height="32" class="nonterminal"/>
      <text class="nonterminal" x="39" y="55">K_PROPERTYDEFINITIONS</text>
   </a>
   <a xmlns:xlink="http://www.w3.org/1999/xlink"
      xlink:href="#property_def"
      xlink:title="property_def">
      <rect x="253" y="3" width="102" height="32"/>
      <rect x="251" y="1" width="102" height="32" class="nonterminal"/>
      <text class="nonterminal" x="261" y="21">property_def</text>
   </a>
   <a xmlns:xlink="http://www.w3.org/1999/xlink"
      xlink:href="#K_END"
      xlink:title="K_END">
      <rect x="395" y="37" width="62" height="32"/>
      <rect x="393" y="35" width="62" height="32" class="nonterminal"/>
      <text class="nonterminal" x="403" y="55">K_END</text>
   </a>
   <a xmlns:xlink="http://www.w3.org/1999/xlink"
      xlink:href="#K_PROPERTYDEFINITIONS"
      xlink:title="K_PROPERTYDEFINITIONS">
      <rect x="477" y="37" width="182" height="32"/>
      <rect x="475" y="35" width="182" height="32" class="nonterminal"/>
      <text class="nonterminal" x="485" y="55">K_PROPERTYDEFINITIONS</text>
   </a>
   <path class="line"
         d="m17 51 h2 m0 0 h10 m182 0 h10 m20 0 h10 m0 0 h112 m-142 0 l20 0 m-1 0 q-9 0 -9 -10 l0 -14 q0 -10 10 -10 m122 34 l20 0 m-20 0 q10 0 10 -10 l0 -14 q0 -10 -10 -10 m-122 0 h10 m102 0 h10 m20 34 h10 m62 0 h10 m0 0 h10 m182 0 h10 m3 0 h-3"/>
   <polygon points="677 51 685 47 685 55"/>
   <polygon points="677 51 669 47 669 55"/>
</svg>
