<?xml version="1.0" encoding="UTF-8"?>
<svg style="background: var(--diagram-bg, #FFFCF0)" xmlns="http://www.w3.org/2000/svg" width="499" height="37"><style>
  :root { --diagram-bg: #FFFCF0; }
</style>
   <defs>
      <style type="text/css">
    @namespace "http://www.w3.org/2000/svg";
    .line                 {fill: none; stroke: #332900; stroke-width: 1;}
    .bold-line            {stroke: #141000; shape-rendering: crispEdges; stroke-width: 2;}
    .thin-line            {stroke: #1F1800; shape-rendering: crispEdges}
    .filled               {fill: #332900; stroke: none;}
    text.terminal         {font-family: Verdana, Sans-serif;
                            font-size: 12px;
                            fill: #141000;
                            font-weight: bold;
                          }
    text.nonterminal      {font-family: Verdana, Sans-serif;
                            font-size: 12px;
                            fill: #1A1400;
                            font-weight: normal;
                          }
    text.regexp           {font-family: Verdana, Sans-serif;
                            font-size: 12px;
                            fill: #1F1800;
                            font-weight: normal;
                          }
    rect, circle, polygon {fill: #332900; stroke: #332900;}
    rect.terminal         {fill: #FFDB4D; stroke: #332900; stroke-width: 1;}
    rect.nonterminal      {fill: #FFEC9E; stroke: #332900; stroke-width: 1;}
    rect.text             {fill: none; stroke: none;}
    polygon.regexp        {fill: #FFF4C7; stroke: #332900; stroke-width: 1;}
  </style>
   </defs>
   <polygon points="9 17 1 13 1 21"/>
   <polygon points="17 17 9 13 9 21"/>
   <rect x="31" y="3" width="26" height="32" rx="10"/>
   <rect x="29"
         y="1"
         width="26"
         height="32"
         class="terminal"
         rx="10"/>
   <text class="terminal" x="39" y="21">(</text>
   <a xmlns:xlink="http://www.w3.org/1999/xlink"
      xlink:href="#NUMBER"
      xlink:title="NUMBER">
      <rect x="77" y="3" width="72" height="32"/>
      <rect x="75" y="1" width="72" height="32" class="nonterminal"/>
      <text class="nonterminal" x="85" y="21">NUMBER</text>
   </a>
   <a xmlns:xlink="http://www.w3.org/1999/xlink"
      xlink:href="#NUMBER"
      xlink:title="NUMBER">
      <rect x="169" y="3" width="72" height="32"/>
      <rect x="167" y="1" width="72" height="32" class="nonterminal"/>
      <text class="nonterminal" x="177" y="21">NUMBER</text>
   </a>
   <a xmlns:xlink="http://www.w3.org/1999/xlink"
      xlink:href="#NUMBER"
      xlink:title="NUMBER">
      <rect x="261" y="3" width="72" height="32"/>
      <rect x="259" y="1" width="72" height="32" class="nonterminal"/>
      <text class="nonterminal" x="269" y="21">NUMBER</text>
   </a>
   <a xmlns:xlink="http://www.w3.org/1999/xlink"
      xlink:href="#NUMBER"
      xlink:title="NUMBER">
      <rect x="353" y="3" width="72" height="32"/>
      <rect x="351" y="1" width="72" height="32" class="nonterminal"/>
      <text class="nonterminal" x="361" y="21">NUMBER</text>
   </a>
   <rect x="445" y="3" width="26" height="32" rx="10"/>
   <rect x="443"
         y="1"
         width="26"
         height="32"
         class="terminal"
         rx="10"/>
   <text class="terminal" x="453" y="21">)</text>
   <path class="line"
         d="m17 17 h2 m0 0 h10 m26 0 h10 m0 0 h10 m72 0 h10 m0 0 h10 m72 0 h10 m0 0 h10 m72 0 h10 m0 0 h10 m72 0 h10 m0 0 h10 m26 0 h10 m3 0 h-3"/>
   <polygon points="489 17 497 13 497 21"/>
   <polygon points="489 17 481 13 481 21"/>
</svg>
