<?xml version="1.0" encoding="UTF-8"?>
<svg style="background: var(--diagram-bg, #FFFCF0)" xmlns="http://www.w3.org/2000/svg" width="407" height="115"><style>
  :root { --diagram-bg: #FFFCF0; }
</style>
   <defs>
      <style type="text/css">
    @namespace "http://www.w3.org/2000/svg";
    .line                 {fill: none; stroke: #332900; stroke-width: 1;}
    .bold-line            {stroke: #141000; shape-rendering: crispEdges; stroke-width: 2;}
    .thin-line            {stroke: #1F1800; shape-rendering: crispEdges}
    .filled               {fill: #332900; stroke: none;}
    text.terminal         {font-family: Verdana, Sans-serif;
                            font-size: 12px;
                            fill: #141000;
                            font-weight: bold;
                          }
    text.nonterminal      {font-family: Verdana, Sans-serif;
                            font-size: 12px;
                            fill: #1A1400;
                            font-weight: normal;
                          }
    text.regexp           {font-family: Verdana, Sans-serif;
                            font-size: 12px;
                            fill: #1F1800;
                            font-weight: normal;
                          }
    rect, circle, polygon {fill: #332900; stroke: #332900;}
    rect.terminal         {fill: #FFDB4D; stroke: #332900; stroke-width: 1;}
    rect.nonterminal      {fill: #FFEC9E; stroke: #332900; stroke-width: 1;}
    rect.text             {fill: none; stroke: none;}
    polygon.regexp        {fill: #FFF4C7; stroke: #332900; stroke-width: 1;}
  </style>
   </defs>
   <polygon points="9 51 1 47 1 55"/>
   <polygon points="17 51 9 47 9 55"/>
   <rect x="31" y="37" width="30" height="32" rx="10"/>
   <rect x="29"
         y="35"
         width="30"
         height="32"
         class="terminal"
         rx="10"/>
   <text class="terminal" x="39" y="55">+</text>
   <a xmlns:xlink="http://www.w3.org/1999/xlink"
      xlink:href="#K_PROPERTY"
      xlink:title="K_PROPERTY">
      <rect x="101" y="37" width="100" height="32"/>
      <rect x="99" y="35" width="100" height="32" class="nonterminal"/>
      <text class="nonterminal" x="109" y="55">K_PROPERTY</text>
   </a>
   <a xmlns:xlink="http://www.w3.org/1999/xlink"
      xlink:href="#region_prop"
      xlink:title="region_prop">
      <rect x="241" y="3" width="98" height="32"/>
      <rect x="239" y="1" width="98" height="32" class="nonterminal"/>
      <text class="nonterminal" x="249" y="21">region_prop</text>
   </a>
   <a xmlns:xlink="http://www.w3.org/1999/xlink"
      xlink:href="#K_TYPE"
      xlink:title="K_TYPE">
      <rect x="101" y="81" width="66" height="32"/>
      <rect x="99" y="79" width="66" height="32" class="nonterminal"/>
      <text class="nonterminal" x="109" y="99">K_TYPE</text>
   </a>
   <a xmlns:xlink="http://www.w3.org/1999/xlink"
      xlink:href="#region_type"
      xlink:title="region_type">
      <rect x="187" y="81" width="96" height="32"/>
      <rect x="185" y="79" width="96" height="32" class="nonterminal"/>
      <text class="nonterminal" x="195" y="99">region_type</text>
   </a>
   <path class="line"
         d="m17 51 h2 m0 0 h10 m30 0 h10 m20 0 h10 m100 0 h10 m20 0 h10 m0 0 h108 m-138 0 l20 0 m-1 0 q-9 0 -9 -10 l0 -14 q0 -10 10 -10 m118 34 l20 0 m-20 0 q10 0 10 -10 l0 -14 q0 -10 -10 -10 m-118 0 h10 m98 0 h10 m-278 34 h20 m278 0 h20 m-318 0 q10 0 10 10 m298 0 q0 -10 10 -10 m-308 10 v24 m298 0 v-24 m-298 24 q0 10 10 10 m278 0 q10 0 10 -10 m-288 10 h10 m66 0 h10 m0 0 h10 m96 0 h10 m0 0 h76 m23 -44 h-3"/>
   <polygon points="397 51 405 47 405 55"/>
   <polygon points="397 51 389 47 389 55"/>
</svg>
