<?xml version="1.0" encoding="UTF-8"?>
<svg style="background: var(--diagram-bg, #FFFCF0)" xmlns="http://www.w3.org/2000/svg" width="543" height="71"><style>
  :root { --diagram-bg: #FFFCF0; }
</style>
   <defs>
      <style type="text/css">
    @namespace "http://www.w3.org/2000/svg";
    .line                 {fill: none; stroke: #332900; stroke-width: 1;}
    .bold-line            {stroke: #141000; shape-rendering: crispEdges; stroke-width: 2;}
    .thin-line            {stroke: #1F1800; shape-rendering: crispEdges}
    .filled               {fill: #332900; stroke: none;}
    text.terminal         {font-family: Verdana, Sans-serif;
                            font-size: 12px;
                            fill: #141000;
                            font-weight: bold;
                          }
    text.nonterminal      {font-family: Verdana, Sans-serif;
                            font-size: 12px;
                            fill: #1A1400;
                            font-weight: normal;
                          }
    text.regexp           {font-family: Verdana, Sans-serif;
                            font-size: 12px;
                            fill: #1F1800;
                            font-weight: normal;
                          }
    rect, circle, polygon {fill: #332900; stroke: #332900;}
    rect.terminal         {fill: #FFDB4D; stroke: #332900; stroke-width: 1;}
    rect.nonterminal      {fill: #FFEC9E; stroke: #332900; stroke-width: 1;}
    rect.text             {fill: none; stroke: none;}
    polygon.regexp        {fill: #FFF4C7; stroke: #332900; stroke-width: 1;}
  </style>
   </defs>
   <polygon points="9 51 1 47 1 55"/>
   <polygon points="17 51 9 47 9 55"/>
   <rect x="31" y="37" width="26" height="32" rx="10"/>
   <rect x="29"
         y="35"
         width="26"
         height="32"
         class="terminal"
         rx="10"/>
   <text class="terminal" x="39" y="55">-</text>
   <a xmlns:xlink="http://www.w3.org/1999/xlink"
      xlink:href="#T_STRING"
      xlink:title="T_STRING">
      <rect x="77" y="37" width="82" height="32"/>
      <rect x="75" y="35" width="82" height="32" class="nonterminal"/>
      <text class="nonterminal" x="85" y="55">T_STRING</text>
   </a>
   <a xmlns:xlink="http://www.w3.org/1999/xlink"
      xlink:href="#pt"
      xlink:title="pt">
      <rect x="199" y="37" width="32" height="32"/>
      <rect x="197" y="35" width="32" height="32" class="nonterminal"/>
      <text class="nonterminal" x="207" y="55">pt</text>
   </a>
   <a xmlns:xlink="http://www.w3.org/1999/xlink"
      xlink:href="#pt"
      xlink:title="pt">
      <rect x="251" y="37" width="32" height="32"/>
      <rect x="249" y="35" width="32" height="32" class="nonterminal"/>
      <text class="nonterminal" x="259" y="55">pt</text>
   </a>
   <a xmlns:xlink="http://www.w3.org/1999/xlink"
      xlink:href="#region_option"
      xlink:title="region_option">
      <rect x="343" y="3" width="108" height="32"/>
      <rect x="341" y="1" width="108" height="32" class="nonterminal"/>
      <text class="nonterminal" x="351" y="21">region_option</text>
   </a>
   <rect x="491" y="37" width="24" height="32" rx="10"/>
   <rect x="489"
         y="35"
         width="24"
         height="32"
         class="terminal"
         rx="10"/>
   <text class="terminal" x="499" y="55">;</text>
   <path class="line"
         d="m17 51 h2 m0 0 h10 m26 0 h10 m0 0 h10 m82 0 h10 m20 0 h10 m32 0 h10 m0 0 h10 m32 0 h10 m-124 0 l20 0 m-1 0 q-9 0 -9 -10 l0 -12 q0 -10 10 -10 m104 32 l20 0 m-20 0 q10 0 10 -10 l0 -12 q0 -10 -10 -10 m-104 0 h10 m0 0 h94 m40 32 h10 m0 0 h118 m-148 0 l20 0 m-1 0 q-9 0 -9 -10 l0 -14 q0 -10 10 -10 m128 34 l20 0 m-20 0 q10 0 10 -10 l0 -14 q0 -10 -10 -10 m-128 0 h10 m108 0 h10 m20 34 h10 m24 0 h10 m3 0 h-3"/>
   <polygon points="533 51 541 47 541 55"/>
   <polygon points="533 51 525 47 525 55"/>
</svg>
