<?xml version="1.0" encoding="UTF-8"?>
<svg style="background: var(--diagram-bg, #FFFCF0)" xmlns="http://www.w3.org/2000/svg" width="917" height="71"><style>
  :root { --diagram-bg: #FFFCF0; }
</style>
   <defs>
      <style type="text/css">
    @namespace "http://www.w3.org/2000/svg";
    .line                 {fill: none; stroke: #332900; stroke-width: 1;}
    .bold-line            {stroke: #141000; shape-rendering: crispEdges; stroke-width: 2;}
    .thin-line            {stroke: #1F1800; shape-rendering: crispEdges}
    .filled               {fill: #332900; stroke: none;}
    text.terminal         {font-family: Verdana, Sans-serif;
                            font-size: 12px;
                            fill: #141000;
                            font-weight: bold;
                          }
    text.nonterminal      {font-family: Verdana, Sans-serif;
                            font-size: 12px;
                            fill: #1A1400;
                            font-weight: normal;
                          }
    text.regexp           {font-family: Verdana, Sans-serif;
                            font-size: 12px;
                            fill: #1F1800;
                            font-weight: normal;
                          }
    rect, circle, polygon {fill: #332900; stroke: #332900;}
    rect.terminal         {fill: #FFDB4D; stroke: #332900; stroke-width: 1;}
    rect.nonterminal      {fill: #FFEC9E; stroke: #332900; stroke-width: 1;}
    rect.text             {fill: none; stroke: none;}
    polygon.regexp        {fill: #FFF4C7; stroke: #332900; stroke-width: 1;}
  </style>
   </defs>
   <polygon points="9 51 1 47 1 55"/>
   <polygon points="17 51 9 47 9 55"/>
   <a xmlns:xlink="http://www.w3.org/1999/xlink"
      xlink:href="#K_ROW"
      xlink:title="K_ROW">
      <rect x="31" y="37" width="66" height="32"/>
      <rect x="29" y="35" width="66" height="32" class="nonterminal"/>
      <text class="nonterminal" x="39" y="55">K_ROW</text>
   </a>
   <a xmlns:xlink="http://www.w3.org/1999/xlink"
      xlink:href="#T_STRING"
      xlink:title="T_STRING">
      <rect x="117" y="37" width="82" height="32"/>
      <rect x="115" y="35" width="82" height="32" class="nonterminal"/>
      <text class="nonterminal" x="125" y="55">T_STRING</text>
   </a>
   <a xmlns:xlink="http://www.w3.org/1999/xlink"
      xlink:href="#T_STRING"
      xlink:title="T_STRING">
      <rect x="219" y="37" width="82" height="32"/>
      <rect x="217" y="35" width="82" height="32" class="nonterminal"/>
      <text class="nonterminal" x="227" y="55">T_STRING</text>
   </a>
   <a xmlns:xlink="http://www.w3.org/1999/xlink"
      xlink:href="#NUMBER"
      xlink:title="NUMBER">
      <rect x="321" y="37" width="72" height="32"/>
      <rect x="319" y="35" width="72" height="32" class="nonterminal"/>
      <text class="nonterminal" x="329" y="55">NUMBER</text>
   </a>
   <a xmlns:xlink="http://www.w3.org/1999/xlink"
      xlink:href="#NUMBER"
      xlink:title="NUMBER">
      <rect x="413" y="37" width="72" height="32"/>
      <rect x="411" y="35" width="72" height="32" class="nonterminal"/>
      <text class="nonterminal" x="421" y="55">NUMBER</text>
   </a>
   <a xmlns:xlink="http://www.w3.org/1999/xlink"
      xlink:href="#orient"
      xlink:title="orient">
      <rect x="505" y="37" width="56" height="32"/>
      <rect x="503" y="35" width="56" height="32" class="nonterminal"/>
      <text class="nonterminal" x="513" y="55">orient</text>
   </a>
   <a xmlns:xlink="http://www.w3.org/1999/xlink"
      xlink:href="#row_do_option"
      xlink:title="row_do_option">
      <rect x="581" y="37" width="114" height="32"/>
      <rect x="579" y="35" width="114" height="32" class="nonterminal"/>
      <text class="nonterminal" x="589" y="55">row_do_option</text>
   </a>
   <a xmlns:xlink="http://www.w3.org/1999/xlink"
      xlink:href="#row_option"
      xlink:title="row_option">
      <rect x="735" y="3" width="90" height="32"/>
      <rect x="733" y="1" width="90" height="32" class="nonterminal"/>
      <text class="nonterminal" x="743" y="21">row_option</text>
   </a>
   <rect x="865" y="37" width="24" height="32" rx="10"/>
   <rect x="863"
         y="35"
         width="24"
         height="32"
         class="terminal"
         rx="10"/>
   <text class="terminal" x="873" y="55">;</text>
   <path class="line"
         d="m17 51 h2 m0 0 h10 m66 0 h10 m0 0 h10 m82 0 h10 m0 0 h10 m82 0 h10 m0 0 h10 m72 0 h10 m0 0 h10 m72 0 h10 m0 0 h10 m56 0 h10 m0 0 h10 m114 0 h10 m20 0 h10 m0 0 h100 m-130 0 l20 0 m-1 0 q-9 0 -9 -10 l0 -14 q0 -10 10 -10 m110 34 l20 0 m-20 0 q10 0 10 -10 l0 -14 q0 -10 -10 -10 m-110 0 h10 m90 0 h10 m20 34 h10 m24 0 h10 m3 0 h-3"/>
   <polygon points="907 51 915 47 915 55"/>
   <polygon points="907 51 899 47 899 55"/>
</svg>
