<?xml version="1.0" encoding="UTF-8"?>
<svg style="background: var(--diagram-bg, #FFFCF0)" xmlns="http://www.w3.org/2000/svg" width="237" height="521"><style>
  :root { --diagram-bg: #FFFCF0; }
</style>
   <defs>
      <style type="text/css">
    @namespace "http://www.w3.org/2000/svg";
    .line                 {fill: none; stroke: #332900; stroke-width: 1;}
    .bold-line            {stroke: #141000; shape-rendering: crispEdges; stroke-width: 2;}
    .thin-line            {stroke: #1F1800; shape-rendering: crispEdges}
    .filled               {fill: #332900; stroke: none;}
    text.terminal         {font-family: Verdana, Sans-serif;
                            font-size: 12px;
                            fill: #141000;
                            font-weight: bold;
                          }
    text.nonterminal      {font-family: Verdana, Sans-serif;
                            font-size: 12px;
                            fill: #1A1400;
                            font-weight: normal;
                          }
    text.regexp           {font-family: Verdana, Sans-serif;
                            font-size: 12px;
                            fill: #1F1800;
                            font-weight: normal;
                          }
    rect, circle, polygon {fill: #332900; stroke: #332900;}
    rect.terminal         {fill: #FFDB4D; stroke: #332900; stroke-width: 1;}
    rect.nonterminal      {fill: #FFEC9E; stroke: #332900; stroke-width: 1;}
    rect.text             {fill: none; stroke: none;}
    polygon.regexp        {fill: #FFF4C7; stroke: #332900; stroke-width: 1;}
  </style>
   </defs>
   <polygon points="9 17 1 13 1 21"/>
   <polygon points="17 17 9 13 9 21"/>
   <a xmlns:xlink="http://www.w3.org/1999/xlink"
      xlink:href="#K_RING"
      xlink:title="K_RING">
      <rect x="51" y="3" width="68" height="32"/>
      <rect x="49" y="1" width="68" height="32" class="nonterminal"/>
      <text class="nonterminal" x="59" y="21">K_RING</text>
   </a>
   <a xmlns:xlink="http://www.w3.org/1999/xlink"
      xlink:href="#K_STRIPE"
      xlink:title="K_STRIPE">
      <rect x="51" y="47" width="80" height="32"/>
      <rect x="49" y="45" width="80" height="32" class="nonterminal"/>
      <text class="nonterminal" x="59" y="65">K_STRIPE</text>
   </a>
   <a xmlns:xlink="http://www.w3.org/1999/xlink"
      xlink:href="#K_FOLLOWPIN"
      xlink:title="K_FOLLOWPIN">
      <rect x="51" y="91" width="110" height="32"/>
      <rect x="49" y="89" width="110" height="32" class="nonterminal"/>
      <text class="nonterminal" x="59" y="109">K_FOLLOWPIN</text>
   </a>
   <a xmlns:xlink="http://www.w3.org/1999/xlink"
      xlink:href="#K_IOWIRE"
      xlink:title="K_IOWIRE">
      <rect x="51" y="135" width="84" height="32"/>
      <rect x="49" y="133" width="84" height="32" class="nonterminal"/>
      <text class="nonterminal" x="59" y="153">K_IOWIRE</text>
   </a>
   <a xmlns:xlink="http://www.w3.org/1999/xlink"
      xlink:href="#K_COREWIRE"
      xlink:title="K_COREWIRE">
      <rect x="51" y="179" width="104" height="32"/>
      <rect x="49" y="177" width="104" height="32" class="nonterminal"/>
      <text class="nonterminal" x="59" y="197">K_COREWIRE</text>
   </a>
   <a xmlns:xlink="http://www.w3.org/1999/xlink"
      xlink:href="#K_BLOCKWIRE"
      xlink:title="K_BLOCKWIRE">
      <rect x="51" y="223" width="112" height="32"/>
      <rect x="49" y="221" width="112" height="32" class="nonterminal"/>
      <text class="nonterminal" x="59" y="241">K_BLOCKWIRE</text>
   </a>
   <a xmlns:xlink="http://www.w3.org/1999/xlink"
      xlink:href="#K_FILLWIRE"
      xlink:title="K_FILLWIRE">
      <rect x="51" y="267" width="96" height="32"/>
      <rect x="49" y="265" width="96" height="32" class="nonterminal"/>
      <text class="nonterminal" x="59" y="285">K_FILLWIRE</text>
   </a>
   <a xmlns:xlink="http://www.w3.org/1999/xlink"
      xlink:href="#K_FILLWIREOPC"
      xlink:title="K_FILLWIREOPC">
      <rect x="51" y="311" width="122" height="32"/>
      <rect x="49" y="309" width="122" height="32" class="nonterminal"/>
      <text class="nonterminal" x="59" y="329">K_FILLWIREOPC</text>
   </a>
   <a xmlns:xlink="http://www.w3.org/1999/xlink"
      xlink:href="#K_DRCFILL"
      xlink:title="K_DRCFILL">
      <rect x="51" y="355" width="88" height="32"/>
      <rect x="49" y="353" width="88" height="32" class="nonterminal"/>
      <text class="nonterminal" x="59" y="373">K_DRCFILL</text>
   </a>
   <a xmlns:xlink="http://www.w3.org/1999/xlink"
      xlink:href="#K_BLOCKAGEWIRE"
      xlink:title="K_BLOCKAGEWIRE">
      <rect x="51" y="399" width="138" height="32"/>
      <rect x="49" y="397" width="138" height="32" class="nonterminal"/>
      <text class="nonterminal" x="59" y="417">K_BLOCKAGEWIRE</text>
   </a>
   <a xmlns:xlink="http://www.w3.org/1999/xlink"
      xlink:href="#K_PADRING"
      xlink:title="K_PADRING">
      <rect x="51" y="443" width="92" height="32"/>
      <rect x="49" y="441" width="92" height="32" class="nonterminal"/>
      <text class="nonterminal" x="59" y="461">K_PADRING</text>
   </a>
   <a xmlns:xlink="http://www.w3.org/1999/xlink"
      xlink:href="#K_BLOCKRING"
      xlink:title="K_BLOCKRING">
      <rect x="51" y="487" width="110" height="32"/>
      <rect x="49" y="485" width="110" height="32" class="nonterminal"/>
      <text class="nonterminal" x="59" y="505">K_BLOCKRING</text>
   </a>
   <path class="line"
         d="m17 17 h2 m20 0 h10 m68 0 h10 m0 0 h70 m-178 0 h20 m158 0 h20 m-198 0 q10 0 10 10 m178 0 q0 -10 10 -10 m-188 10 v24 m178 0 v-24 m-178 24 q0 10 10 10 m158 0 q10 0 10 -10 m-168 10 h10 m80 0 h10 m0 0 h58 m-168 -10 v20 m178 0 v-20 m-178 20 v24 m178 0 v-24 m-178 24 q0 10 10 10 m158 0 q10 0 10 -10 m-168 10 h10 m110 0 h10 m0 0 h28 m-168 -10 v20 m178 0 v-20 m-178 20 v24 m178 0 v-24 m-178 24 q0 10 10 10 m158 0 q10 0 10 -10 m-168 10 h10 m84 0 h10 m0 0 h54 m-168 -10 v20 m178 0 v-20 m-178 20 v24 m178 0 v-24 m-178 24 q0 10 10 10 m158 0 q10 0 10 -10 m-168 10 h10 m104 0 h10 m0 0 h34 m-168 -10 v20 m178 0 v-20 m-178 20 v24 m178 0 v-24 m-178 24 q0 10 10 10 m158 0 q10 0 10 -10 m-168 10 h10 m112 0 h10 m0 0 h26 m-168 -10 v20 m178 0 v-20 m-178 20 v24 m178 0 v-24 m-178 24 q0 10 10 10 m158 0 q10 0 10 -10 m-168 10 h10 m96 0 h10 m0 0 h42 m-168 -10 v20 m178 0 v-20 m-178 20 v24 m178 0 v-24 m-178 24 q0 10 10 10 m158 0 q10 0 10 -10 m-168 10 h10 m122 0 h10 m0 0 h16 m-168 -10 v20 m178 0 v-20 m-178 20 v24 m178 0 v-24 m-178 24 q0 10 10 10 m158 0 q10 0 10 -10 m-168 10 h10 m88 0 h10 m0 0 h50 m-168 -10 v20 m178 0 v-20 m-178 20 v24 m178 0 v-24 m-178 24 q0 10 10 10 m158 0 q10 0 10 -10 m-168 10 h10 m138 0 h10 m-168 -10 v20 m178 0 v-20 m-178 20 v24 m178 0 v-24 m-178 24 q0 10 10 10 m158 0 q10 0 10 -10 m-168 10 h10 m92 0 h10 m0 0 h46 m-168 -10 v20 m178 0 v-20 m-178 20 v24 m178 0 v-24 m-178 24 q0 10 10 10 m158 0 q10 0 10 -10 m-168 10 h10 m110 0 h10 m0 0 h28 m23 -484 h-3"/>
   <polygon points="227 17 235 13 235 21"/>
   <polygon points="227 17 219 13 219 21"/>
</svg>
