<?xml version="1.0" encoding="UTF-8"?>
<svg style="background: var(--diagram-bg, #FFFCF0)" xmlns="http://www.w3.org/2000/svg" width="397" height="71"><style>
  :root { --diagram-bg: #FFFCF0; }
</style>
   <defs>
      <style type="text/css">
    @namespace "http://www.w3.org/2000/svg";
    .line                 {fill: none; stroke: #332900; stroke-width: 1;}
    .bold-line            {stroke: #141000; shape-rendering: crispEdges; stroke-width: 2;}
    .thin-line            {stroke: #1F1800; shape-rendering: crispEdges}
    .filled               {fill: #332900; stroke: none;}
    text.terminal         {font-family: Verdana, Sans-serif;
                            font-size: 12px;
                            fill: #141000;
                            font-weight: bold;
                          }
    text.nonterminal      {font-family: Verdana, Sans-serif;
                            font-size: 12px;
                            fill: #1A1400;
                            font-weight: normal;
                          }
    text.regexp           {font-family: Verdana, Sans-serif;
                            font-size: 12px;
                            fill: #1F1800;
                            font-weight: normal;
                          }
    rect, circle, polygon {fill: #332900; stroke: #332900;}
    rect.terminal         {fill: #FFDB4D; stroke: #332900; stroke-width: 1;}
    rect.nonterminal      {fill: #FFEC9E; stroke: #332900; stroke-width: 1;}
    rect.text             {fill: none; stroke: none;}
    polygon.regexp        {fill: #FFF4C7; stroke: #332900; stroke-width: 1;}
  </style>
   </defs>
   <polygon points="9 51 1 47 1 55"/>
   <polygon points="17 51 9 47 9 55"/>
   <a xmlns:xlink="http://www.w3.org/1999/xlink"
      xlink:href="#start_snets"
      xlink:title="start_snets">
      <rect x="31" y="37" width="92" height="32"/>
      <rect x="29" y="35" width="92" height="32" class="nonterminal"/>
      <text class="nonterminal" x="39" y="55">start_snets</text>
   </a>
   <a xmlns:xlink="http://www.w3.org/1999/xlink"
      xlink:href="#snet_rule"
      xlink:title="snet_rule">
      <rect x="163" y="3" width="80" height="32"/>
      <rect x="161" y="1" width="80" height="32" class="nonterminal"/>
      <text class="nonterminal" x="171" y="21">snet_rule</text>
   </a>
   <a xmlns:xlink="http://www.w3.org/1999/xlink"
      xlink:href="#end_snets"
      xlink:title="end_snets">
      <rect x="283" y="37" width="86" height="32"/>
      <rect x="281" y="35" width="86" height="32" class="nonterminal"/>
      <text class="nonterminal" x="291" y="55">end_snets</text>
   </a>
   <path class="line"
         d="m17 51 h2 m0 0 h10 m92 0 h10 m20 0 h10 m0 0 h90 m-120 0 l20 0 m-1 0 q-9 0 -9 -10 l0 -14 q0 -10 10 -10 m100 34 l20 0 m-20 0 q10 0 10 -10 l0 -14 q0 -10 -10 -10 m-100 0 h10 m80 0 h10 m20 34 h10 m86 0 h10 m3 0 h-3"/>
   <polygon points="387 51 395 47 395 55"/>
   <polygon points="387 51 379 47 379 55"/>
</svg>
