<?xml version="1.0" encoding="UTF-8"?>
<svg style="background: var(--diagram-bg, #FFFCF0)" xmlns="http://www.w3.org/2000/svg" width="623" height="71"><style>
  :root { --diagram-bg: #FFFCF0; }
</style>
   <defs>
      <style type="text/css">
    @namespace "http://www.w3.org/2000/svg";
    .line                 {fill: none; stroke: #332900; stroke-width: 1;}
    .bold-line            {stroke: #141000; shape-rendering: crispEdges; stroke-width: 2;}
    .thin-line            {stroke: #1F1800; shape-rendering: crispEdges}
    .filled               {fill: #332900; stroke: none;}
    text.terminal         {font-family: Verdana, Sans-serif;
                            font-size: 12px;
                            fill: #141000;
                            font-weight: bold;
                          }
    text.nonterminal      {font-family: Verdana, Sans-serif;
                            font-size: 12px;
                            fill: #1A1400;
                            font-weight: normal;
                          }
    text.regexp           {font-family: Verdana, Sans-serif;
                            font-size: 12px;
                            fill: #1F1800;
                            font-weight: normal;
                          }
    rect, circle, polygon {fill: #332900; stroke: #332900;}
    rect.terminal         {fill: #FFDB4D; stroke: #332900; stroke-width: 1;}
    rect.nonterminal      {fill: #FFEC9E; stroke: #332900; stroke-width: 1;}
    rect.text             {fill: none; stroke: none;}
    polygon.regexp        {fill: #FFF4C7; stroke: #332900; stroke-width: 1;}
  </style>
   </defs>
   <polygon points="9 51 1 47 1 55"/>
   <polygon points="17 51 9 47 9 55"/>
   <a xmlns:xlink="http://www.w3.org/1999/xlink"
      xlink:href="#T_STRING"
      xlink:title="T_STRING">
      <rect x="31" y="37" width="82" height="32"/>
      <rect x="29" y="35" width="82" height="32" class="nonterminal"/>
      <text class="nonterminal" x="39" y="55">T_STRING</text>
   </a>
   <a xmlns:xlink="http://www.w3.org/1999/xlink"
      xlink:href="#width"
      xlink:title="width">
      <rect x="133" y="37" width="54" height="32"/>
      <rect x="131" y="35" width="54" height="32" class="nonterminal"/>
      <text class="nonterminal" x="141" y="55">width</text>
   </a>
   <a xmlns:xlink="http://www.w3.org/1999/xlink"
      xlink:href="#opt_shape_style"
      xlink:title="opt_shape_style">
      <rect x="227" y="3" width="126" height="32"/>
      <rect x="225" y="1" width="126" height="32" class="nonterminal"/>
      <text class="nonterminal" x="235" y="21">opt_shape_style</text>
   </a>
   <a xmlns:xlink="http://www.w3.org/1999/xlink"
      xlink:href="#path_pt"
      xlink:title="path_pt">
      <rect x="393" y="37" width="70" height="32"/>
      <rect x="391" y="35" width="70" height="32" class="nonterminal"/>
      <text class="nonterminal" x="401" y="55">path_pt</text>
   </a>
   <a xmlns:xlink="http://www.w3.org/1999/xlink"
      xlink:href="#path_item_list"
      xlink:title="path_item_list">
      <rect x="483" y="37" width="112" height="32"/>
      <rect x="481" y="35" width="112" height="32" class="nonterminal"/>
      <text class="nonterminal" x="491" y="55">path_item_list</text>
   </a>
   <path class="line"
         d="m17 51 h2 m0 0 h10 m82 0 h10 m0 0 h10 m54 0 h10 m20 0 h10 m0 0 h136 m-166 0 l20 0 m-1 0 q-9 0 -9 -10 l0 -14 q0 -10 10 -10 m146 34 l20 0 m-20 0 q10 0 10 -10 l0 -14 q0 -10 -10 -10 m-146 0 h10 m126 0 h10 m20 34 h10 m70 0 h10 m0 0 h10 m112 0 h10 m3 0 h-3"/>
   <polygon points="613 51 621 47 621 55"/>
   <polygon points="613 51 605 47 605 55"/>
</svg>
