<?xml version="1.0" encoding="UTF-8"?>
<svg style="background: var(--diagram-bg, #FFFCF0)" xmlns="http://www.w3.org/2000/svg" width="567" height="37"><style>
  :root { --diagram-bg: #FFFCF0; }
</style>
   <defs>
      <style type="text/css">
    @namespace "http://www.w3.org/2000/svg";
    .line                 {fill: none; stroke: #332900; stroke-width: 1;}
    .bold-line            {stroke: #141000; shape-rendering: crispEdges; stroke-width: 2;}
    .thin-line            {stroke: #1F1800; shape-rendering: crispEdges}
    .filled               {fill: #332900; stroke: none;}
    text.terminal         {font-family: Verdana, Sans-serif;
                            font-size: 12px;
                            fill: #141000;
                            font-weight: bold;
                          }
    text.nonterminal      {font-family: Verdana, Sans-serif;
                            font-size: 12px;
                            fill: #1A1400;
                            font-weight: normal;
                          }
    text.regexp           {font-family: Verdana, Sans-serif;
                            font-size: 12px;
                            fill: #1F1800;
                            font-weight: normal;
                          }
    rect, circle, polygon {fill: #332900; stroke: #332900;}
    rect.terminal         {fill: #FFDB4D; stroke: #332900; stroke-width: 1;}
    rect.nonterminal      {fill: #FFEC9E; stroke: #332900; stroke-width: 1;}
    rect.text             {fill: none; stroke: none;}
    polygon.regexp        {fill: #FFF4C7; stroke: #332900; stroke-width: 1;}
  </style>
   </defs>
   <polygon points="9 17 1 13 1 21"/>
   <polygon points="17 17 9 13 9 21"/>
   <rect x="31" y="3" width="26" height="32" rx="10"/>
   <rect x="29"
         y="1"
         width="26"
         height="32"
         class="terminal"
         rx="10"/>
   <text class="terminal" x="39" y="21">-</text>
   <a xmlns:xlink="http://www.w3.org/1999/xlink"
      xlink:href="#K_STYLE"
      xlink:title="K_STYLE">
      <rect x="77" y="3" width="74" height="32"/>
      <rect x="75" y="1" width="74" height="32" class="nonterminal"/>
      <text class="nonterminal" x="85" y="21">K_STYLE</text>
   </a>
   <a xmlns:xlink="http://www.w3.org/1999/xlink"
      xlink:href="#NUMBER"
      xlink:title="NUMBER">
      <rect x="171" y="3" width="72" height="32"/>
      <rect x="169" y="1" width="72" height="32" class="nonterminal"/>
      <text class="nonterminal" x="179" y="21">NUMBER</text>
   </a>
   <a xmlns:xlink="http://www.w3.org/1999/xlink"
      xlink:href="#firstPt"
      xlink:title="firstPt">
      <rect x="263" y="3" width="58" height="32"/>
      <rect x="261" y="1" width="58" height="32" class="nonterminal"/>
      <text class="nonterminal" x="271" y="21">firstPt</text>
   </a>
   <a xmlns:xlink="http://www.w3.org/1999/xlink"
      xlink:href="#nextPt"
      xlink:title="nextPt">
      <rect x="341" y="3" width="60" height="32"/>
      <rect x="339" y="1" width="60" height="32" class="nonterminal"/>
      <text class="nonterminal" x="349" y="21">nextPt</text>
   </a>
   <a xmlns:xlink="http://www.w3.org/1999/xlink"
      xlink:href="#otherPts"
      xlink:title="otherPts">
      <rect x="421" y="3" width="74" height="32"/>
      <rect x="419" y="1" width="74" height="32" class="nonterminal"/>
      <text class="nonterminal" x="429" y="21">otherPts</text>
   </a>
   <rect x="515" y="3" width="24" height="32" rx="10"/>
   <rect x="513"
         y="1"
         width="24"
         height="32"
         class="terminal"
         rx="10"/>
   <text class="terminal" x="523" y="21">;</text>
   <path class="line"
         d="m17 17 h2 m0 0 h10 m26 0 h10 m0 0 h10 m74 0 h10 m0 0 h10 m72 0 h10 m0 0 h10 m58 0 h10 m0 0 h10 m60 0 h10 m0 0 h10 m74 0 h10 m0 0 h10 m24 0 h10 m3 0 h-3"/>
   <polygon points="557 17 565 13 565 21"/>
   <polygon points="557 17 549 13 549 21"/>
</svg>
