<?xml version="1.0" encoding="UTF-8"?>
<svg style="background: var(--diagram-bg, #FFFCF0)" xmlns="http://www.w3.org/2000/svg" width="351" height="81"><style>
  :root { --diagram-bg: #FFFCF0; }
</style>
   <defs>
      <style type="text/css">
    @namespace "http://www.w3.org/2000/svg";
    .line                 {fill: none; stroke: #332900; stroke-width: 1;}
    .bold-line            {stroke: #141000; shape-rendering: crispEdges; stroke-width: 2;}
    .thin-line            {stroke: #1F1800; shape-rendering: crispEdges}
    .filled               {fill: #332900; stroke: none;}
    text.terminal         {font-family: Verdana, Sans-serif;
                            font-size: 12px;
                            fill: #141000;
                            font-weight: bold;
                          }
    text.nonterminal      {font-family: Verdana, Sans-serif;
                            font-size: 12px;
                            fill: #1A1400;
                            font-weight: normal;
                          }
    text.regexp           {font-family: Verdana, Sans-serif;
                            font-size: 12px;
                            fill: #1F1800;
                            font-weight: normal;
                          }
    rect, circle, polygon {fill: #332900; stroke: #332900;}
    rect.terminal         {fill: #FFDB4D; stroke: #332900; stroke-width: 1;}
    rect.nonterminal      {fill: #FFEC9E; stroke: #332900; stroke-width: 1;}
    rect.text             {fill: none; stroke: none;}
    polygon.regexp        {fill: #FFF4C7; stroke: #332900; stroke-width: 1;}
  </style>
   </defs>
   <polygon points="9 17 1 13 1 21"/>
   <polygon points="17 17 9 13 9 21"/>
   <a xmlns:xlink="http://www.w3.org/1999/xlink"
      xlink:href="#subnet_type"
      xlink:title="subnet_type">
      <rect x="51" y="3" width="100" height="32"/>
      <rect x="49" y="1" width="100" height="32" class="nonterminal"/>
      <text class="nonterminal" x="59" y="21">subnet_type</text>
   </a>
   <a xmlns:xlink="http://www.w3.org/1999/xlink"
      xlink:href="#paths"
      xlink:title="paths">
      <rect x="171" y="3" width="56" height="32"/>
      <rect x="169" y="1" width="56" height="32" class="nonterminal"/>
      <text class="nonterminal" x="179" y="21">paths</text>
   </a>
   <a xmlns:xlink="http://www.w3.org/1999/xlink"
      xlink:href="#K_NONDEFAULTRULE"
      xlink:title="K_NONDEFAULTRULE">
      <rect x="51" y="47" width="150" height="32"/>
      <rect x="49" y="45" width="150" height="32" class="nonterminal"/>
      <text class="nonterminal" x="59" y="65">K_NONDEFAULTRULE</text>
   </a>
   <a xmlns:xlink="http://www.w3.org/1999/xlink"
      xlink:href="#T_STRING"
      xlink:title="T_STRING">
      <rect x="221" y="47" width="82" height="32"/>
      <rect x="219" y="45" width="82" height="32" class="nonterminal"/>
      <text class="nonterminal" x="229" y="65">T_STRING</text>
   </a>
   <path class="line"
         d="m17 17 h2 m20 0 h10 m100 0 h10 m0 0 h10 m56 0 h10 m0 0 h76 m-292 0 h20 m272 0 h20 m-312 0 q10 0 10 10 m292 0 q0 -10 10 -10 m-302 10 v24 m292 0 v-24 m-292 24 q0 10 10 10 m272 0 q10 0 10 -10 m-282 10 h10 m150 0 h10 m0 0 h10 m82 0 h10 m23 -44 h-3"/>
   <polygon points="341 17 349 13 349 21"/>
   <polygon points="341 17 333 13 333 21"/>
</svg>
