<?xml version="1.0" encoding="UTF-8"?>
<svg style="background: var(--diagram-bg, #FFFCF0)" xmlns="http://www.w3.org/2000/svg" width="823" height="169"><style>
  :root { --diagram-bg: #FFFCF0; }
</style>
   <defs>
      <style type="text/css">
    @namespace "http://www.w3.org/2000/svg";
    .line                 {fill: none; stroke: #332900; stroke-width: 1;}
    .bold-line            {stroke: #141000; shape-rendering: crispEdges; stroke-width: 2;}
    .thin-line            {stroke: #1F1800; shape-rendering: crispEdges}
    .filled               {fill: #332900; stroke: none;}
    text.terminal         {font-family: Verdana, Sans-serif;
                            font-size: 12px;
                            fill: #141000;
                            font-weight: bold;
                          }
    text.nonterminal      {font-family: Verdana, Sans-serif;
                            font-size: 12px;
                            fill: #1A1400;
                            font-weight: normal;
                          }
    text.regexp           {font-family: Verdana, Sans-serif;
                            font-size: 12px;
                            fill: #1F1800;
                            font-weight: normal;
                          }
    rect, circle, polygon {fill: #332900; stroke: #332900;}
    rect.terminal         {fill: #FFDB4D; stroke: #332900; stroke-width: 1;}
    rect.nonterminal      {fill: #FFEC9E; stroke: #332900; stroke-width: 1;}
    rect.text             {fill: none; stroke: none;}
    polygon.regexp        {fill: #FFF4C7; stroke: #332900; stroke-width: 1;}
  </style>
   </defs>
   <polygon points="9 17 1 13 1 21"/>
   <polygon points="17 17 9 13 9 21"/>
   <rect x="31" y="3" width="26" height="32" rx="10"/>
   <rect x="29"
         y="1"
         width="26"
         height="32"
         class="terminal"
         rx="10"/>
   <text class="terminal" x="39" y="21">-</text>
   <a xmlns:xlink="http://www.w3.org/1999/xlink"
      xlink:href="#K_FROMPIN"
      xlink:title="K_FROMPIN">
      <rect x="117" y="3" width="92" height="32"/>
      <rect x="115" y="1" width="92" height="32" class="nonterminal"/>
      <text class="nonterminal" x="125" y="21">K_FROMPIN</text>
   </a>
   <a xmlns:xlink="http://www.w3.org/1999/xlink"
      xlink:href="#T_STRING"
      xlink:title="T_STRING">
      <rect x="229" y="3" width="82" height="32"/>
      <rect x="227" y="1" width="82" height="32" class="nonterminal"/>
      <text class="nonterminal" x="237" y="21">T_STRING</text>
   </a>
   <a xmlns:xlink="http://www.w3.org/1999/xlink"
      xlink:href="#T_STRING"
      xlink:title="T_STRING">
      <rect x="331" y="3" width="82" height="32"/>
      <rect x="329" y="1" width="82" height="32" class="nonterminal"/>
      <text class="nonterminal" x="339" y="21">T_STRING</text>
   </a>
   <a xmlns:xlink="http://www.w3.org/1999/xlink"
      xlink:href="#K_TOPIN"
      xlink:title="K_TOPIN">
      <rect x="433" y="3" width="74" height="32"/>
      <rect x="431" y="1" width="74" height="32" class="nonterminal"/>
      <text class="nonterminal" x="441" y="21">K_TOPIN</text>
   </a>
   <a xmlns:xlink="http://www.w3.org/1999/xlink"
      xlink:href="#K_THRUPIN"
      xlink:title="K_THRUPIN">
      <rect x="117" y="47" width="92" height="32"/>
      <rect x="115" y="45" width="92" height="32" class="nonterminal"/>
      <text class="nonterminal" x="125" y="65">K_THRUPIN</text>
   </a>
   <a xmlns:xlink="http://www.w3.org/1999/xlink"
      xlink:href="#T_STRING"
      xlink:title="T_STRING">
      <rect x="547" y="3" width="82" height="32"/>
      <rect x="545" y="1" width="82" height="32" class="nonterminal"/>
      <text class="nonterminal" x="555" y="21">T_STRING</text>
   </a>
   <a xmlns:xlink="http://www.w3.org/1999/xlink"
      xlink:href="#T_STRING"
      xlink:title="T_STRING">
      <rect x="649" y="3" width="82" height="32"/>
      <rect x="647" y="1" width="82" height="32" class="nonterminal"/>
      <text class="nonterminal" x="657" y="21">T_STRING</text>
   </a>
   <a xmlns:xlink="http://www.w3.org/1999/xlink"
      xlink:href="#K_MACRO"
      xlink:title="K_MACRO">
      <rect x="97" y="91" width="80" height="32"/>
      <rect x="95" y="89" width="80" height="32" class="nonterminal"/>
      <text class="nonterminal" x="105" y="109">K_MACRO</text>
   </a>
   <a xmlns:xlink="http://www.w3.org/1999/xlink"
      xlink:href="#T_STRING"
      xlink:title="T_STRING">
      <rect x="197" y="91" width="82" height="32"/>
      <rect x="195" y="89" width="82" height="32" class="nonterminal"/>
      <text class="nonterminal" x="205" y="109">T_STRING</text>
   </a>
   <a xmlns:xlink="http://www.w3.org/1999/xlink"
      xlink:href="#td_macro_option"
      xlink:title="td_macro_option">
      <rect x="299" y="91" width="128" height="32"/>
      <rect x="297" y="89" width="128" height="32" class="nonterminal"/>
      <text class="nonterminal" x="307" y="109">td_macro_option</text>
   </a>
   <a xmlns:xlink="http://www.w3.org/1999/xlink"
      xlink:href="#K_REENTRANTPATHS"
      xlink:title="K_REENTRANTPATHS">
      <rect x="97" y="135" width="148" height="32"/>
      <rect x="95" y="133" width="148" height="32" class="nonterminal"/>
      <text class="nonterminal" x="105" y="153">K_REENTRANTPATHS</text>
   </a>
   <rect x="771" y="3" width="24" height="32" rx="10"/>
   <rect x="769"
         y="1"
         width="24"
         height="32"
         class="terminal"
         rx="10"/>
   <text class="terminal" x="779" y="21">;</text>
   <path class="line"
         d="m17 17 h2 m0 0 h10 m26 0 h10 m40 0 h10 m92 0 h10 m0 0 h10 m82 0 h10 m0 0 h10 m82 0 h10 m0 0 h10 m74 0 h10 m-430 0 h20 m410 0 h20 m-450 0 q10 0 10 10 m430 0 q0 -10 10 -10 m-440 10 v24 m430 0 v-24 m-430 24 q0 10 10 10 m410 0 q10 0 10 -10 m-420 10 h10 m92 0 h10 m0 0 h298 m20 -44 h10 m82 0 h10 m0 0 h10 m82 0 h10 m-674 0 h20 m654 0 h20 m-694 0 q10 0 10 10 m674 0 q0 -10 10 -10 m-684 10 v68 m674 0 v-68 m-674 68 q0 10 10 10 m654 0 q10 0 10 -10 m-664 10 h10 m80 0 h10 m0 0 h10 m82 0 h10 m0 0 h10 m128 0 h10 m0 0 h304 m-664 -10 v20 m674 0 v-20 m-674 20 v24 m674 0 v-24 m-674 24 q0 10 10 10 m654 0 q10 0 10 -10 m-664 10 h10 m148 0 h10 m0 0 h486 m20 -132 h10 m24 0 h10 m3 0 h-3"/>
   <polygon points="813 17 821 13 821 21"/>
   <polygon points="813 17 805 13 805 21"/>
</svg>
