<?xml version="1.0" encoding="UTF-8"?>
<svg style="background: var(--diagram-bg, #FFFCF0)" xmlns="http://www.w3.org/2000/svg" width="577" height="71"><style>
  :root { --diagram-bg: #FFFCF0; }
</style>
   <defs>
      <style type="text/css">
    @namespace "http://www.w3.org/2000/svg";
    .line                 {fill: none; stroke: #332900; stroke-width: 1;}
    .bold-line            {stroke: #141000; shape-rendering: crispEdges; stroke-width: 2;}
    .thin-line            {stroke: #1F1800; shape-rendering: crispEdges}
    .filled               {fill: #332900; stroke: none;}
    text.terminal         {font-family: Verdana, Sans-serif;
                            font-size: 12px;
                            fill: #141000;
                            font-weight: bold;
                          }
    text.nonterminal      {font-family: Verdana, Sans-serif;
                            font-size: 12px;
                            fill: #1A1400;
                            font-weight: normal;
                          }
    text.regexp           {font-family: Verdana, Sans-serif;
                            font-size: 12px;
                            fill: #1F1800;
                            font-weight: normal;
                          }
    rect, circle, polygon {fill: #332900; stroke: #332900;}
    rect.terminal         {fill: #FFDB4D; stroke: #332900; stroke-width: 1;}
    rect.nonterminal      {fill: #FFEC9E; stroke: #332900; stroke-width: 1;}
    rect.text             {fill: none; stroke: none;}
    polygon.regexp        {fill: #FFF4C7; stroke: #332900; stroke-width: 1;}
  </style>
   </defs>
   <polygon points="9 51 1 47 1 55"/>
   <polygon points="17 51 9 47 9 55"/>
   <a xmlns:xlink="http://www.w3.org/1999/xlink"
      xlink:href="#timingdisables_start"
      xlink:title="timingdisables_start">
      <rect x="31" y="37" width="150" height="32"/>
      <rect x="29" y="35" width="150" height="32" class="nonterminal"/>
      <text class="nonterminal" x="39" y="55">timingdisables_start</text>
   </a>
   <a xmlns:xlink="http://www.w3.org/1999/xlink"
      xlink:href="#timingdisables_rule"
      xlink:title="timingdisables_rule">
      <rect x="221" y="3" width="144" height="32"/>
      <rect x="219" y="1" width="144" height="32" class="nonterminal"/>
      <text class="nonterminal" x="229" y="21">timingdisables_rule</text>
   </a>
   <a xmlns:xlink="http://www.w3.org/1999/xlink"
      xlink:href="#timingdisables_end"
      xlink:title="timingdisables_end">
      <rect x="405" y="37" width="144" height="32"/>
      <rect x="403" y="35" width="144" height="32" class="nonterminal"/>
      <text class="nonterminal" x="413" y="55">timingdisables_end</text>
   </a>
   <path class="line"
         d="m17 51 h2 m0 0 h10 m150 0 h10 m20 0 h10 m0 0 h154 m-184 0 l20 0 m-1 0 q-9 0 -9 -10 l0 -14 q0 -10 10 -10 m164 34 l20 0 m-20 0 q10 0 10 -10 l0 -14 q0 -10 -10 -10 m-164 0 h10 m144 0 h10 m20 34 h10 m144 0 h10 m3 0 h-3"/>
   <polygon points="567 51 575 47 575 55"/>
   <polygon points="567 51 559 47 559 55"/>
</svg>
