<?xml version="1.0" encoding="UTF-8"?>
<svg style="background: var(--diagram-bg, #FFFCF0)" xmlns="http://www.w3.org/2000/svg" width="323" height="69"><style>
  :root { --diagram-bg: #FFFCF0; }
</style>
   <defs>
      <style type="text/css">
    @namespace "http://www.w3.org/2000/svg";
    .line                 {fill: none; stroke: #332900; stroke-width: 1;}
    .bold-line            {stroke: #141000; shape-rendering: crispEdges; stroke-width: 2;}
    .thin-line            {stroke: #1F1800; shape-rendering: crispEdges}
    .filled               {fill: #332900; stroke: none;}
    text.terminal         {font-family: Verdana, Sans-serif;
                            font-size: 12px;
                            fill: #141000;
                            font-weight: bold;
                          }
    text.nonterminal      {font-family: Verdana, Sans-serif;
                            font-size: 12px;
                            fill: #1A1400;
                            font-weight: normal;
                          }
    text.regexp           {font-family: Verdana, Sans-serif;
                            font-size: 12px;
                            fill: #1F1800;
                            font-weight: normal;
                          }
    rect, circle, polygon {fill: #332900; stroke: #332900;}
    rect.terminal         {fill: #FFDB4D; stroke: #332900; stroke-width: 1;}
    rect.nonterminal      {fill: #FFEC9E; stroke: #332900; stroke-width: 1;}
    rect.text             {fill: none; stroke: none;}
    polygon.regexp        {fill: #FFF4C7; stroke: #332900; stroke-width: 1;}
  </style>
   </defs>
   <polygon points="9 33 1 29 1 37"/>
   <polygon points="17 33 9 29 9 37"/>
   <a xmlns:xlink="http://www.w3.org/1999/xlink"
      xlink:href="#K_LAYER"
      xlink:title="K_LAYER">
      <rect x="51" y="19" width="74" height="32"/>
      <rect x="49" y="17" width="74" height="32" class="nonterminal"/>
      <text class="nonterminal" x="59" y="37">K_LAYER</text>
   </a>
   <a xmlns:xlink="http://www.w3.org/1999/xlink"
      xlink:href="#track_layer"
      xlink:title="track_layer">
      <rect x="165" y="19" width="90" height="32"/>
      <rect x="163" y="17" width="90" height="32" class="nonterminal"/>
      <text class="nonterminal" x="173" y="37">track_layer</text>
   </a>
   <path class="line"
         d="m17 33 h2 m20 0 h10 m74 0 h10 m20 0 h10 m90 0 h10 m-130 0 l20 0 m-1 0 q-9 0 -9 -10 l0 -12 q0 -10 10 -10 m110 32 l20 0 m-20 0 q10 0 10 -10 l0 -12 q0 -10 -10 -10 m-110 0 h10 m0 0 h100 m-244 32 h20 m244 0 h20 m-284 0 q10 0 10 10 m264 0 q0 -10 10 -10 m-274 10 v14 m264 0 v-14 m-264 14 q0 10 10 10 m244 0 q10 0 10 -10 m-254 10 h10 m0 0 h234 m23 -34 h-3"/>
   <polygon points="313 33 321 29 321 37"/>
   <polygon points="313 33 305 29 305 37"/>
</svg>
