<?xml version="1.0" encoding="UTF-8"?>
<svg style="background: var(--diagram-bg, #FFFCF0)" xmlns="http://www.w3.org/2000/svg" width="321" height="57"><style>
  :root { --diagram-bg: #FFFCF0; }
</style>
   <defs>
      <style type="text/css">
    @namespace "http://www.w3.org/2000/svg";
    .line                 {fill: none; stroke: #332900; stroke-width: 1;}
    .bold-line            {stroke: #141000; shape-rendering: crispEdges; stroke-width: 2;}
    .thin-line            {stroke: #1F1800; shape-rendering: crispEdges}
    .filled               {fill: #332900; stroke: none;}
    text.terminal         {font-family: Verdana, Sans-serif;
                            font-size: 12px;
                            fill: #141000;
                            font-weight: bold;
                          }
    text.nonterminal      {font-family: Verdana, Sans-serif;
                            font-size: 12px;
                            fill: #1A1400;
                            font-weight: normal;
                          }
    text.regexp           {font-family: Verdana, Sans-serif;
                            font-size: 12px;
                            fill: #1F1800;
                            font-weight: normal;
                          }
    rect, circle, polygon {fill: #332900; stroke: #332900;}
    rect.terminal         {fill: #FFDB4D; stroke: #332900; stroke-width: 1;}
    rect.nonterminal      {fill: #FFEC9E; stroke: #332900; stroke-width: 1;}
    rect.text             {fill: none; stroke: none;}
    polygon.regexp        {fill: #FFF4C7; stroke: #332900; stroke-width: 1;}
  </style>
   </defs>
   <polygon points="9 5 1 1 1 9"/>
   <polygon points="17 5 9 1 9 9"/>
   <a xmlns:xlink="http://www.w3.org/1999/xlink"
      xlink:href="#vpin_status"
      xlink:title="vpin_status">
      <rect x="51" y="23" width="94" height="32"/>
      <rect x="49" y="21" width="94" height="32" class="nonterminal"/>
      <text class="nonterminal" x="59" y="41">vpin_status</text>
   </a>
   <a xmlns:xlink="http://www.w3.org/1999/xlink"
      xlink:href="#pt"
      xlink:title="pt">
      <rect x="165" y="23" width="32" height="32"/>
      <rect x="163" y="21" width="32" height="32" class="nonterminal"/>
      <text class="nonterminal" x="173" y="41">pt</text>
   </a>
   <a xmlns:xlink="http://www.w3.org/1999/xlink"
      xlink:href="#orient"
      xlink:title="orient">
      <rect x="217" y="23" width="56" height="32"/>
      <rect x="215" y="21" width="56" height="32" class="nonterminal"/>
      <text class="nonterminal" x="225" y="41">orient</text>
   </a>
   <path class="line"
         d="m17 5 h2 m20 0 h10 m0 0 h232 m-262 0 h20 m242 0 h20 m-282 0 q10 0 10 10 m262 0 q0 -10 10 -10 m-272 10 v12 m262 0 v-12 m-262 12 q0 10 10 10 m242 0 q10 0 10 -10 m-252 10 h10 m94 0 h10 m0 0 h10 m32 0 h10 m0 0 h10 m56 0 h10 m23 -32 h-3"/>
   <polygon points="311 5 319 1 319 9"/>
   <polygon points="311 5 303 1 303 9"/>
</svg>
