<?xml version="1.0" encoding="UTF-8"?>
<svg style="background: var(--diagram-bg, #FFFCF0)" xmlns="http://www.w3.org/2000/svg" width="509" height="37"><style>
  :root { --diagram-bg: #FFFCF0; }
</style>
   <defs>
      <style type="text/css">
    @namespace "http://www.w3.org/2000/svg";
    .line                 {fill: none; stroke: #332900; stroke-width: 1;}
    .bold-line            {stroke: #141000; shape-rendering: crispEdges; stroke-width: 2;}
    .thin-line            {stroke: #1F1800; shape-rendering: crispEdges}
    .filled               {fill: #332900; stroke: none;}
    text.terminal         {font-family: Verdana, Sans-serif;
                            font-size: 12px;
                            fill: #141000;
                            font-weight: bold;
                          }
    text.nonterminal      {font-family: Verdana, Sans-serif;
                            font-size: 12px;
                            fill: #1A1400;
                            font-weight: normal;
                          }
    text.regexp           {font-family: Verdana, Sans-serif;
                            font-size: 12px;
                            fill: #1F1800;
                            font-weight: normal;
                          }
    rect, circle, polygon {fill: #332900; stroke: #332900;}
    rect.terminal         {fill: #FFDB4D; stroke: #332900; stroke-width: 1;}
    rect.nonterminal      {fill: #FFEC9E; stroke: #332900; stroke-width: 1;}
    rect.text             {fill: none; stroke: none;}
    polygon.regexp        {fill: #FFF4C7; stroke: #332900; stroke-width: 1;}
  </style>
   </defs>
   <polygon points="9 17 1 13 1 21"/>
   <polygon points="17 17 9 13 9 21"/>
   <a xmlns:xlink="http://www.w3.org/1999/xlink"
      xlink:href="#vpin_begin"
      xlink:title="vpin_begin">
      <rect x="31" y="3" width="90" height="32"/>
      <rect x="29" y="1" width="90" height="32" class="nonterminal"/>
      <text class="nonterminal" x="39" y="21">vpin_begin</text>
   </a>
   <a xmlns:xlink="http://www.w3.org/1999/xlink"
      xlink:href="#vpin_layer_opt"
      xlink:title="vpin_layer_opt">
      <rect x="141" y="3" width="114" height="32"/>
      <rect x="139" y="1" width="114" height="32" class="nonterminal"/>
      <text class="nonterminal" x="149" y="21">vpin_layer_opt</text>
   </a>
   <a xmlns:xlink="http://www.w3.org/1999/xlink"
      xlink:href="#pt"
      xlink:title="pt">
      <rect x="275" y="3" width="32" height="32"/>
      <rect x="273" y="1" width="32" height="32" class="nonterminal"/>
      <text class="nonterminal" x="283" y="21">pt</text>
   </a>
   <a xmlns:xlink="http://www.w3.org/1999/xlink"
      xlink:href="#pt"
      xlink:title="pt">
      <rect x="327" y="3" width="32" height="32"/>
      <rect x="325" y="1" width="32" height="32" class="nonterminal"/>
      <text class="nonterminal" x="335" y="21">pt</text>
   </a>
   <a xmlns:xlink="http://www.w3.org/1999/xlink"
      xlink:href="#vpin_options"
      xlink:title="vpin_options">
      <rect x="379" y="3" width="102" height="32"/>
      <rect x="377" y="1" width="102" height="32" class="nonterminal"/>
      <text class="nonterminal" x="387" y="21">vpin_options</text>
   </a>
   <path class="line"
         d="m17 17 h2 m0 0 h10 m90 0 h10 m0 0 h10 m114 0 h10 m0 0 h10 m32 0 h10 m0 0 h10 m32 0 h10 m0 0 h10 m102 0 h10 m3 0 h-3"/>
   <polygon points="499 17 507 13 507 21"/>
   <polygon points="499 17 491 13 491 21"/>
</svg>
