<?xml version="1.0" encoding="UTF-8"?>
<svg style="background: var(--diagram-bg, #FFFCF0)" xmlns="http://www.w3.org/2000/svg" width="669" height="37"><style>
  :root { --diagram-bg: #FFFCF0; }
</style>
   <defs>
      <style type="text/css">
    @namespace "http://www.w3.org/2000/svg";
    .line                 {fill: none; stroke: #332900; stroke-width: 1;}
    .bold-line            {stroke: #141000; shape-rendering: crispEdges; stroke-width: 2;}
    .thin-line            {stroke: #1F1800; shape-rendering: crispEdges}
    .filled               {fill: #332900; stroke: none;}
    text.terminal         {font-family: Verdana, Sans-serif;
                            font-size: 12px;
                            fill: #141000;
                            font-weight: bold;
                          }
    text.nonterminal      {font-family: Verdana, Sans-serif;
                            font-size: 12px;
                            fill: #1A1400;
                            font-weight: normal;
                          }
    text.regexp           {font-family: Verdana, Sans-serif;
                            font-size: 12px;
                            fill: #1F1800;
                            font-weight: normal;
                          }
    rect, circle, polygon {fill: #332900; stroke: #332900;}
    rect.terminal         {fill: #FFDB4D; stroke: #332900; stroke-width: 1;}
    rect.nonterminal      {fill: #FFEC9E; stroke: #332900; stroke-width: 1;}
    rect.text             {fill: none; stroke: none;}
    polygon.regexp        {fill: #FFF4C7; stroke: #332900; stroke-width: 1;}
  </style>
   </defs>
   <polygon points="9 17 1 13 1 21"/>
   <polygon points="17 17 9 13 9 21"/>
   <rect x="31" y="3" width="26" height="32" rx="10"/>
   <rect x="29"
         y="1"
         width="26"
         height="32"
         class="terminal"
         rx="10"/>
   <text class="terminal" x="39" y="21">-</text>
   <a xmlns:xlink="http://www.w3.org/1999/xlink"
      xlink:href="#K_WIREDLOGIC"
      xlink:title="K_WIREDLOGIC">
      <rect x="77" y="3" width="120" height="32"/>
      <rect x="75" y="1" width="120" height="32" class="nonterminal"/>
      <text class="nonterminal" x="85" y="21">K_WIREDLOGIC</text>
   </a>
   <a xmlns:xlink="http://www.w3.org/1999/xlink"
      xlink:href="#T_STRING"
      xlink:title="T_STRING">
      <rect x="217" y="3" width="82" height="32"/>
      <rect x="215" y="1" width="82" height="32" class="nonterminal"/>
      <text class="nonterminal" x="225" y="21">T_STRING</text>
   </a>
   <a xmlns:xlink="http://www.w3.org/1999/xlink"
      xlink:href="#opt_plus"
      xlink:title="opt_plus">
      <rect x="319" y="3" width="74" height="32"/>
      <rect x="317" y="1" width="74" height="32" class="nonterminal"/>
      <text class="nonterminal" x="327" y="21">opt_plus</text>
   </a>
   <a xmlns:xlink="http://www.w3.org/1999/xlink"
      xlink:href="#K_MAXDIST"
      xlink:title="K_MAXDIST">
      <rect x="413" y="3" width="92" height="32"/>
      <rect x="411" y="1" width="92" height="32" class="nonterminal"/>
      <text class="nonterminal" x="421" y="21">K_MAXDIST</text>
   </a>
   <a xmlns:xlink="http://www.w3.org/1999/xlink"
      xlink:href="#NUMBER"
      xlink:title="NUMBER">
      <rect x="525" y="3" width="72" height="32"/>
      <rect x="523" y="1" width="72" height="32" class="nonterminal"/>
      <text class="nonterminal" x="533" y="21">NUMBER</text>
   </a>
   <rect x="617" y="3" width="24" height="32" rx="10"/>
   <rect x="615"
         y="1"
         width="24"
         height="32"
         class="terminal"
         rx="10"/>
   <text class="terminal" x="625" y="21">;</text>
   <path class="line"
         d="m17 17 h2 m0 0 h10 m26 0 h10 m0 0 h10 m120 0 h10 m0 0 h10 m82 0 h10 m0 0 h10 m74 0 h10 m0 0 h10 m92 0 h10 m0 0 h10 m72 0 h10 m0 0 h10 m24 0 h10 m3 0 h-3"/>
   <polygon points="659 17 667 13 667 21"/>
   <polygon points="659 17 651 13 651 21"/>
</svg>
