<svg  xmlns="http://www.w3.org/2000/svg"
  xmlns:xlink="http://www.w3.org/1999/xlink"
  xmlns:s="https://github.com/nturley/netlistsvg"
  width="800" height="760">
  <!-- OpenROAD custom netlistsvg skin.
       Based on netlistsvg's default.svg, with two changes:
       (1) every logic-gate symbol carries an s:attribute="ref" label so the
           instance name renders on the gate, and
       (2) added a buffer symbol and compound AOI/OAI gate symbols.
       The web schematic viewer rewrites cell types to the canonical names used
       here (see canonicalizeForSkin in schematic-widget.js). -->
  <s:properties>
    <s:layoutEngine
      org.eclipse.elk.layered.spacing.nodeNodeBetweenLayers="35"
      org.eclipse.elk.spacing.nodeNode= "35"
      org.eclipse.elk.layered.layering.strategy= "LONGEST_PATH"
    />
    <s:low_priority_alias val="$dff" />
  </s:properties>
<style>
svg {
  stroke:#000;
  fill:none;
}
text {
  fill:#000;
  stroke:none;
  font-size:10px;
  font-weight: bold;
  font-family: "Courier New", monospace;
}
.nodelabel {
  text-anchor: middle;
}
.inputPortLabel {
  text-anchor: end;
}
.splitjoinBody {
  fill:#000;
}
/* Make the (otherwise hollow) gate bodies clickable over their whole area so
   select mode works when clicking inside a symbol, not just on its outline.
   'all' makes the interior a pointer target regardless of fill. */
path, rect, circle, polygon {
  pointer-events: all;
}
</style>
  <g s:type="mux" transform="translate(50, 50)" s:width="20" s:height="40">
    <s:alias val="$pmux"/>
    <s:alias val="$mux"/>
    <s:alias val="$_MUX_"/>
    <text x="10" y="-4" class="nodelabel $cell_id" s:attribute="ref">mux</text>

    <path d="M0,0 L20,10 L20,30 L0,40 Z" class="$cell_id"/>

    <g s:x="0" s:y="10" s:pid="A"/>
    <g s:x="0" s:y="30" s:pid="B"/>
    <g s:x="10" s:y="35" s:pid="S"/>
    <g s:x="20" s:y="20" s:pid="Y"/>
  </g>

  <!-- and -->
  <g s:type="and" transform="translate(150,50)" s:width="30" s:height="25">
    <s:alias val="$and"/>
    <s:alias val="$logic_and"/>
    <s:alias val="$_AND_"/>
    <text x="15" y="-4" class="nodelabel $cell_id" s:attribute="ref">and</text>

    <path d="M0,0 L0,25 L15,25 A15 12.5 0 0 0 15,0 Z" class="$cell_id"/>

    <g s:x="0" s:y="5" s:pid="A"/>
    <g s:x="0" s:y="20" s:pid="B"/>
    <g s:x="30" s:y="12.5" s:pid="Y"/>
  </g>
  <g s:type="nand" transform="translate(150,100)" s:width="30" s:height="25">
    <s:alias val="$nand"/>
    <s:alias val="$logic_nand"/>
    <s:alias val="$_NAND_"/>
    <s:alias val="$_ANDNOT_"/>
    <text x="15" y="-4" class="nodelabel $cell_id" s:attribute="ref">nand</text>

    <path d="M0,0 L0,25 L15,25 A15 12.5 0 0 0 15,0 Z" class="$cell_id"/>
    <circle cx="34" cy="12.5" r="3" class="$cell_id"/>

    <g s:x="0" s:y="5" s:pid="A"/>
    <g s:x="0" s:y="20" s:pid="B"/>
    <g s:x="36" s:y="12.5" s:pid="Y"/>
  </g>

  <!-- or -->
  <g s:type="or" transform="translate(250,50)" s:width="30" s:height="25">
    <s:alias val="$or"/>
    <s:alias val="$logic_or"/>
    <s:alias val="$_OR_"/>
    <text x="15" y="-4" class="nodelabel $cell_id" s:attribute="ref">or</text>

    <path d="M0,25 L0,25 L15,25 A15 12.5 0 0 0 15,0 L0,0" class="$cell_id"/>
    <path d="M0,0 A30 25 0 0 1 0,25" class="$cell_id"/>

    <g s:x="3" s:y="5" s:pid="A"/>
    <g s:x="3" s:y="20" s:pid="B"/>
    <g s:x="30" s:y="12.5" s:pid="Y"/>
  </g>
  <g s:type="reduce_nor" transform="translate(250, 100)" s:width="33" s:height="25">
    <s:alias val="$nor"/>
    <s:alias val="$reduce_nor"/>
    <s:alias val="$_NOR_"/>
    <s:alias val="$_ORNOT_"/>
    <text x="16.5" y="-4" class="nodelabel $cell_id" s:attribute="ref">nor</text>

    <path d="M0,25 L0,25 L15,25 A15 12.5 0 0 0 15,0 L0,0" class="$cell_id"/>
    <path d="M0,0 A30 25 0 0 1 0,25" class="$cell_id"/>
    <circle cx="34" cy="12.5" r="3" class="$cell_id"/>

    <g s:x="3" s:y="5" s:pid="A"/>
    <g s:x="3" s:y="20" s:pid="B"/>
    <g s:x="36" s:y="12.5" s:pid="Y"/>
  </g>

  <!--xor -->
  <g s:type="reduce_xor" transform="translate(350, 50)" s:width="33" s:height="25">
    <s:alias val="$xor"/>
    <s:alias val="$reduce_xor"/>
    <s:alias val="$_XOR_"/>
    <text x="16.5" y="-4" class="nodelabel $cell_id" s:attribute="ref">xor</text>

    <path d="M3,0 A30 25 0 0 1 3,25 A30 25 0 0 0 33,12.5 A30 25 0 0 0 3,0" class="$cell_id"/>
    <path d="M0,0 A30 25 0 0 1 0,25" class="$cell_id"/>

    <g s:x="3" s:y="5" s:pid="A"/>
    <g s:x="3" s:y="20" s:pid="B"/>
    <g s:x="33" s:y="12.5" s:pid="Y"/>
  </g>
  <g s:type="reduce_nxor" transform="translate(350, 100)" s:width="33" s:height="25">
    <s:alias val="$xnor"/>
    <s:alias val="$reduce_xnor"/>
    <s:alias val="$_XNOR_"/>
    <text x="16.5" y="-4" class="nodelabel $cell_id" s:attribute="ref">xnor</text>

    <path d="M3,0 A30 25 0 0 1 3,25 A30 25 0 0 0 33,12.5 A30 25 0 0 0 3,0" class="$cell_id"/>
    <path d="M0,0 A30 25 0 0 1 0,25" class="$cell_id"/>
    <circle cx="35" cy="12.5" r="3" class="$cell_id"/>

    <g s:x="3" s:y="5" s:pid="A"/>
    <g s:x="3" s:y="20" s:pid="B"/>
    <g s:x="38" s:y="12.5" s:pid="Y"/>
  </g>

  <!-- inverter -->
  <g s:type="not" transform="translate(450,100)" s:width="30" s:height="20">
    <s:alias val="$_NOT_"/>
    <s:alias val="$not"/>
    <s:alias val="$logic_not"/>
    <text x="15" y="-4" class="nodelabel $cell_id" s:attribute="ref">not</text>

    <path d="M0,0 L0,20 L20,10 Z" class="$cell_id"/>
    <circle cx="23" cy="10" r="3" class="$cell_id"/>

    <g s:x="0" s:y="10" s:pid="A"/>
    <g s:x="25" s:y="10" s:pid="Y"/>
  </g>

  <!-- buffer -->
  <g s:type="buf" transform="translate(550,100)" s:width="26" s:height="20">
    <s:alias val="$_BUF_"/>
    <text x="13" y="-4" class="nodelabel $cell_id" s:attribute="ref">buf</text>

    <path d="M0,0 L0,20 L24,10 Z" class="$cell_id"/>

    <g s:x="0" s:y="10" s:pid="A"/>
    <g s:x="24" s:y="10" s:pid="Y"/>
  </g>

  <g s:type="dff" transform="translate(350,150)" s:width="30" s:height="40">
    <s:alias val="$dff"/>
    <s:alias val="$_DFF_"/>
    <s:alias val="$_DFF_P_"/>
    <text x="15" y="-4" class="nodelabel $cell_id" s:attribute="ref">dff</text>

    <rect width="30" height="40" x="0" y="0" class="$cell_id"/>
    <path d="M0,35 L5,30 L0,25" class="$cell_id"/>

    <g s:x="30" s:y="10" s:pid="Q"/>
    <g s:x="0" s:y="30" s:pid="CLK"/>
    <g s:x="0" s:y="30" s:pid="C"/>
    <g s:x="0" s:y="10" s:pid="D"/>
  </g>

  <g s:type="inputExt" transform="translate(50,250)" s:width="30" s:height="20">
    <text x="15" y="-4" class="nodelabel $cell_id" s:attribute="ref">input</text>
    <s:alias val="$_inputExt_"/>
    <path d="M0,0 L0,20 L15,20 L30,10 L15,0 Z" class="$cell_id"/>
    <g s:x="28" s:y="10" s:pid="Y"/>
  </g>

  <g s:type="constant" transform="translate(150,250)" s:width="30" s:height="20">
    <text x="15" y="-4" class="nodelabel $cell_id" s:attribute="ref">constant</text>

    <s:alias val="$_constant_"/>
    <rect width="30" height="20" class="$cell_id"/>

    <g s:x="30" s:y="10" s:pid="Y"/>
  </g>

  <g s:type="outputExt" transform="translate(250,250)" s:width="30" s:height="20">
    <text x="15" y="-4" class="nodelabel $cell_id" s:attribute="ref">output</text>
    <s:alias val="$_outputExt_"/>
    <path d="M30,0 L30,20 L15,20 L0,10 L15,0 Z" class="$cell_id"/>

    <g s:x="0" s:y="10" s:pid="A"/>
  </g>

  <g s:type="split" transform="translate(350,250)" s:width="5" s:height="40">
    <rect width="5" height="40" class="splitjoinBody" s:generic="body"/>
    <s:alias val="$_split_"/>

    <g s:x="0" s:y="20" s:pid="in"/>
    <g transform="translate(5, 10)" s:x="4" s:y="10" s:pid="out0">
      <text x="5" y="-4">hi:lo</text>
    </g>
    <g transform="translate(5, 30)" s:x="4" s:y="30" s:pid="out1">
      <text x="5" y="-4">hi:lo</text>
    </g>
  </g>

  <g s:type="join" transform="translate(450,250)" s:width="4" s:height="40">
    <rect width="5" height="40" class="splitjoinBody" s:generic="body"/>
    <s:alias val="$_join_"/>
    <g s:x="5" s:y="20"  s:pid="out"/>
    <g transform="translate(0, 10)" s:x="0" s:y="10" s:pid="in0">
      <text x="-3" y="-4" class="inputPortLabel">hi:lo</text>
    </g>
    <g transform="translate(0, 30)" s:x="0" s:y="30" s:pid="in1">
      <text x="-3" y="-4" class="inputPortLabel">hi:lo</text>
    </g>
  </g>

  <g s:type="generic" transform="translate(550,250)" s:width="30" s:height="40">
    <s:alias val="generic-bus"/>
    <text x="15" y="-4" class="nodelabel $cell_id" s:attribute="ref">generic</text>
    <rect width="30" height="40" s:generic="body" class="$cell_id"/>

    <g transform="translate(30, 10)" s:x="30" s:y="10" s:pid="out0">
      <text x="5" y="-4" style="fill:#000; stroke:none" class="$cell_id">out0</text>
    </g>
    <g transform="translate(30, 30)" s:x="30" s:y="30" s:pid="out1">
      <text x="5" y="-4" style="fill:#000;stroke:none" class="$cell_id">out1</text>
    </g>
    <g transform="translate(0, 10)" s:x="0" s:y="10" s:pid="in0">
      <text x="-3" y="-4" class="inputPortLabel $cell_id">in0</text>
    </g>
    <g transform="translate(0, 30)" s:x="0" s:y="30" s:pid="in1">
      <text x="-3" y="-4" class="inputPortLabel $cell_id">in1</text>
    </g>
  </g>

  <!-- Compound AND-OR-INVERT / OR-AND-INVERT gates (generated; see
       test/visual/gen_compound.mjs).  First-level gates abut the second-level gate; the
       output Y port sits at the second-level gate's nose so netlistsvg routes
       the output wire straight to it. -->
  <g s:type="aoi21" transform="translate(20,360)" s:width="52" s:height="42">
    <s:alias val="aoi21"/>
    <text x="26" y="-4" class="nodelabel $cell_id" s:attribute="ref">aoi21</text>
    <path d="M0,7 L20,7" class="$cell_id"/>
    <path d="M0,15 L0,41 L10,41 A10 13 0 0 0 10,15 Z" class="$cell_id"/>
    <path d="M20,35 L33,35 A13 17.5 0 0 0 33,0 L20,0" class="$cell_id"/>
    <path d="M20,0 A26 35 0 0 1 20,35" class="$cell_id"/>
    <circle cx="49" cy="17.5" r="3" class="$cell_id"/>

    <g s:x="0" s:y="7" s:pid="A"/>
    <g s:x="0" s:y="21" s:pid="B"/>
    <g s:x="0" s:y="35" s:pid="C"/>
    <g s:x="52" s:y="17.5" s:pid="Y"/>
  </g>

  <g s:type="aoi22" transform="translate(96,360)" s:width="52" s:height="56">
    <s:alias val="aoi22"/>
    <text x="26" y="-4" class="nodelabel $cell_id" s:attribute="ref">aoi22</text>
    <path d="M0,1 L0,27 L10,27 A10 13 0 0 0 10,1 Z" class="$cell_id"/>
    <path d="M0,29 L0,55 L10,55 A10 13 0 0 0 10,29 Z" class="$cell_id"/>
    <path d="M20,49 L33,49 A13 21 0 0 0 33,7 L20,7" class="$cell_id"/>
    <path d="M20,7 A26 42 0 0 1 20,49" class="$cell_id"/>
    <circle cx="49" cy="28" r="3" class="$cell_id"/>

    <g s:x="0" s:y="7" s:pid="A"/>
    <g s:x="0" s:y="21" s:pid="B"/>
    <g s:x="0" s:y="35" s:pid="C"/>
    <g s:x="0" s:y="49" s:pid="D"/>
    <g s:x="52" s:y="28" s:pid="Y"/>
  </g>

  <g s:type="aoi211" transform="translate(172,360)" s:width="52" s:height="56">
    <s:alias val="aoi211"/>
    <text x="26" y="-4" class="nodelabel $cell_id" s:attribute="ref">aoi211</text>
    <path d="M0,7 L20,7" class="$cell_id"/>
    <path d="M0,21 L20,21" class="$cell_id"/>
    <path d="M0,29 L0,55 L10,55 A10 13 0 0 0 10,29 Z" class="$cell_id"/>
    <path d="M20,49 L33,49 A13 24.5 0 0 0 33,0 L20,0" class="$cell_id"/>
    <path d="M20,0 A26 49 0 0 1 20,49" class="$cell_id"/>
    <circle cx="49" cy="24.5" r="3" class="$cell_id"/>

    <g s:x="0" s:y="7" s:pid="A"/>
    <g s:x="0" s:y="21" s:pid="B"/>
    <g s:x="0" s:y="35" s:pid="C"/>
    <g s:x="0" s:y="49" s:pid="D"/>
    <g s:x="52" s:y="24.5" s:pid="Y"/>
  </g>

  <g s:type="aoi221" transform="translate(248,360)" s:width="52" s:height="70">
    <s:alias val="aoi221"/>
    <text x="26" y="-4" class="nodelabel $cell_id" s:attribute="ref">aoi221</text>
    <path d="M0,7 L20,7" class="$cell_id"/>
    <path d="M0,15 L0,41 L10,41 A10 13 0 0 0 10,15 Z" class="$cell_id"/>
    <path d="M0,43 L0,69 L10,69 A10 13 0 0 0 10,43 Z" class="$cell_id"/>
    <path d="M20,63 L33,63 A13 31.5 0 0 0 33,0 L20,0" class="$cell_id"/>
    <path d="M20,0 A26 63 0 0 1 20,63" class="$cell_id"/>
    <circle cx="49" cy="31.5" r="3" class="$cell_id"/>

    <g s:x="0" s:y="7" s:pid="A"/>
    <g s:x="0" s:y="21" s:pid="B"/>
    <g s:x="0" s:y="35" s:pid="C"/>
    <g s:x="0" s:y="49" s:pid="D"/>
    <g s:x="0" s:y="63" s:pid="E"/>
    <g s:x="52" s:y="31.5" s:pid="Y"/>
  </g>

  <g s:type="aoi222" transform="translate(324,360)" s:width="52" s:height="84">
    <s:alias val="aoi222"/>
    <text x="26" y="-4" class="nodelabel $cell_id" s:attribute="ref">aoi222</text>
    <path d="M0,1 L0,27 L10,27 A10 13 0 0 0 10,1 Z" class="$cell_id"/>
    <path d="M0,29 L0,55 L10,55 A10 13 0 0 0 10,29 Z" class="$cell_id"/>
    <path d="M0,57 L0,83 L10,83 A10 13 0 0 0 10,57 Z" class="$cell_id"/>
    <path d="M20,77 L33,77 A13 35 0 0 0 33,7 L20,7" class="$cell_id"/>
    <path d="M20,7 A26 70 0 0 1 20,77" class="$cell_id"/>
    <circle cx="49" cy="42" r="3" class="$cell_id"/>

    <g s:x="0" s:y="7" s:pid="A"/>
    <g s:x="0" s:y="21" s:pid="B"/>
    <g s:x="0" s:y="35" s:pid="C"/>
    <g s:x="0" s:y="49" s:pid="D"/>
    <g s:x="0" s:y="63" s:pid="E"/>
    <g s:x="0" s:y="77" s:pid="F"/>
    <g s:x="52" s:y="42" s:pid="Y"/>
  </g>

  <g s:type="aoi33" transform="translate(400,360)" s:width="52" s:height="84">
    <s:alias val="aoi33"/>
    <text x="26" y="-4" class="nodelabel $cell_id" s:attribute="ref">aoi33</text>
    <path d="M0,1 L0,41 L10,41 A10 20 0 0 0 10,1 Z" class="$cell_id"/>
    <path d="M0,43 L0,83 L10,83 A10 20 0 0 0 10,43 Z" class="$cell_id"/>
    <path d="M20,70 L33,70 A13 28 0 0 0 33,14 L20,14" class="$cell_id"/>
    <path d="M20,14 A26 56 0 0 1 20,70" class="$cell_id"/>
    <circle cx="49" cy="42" r="3" class="$cell_id"/>

    <g s:x="0" s:y="7" s:pid="A"/>
    <g s:x="0" s:y="21" s:pid="B"/>
    <g s:x="0" s:y="35" s:pid="C"/>
    <g s:x="0" s:y="49" s:pid="D"/>
    <g s:x="0" s:y="63" s:pid="E"/>
    <g s:x="0" s:y="77" s:pid="F"/>
    <g s:x="52" s:y="42" s:pid="Y"/>
  </g>

  <g s:type="oai21" transform="translate(20,470)" s:width="52" s:height="42">
    <s:alias val="oai21"/>
    <text x="26" y="-4" class="nodelabel $cell_id" s:attribute="ref">oai21</text>
    <path d="M0,7 L20,7" class="$cell_id"/>
    <path d="M0,41 L10,41 A10 13 0 0 0 10,15 L0,15" class="$cell_id"/>
    <path d="M0,15 A20 26 0 0 1 0,41" class="$cell_id"/>
    <path d="M0,21 L3.6,21" class="$cell_id"/>
    <path d="M0,35 L3.6,35" class="$cell_id"/>
    <path d="M20,0 L20,35 L33,35 A13 17.5 0 0 0 33,0 Z" class="$cell_id"/>
    <circle cx="49" cy="17.5" r="3" class="$cell_id"/>

    <g s:x="0" s:y="7" s:pid="A"/>
    <g s:x="0" s:y="21" s:pid="B"/>
    <g s:x="0" s:y="35" s:pid="C"/>
    <g s:x="52" s:y="17.5" s:pid="Y"/>
  </g>

  <g s:type="oai22" transform="translate(96,470)" s:width="52" s:height="56">
    <s:alias val="oai22"/>
    <text x="26" y="-4" class="nodelabel $cell_id" s:attribute="ref">oai22</text>
    <path d="M0,27 L10,27 A10 13 0 0 0 10,1 L0,1" class="$cell_id"/>
    <path d="M0,1 A20 26 0 0 1 0,27" class="$cell_id"/>
    <path d="M0,7 L3.6,7" class="$cell_id"/>
    <path d="M0,21 L3.6,21" class="$cell_id"/>
    <path d="M0,55 L10,55 A10 13 0 0 0 10,29 L0,29" class="$cell_id"/>
    <path d="M0,29 A20 26 0 0 1 0,55" class="$cell_id"/>
    <path d="M0,35 L3.6,35" class="$cell_id"/>
    <path d="M0,49 L3.6,49" class="$cell_id"/>
    <path d="M20,7 L20,49 L33,49 A13 21 0 0 0 33,7 Z" class="$cell_id"/>
    <circle cx="49" cy="28" r="3" class="$cell_id"/>

    <g s:x="0" s:y="7" s:pid="A"/>
    <g s:x="0" s:y="21" s:pid="B"/>
    <g s:x="0" s:y="35" s:pid="C"/>
    <g s:x="0" s:y="49" s:pid="D"/>
    <g s:x="52" s:y="28" s:pid="Y"/>
  </g>

  <g s:type="oai211" transform="translate(172,470)" s:width="52" s:height="56">
    <s:alias val="oai211"/>
    <text x="26" y="-4" class="nodelabel $cell_id" s:attribute="ref">oai211</text>
    <path d="M0,7 L20,7" class="$cell_id"/>
    <path d="M0,21 L20,21" class="$cell_id"/>
    <path d="M0,55 L10,55 A10 13 0 0 0 10,29 L0,29" class="$cell_id"/>
    <path d="M0,29 A20 26 0 0 1 0,55" class="$cell_id"/>
    <path d="M0,35 L3.6,35" class="$cell_id"/>
    <path d="M0,49 L3.6,49" class="$cell_id"/>
    <path d="M20,0 L20,49 L33,49 A13 24.5 0 0 0 33,0 Z" class="$cell_id"/>
    <circle cx="49" cy="24.5" r="3" class="$cell_id"/>

    <g s:x="0" s:y="7" s:pid="A"/>
    <g s:x="0" s:y="21" s:pid="B"/>
    <g s:x="0" s:y="35" s:pid="C"/>
    <g s:x="0" s:y="49" s:pid="D"/>
    <g s:x="52" s:y="24.5" s:pid="Y"/>
  </g>

  <g s:type="oai221" transform="translate(248,470)" s:width="52" s:height="70">
    <s:alias val="oai221"/>
    <text x="26" y="-4" class="nodelabel $cell_id" s:attribute="ref">oai221</text>
    <path d="M0,7 L20,7" class="$cell_id"/>
    <path d="M0,41 L10,41 A10 13 0 0 0 10,15 L0,15" class="$cell_id"/>
    <path d="M0,15 A20 26 0 0 1 0,41" class="$cell_id"/>
    <path d="M0,21 L3.6,21" class="$cell_id"/>
    <path d="M0,35 L3.6,35" class="$cell_id"/>
    <path d="M0,69 L10,69 A10 13 0 0 0 10,43 L0,43" class="$cell_id"/>
    <path d="M0,43 A20 26 0 0 1 0,69" class="$cell_id"/>
    <path d="M0,49 L3.6,49" class="$cell_id"/>
    <path d="M0,63 L3.6,63" class="$cell_id"/>
    <path d="M20,0 L20,63 L33,63 A13 31.5 0 0 0 33,0 Z" class="$cell_id"/>
    <circle cx="49" cy="31.5" r="3" class="$cell_id"/>

    <g s:x="0" s:y="7" s:pid="A"/>
    <g s:x="0" s:y="21" s:pid="B"/>
    <g s:x="0" s:y="35" s:pid="C"/>
    <g s:x="0" s:y="49" s:pid="D"/>
    <g s:x="0" s:y="63" s:pid="E"/>
    <g s:x="52" s:y="31.5" s:pid="Y"/>
  </g>

  <g s:type="oai222" transform="translate(324,470)" s:width="52" s:height="84">
    <s:alias val="oai222"/>
    <text x="26" y="-4" class="nodelabel $cell_id" s:attribute="ref">oai222</text>
    <path d="M0,27 L10,27 A10 13 0 0 0 10,1 L0,1" class="$cell_id"/>
    <path d="M0,1 A20 26 0 0 1 0,27" class="$cell_id"/>
    <path d="M0,7 L3.6,7" class="$cell_id"/>
    <path d="M0,21 L3.6,21" class="$cell_id"/>
    <path d="M0,55 L10,55 A10 13 0 0 0 10,29 L0,29" class="$cell_id"/>
    <path d="M0,29 A20 26 0 0 1 0,55" class="$cell_id"/>
    <path d="M0,35 L3.6,35" class="$cell_id"/>
    <path d="M0,49 L3.6,49" class="$cell_id"/>
    <path d="M0,83 L10,83 A10 13 0 0 0 10,57 L0,57" class="$cell_id"/>
    <path d="M0,57 A20 26 0 0 1 0,83" class="$cell_id"/>
    <path d="M0,63 L3.6,63" class="$cell_id"/>
    <path d="M0,77 L3.6,77" class="$cell_id"/>
    <path d="M20,7 L20,77 L33,77 A13 35 0 0 0 33,7 Z" class="$cell_id"/>
    <circle cx="49" cy="42" r="3" class="$cell_id"/>

    <g s:x="0" s:y="7" s:pid="A"/>
    <g s:x="0" s:y="21" s:pid="B"/>
    <g s:x="0" s:y="35" s:pid="C"/>
    <g s:x="0" s:y="49" s:pid="D"/>
    <g s:x="0" s:y="63" s:pid="E"/>
    <g s:x="0" s:y="77" s:pid="F"/>
    <g s:x="52" s:y="42" s:pid="Y"/>
  </g>

  <g s:type="oai33" transform="translate(400,470)" s:width="52" s:height="84">
    <s:alias val="oai33"/>
    <text x="26" y="-4" class="nodelabel $cell_id" s:attribute="ref">oai33</text>
    <path d="M0,41 L10,41 A10 20 0 0 0 10,1 L0,1" class="$cell_id"/>
    <path d="M0,1 A20 40 0 0 1 0,41" class="$cell_id"/>
    <path d="M0,7 L3.6,7" class="$cell_id"/>
    <path d="M0,21 L3.6,21" class="$cell_id"/>
    <path d="M0,35 L3.6,35" class="$cell_id"/>
    <path d="M0,83 L10,83 A10 20 0 0 0 10,43 L0,43" class="$cell_id"/>
    <path d="M0,43 A20 40 0 0 1 0,83" class="$cell_id"/>
    <path d="M0,49 L3.6,49" class="$cell_id"/>
    <path d="M0,63 L3.6,63" class="$cell_id"/>
    <path d="M0,77 L3.6,77" class="$cell_id"/>
    <path d="M20,14 L20,70 L33,70 A13 28 0 0 0 33,14 Z" class="$cell_id"/>
    <circle cx="49" cy="42" r="3" class="$cell_id"/>

    <g s:x="0" s:y="7" s:pid="A"/>
    <g s:x="0" s:y="21" s:pid="B"/>
    <g s:x="0" s:y="35" s:pid="C"/>
    <g s:x="0" s:y="49" s:pid="D"/>
    <g s:x="0" s:y="63" s:pid="E"/>
    <g s:x="0" s:y="77" s:pid="F"/>
    <g s:x="52" s:y="42" s:pid="Y"/>
  </g>

  <!-- Wider basic gates (>2 inputs); generated, see test/visual/gen_multi.mjs. -->
  <g s:type="and3" transform="translate(20,580)" s:width="30" s:height="36">
    <s:alias val="and3"/>
    <text x="15" y="-4" class="nodelabel $cell_id" s:attribute="ref">and3</text>
    <path d="M0,0 L0,36 L15,36 A15 18 0 0 0 15,0 Z" class="$cell_id"/>

    <g s:x="0" s:y="6" s:pid="A"/>
    <g s:x="0" s:y="18" s:pid="B"/>
    <g s:x="0" s:y="30" s:pid="C"/>
    <g s:x="30" s:y="18" s:pid="Y"/>
  </g>

  <g s:type="nand3" transform="translate(82,580)" s:width="38" s:height="36">
    <s:alias val="nand3"/>
    <text x="15" y="-4" class="nodelabel $cell_id" s:attribute="ref">nand3</text>
    <path d="M0,0 L0,36 L15,36 A15 18 0 0 0 15,0 Z" class="$cell_id"/>
    <circle cx="34" cy="18" r="3" class="$cell_id"/>

    <g s:x="0" s:y="6" s:pid="A"/>
    <g s:x="0" s:y="18" s:pid="B"/>
    <g s:x="0" s:y="30" s:pid="C"/>
    <g s:x="38" s:y="18" s:pid="Y"/>
  </g>

  <g s:type="or3" transform="translate(144,580)" s:width="30" s:height="36">
    <s:alias val="or3"/>
    <text x="15" y="-4" class="nodelabel $cell_id" s:attribute="ref">or3</text>
    <path d="M0,36 L15,36 A15 18 0 0 0 15,0 L0,0" class="$cell_id"/>
    <path d="M0,0 A30 36 0 0 1 0,36" class="$cell_id"/>

    <g s:x="3" s:y="6" s:pid="A"/>
    <g s:x="3" s:y="18" s:pid="B"/>
    <g s:x="3" s:y="30" s:pid="C"/>
    <g s:x="30" s:y="18" s:pid="Y"/>
  </g>

  <g s:type="nor3" transform="translate(206,580)" s:width="38" s:height="36">
    <s:alias val="nor3"/>
    <text x="15" y="-4" class="nodelabel $cell_id" s:attribute="ref">nor3</text>
    <path d="M0,36 L15,36 A15 18 0 0 0 15,0 L0,0" class="$cell_id"/>
    <path d="M0,0 A30 36 0 0 1 0,36" class="$cell_id"/>
    <circle cx="34" cy="18" r="3" class="$cell_id"/>

    <g s:x="3" s:y="6" s:pid="A"/>
    <g s:x="3" s:y="18" s:pid="B"/>
    <g s:x="3" s:y="30" s:pid="C"/>
    <g s:x="38" s:y="18" s:pid="Y"/>
  </g>

  <g s:type="and4" transform="translate(20,654)" s:width="30" s:height="48">
    <s:alias val="and4"/>
    <text x="15" y="-4" class="nodelabel $cell_id" s:attribute="ref">and4</text>
    <path d="M0,0 L0,48 L15,48 A15 24 0 0 0 15,0 Z" class="$cell_id"/>

    <g s:x="0" s:y="6" s:pid="A"/>
    <g s:x="0" s:y="18" s:pid="B"/>
    <g s:x="0" s:y="30" s:pid="C"/>
    <g s:x="0" s:y="42" s:pid="D"/>
    <g s:x="30" s:y="24" s:pid="Y"/>
  </g>

  <g s:type="nand4" transform="translate(82,654)" s:width="38" s:height="48">
    <s:alias val="nand4"/>
    <text x="15" y="-4" class="nodelabel $cell_id" s:attribute="ref">nand4</text>
    <path d="M0,0 L0,48 L15,48 A15 24 0 0 0 15,0 Z" class="$cell_id"/>
    <circle cx="34" cy="24" r="3" class="$cell_id"/>

    <g s:x="0" s:y="6" s:pid="A"/>
    <g s:x="0" s:y="18" s:pid="B"/>
    <g s:x="0" s:y="30" s:pid="C"/>
    <g s:x="0" s:y="42" s:pid="D"/>
    <g s:x="38" s:y="24" s:pid="Y"/>
  </g>

  <g s:type="or4" transform="translate(144,654)" s:width="30" s:height="48">
    <s:alias val="or4"/>
    <text x="15" y="-4" class="nodelabel $cell_id" s:attribute="ref">or4</text>
    <path d="M0,48 L15,48 A15 24 0 0 0 15,0 L0,0" class="$cell_id"/>
    <path d="M0,0 A30 48 0 0 1 0,48" class="$cell_id"/>

    <g s:x="3" s:y="6" s:pid="A"/>
    <g s:x="3" s:y="18" s:pid="B"/>
    <g s:x="3" s:y="30" s:pid="C"/>
    <g s:x="3" s:y="42" s:pid="D"/>
    <g s:x="30" s:y="24" s:pid="Y"/>
  </g>

  <g s:type="nor4" transform="translate(206,654)" s:width="38" s:height="48">
    <s:alias val="nor4"/>
    <text x="15" y="-4" class="nodelabel $cell_id" s:attribute="ref">nor4</text>
    <path d="M0,48 L15,48 A15 24 0 0 0 15,0 L0,0" class="$cell_id"/>
    <path d="M0,0 A30 48 0 0 1 0,48" class="$cell_id"/>
    <circle cx="34" cy="24" r="3" class="$cell_id"/>

    <g s:x="3" s:y="6" s:pid="A"/>
    <g s:x="3" s:y="18" s:pid="B"/>
    <g s:x="3" s:y="30" s:pid="C"/>
    <g s:x="3" s:y="42" s:pid="D"/>
    <g s:x="38" s:y="24" s:pid="Y"/>
  </g>

</svg>
