<svg version="1.1" viewBox="0.0 0.0 654.2624671916011 438.501312335958" fill="none" stroke="none" stroke-linecap="square" stroke-miterlimit="10" xmlns:xlink="http://www.w3.org/1999/xlink" xmlns="http://www.w3.org/2000/svg"><clipPath id="p.0"><path d="m0 0l654.26245 0l0 438.5013l-654.26245 0l0 -438.5013z" clip-rule="nonzero"/></clipPath><g clip-path="url(#p.0)"><path fill="#000000" fill-opacity="0.0" d="m0 0l654.26245 0l0 438.5013l-654.26245 0z" fill-rule="evenodd"/><path fill="#ffffff" d="m0 -3.4120735E-6l625.0079 0l0 416.6929l-625.0079 0z" fill-rule="evenodd"/><path stroke="#000000" stroke-width="4.0" stroke-linejoin="round" stroke-linecap="butt" d="m0 -3.4120735E-6l625.0079 0l0 416.6929l-625.0079 0z" fill-rule="evenodd"/><path fill="#ffffff" d="m0 0l625.0079 0l0 46.299213l-625.0079 0z" fill-rule="evenodd"/><path stroke="#cccccc" stroke-width="1.0" stroke-linejoin="round" stroke-linecap="butt" d="m0 0l625.0079 0l0 46.299213l-625.0079 0z" fill-rule="evenodd"/><path fill="#ffffff" d="m0 46.299213l625.0079 0l0 46.299213l-625.0079 0z" fill-rule="evenodd"/><path stroke="#cccccc" stroke-width="1.0" stroke-linejoin="round" stroke-linecap="butt" d="m0 46.299213l625.0079 0l0 46.299213l-625.0079 0z" fill-rule="evenodd"/><path fill="#ffffff" d="m0 92.59843l625.0079 0l0 46.299217l-625.0079 0z" fill-rule="evenodd"/><path stroke="#cccccc" stroke-width="1.0" stroke-linejoin="round" stroke-linecap="butt" d="m0 92.59843l625.0079 0l0 46.299217l-625.0079 0z" fill-rule="evenodd"/><path fill="#ffffff" d="m0 138.89764l625.0079 0l0 46.29921l-625.0079 0z" fill-rule="evenodd"/><path stroke="#cccccc" stroke-width="1.0" stroke-linejoin="round" stroke-linecap="butt" d="m0 138.89764l625.0079 0l0 46.29921l-625.0079 0z" fill-rule="evenodd"/><path fill="#ffffff" d="m0 185.19685l625.0079 0l0 46.29921l-625.0079 0z" fill-rule="evenodd"/><path stroke="#cccccc" stroke-width="1.0" stroke-linejoin="round" stroke-linecap="butt" d="m0 185.19685l625.0079 0l0 46.29921l-625.0079 0z" fill-rule="evenodd"/><path fill="#ffffff" d="m0 231.49606l625.0079 0l0 46.299225l-625.0079 0z" fill-rule="evenodd"/><path stroke="#cccccc" stroke-width="1.0" stroke-linejoin="round" stroke-linecap="butt" d="m0 231.49606l625.0079 0l0 46.299225l-625.0079 0z" fill-rule="evenodd"/><path fill="#ffffff" d="m0 277.7953l625.0079 0l0 46.299194l-625.0079 0z" fill-rule="evenodd"/><path stroke="#cccccc" stroke-width="1.0" stroke-linejoin="round" stroke-linecap="butt" d="m0 277.7953l625.0079 0l0 46.299194l-625.0079 0z" fill-rule="evenodd"/><path fill="#ffffff" d="m0 324.09448l625.0079 0l0 46.299225l-625.0079 0z" fill-rule="evenodd"/><path stroke="#cccccc" stroke-width="1.0" stroke-linejoin="round" stroke-linecap="butt" d="m0 324.09448l625.0079 0l0 46.299225l-625.0079 0z" fill-rule="evenodd"/><path fill="#999999" d="m0 0l9.795276 0l0 46.299213l-9.795276 0z" fill-rule="evenodd"/><path stroke="#000000" stroke-width="2.0" stroke-linejoin="round" stroke-linecap="butt" d="m0 0l9.795276 0l0 46.299213l-9.795276 0z" fill-rule="evenodd"/><path fill="#999999" d="m0 46.299213l9.795276 0l0 46.299213l-9.795276 0z" fill-rule="evenodd"/><path stroke="#000000" stroke-width="2.0" stroke-linejoin="round" stroke-linecap="butt" d="m0 46.299213l9.795276 0l0 46.299213l-9.795276 0z" fill-rule="evenodd"/><path fill="#999999" d="m0 92.59843l9.795276 0l0 46.299217l-9.795276 0z" fill-rule="evenodd"/><path stroke="#000000" stroke-width="2.0" stroke-linejoin="round" stroke-linecap="butt" d="m0 92.59843l9.795276 0l0 46.299217l-9.795276 0z" fill-rule="evenodd"/><path fill="#999999" d="m0 138.89764l9.795276 0l0 46.29921l-9.795276 0z" fill-rule="evenodd"/><path stroke="#000000" stroke-width="2.0" stroke-linejoin="round" stroke-linecap="butt" d="m0 138.89764l9.795276 0l0 46.29921l-9.795276 0z" fill-rule="evenodd"/><path fill="#999999" d="m0 185.19685l9.795276 0l0 46.29921l-9.795276 0z" fill-rule="evenodd"/><path stroke="#000000" stroke-width="2.0" stroke-linejoin="round" stroke-linecap="butt" d="m0 185.19685l9.795276 0l0 46.29921l-9.795276 0z" fill-rule="evenodd"/><path fill="#999999" d="m0 231.49606l9.795276 0l0 46.299225l-9.795276 0z" fill-rule="evenodd"/><path stroke="#000000" stroke-width="2.0" stroke-linejoin="round" stroke-linecap="butt" d="m0 231.49606l9.795276 0l0 46.299225l-9.795276 0z" fill-rule="evenodd"/><path fill="#999999" d="m0 277.7953l9.795276 0l0 46.299194l-9.795276 0z" fill-rule="evenodd"/><path stroke="#000000" stroke-width="2.0" stroke-linejoin="round" stroke-linecap="butt" d="m0 277.7953l9.795276 0l0 46.299194l-9.795276 0z" fill-rule="evenodd"/><path fill="#999999" d="m0 324.09448l9.795276 0l0 46.299225l-9.795276 0z" fill-rule="evenodd"/><path stroke="#000000" stroke-width="2.0" stroke-linejoin="round" stroke-linecap="butt" d="m0 324.09448l9.795276 0l0 46.299225l-9.795276 0z" fill-rule="evenodd"/><path fill="#999999" d="m122.57481 0l27.086617 0l0 46.299213l-27.086617 0z" fill-rule="evenodd"/><path stroke="#000000" stroke-width="2.0" stroke-linejoin="round" stroke-linecap="butt" d="m122.57481 0l27.086617 0l0 46.299213l-27.086617 0z" fill-rule="evenodd"/><path fill="#999999" d="m274.85565 46.299213l27.086609 0l0 46.299213l-27.086609 0z" fill-rule="evenodd"/><path stroke="#000000" stroke-width="2.0" stroke-linejoin="round" stroke-linecap="butt" d="m274.85565 46.299213l27.086609 0l0 46.299213l-27.086609 0z" fill-rule="evenodd"/><path fill="#999999" d="m122.568245 92.59843l27.086617 0l0 46.299217l-27.086617 0z" fill-rule="evenodd"/><path stroke="#000000" stroke-width="2.0" stroke-linejoin="round" stroke-linecap="butt" d="m122.568245 92.59843l27.086617 0l0 46.299217l-27.086617 0z" fill-rule="evenodd"/><path fill="#999999" d="m122.56693 185.19685l27.086617 0l0 46.29921l-27.086617 0z" fill-rule="evenodd"/><path stroke="#000000" stroke-width="2.0" stroke-linejoin="round" stroke-linecap="butt" d="m122.56693 185.19685l27.086617 0l0 46.29921l-27.086617 0z" fill-rule="evenodd"/><path fill="#999999" d="m122.568245 277.7953l27.086617 0l0 46.299194l-27.086617 0z" fill-rule="evenodd"/><path stroke="#000000" stroke-width="2.0" stroke-linejoin="round" stroke-linecap="butt" d="m122.568245 277.7953l27.086617 0l0 46.299194l-27.086617 0z" fill-rule="evenodd"/><path fill="#999999" d="m274.85434 138.89764l27.086609 0l0 46.29921l-27.086609 0z" fill-rule="evenodd"/><path stroke="#000000" stroke-width="2.0" stroke-linejoin="round" stroke-linecap="butt" d="m274.85434 138.89764l27.086609 0l0 46.29921l-27.086609 0z" fill-rule="evenodd"/><path fill="#999999" d="m274.85303 231.49606l27.086609 0l0 46.299225l-27.086609 0z" fill-rule="evenodd"/><path stroke="#000000" stroke-width="2.0" stroke-linejoin="round" stroke-linecap="butt" d="m274.85303 231.49606l27.086609 0l0 46.299225l-27.086609 0z" fill-rule="evenodd"/><path fill="#999999" d="m274.85434 324.09448l27.086609 0l0 46.299225l-27.086609 0z" fill-rule="evenodd"/><path stroke="#000000" stroke-width="2.0" stroke-linejoin="round" stroke-linecap="butt" d="m274.85434 324.09448l27.086609 0l0 46.299225l-27.086609 0z" fill-rule="evenodd"/><path fill="#ffffff" d="m378.6601 92.59843l159.33856 0l0 231.49606l-159.33856 0z" fill-rule="evenodd"/><path stroke="#cccccc" stroke-width="2.0" stroke-linejoin="round" stroke-linecap="butt" d="m378.6601 92.59843l159.33856 0l0 231.49606l-159.33856 0z" fill-rule="evenodd"/><path fill="#000000" d="m421.07217 138.89764l72.66141 0l0 138.89764l-72.66141 0z" fill-rule="evenodd"/><path stroke="#000000" stroke-width="2.0" stroke-linejoin="round" stroke-linecap="butt" d="m421.07217 138.89764l72.66141 0l0 138.89764l-72.66141 0z" fill-rule="evenodd"/><path fill="#000000" fill-opacity="0.0" d="m457.5315 281.55905l61.95276 0l0 35.55905l-61.95276 0z" fill-rule="evenodd"/><path fill="#000000" d="m469.31274 293.81216l0 3.515625q0.875 -1.03125 2.109375 -1.03125q0.640625 0 1.140625 0.234375q0.515625 0.234375 0.765625 0.59375q0.25 0.359375 0.34375 0.8125q0.109375 0.4375 0.109375 1.375l0 4.046875l-1.828125 0l0 -3.65625q0 -1.078125 -0.109375 -1.375q-0.109375 -0.296875 -0.375 -0.46875q-0.265625 -0.171875 -0.65625 -0.171875q-0.453125 0 -0.8125 0.234375q-0.359375 0.21875 -0.53125 0.671875q-0.15625 0.4375 -0.15625 1.296875l0 3.46875l-1.828125 0l0 -9.546875l1.828125 0zm7.6882324 4.75l-1.671875 -0.3125q0.28125 -1.0 0.96875 -1.46875q0.6875 -0.484375 2.03125 -0.484375q1.21875 0 1.8125 0.296875q0.609375 0.28125 0.84375 0.734375q0.25 0.4375 0.25 1.625l-0.015625 2.140625q0 0.90625 0.078125 1.34375q0.09375 0.421875 0.34375 0.921875l-1.8125 0q-0.078125 -0.1875 -0.171875 -0.546875q-0.046875 -0.15625 -0.078125 -0.203125q-0.46875 0.453125 -1.0 0.6875q-0.53125 0.21875 -1.140625 0.21875q-1.0625 0 -1.6875 -0.578125q-0.609375 -0.578125 -0.609375 -1.46875q0 -0.578125 0.28125 -1.03125q0.28125 -0.46875 0.78125 -0.703125q0.515625 -0.25 1.46875 -0.4375q1.28125 -0.234375 1.765625 -0.453125l0 -0.171875q0 -0.53125 -0.265625 -0.75q-0.25 -0.234375 -0.96875 -0.234375q-0.484375 0 -0.765625 0.203125q-0.265625 0.1875 -0.4375 0.671875zm2.4375 1.484375q-0.34375 0.109375 -1.109375 0.28125q-0.765625 0.15625 -1.0 0.3125q-0.359375 0.25 -0.359375 0.640625q0 0.390625 0.28125 0.671875q0.296875 0.28125 0.734375 0.28125q0.5 0 0.953125 -0.328125q0.328125 -0.25 0.4375 -0.609375q0.0625 -0.234375 0.0625 -0.890625l0 -0.359375zm3.5999756 3.3125l0 -9.546875l1.828125 0l0 9.546875l-1.828125 0zm3.281128 -3.546875q0 -0.921875 0.453125 -1.765625q0.453125 -0.859375 1.265625 -1.296875q0.828125 -0.453125 1.84375 -0.453125q1.5625 0 2.5625 1.015625q1.015625 1.015625 1.015625 2.578125q0 1.5625 -1.015625 2.59375q-1.015625 1.03125 -2.546875 1.03125q-0.953125 0 -1.8125 -0.421875q-0.859375 -0.4375 -1.3125 -1.265625q-0.453125 -0.828125 -0.453125 -2.015625zm1.875 0.09375q0 1.03125 0.484375 1.578125q0.5 0.546875 1.203125 0.546875q0.71875 0 1.203125 -0.546875q0.484375 -0.546875 0.484375 -1.59375q0 -1.015625 -0.484375 -1.5625q-0.484375 -0.546875 -1.203125 -0.546875q-0.703125 0 -1.203125 0.546875q-0.484375 0.546875 -0.484375 1.578125zm9.53183 -3.453125l1.9375 0l1.65625 4.90625l1.609375 -4.90625l1.90625 0l-2.453125 6.640625l-0.421875 1.203125q-0.25 0.609375 -0.46875 0.921875q-0.21875 0.328125 -0.5 0.515625q-0.28125 0.203125 -0.703125 0.3125q-0.40625 0.125 -0.921875 0.125q-0.53125 0 -1.03125 -0.125l-0.171875 -1.421875q0.4375 0.078125 0.78125 0.078125q0.640625 0 0.9375 -0.375q0.3125 -0.375 0.46875 -0.953125l-2.625 -6.921875z" fill-rule="nonzero"/><path fill="#000000" fill-opacity="0.0" d="m458.84894 279.9394l0 43.45282" fill-rule="evenodd"/><path stroke="#00ff00" stroke-width="3.0" stroke-linejoin="round" stroke-linecap="butt" d="m458.84894 279.9394l0 43.45282" fill-rule="evenodd"/><path fill="#000000" fill-opacity="0.0" d="m463.74387 279.9394l-9.789825 0" fill-rule="evenodd"/><path stroke="#00ff00" stroke-width="3.0" stroke-linejoin="round" stroke-linecap="butt" d="m463.74387 279.9394l-9.789825 0" fill-rule="evenodd"/><path fill="#000000" fill-opacity="0.0" d="m463.74387 323.3922l-9.789825 0" fill-rule="evenodd"/><path stroke="#00ff00" stroke-width="3.0" stroke-linejoin="round" stroke-linecap="butt" d="m463.74387 323.3922l-9.789825 0" fill-rule="evenodd"/><path fill="#000000" fill-opacity="0.0" d="m486.6273 201.30708l61.95279 0l0 35.55905l-61.95279 0z" fill-rule="evenodd"/><path fill="#000000" d="m498.40854 213.56021l0 3.515625q0.875 -1.03125 2.109375 -1.03125q0.640625 0 1.140625 0.234375q0.515625 0.234375 0.765625 0.59375q0.25 0.359375 0.34375 0.8125q0.109375 0.4375 0.109375 1.375l0 4.046875l-1.828125 0l0 -3.65625q0 -1.078125 -0.109375 -1.375q-0.109375 -0.296875 -0.375 -0.46875q-0.265625 -0.171875 -0.65625 -0.171875q-0.453125 0 -0.8125 0.234375q-0.359375 0.21875 -0.53125 0.671875q-0.15625 0.4375 -0.15625 1.296875l0 3.46875l-1.828125 0l0 -9.546875l1.828125 0zm7.6882324 4.75l-1.671875 -0.3125q0.28125 -1.0 0.96875 -1.46875q0.6875 -0.484375 2.03125 -0.484375q1.21875 0 1.8125 0.296875q0.609375 0.28125 0.84375 0.734375q0.25 0.4375 0.25 1.625l-0.015625 2.140625q0 0.90625 0.078125 1.34375q0.09375 0.421875 0.34375 0.921875l-1.8125 0q-0.078125 -0.1875 -0.171875 -0.546875q-0.046875 -0.15625 -0.078125 -0.203125q-0.46875 0.453125 -1.0 0.6875q-0.53125 0.21875 -1.140625 0.21875q-1.0625 0 -1.6875 -0.578125q-0.609375 -0.578125 -0.609375 -1.46875q0 -0.578125 0.28125 -1.03125q0.28125 -0.46875 0.78125 -0.703125q0.515625 -0.25 1.46875 -0.4375q1.28125 -0.234375 1.765625 -0.453125l0 -0.171875q0 -0.53125 -0.265625 -0.75q-0.25 -0.234375 -0.96875 -0.234375q-0.484375 0 -0.765625 0.203125q-0.265625 0.1875 -0.4375 0.671875zm2.4375 1.484375q-0.34375 0.109375 -1.109375 0.28125q-0.765625 0.15625 -1.0 0.3125q-0.359375 0.25 -0.359375 0.640625q0 0.390625 0.28125 0.671875q0.296875 0.28125 0.734375 0.28125q0.5 0 0.953125 -0.328125q0.328125 -0.25 0.4375 -0.609375q0.0625 -0.234375 0.0625 -0.890625l0 -0.359375zm3.600006 3.3125l0 -9.546875l1.828125 0l0 9.546875l-1.828125 0zm3.281067 -3.546875q0 -0.921875 0.453125 -1.765625q0.453125 -0.859375 1.265625 -1.296875q0.828125 -0.453125 1.84375 -0.453125q1.5625 0 2.5625 1.015625q1.015625 1.015625 1.015625 2.578125q0 1.5625 -1.015625 2.59375q-1.015625 1.03125 -2.546875 1.03125q-0.953125 0 -1.8125 -0.421875q-0.859375 -0.4375 -1.3125 -1.265625q-0.453125 -0.828125 -0.453125 -2.015625zm1.875 0.09375q0 1.03125 0.484375 1.578125q0.5 0.546875 1.203125 0.546875q0.71875 0 1.203125 -0.546875q0.484375 -0.546875 0.484375 -1.59375q0 -1.015625 -0.484375 -1.5625q-0.484375 -0.546875 -1.203125 -0.546875q-0.703125 0 -1.203125 0.546875q-0.484375 0.546875 -0.484375 1.578125zm9.516235 3.453125l2.5 -3.5625l-2.390625 -3.34375l2.234375 0l1.21875 1.890625l1.28125 -1.890625l2.15625 0l-2.34375 3.265625l2.546875 3.640625l-2.234375 0l-1.40625 -2.140625l-1.421875 2.140625l-2.140625 0z" fill-rule="nonzero"/><path fill="#000000" fill-opacity="0.0" d="m493.7477 206.70866l44.26889 0" fill-rule="evenodd"/><path stroke="#00ff00" stroke-width="3.0" stroke-linejoin="round" stroke-linecap="butt" d="m493.7477 206.70866l44.26889 0" fill-rule="evenodd"/><path fill="#000000" fill-opacity="0.0" d="m493.7477 201.30708l0 10.803146" fill-rule="evenodd"/><path stroke="#00ff00" stroke-width="3.0" stroke-linejoin="round" stroke-linecap="butt" d="m493.7477 201.30708l0 10.803146" fill-rule="evenodd"/><path fill="#000000" fill-opacity="0.0" d="m538.0166 201.30708l0 10.803146" fill-rule="evenodd"/><path stroke="#00ff00" stroke-width="3.0" stroke-linejoin="round" stroke-linecap="butt" d="m538.0166 201.30708l0 10.803146" fill-rule="evenodd"/><path fill="#999999" d="m378.6601 324.09448l18.204742 0l0 46.299225l-18.204742 0z" fill-rule="evenodd"/><path stroke="#000000" stroke-width="2.0" stroke-linejoin="round" stroke-linecap="butt" d="m378.6601 324.09448l18.204742 0l0 46.299225l-18.204742 0z" fill-rule="evenodd"/><path fill="#999999" d="m396.86484 324.09448l18.204712 0l0 46.299225l-18.204712 0z" fill-rule="evenodd"/><path stroke="#000000" stroke-width="2.0" stroke-linejoin="round" stroke-linecap="butt" d="m396.86484 324.09448l18.204712 0l0 46.299225l-18.204712 0z" fill-rule="evenodd"/><path fill="#999999" d="m415.06955 324.09448l18.204742 0l0 46.299225l-18.204742 0z" fill-rule="evenodd"/><path stroke="#000000" stroke-width="2.0" stroke-linejoin="round" stroke-linecap="butt" d="m415.06955 324.09448l18.204742 0l0 46.299225l-18.204742 0z" fill-rule="evenodd"/><path fill="#999999" d="m449.2743 324.09448l18.204712 0l0 46.299225l-18.204712 0z" fill-rule="evenodd"/><path stroke="#000000" stroke-width="2.0" stroke-linejoin="round" stroke-linecap="butt" d="m449.2743 324.09448l18.204712 0l0 46.299225l-18.204712 0z" fill-rule="evenodd"/><path fill="#999999" d="m433.2743 324.09448l18.204712 0l0 46.299225l-18.204712 0z" fill-rule="evenodd"/><path stroke="#000000" stroke-width="2.0" stroke-linejoin="round" stroke-linecap="butt" d="m433.2743 324.09448l18.204712 0l0 46.299225l-18.204712 0z" fill-rule="evenodd"/><path fill="#999999" d="m467.479 324.09448l18.204712 0l0 46.299225l-18.204712 0z" fill-rule="evenodd"/><path stroke="#000000" stroke-width="2.0" stroke-linejoin="round" stroke-linecap="butt" d="m467.479 324.09448l18.204712 0l0 46.299225l-18.204712 0z" fill-rule="evenodd"/><path fill="#999999" d="m485.68372 324.09448l18.204742 0l0 46.299225l-18.204742 0z" fill-rule="evenodd"/><path stroke="#000000" stroke-width="2.0" stroke-linejoin="round" stroke-linecap="butt" d="m485.68372 324.09448l18.204742 0l0 46.299225l-18.204742 0z" fill-rule="evenodd"/><path fill="#999999" d="m519.8884 324.09448l18.204773 0l0 46.299225l-18.204773 0z" fill-rule="evenodd"/><path stroke="#000000" stroke-width="2.0" stroke-linejoin="round" stroke-linecap="butt" d="m519.8884 324.09448l18.204773 0l0 46.299225l-18.204773 0z" fill-rule="evenodd"/><path fill="#999999" d="m503.88846 324.09448l15.590546 0l0 46.299225l-15.590546 0z" fill-rule="evenodd"/><path stroke="#000000" stroke-width="2.0" stroke-linejoin="round" stroke-linecap="butt" d="m503.88846 324.09448l15.590546 0l0 46.299225l-15.590546 0z" fill-rule="evenodd"/><path fill="#999999" d="m379.13254 46.299213l18.204742 0l0 46.299213l-18.204742 0z" fill-rule="evenodd"/><path stroke="#000000" stroke-width="2.0" stroke-linejoin="round" stroke-linecap="butt" d="m379.13254 46.299213l18.204742 0l0 46.299213l-18.204742 0z" fill-rule="evenodd"/><path fill="#999999" d="m397.33728 46.299213l18.204712 0l0 46.299213l-18.204712 0z" fill-rule="evenodd"/><path stroke="#000000" stroke-width="2.0" stroke-linejoin="round" stroke-linecap="butt" d="m397.33728 46.299213l18.204712 0l0 46.299213l-18.204712 0z" fill-rule="evenodd"/><path fill="#999999" d="m415.542 46.299213l18.204712 0l0 46.299213l-18.204712 0z" fill-rule="evenodd"/><path stroke="#000000" stroke-width="2.0" stroke-linejoin="round" stroke-linecap="butt" d="m415.542 46.299213l18.204712 0l0 46.299213l-18.204712 0z" fill-rule="evenodd"/><path fill="#999999" d="m449.7467 46.299213l18.204742 0l0 46.299213l-18.204742 0z" fill-rule="evenodd"/><path stroke="#000000" stroke-width="2.0" stroke-linejoin="round" stroke-linecap="butt" d="m449.7467 46.299213l18.204742 0l0 46.299213l-18.204742 0z" fill-rule="evenodd"/><path fill="#999999" d="m433.7467 46.299213l18.204742 0l0 46.299213l-18.204742 0z" fill-rule="evenodd"/><path stroke="#000000" stroke-width="2.0" stroke-linejoin="round" stroke-linecap="butt" d="m433.7467 46.299213l18.204742 0l0 46.299213l-18.204742 0z" fill-rule="evenodd"/><path fill="#999999" d="m467.95145 46.299213l18.204712 0l0 46.299213l-18.204712 0z" fill-rule="evenodd"/><path stroke="#000000" stroke-width="2.0" stroke-linejoin="round" stroke-linecap="butt" d="m467.95145 46.299213l18.204712 0l0 46.299213l-18.204712 0z" fill-rule="evenodd"/><path fill="#999999" d="m486.15616 46.299213l18.204742 0l0 46.299213l-18.204742 0z" fill-rule="evenodd"/><path stroke="#000000" stroke-width="2.0" stroke-linejoin="round" stroke-linecap="butt" d="m486.15616 46.299213l18.204742 0l0 46.299213l-18.204742 0z" fill-rule="evenodd"/><path fill="#999999" d="m520.3609 46.299213l18.204712 0l0 46.299213l-18.204712 0z" fill-rule="evenodd"/><path stroke="#000000" stroke-width="2.0" stroke-linejoin="round" stroke-linecap="butt" d="m520.3609 46.299213l18.204712 0l0 46.299213l-18.204712 0z" fill-rule="evenodd"/><path fill="#999999" d="m504.3609 46.299213l15.590515 0l0 46.299213l-15.590515 0z" fill-rule="evenodd"/><path stroke="#000000" stroke-width="2.0" stroke-linejoin="round" stroke-linecap="butt" d="m504.3609 46.299213l15.590515 0l0 46.299213l-15.590515 0z" fill-rule="evenodd"/><path fill="#999999" d="m0 370.3937l9.795276 0l0 46.299194l-9.795276 0z" fill-rule="evenodd"/><path stroke="#000000" stroke-width="2.0" stroke-linejoin="round" stroke-linecap="butt" d="m0 370.3937l9.795276 0l0 46.299194l-9.795276 0z" fill-rule="evenodd"/><path fill="#999999" d="m538.50244 92.59843l9.795288 0l0 46.299217l-9.795288 0z" fill-rule="evenodd"/><path stroke="#000000" stroke-width="2.0" stroke-linejoin="round" stroke-linecap="butt" d="m538.50244 92.59843l9.795288 0l0 46.299217l-9.795288 0z" fill-rule="evenodd"/><path fill="#999999" d="m538.50244 138.89764l9.795288 0l0 46.29921l-9.795288 0z" fill-rule="evenodd"/><path stroke="#000000" stroke-width="2.0" stroke-linejoin="round" stroke-linecap="butt" d="m538.50244 138.89764l9.795288 0l0 46.29921l-9.795288 0z" fill-rule="evenodd"/><path fill="#999999" d="m538.50244 185.19685l9.795288 0l0 46.29921l-9.795288 0z" fill-rule="evenodd"/><path stroke="#000000" stroke-width="2.0" stroke-linejoin="round" stroke-linecap="butt" d="m538.50244 185.19685l9.795288 0l0 46.29921l-9.795288 0z" fill-rule="evenodd"/><path fill="#999999" d="m538.50244 231.49606l9.795288 0l0 46.299225l-9.795288 0z" fill-rule="evenodd"/><path stroke="#000000" stroke-width="2.0" stroke-linejoin="round" stroke-linecap="butt" d="m538.50244 231.49606l9.795288 0l0 46.299225l-9.795288 0z" fill-rule="evenodd"/><path fill="#999999" d="m538.50244 277.7953l9.795288 0l0 46.299194l-9.795288 0z" fill-rule="evenodd"/><path stroke="#000000" stroke-width="2.0" stroke-linejoin="round" stroke-linecap="butt" d="m538.50244 277.7953l9.795288 0l0 46.299194l-9.795288 0z" fill-rule="evenodd"/><path fill="#999999" d="m368.61792 92.59843l9.795288 0l0 46.299217l-9.795288 0z" fill-rule="evenodd"/><path stroke="#000000" stroke-width="2.0" stroke-linejoin="round" stroke-linecap="butt" d="m368.61792 92.59843l9.795288 0l0 46.299217l-9.795288 0z" fill-rule="evenodd"/><path fill="#999999" d="m368.61792 138.89764l9.795288 0l0 46.29921l-9.795288 0z" fill-rule="evenodd"/><path stroke="#000000" stroke-width="2.0" stroke-linejoin="round" stroke-linecap="butt" d="m368.61792 138.89764l9.795288 0l0 46.29921l-9.795288 0z" fill-rule="evenodd"/><path fill="#999999" d="m368.61792 185.19685l9.795288 0l0 46.29921l-9.795288 0z" fill-rule="evenodd"/><path stroke="#000000" stroke-width="2.0" stroke-linejoin="round" stroke-linecap="butt" d="m368.61792 185.19685l9.795288 0l0 46.29921l-9.795288 0z" fill-rule="evenodd"/><path fill="#999999" d="m368.61792 231.49606l9.795288 0l0 46.299225l-9.795288 0z" fill-rule="evenodd"/><path stroke="#000000" stroke-width="2.0" stroke-linejoin="round" stroke-linecap="butt" d="m368.61792 231.49606l9.795288 0l0 46.299225l-9.795288 0z" fill-rule="evenodd"/><path fill="#999999" d="m368.61792 277.7953l9.795288 0l0 46.299194l-9.795288 0z" fill-rule="evenodd"/><path stroke="#000000" stroke-width="2.0" stroke-linejoin="round" stroke-linecap="butt" d="m368.61792 277.7953l9.795288 0l0 46.299194l-9.795288 0z" fill-rule="evenodd"/><path fill="#999999" d="m615.2598 0l9.795288 0l0 46.299213l-9.795288 0z" fill-rule="evenodd"/><path stroke="#000000" stroke-width="2.0" stroke-linejoin="round" stroke-linecap="butt" d="m615.2598 0l9.795288 0l0 46.299213l-9.795288 0z" fill-rule="evenodd"/><path fill="#999999" d="m615.2598 46.299213l9.795288 0l0 46.299213l-9.795288 0z" fill-rule="evenodd"/><path stroke="#000000" stroke-width="2.0" stroke-linejoin="round" stroke-linecap="butt" d="m615.2598 46.299213l9.795288 0l0 46.299213l-9.795288 0z" fill-rule="evenodd"/><path fill="#999999" d="m615.2598 92.59843l9.795288 0l0 46.299217l-9.795288 0z" fill-rule="evenodd"/><path stroke="#000000" stroke-width="2.0" stroke-linejoin="round" stroke-linecap="butt" d="m615.2598 92.59843l9.795288 0l0 46.299217l-9.795288 0z" fill-rule="evenodd"/><path fill="#999999" d="m615.2598 138.89764l9.795288 0l0 46.29921l-9.795288 0z" fill-rule="evenodd"/><path stroke="#000000" stroke-width="2.0" stroke-linejoin="round" stroke-linecap="butt" d="m615.2598 138.89764l9.795288 0l0 46.29921l-9.795288 0z" fill-rule="evenodd"/><path fill="#999999" d="m615.2598 185.19685l9.795288 0l0 46.29921l-9.795288 0z" fill-rule="evenodd"/><path stroke="#000000" stroke-width="2.0" stroke-linejoin="round" stroke-linecap="butt" d="m615.2598 185.19685l9.795288 0l0 46.29921l-9.795288 0z" fill-rule="evenodd"/><path fill="#999999" d="m615.2598 231.49606l9.795288 0l0 46.299225l-9.795288 0z" fill-rule="evenodd"/><path stroke="#000000" stroke-width="2.0" stroke-linejoin="round" stroke-linecap="butt" d="m615.2598 231.49606l9.795288 0l0 46.299225l-9.795288 0z" fill-rule="evenodd"/><path fill="#999999" d="m615.2598 277.7953l9.795288 0l0 46.299194l-9.795288 0z" fill-rule="evenodd"/><path stroke="#000000" stroke-width="2.0" stroke-linejoin="round" stroke-linecap="butt" d="m615.2598 277.7953l9.795288 0l0 46.299194l-9.795288 0z" fill-rule="evenodd"/><path fill="#999999" d="m615.2598 324.09448l9.795288 0l0 46.299225l-9.795288 0z" fill-rule="evenodd"/><path stroke="#000000" stroke-width="2.0" stroke-linejoin="round" stroke-linecap="butt" d="m615.2598 324.09448l9.795288 0l0 46.299225l-9.795288 0z" fill-rule="evenodd"/><path fill="#999999" d="m615.2598 370.3937l9.795288 0l0 46.299194l-9.795288 0z" fill-rule="evenodd"/><path stroke="#000000" stroke-width="2.0" stroke-linejoin="round" stroke-linecap="butt" d="m615.2598 370.3937l9.795288 0l0 46.299194l-9.795288 0z" fill-rule="evenodd"/><path fill="#999999" d="m0 370.3937l9.795276 0l0 46.299194l-9.795276 0z" fill-rule="evenodd"/><path stroke="#000000" stroke-width="2.0" stroke-linejoin="round" stroke-linecap="butt" d="m0 370.3937l9.795276 0l0 46.299194l-9.795276 0z" fill-rule="evenodd"/><path fill="#999999" d="m368.86615 324.09448l9.795258 0l0 46.299225l-9.795258 0z" fill-rule="evenodd"/><path stroke="#000000" stroke-width="2.0" stroke-linejoin="round" stroke-linecap="butt" d="m368.86615 324.09448l9.795258 0l0 46.299225l-9.795258 0z" fill-rule="evenodd"/><path fill="#999999" d="m368.36484 46.299213l9.795258 0l0 46.299213l-9.795258 0z" fill-rule="evenodd"/><path stroke="#000000" stroke-width="2.0" stroke-linejoin="round" stroke-linecap="butt" d="m368.36484 46.299213l9.795258 0l0 46.299213l-9.795258 0z" fill-rule="evenodd"/><path fill="#999999" d="m538.9764 46.299213l9.795288 0l0 46.299213l-9.795288 0z" fill-rule="evenodd"/><path stroke="#000000" stroke-width="2.0" stroke-linejoin="round" stroke-linecap="butt" d="m538.9764 46.299213l9.795288 0l0 46.299213l-9.795288 0z" fill-rule="evenodd"/><path fill="#999999" d="m538.9764 324.09448l9.795288 0l0 46.299225l-9.795288 0z" fill-rule="evenodd"/><path stroke="#000000" stroke-width="2.0" stroke-linejoin="round" stroke-linecap="butt" d="m538.9764 324.09448l9.795288 0l0 46.299225l-9.795288 0z" fill-rule="evenodd"/><path fill="#000000" fill-opacity="0.0" d="m404.11154 0l106.58267 0l0 37.165356l-106.58267 0z" fill-rule="evenodd"/><path fill="#000000" d="m423.93277 17.720625l-1.96875 0.359375q-0.109375 -0.59375 -0.46875 -0.890625q-0.34375 -0.296875 -0.90625 -0.296875q-0.75 0 -1.203125 0.515625q-0.453125 0.515625 -0.453125 1.734375q0 1.359375 0.453125 1.921875q0.453125 0.546875 1.21875 0.546875q0.578125 0 0.9375 -0.328125q0.375 -0.328125 0.515625 -1.109375l1.984375 0.328125q-0.3125 1.359375 -1.1875 2.0625q-0.875 0.6875 -2.328125 0.6875q-1.671875 0 -2.671875 -1.046875q-0.984375 -1.0625 -0.984375 -2.921875q0 -1.875 0.984375 -2.921875q1.0 -1.046875 2.703125 -1.046875q1.390625 0 2.203125 0.59375q0.828125 0.59375 1.171875 1.8125zm1.072998 1.453125q0 -1.0 0.484375 -1.9375q0.5 -0.9375 1.40625 -1.421875q0.90625 -0.5 2.015625 -0.5q1.71875 0 2.828125 1.125q1.109375 1.109375 1.109375 2.8125q0 1.734375 -1.125 2.875q-1.109375 1.125 -2.796875 1.125q-1.046875 0 -2.0 -0.46875q-0.9375 -0.46875 -1.4375 -1.375q-0.484375 -0.921875 -0.484375 -2.234375zm2.046875 0.109375q0 1.125 0.53125 1.734375q0.546875 0.59375 1.34375 0.59375q0.78125 0 1.3125 -0.59375q0.53125 -0.609375 0.53125 -1.75q0 -1.125 -0.53125 -1.71875q-0.53125 -0.609375 -1.3125 -0.609375q-0.796875 0 -1.34375 0.609375q-0.53125 0.59375 -0.53125 1.734375zm9.296356 3.796875l-2.015625 0l0 -7.59375l1.859375 0l0 1.078125q0.484375 -0.765625 0.859375 -1.0q0.390625 -0.25 0.875 -0.25q0.6875 0 1.328125 0.375l-0.625 1.75q-0.5 -0.328125 -0.9375 -0.328125q-0.421875 0 -0.71875 0.234375q-0.296875 0.234375 -0.46875 0.84375q-0.15625 0.609375 -0.15625 2.546875l0 2.34375zm10.688019 0l-2.015625 0l0 -3.875q0 -1.234375 -0.125 -1.59375q-0.125 -0.359375 -0.421875 -0.5625q-0.296875 -0.203125 -0.703125 -0.203125q-0.515625 0 -0.9375 0.296875q-0.40625 0.28125 -0.5625 0.75q-0.15625 0.46875 -0.15625 1.75l0 3.4375l-2.015625 0l0 -7.59375l1.875 0l0 1.109375q1.0 -1.28125 2.5 -1.28125q0.671875 0 1.21875 0.234375q0.546875 0.234375 0.828125 0.609375q0.296875 0.375 0.40625 0.84375q0.109375 0.46875 0.109375 1.359375l0 4.71875zm6.436981 -2.421875l2.0 0.34375q-0.375 1.09375 -1.21875 1.671875q-0.828125 0.578125 -2.078125 0.578125q-1.984375 0 -2.9375 -1.296875q-0.75 -1.03125 -0.75 -2.625q0 -1.875 0.984375 -2.9375q0.984375 -1.078125 2.5 -1.078125q1.6875 0 2.671875 1.125q0.984375 1.109375 0.9375 3.421875l-5.03125 0q0.015625 0.890625 0.484375 1.390625q0.46875 0.5 1.15625 0.5q0.46875 0 0.78125 -0.25q0.328125 -0.265625 0.5 -0.84375zm0.109375 -2.03125q-0.015625 -0.875 -0.453125 -1.328125q-0.421875 -0.453125 -1.03125 -0.453125q-0.671875 0 -1.09375 0.484375q-0.421875 0.46875 -0.421875 1.296875l3.0 0zm5.572998 4.453125l-2.015625 0l0 -7.59375l1.859375 0l0 1.078125q0.484375 -0.765625 0.859375 -1.0q0.390625 -0.25 0.875 -0.25q0.6875 0 1.328125 0.375l-0.625 1.75q-0.5 -0.328125 -0.9375 -0.328125q-0.421875 0 -0.71875 0.234375q-0.296875 0.234375 -0.46875 0.84375q-0.15625 0.609375 -0.15625 2.546875l0 2.34375zm14.463104 -5.359375l-1.96875 0.359375q-0.109375 -0.59375 -0.46875 -0.890625q-0.34375 -0.296875 -0.90625 -0.296875q-0.75 0 -1.203125 0.515625q-0.453125 0.515625 -0.453125 1.734375q0 1.359375 0.453125 1.921875q0.453125 0.546875 1.21875 0.546875q0.578125 0 0.9375 -0.328125q0.375 -0.328125 0.515625 -1.109375l1.984375 0.328125q-0.3125 1.359375 -1.1875 2.0625q-0.875 0.6875 -2.328125 0.6875q-1.671875 0 -2.671875 -1.046875q-0.984375 -1.0625 -0.984375 -2.921875q0 -1.875 0.984375 -2.921875q1.0 -1.046875 2.703125 -1.046875q1.390625 0 2.203125 0.59375q0.828125 0.59375 1.171875 1.8125zm5.9323425 2.9375l2.0 0.34375q-0.375 1.09375 -1.21875 1.671875q-0.828125 0.578125 -2.078125 0.578125q-1.984375 0 -2.9375 -1.296875q-0.75 -1.03125 -0.75 -2.625q0 -1.875 0.984375 -2.9375q0.984375 -1.078125 2.5 -1.078125q1.6875 0 2.671875 1.125q0.984375 1.109375 0.9375 3.421875l-5.03125 0q0.015625 0.890625 0.484375 1.390625q0.46875 0.5 1.15625 0.5q0.46875 0 0.78125 -0.25q0.328125 -0.265625 0.5 -0.84375zm0.109375 -2.03125q-0.015625 -0.875 -0.453125 -1.328125q-0.421875 -0.453125 -1.03125 -0.453125q-0.671875 0 -1.09375 0.484375q-0.421875 0.46875 -0.421875 1.296875l3.0 0zm3.635498 4.453125l0 -10.484375l2.015625 0l0 10.484375l-2.015625 0zm4.0719604 0l0 -10.484375l2.015625 0l0 10.484375l-2.015625 0zm3.368866 -2.171875l2.015625 -0.296875q0.125 0.578125 0.515625 0.890625q0.40625 0.296875 1.109375 0.296875q0.78125 0 1.171875 -0.28125q0.265625 -0.203125 0.265625 -0.546875q0 -0.21875 -0.140625 -0.375q-0.15625 -0.140625 -0.671875 -0.265625q-2.4375 -0.53125 -3.078125 -0.984375q-0.90625 -0.609375 -0.90625 -1.703125q0 -0.984375 0.78125 -1.65625q0.78125 -0.671875 2.421875 -0.671875q1.546875 0 2.3125 0.515625q0.765625 0.5 1.046875 1.484375l-1.90625 0.359375q-0.109375 -0.453125 -0.453125 -0.6875q-0.34375 -0.234375 -0.96875 -0.234375q-0.796875 0 -1.140625 0.21875q-0.234375 0.15625 -0.234375 0.40625q0 0.21875 0.203125 0.375q0.28125 0.203125 1.875 0.5625q1.609375 0.359375 2.25 0.890625q0.625 0.546875 0.625 1.5q0 1.046875 -0.875 1.796875q-0.859375 0.75 -2.578125 0.75q-1.546875 0 -2.453125 -0.625q-0.90625 -0.640625 -1.1875 -1.71875z" fill-rule="nonzero"/><path fill="#000000" fill-opacity="0.0" d="m404.11154 18.582678l-30.834625 27.716536" fill-rule="evenodd"/><path stroke="#000000" stroke-width="1.0" stroke-linejoin="round" stroke-linecap="butt" d="m404.11154 18.582678l-26.372375 23.705519" fill-rule="evenodd"/><path fill="#000000" stroke="#000000" stroke-width="1.0" stroke-linecap="butt" d="m376.63498 41.059788l-2.2708435 4.2621384l4.4792175 -1.8053207z" fill-rule="evenodd"/><path fill="#000000" fill-opacity="0.0" d="m510.6942 18.582678l33.165344 27.716536" fill-rule="evenodd"/><path stroke="#000000" stroke-width="1.0" stroke-linejoin="round" stroke-linecap="butt" d="m510.6942 18.582678l28.561401 23.868982" fill-rule="evenodd"/><path fill="#000000" stroke="#000000" stroke-width="1.0" stroke-linecap="butt" d="m538.1965 43.719074l4.541382 1.6426811l-2.4230347 -4.1775093z" fill-rule="evenodd"/><path fill="#000000" fill-opacity="0.0" d="m405.55774 376.25198l106.5827 0l0 37.165344l-106.5827 0z" fill-rule="evenodd"/><path fill="#000000" d="m425.37897 393.9726l-1.96875 0.359375q-0.109375 -0.59375 -0.46875 -0.890625q-0.34375 -0.296875 -0.90625 -0.296875q-0.75 0 -1.203125 0.515625q-0.453125 0.515625 -0.453125 1.734375q0 1.359375 0.453125 1.921875q0.453125 0.546875 1.21875 0.546875q0.578125 0 0.9375 -0.328125q0.375 -0.328125 0.515625 -1.109375l1.984375 0.328125q-0.3125 1.359375 -1.1875 2.0625q-0.875 0.6875 -2.328125 0.6875q-1.671875 0 -2.671875 -1.046875q-0.984375 -1.0625 -0.984375 -2.921875q0 -1.875 0.984375 -2.921875q1.0 -1.046875 2.703125 -1.046875q1.390625 0 2.203125 0.59375q0.828125 0.59375 1.171875 1.8125zm1.072998 1.453125q0 -1.0 0.484375 -1.9375q0.5 -0.9375 1.40625 -1.421875q0.90625 -0.5 2.015625 -0.5q1.71875 0 2.828125 1.125q1.109375 1.109375 1.109375 2.8125q0 1.734375 -1.125 2.875q-1.109375 1.125 -2.796875 1.125q-1.046875 0 -2.0 -0.46875q-0.9375 -0.46875 -1.4375 -1.375q-0.484375 -0.921875 -0.484375 -2.234375zm2.046875 0.109375q0 1.125 0.53125 1.734375q0.546875 0.59375 1.34375 0.59375q0.78125 0 1.3125 -0.59375q0.53125 -0.609375 0.53125 -1.75q0 -1.125 -0.53125 -1.71875q-0.53125 -0.609375 -1.3125 -0.609375q-0.796875 0 -1.34375 0.609375q-0.53125 0.59375 -0.53125 1.734375zm9.296356 3.796875l-2.015625 0l0 -7.59375l1.859375 0l0 1.078125q0.484375 -0.765625 0.859375 -1.0q0.390625 -0.25 0.875 -0.25q0.6875 0 1.328125 0.375l-0.625 1.75q-0.5 -0.328125 -0.9375 -0.328125q-0.421875 0 -0.71875 0.234375q-0.296875 0.234375 -0.46875 0.84375q-0.15625 0.609375 -0.15625 2.546875l0 2.34375zm10.688019 0l-2.015625 0l0 -3.875q0 -1.234375 -0.125 -1.59375q-0.125 -0.359375 -0.421875 -0.5625q-0.296875 -0.203125 -0.703125 -0.203125q-0.515625 0 -0.9375 0.296875q-0.40625 0.28125 -0.5625 0.75q-0.15625 0.46875 -0.15625 1.75l0 3.4375l-2.015625 0l0 -7.59375l1.875 0l0 1.109375q1.0 -1.28125 2.5 -1.28125q0.671875 0 1.21875 0.234375q0.546875 0.234375 0.828125 0.609375q0.296875 0.375 0.40625 0.84375q0.109375 0.46875 0.109375 1.359375l0 4.71875zm6.436981 -2.421875l2.0 0.34375q-0.375 1.09375 -1.21875 1.671875q-0.828125 0.578125 -2.078125 0.578125q-1.984375 0 -2.9375 -1.296875q-0.75 -1.03125 -0.75 -2.625q0 -1.875 0.984375 -2.9375q0.984375 -1.078125 2.5 -1.078125q1.6875 0 2.671875 1.125q0.984375 1.109375 0.9375 3.421875l-5.03125 0q0.015625 0.890625 0.484375 1.390625q0.46875 0.5 1.15625 0.5q0.46875 0 0.78125 -0.25q0.328125 -0.265625 0.5 -0.84375zm0.109375 -2.03125q-0.015625 -0.875 -0.453125 -1.328125q-0.421875 -0.453125 -1.03125 -0.453125q-0.671875 0 -1.09375 0.484375q-0.421875 0.46875 -0.421875 1.296875l3.0 0zm5.572998 4.453125l-2.015625 0l0 -7.59375l1.859375 0l0 1.078125q0.484375 -0.765625 0.859375 -1.0q0.390625 -0.25 0.875 -0.25q0.6875 0 1.328125 0.375l-0.625 1.75q-0.5 -0.328125 -0.9375 -0.328125q-0.421875 0 -0.71875 0.234375q-0.296875 0.234375 -0.46875 0.84375q-0.15625 0.609375 -0.15625 2.546875l0 2.34375zm14.463104 -5.359375l-1.96875 0.359375q-0.109375 -0.59375 -0.46875 -0.890625q-0.34375 -0.296875 -0.90625 -0.296875q-0.75 0 -1.203125 0.515625q-0.453125 0.515625 -0.453125 1.734375q0 1.359375 0.453125 1.921875q0.453125 0.546875 1.21875 0.546875q0.578125 0 0.9375 -0.328125q0.375 -0.328125 0.515625 -1.109375l1.984375 0.328125q-0.3125 1.359375 -1.1875 2.0625q-0.875 0.6875 -2.328125 0.6875q-1.671875 0 -2.671875 -1.046875q-0.984375 -1.0625 -0.984375 -2.921875q0 -1.875 0.984375 -2.921875q1.0 -1.046875 2.703125 -1.046875q1.390625 0 2.203125 0.59375q0.828125 0.59375 1.171875 1.8125zm5.9323425 2.9375l2.0 0.34375q-0.375 1.09375 -1.21875 1.671875q-0.828125 0.578125 -2.078125 0.578125q-1.984375 0 -2.9375 -1.296875q-0.75 -1.03125 -0.75 -2.625q0 -1.875 0.984375 -2.9375q0.984375 -1.078125 2.5 -1.078125q1.6875 0 2.671875 1.125q0.984375 1.109375 0.9375 3.421875l-5.03125 0q0.015625 0.890625 0.484375 1.390625q0.46875 0.5 1.15625 0.5q0.46875 0 0.78125 -0.25q0.328125 -0.265625 0.5 -0.84375zm0.109375 -2.03125q-0.015625 -0.875 -0.453125 -1.328125q-0.421875 -0.453125 -1.03125 -0.453125q-0.671875 0 -1.09375 0.484375q-0.421875 0.46875 -0.421875 1.296875l3.0 0zm3.635498 4.453125l0 -10.484375l2.015625 0l0 10.484375l-2.015625 0zm4.0719604 0l0 -10.484375l2.015625 0l0 10.484375l-2.015625 0zm3.368866 -2.171875l2.015625 -0.296875q0.125 0.578125 0.515625 0.890625q0.40625 0.296875 1.109375 0.296875q0.78125 0 1.171875 -0.28125q0.265625 -0.203125 0.265625 -0.546875q0 -0.21875 -0.140625 -0.375q-0.15625 -0.140625 -0.671875 -0.265625q-2.4375 -0.53125 -3.078125 -0.984375q-0.90625 -0.609375 -0.90625 -1.703125q0 -0.984375 0.78125 -1.65625q0.78125 -0.671875 2.421875 -0.671875q1.546875 0 2.3125 0.515625q0.765625 0.5 1.046875 1.484375l-1.90625 0.359375q-0.109375 -0.453125 -0.453125 -0.6875q-0.34375 -0.234375 -0.96875 -0.234375q-0.796875 0 -1.140625 0.21875q-0.234375 0.15625 -0.234375 0.40625q0 0.21875 0.203125 0.375q0.28125 0.203125 1.875 0.5625q1.609375 0.359375 2.25 0.890625q0.625 0.546875 0.625 1.5q0 1.046875 -0.875 1.796875q-0.859375 0.75 -2.578125 0.75q-1.546875 0 -2.453125 -0.625q-0.90625 -0.640625 -1.1875 -1.71875z" fill-rule="nonzero"/><path fill="#000000" fill-opacity="0.0" d="m405.55774 394.83466l-31.77951 -24.440948" fill-rule="evenodd"/><path stroke="#000000" stroke-width="1.0" stroke-linejoin="round" stroke-linecap="butt" d="m405.55774 394.83466l-27.023407 -20.783142" fill-rule="evenodd"/><path fill="#000000" stroke="#000000" stroke-width="1.0" stroke-linecap="butt" d="m379.54126 372.74222l-4.6042175 -1.4573059l2.5903015 4.075897z" fill-rule="evenodd"/><path fill="#000000" fill-opacity="0.0" d="m512.14044 394.83466l31.747986 -24.440948" fill-rule="evenodd"/><path stroke="#000000" stroke-width="1.0" stroke-linejoin="round" stroke-linecap="butt" d="m512.14044 394.83466l26.993652 -20.780853" fill-rule="evenodd"/><path fill="#000000" stroke="#000000" stroke-width="1.0" stroke-linecap="butt" d="m540.14166 375.3626l2.588379 -4.077118l-4.6035156 1.4594727z" fill-rule="evenodd"/></g></svg>