<?xml version="1.0" standalone="no"?>
<!DOCTYPE svg PUBLIC "-//W3C//DTD SVG 20010904//EN"
 "http://www.w3.org/TR/2001/REC-SVG-20010904/DTD/svg10.dtd">
<svg version="1.0" xmlns="http://www.w3.org/2000/svg"
 width="1706.000000pt" height="920.000000pt" viewBox="0 0 1706.000000 920.000000"
 preserveAspectRatio="xMidYMid meet">

<g transform="translate(0.000000,920.000000) scale(0.100000,-0.100000)"
fill="#000000" stroke="none">
<path d="M3905 9123 c-152 -14 -381 -81 -525 -153 -365 -183 -639 -498 -767
-878 -79 -236 -76 -203 -80 -999 l-4 -713 -215 0 -214 0 0 148 c0 209 -21 274
-114 360 -102 94 -79 92 -866 92 -719 0 -736 -1 -814 -49 -38 -24 -107 -96
-126 -132 -41 -75 -40 -31 -40 -2309 0 -2344 -2 -2241 49 -2324 24 -38 96
-107 132 -126 70 -38 107 -40 799 -40 692 0 729 2 799 40 36 19 108 88 132
126 49 80 49 72 49 1128 l0 989 137 -6 c75 -4 171 -7 214 -7 l78 0 4 -1447 c3
-1425 3 -1449 24 -1538 29 -128 85 -290 132 -384 23 -44 41 -83 41 -86 0 -3
-83 -5 -184 -5 l-184 0 -4 99 c-3 107 -13 132 -72 175 -27 21 -33 21 -1076 21
-1043 0 -1049 0 -1076 -21 -15 -11 -37 -33 -48 -48 -20 -26 -21 -40 -21 -366
0 -326 1 -340 21 -366 11 -15 33 -37 48 -48 27 -21 33 -21 1076 -21 1043 0
1049 0 1076 21 58 43 69 68 72 170 l4 94 293 0 293 0 94 -81 c217 -188 461
-308 744 -366 85 -17 332 -18 5984 -18 5652 0 5899 1 5984 18 638 130 1103
595 1233 1233 17 85 18 239 18 3284 0 3045 -1 3199 -18 3284 -99 486 -395 879
-825 1095 -96 48 -256 104 -387 135 l-90 21 -5870 1 c-3228 0 -5888 -1 -5910
-3z m11870 -61 c316 -73 568 -212 776 -428 203 -212 325 -444 391 -744 l23
-105 0 -3195 0 -3195 -23 -105 c-66 -300 -188 -532 -391 -744 -210 -218 -466
-359 -781 -428 l-105 -23 -5895 0 -5895 0 -105 23 c-183 40 -331 98 -485 190
-66 39 -209 147 -239 181 l-19 21 545 0 546 0 4 -89 c3 -101 19 -133 79 -163
32 -17 337 -18 5949 -18 5612 0 5917 1 5949 18 19 9 44 30 55 45 20 27 21 41
21 332 0 291 -1 305 -21 332 -11 15 -36 36 -55 45 -32 17 -337 18 -5949 18
-5612 0 -5917 -1 -5949 -18 -54 -27 -74 -63 -79 -137 l-4 -65 -668 0 -668 0
-50 98 c-58 114 -102 238 -133 377 l-23 100 -3 1443 -4 1442 51 0 50 0 0 -72
0 -73 147 148 148 147 -148 147 -147 148 0 -73 0 -72 -50 0 -50 0 0 865 0 865
910 0 910 0 0 -33 c0 -19 3 -36 6 -40 4 -3 51 16 105 44 l99 49 0 -398 0 -399
-585 -489 c-322 -269 -585 -493 -585 -499 0 -5 263 -230 585 -499 l585 -489 0
-874 c0 -869 0 -873 20 -873 11 0 74 -27 140 -60 l120 -60 0 40 0 40 3330 0
3330 0 0 -235 0 -235 -35 0 c-19 0 -35 -5 -35 -10 0 -6 27 -61 59 -122 l60
-112 55 118 c31 65 56 120 56 122 0 2 -18 4 -40 4 l-40 0 0 243 c0 133 -3 340
-7 459 l-6 218 2284 0 c2155 0 2286 1 2318 18 19 9 44 30 55 45 20 27 21 41
21 332 0 291 -1 305 -21 332 -11 15 -36 36 -55 45 -32 17 -164 18 -2343 18
-1842 0 -2307 3 -2303 12 3 7 26 57 51 111 l45 97 -39 0 -40 0 0 85 0 85 2293
0 c2162 0 2294 1 2326 18 19 9 44 30 55 45 20 27 21 41 21 332 0 291 -1 305
-21 332 -11 15 -36 36 -55 45 -32 17 -122 18 -1466 18 -788 0 -1433 2 -1433 5
0 3 25 55 55 115 l55 110 -40 0 c-39 0 -40 1 -40 35 l0 35 1268 2 1267 3 75
23 c135 42 225 97 330 202 108 108 162 199 202 335 l23 80 0 1625 0 1625 -23
80 c-40 136 -94 227 -202 335 -108 108 -199 162 -335 202 l-80 23 -4620 0
-4620 0 -80 -23 c-133 -39 -228 -95 -331 -197 -59 -58 -104 -114 -128 -157
l-38 -68 -88 0 -88 0 -4 114 c-3 129 -15 156 -79 188 -32 17 -110 18 -1199 18
-1089 0 -1167 -1 -1199 -18 -19 -9 -44 -30 -55 -45 -20 -27 -21 -41 -21 -332
0 -291 1 -305 21 -332 48 -65 26 -63 697 -63 l607 0 -55 -110 -55 -110 40 0
40 0 0 -760 0 -760 -100 50 c-55 27 -102 50 -105 50 -3 0 -5 -18 -5 -40 l0
-40 -911 0 -910 0 4 708 c3 689 4 709 26 807 67 298 189 529 390 739 236 245
550 402 891 445 36 5 2704 8 5930 7 l5865 -1 100 -23z m140 -105 c33 -10 98
-37 145 -60 70 -34 102 -58 181 -136 78 -79 102 -111 136 -181 85 -173 78 -12
78 -1830 0 -1818 7 -1657 -78 -1830 -34 -70 -58 -102 -136 -181 -79 -78 -111
-102 -181 -136 -171 -84 -50 -77 -1467 -80 l-1263 -4 0 176 0 175 1423 0
c1401 0 1422 0 1455 20 18 11 41 34 52 52 19 31 20 51 20 323 0 272 -1 292
-20 323 -11 18 -34 41 -52 52 -33 20 -57 20 -2918 20 -2861 0 -2885 0 -2918
-20 -63 -39 -72 -67 -72 -232 0 -82 -2 -148 -5 -148 -3 0 -50 23 -105 50
l-100 50 0 -40 0 -40 -522 0 -523 1 -275 222 -275 223 -3 97 -3 97 1298 0
c1216 0 1300 1 1332 18 66 33 76 57 79 208 2 74 6 134 9 134 3 0 52 -25 109
-56 l104 -55 0 39 0 39 918 7 c505 4 925 4 933 1 10 -4 30 27 72 110 l57 115
-40 0 -40 0 0 310 0 310 -40 0 -40 0 0 -310 0 -310 -40 0 -40 0 35 -70 35 -70
-582 0 c-321 0 -728 -3 -905 -7 l-323 -6 0 41 c0 23 -3 42 -6 42 -4 0 -32 -15
-63 -34 -57 -35 -136 -76 -145 -76 -3 0 -6 74 -8 164 -3 184 -10 203 -79 238
-32 17 -116 18 -1341 18 -720 0 -1308 2 -1308 5 0 3 23 50 50 105 l50 100 -40
0 -41 0 3 49 3 50 273 219 272 219 333 6 c182 4 486 10 675 14 l342 6 0 -36
c0 -21 3 -37 8 -37 4 0 49 23 101 50 51 28 95 50 97 50 2 0 4 -66 4 -146 0
-168 12 -205 80 -243 l38 -21 2722 0 2722 0 38 21 c21 12 47 38 59 59 20 36
21 51 21 345 0 294 -1 309 -21 345 -12 21 -38 47 -59 59 l-38 21 -2722 0
-2722 0 -38 -21 c-67 -38 -80 -76 -80 -238 0 -77 -2 -141 -4 -141 -3 0 -48 20
-102 45 -53 25 -101 45 -106 45 -6 0 -8 -15 -6 -34 l4 -35 -81 -5 c-44 -3
-345 -10 -668 -16 -474 -8 -591 -8 -606 2 -10 7 -136 108 -279 223 l-262 210
0 58 0 57 3673 0 c3476 0 3674 1 3706 18 19 9 44 30 55 45 20 27 21 41 21 337
0 296 -1 310 -21 337 -11 15 -36 36 -55 45 -32 17 -276 18 -4664 18 -4388 0
-4632 -1 -4664 -18 -67 -34 -76 -57 -79 -213 -2 -76 -6 -139 -8 -139 -2 0 -49
23 -104 50 -55 28 -104 50 -110 50 -5 0 -10 -16 -10 -35 l0 -35 -71 0 c-82 0
-81 -2 -24 85 49 74 170 186 246 228 73 40 165 73 241 86 30 5 2037 8 4643 7
4385 -1 4593 -2 4650 -19z m-38 -120 l28 -27 0 -300 0 -300 -28 -27 -27 -28
-4645 0 -4645 0 -27 28 -28 27 0 299 c0 285 1 300 20 321 11 12 29 26 40 31
11 4 2105 7 4652 6 l4633 -2 27 -28z m-10090 -20 l28 -27 0 -295 0 -295 -28
-27 -27 -28 -1180 0 -1180 0 -27 28 -28 27 0 294 c0 280 1 295 20 316 11 12
29 26 40 31 11 4 545 7 1187 6 l1168 -2 27 -28z m675 -461 c3 -173 11 -194 79
-228 32 -17 98 -18 952 -18 l918 0 -3 -59 -3 -60 -290 -233 c-159 -128 -290
-240 -290 -248 0 -8 131 -120 290 -248 l290 -233 3 -50 3 -49 -41 0 -40 0 50
-100 c27 -55 50 -102 50 -105 0 -3 -352 -5 -782 -5 -726 0 -786 -1 -817 -18
-19 -9 -44 -30 -55 -45 -20 -27 -21 -41 -21 -337 0 -296 1 -310 21 -337 11
-15 36 -36 55 -45 31 -17 91 -18 807 -18 l772 0 0 -99 0 -100 -295 -237 c-162
-131 -295 -243 -295 -249 0 -6 133 -118 295 -249 l295 -237 0 -115 0 -115
-897 4 c-1007 3 -936 -2 -1103 80 -70 34 -102 58 -181 136 -78 79 -102 111
-136 181 -84 172 -77 10 -81 1785 -3 1547 -1 1643 28 1748 10 34 14 37 48 37
20 0 61 -3 90 -6 51 -7 52 -7 52 -40 0 -21 5 -34 13 -33 6 0 55 22 107 49 52
27 98 49 102 49 4 1 8 -68 10 -153z m-462 122 c0 -6 -7 -45 -15 -87 -14 -67
-15 -273 -13 -1676 l3 -1600 23 -75 c42 -135 97 -225 202 -330 105 -105 195
-160 330 -202 l75 -23 903 -3 c701 -2 902 -5 902 -15 0 -7 3 -29 6 -49 l7 -38
-42 0 c-22 0 -41 -2 -41 -5 0 -3 20 -46 45 -95 25 -49 45 -92 45 -95 0 -3
-343 -5 -762 -5 -707 0 -766 -1 -797 -18 -19 -9 -44 -30 -55 -45 -20 -27 -21
-41 -21 -332 0 -291 1 -305 21 -332 11 -15 36 -36 55 -45 32 -17 164 -18 2332
-18 l2297 0 0 -85 0 -85 -40 0 -40 0 55 -110 55 -110 -2307 0 c-2178 0 -2310
-1 -2342 -18 -19 -9 -44 -30 -55 -45 -20 -27 -21 -41 -21 -332 0 -291 1 -305
21 -332 11 -15 36 -36 55 -45 32 -17 164 -18 2342 -18 l2307 0 0 -162 c0 -90
3 -173 6 -186 l6 -22 -3331 0 -3331 0 0 40 0 40 -100 -50 -100 -50 0 863 0
864 585 489 c322 269 585 494 585 499 0 6 -263 230 -585 499 l-585 489 0 1179
0 1178 40 0 40 0 -55 110 -55 110 547 0 c604 0 590 -1 637 63 19 25 21 45 24
178 l3 149 70 0 c45 0 69 -4 69 -12z m2733 -734 c155 -125 282 -230 282 -234
0 -4 -127 -110 -282 -234 l-283 -227 -282 227 c-156 124 -283 230 -283 234 0
6 554 458 563 460 2 0 130 -102 285 -226z m7469 138 l33 -32 0 -315 0 -315
-33 -32 -32 -33 -2730 0 -2730 0 -32 33 -33 32 0 314 0 314 25 27 c14 15 34
31 45 35 11 5 1243 8 2737 7 l2718 -2 32 -33z m-14321 -968 c60 -28 125 -93
152 -153 19 -40 22 -68 25 -213 l4 -168 -141 0 -140 0 -3 128 -3 127 -665 0
-665 0 0 -300 0 -300 665 0 665 0 3 133 3 132 139 0 140 0 0 -865 0 -865 -100
0 -100 0 0 -150 0 -150 100 0 100 0 -2 -1002 c-3 -1002 -3 -1003 -24 -1049
-28 -60 -93 -125 -153 -153 -46 -21 -51 -21 -761 -21 -710 0 -715 0 -761 21
-60 28 -125 93 -153 153 l-21 46 -3 2195 c-2 1576 0 2210 8 2247 21 98 96 181
195 215 46 16 106 17 750 15 693 -2 700 -2 746 -23z m9246 -267 l28 -27 0
-300 0 -300 -28 -27 -27 -28 -2125 0 -2125 0 -27 28 -28 27 0 299 c0 285 1
300 20 321 11 12 29 26 40 31 11 4 971 7 2132 6 l2113 -2 27 -28z m-9387 -312
l0 -265 -630 0 -630 0 0 265 0 265 630 0 630 0 0 -265z m790 -905 l0 -870 -78
0 c-44 0 -140 3 -215 7 l-137 6 0 864 0 863 215 0 215 0 0 -870z m6222 32
c153 -123 278 -225 278 -227 0 -8 -565 -458 -575 -458 -6 0 -138 102 -294 228
-272 219 -282 228 -264 245 69 67 558 448 567 443 6 -4 136 -108 288 -231z
m7455 125 l28 -27 0 -295 0 -295 -28 -27 -27 -28 -2890 0 -2890 0 -27 28 -28
27 0 294 c0 280 1 295 20 316 11 12 29 26 40 31 11 4 1315 7 2897 6 l2878 -2
27 -28z m-10987 -571 l572 -478 -28 -28 c-16 -15 -275 -233 -576 -484 l-548
-457 -547 457 c-302 251 -561 469 -577 484 l-28 28 573 480 c316 264 577 480
580 479 4 -1 264 -217 579 -481z m5080 82 c0 -138 11 -171 72 -208 33 -20 54
-20 1456 -20 l1422 0 0 -175 0 -175 -2375 0 -2375 0 0 114 0 115 280 225 280
226 515 0 515 0 0 -40 0 -40 98 49 c53 28 100 50 105 50 4 1 7 -54 7 -121z
m2950 -653 c0 -34 -1 -35 -40 -35 l-40 0 55 -110 c30 -60 55 -112 55 -115 0
-3 -1080 -5 -2400 -5 l-2400 0 45 90 c25 49 45 94 45 100 0 5 -16 10 -35 10
l-35 0 0 50 0 50 2375 0 2375 0 0 -35z m2957 -338 l28 -27 0 -295 0 -295 -28
-27 -27 -28 -4645 0 -4645 0 -27 28 -28 27 0 294 c0 280 1 295 20 316 11 12
29 26 40 31 11 4 2105 7 4652 6 l4633 -2 27 -28z m10 -1180 l28 -27 0 -295 0
-295 -28 -27 -27 -28 -4645 0 -4645 0 -27 28 -28 27 0 294 c0 280 1 295 20
316 11 12 29 26 40 31 11 4 2105 7 4652 6 l4633 -2 27 -28z m-13935 -1895 c32
-31 33 -35 36 -127 l4 -95 -136 0 -136 0 0 72 0 73 -130 -130 -129 -129 -3
144 -3 145 -660 0 -660 0 0 -300 0 -300 660 0 660 0 3 120 3 119 129 -129 130
-130 0 73 0 72 136 0 136 0 -3 -85 c-4 -80 -6 -86 -37 -117 l-32 -33 -1040 0
-1040 0 -32 33 -33 32 0 329 0 329 25 27 c14 15 34 31 45 36 11 4 482 7 1047
6 l1028 -2 32 -33z m13825 -75 l28 -27 0 -295 0 -295 -28 -27 -27 -28 -5930 0
-5930 0 -27 28 -28 27 0 294 c0 280 1 295 20 316 11 12 29 26 40 31 11 4 2683
7 5937 6 l5918 -2 27 -28z m-14357 -272 l0 -265 -625 0 -625 0 0 265 0 265
625 0 625 0 0 -265z"/>
<path d="M2832 6694 c-33 -23 -29 -68 8 -96 23 -16 30 -29 28 -48 -4 -30 -46
-41 -60 -16 -12 22 -25 20 -31 -3 -9 -37 74 -44 117 -10 36 28 33 56 -11 101
-30 31 -34 40 -23 53 16 19 46 19 54 0 9 -24 26 -17 26 10 0 23 -4 25 -43 25
-23 0 -53 -7 -65 -16z"/>
<path d="M3662 6694 c-33 -23 -29 -68 8 -96 23 -16 30 -29 28 -48 -4 -30 -46
-41 -60 -16 -12 22 -25 20 -31 -3 -9 -37 74 -44 117 -10 36 28 33 56 -11 101
-30 31 -34 40 -23 53 16 19 46 19 54 0 9 -24 26 -17 26 10 0 23 -4 25 -43 25
-23 0 -53 -7 -65 -16z"/>
<path d="M3220 6620 c0 -6 38 -10 95 -10 57 0 95 4 95 10 0 6 -38 10 -95 10
-57 0 -95 -4 -95 -10z"/>
<path d="M3830 6584 c0 -9 5 -14 12 -12 18 6 21 28 4 28 -9 0 -16 -7 -16 -16z"/>
<path d="M4066 6585 c-3 -9 0 -15 8 -15 8 0 16 7 20 15 3 9 0 15 -8 15 -8 0
-16 -7 -20 -15z"/>
<path d="M2987 6572 c-10 -11 -17 -35 -17 -60 0 -63 41 -91 85 -58 22 16 26
96 5 120 -17 21 -53 20 -73 -2z m51 -52 c3 -56 -11 -87 -28 -60 -11 17 -13 80
-4 105 12 31 29 8 32 -45z"/>
<path d="M4138 6559 c-10 -10 -14 -19 -8 -19 5 0 7 -21 3 -50 -5 -41 -3 -50
10 -50 22 0 47 11 47 21 0 4 -7 6 -15 3 -10 -4 -15 0 -15 12 0 37 13 64 29 65
10 0 11 2 4 6 -7 2 -13 11 -13 19 0 19 -22 16 -42 -7z"/>
<path d="M3220 6560 c0 -6 38 -10 95 -10 57 0 95 4 95 10 0 6 -38 10 -95 10
-57 0 -95 -4 -95 -10z"/>
<path d="M3811 6538 c2 -7 -1 -28 -5 -46 -5 -21 -4 -38 2 -44 11 -11 52 -2 52
12 0 5 -7 7 -16 3 -12 -5 -15 -2 -11 13 20 66 20 74 -2 74 -12 0 -21 -6 -20
-12z"/>
<path d="M3893 6543 c-7 -2 -13 -9 -13 -14 0 -4 7 -6 15 -3 12 5 12 0 5 -28
-13 -45 -12 -58 4 -58 8 0 17 14 21 33 15 68 48 78 38 12 -5 -40 -4 -45 14
-45 11 0 27 8 34 17 12 15 12 16 -4 10 -17 -6 -18 -3 -12 33 8 45 -8 60 -44
40 -14 -7 -21 -7 -21 0 0 10 -16 12 -37 3z"/>
<path d="M4045 6498 c0 -57 19 -75 45 -43 11 13 10 14 -5 9 -18 -7 -18 4 1 69
4 13 0 17 -18 17 -21 0 -23 -4 -23 -52z"/>
<path d="M12498 3359 c-11 -6 -20 -28 -24 -60 -6 -45 -10 -51 -35 -56 -19 -3
-29 -12 -29 -23 0 -11 10 -20 29 -23 25 -5 29 -11 35 -56 7 -56 24 -71 75 -71
21 0 31 5 31 15 0 8 -8 15 -18 15 -27 0 -42 20 -42 56 0 23 -7 38 -22 48 l-22
16 22 16 c15 10 22 25 22 48 0 36 15 56 42 56 10 0 18 7 18 15 0 18 -55 20
-82 4z"/>
<path d="M14240 3355 c0 -9 9 -15 24 -15 25 0 36 -16 36 -56 0 -13 9 -33 20
-44 l20 -20 -20 -20 c-11 -11 -20 -31 -20 -44 0 -40 -11 -56 -36 -56 -15 0
-24 -6 -24 -15 0 -10 11 -15 35 -15 45 0 75 29 75 73 0 37 15 57 42 57 11 0
18 7 18 20 0 13 -7 20 -18 20 -27 0 -42 20 -42 57 0 44 -30 73 -75 73 -24 0
-35 -5 -35 -15z"/>
<path d="M12762 3324 c-33 -23 -29 -68 8 -96 23 -16 30 -29 28 -48 -4 -30 -46
-41 -60 -16 -12 22 -25 20 -31 -3 -9 -37 74 -44 117 -10 36 28 33 56 -11 101
-30 31 -34 40 -23 53 16 19 46 19 54 0 9 -24 26 -17 26 10 0 23 -4 25 -43 25
-23 0 -53 -7 -65 -16z"/>
<path d="M13352 3324 c-33 -23 -29 -68 8 -96 23 -16 30 -29 28 -48 -4 -30 -46
-41 -60 -16 -12 22 -25 20 -31 -3 -9 -37 74 -44 117 -10 36 28 33 56 -11 101
-30 31 -34 40 -23 53 16 19 46 19 54 0 9 -24 26 -17 26 10 0 23 -4 25 -43 25
-23 0 -53 -7 -65 -16z"/>
<path d="M12896 3204 c-10 -26 -7 -28 14 -9 11 10 22 16 25 13 8 -7 -15 -110
-27 -125 -8 -10 -3 -13 21 -13 19 0 30 4 26 10 -11 17 16 130 31 130 8 0 14
-7 14 -16 0 -8 5 -12 10 -9 6 3 10 13 10 21 0 21 -116 20 -124 -2z"/>
<path d="M13490 3198 c1 -21 2 -21 11 -5 31 53 35 -32 4 -95 -13 -27 -13 -28
15 -28 19 0 28 4 25 13 -7 20 19 120 33 125 6 2 12 -3 12 -12 0 -9 5 -16 10
-16 6 0 10 9 10 20 0 18 -7 20 -60 20 -56 0 -60 -2 -60 -22z"/>
<path d="M13190 3146 c0 -13 -3 -33 -6 -43 -4 -14 -1 -13 15 6 24 27 28 61 6
61 -9 0 -15 -9 -15 -24z"/>
<path d="M13784 3153 c0 -10 -4 -29 -9 -43 -8 -25 -8 -25 14 -6 23 21 29 66 8
66 -7 0 -13 -8 -13 -17z"/>
<path d="M13920 3150 c0 -11 7 -20 15 -20 8 0 15 9 15 20 0 11 -7 20 -15 20
-8 0 -15 -9 -15 -20z"/>
<path d="M14000 3150 c0 -11 7 -20 15 -20 8 0 15 9 15 20 0 11 -7 20 -15 20
-8 0 -15 -9 -15 -20z"/>
<path d="M14080 3150 c0 -11 5 -20 10 -20 6 0 10 9 10 20 0 11 -4 20 -10 20
-5 0 -10 -9 -10 -20z"/>
<path d="M13056 3128 c-32 -45 -11 -108 34 -108 24 0 40 29 40 72 0 58 -44 79
-74 36z m47 -15 c7 -37 -3 -85 -17 -80 -12 4 -21 70 -12 93 9 23 23 16 29 -13z"/>
<path d="M13659 3130 c-17 -14 -19 -18 -6 -14 14 5 17 0 17 -39 0 -35 -4 -47
-17 -50 -10 -3 2 -5 27 -5 25 0 39 2 33 5 -9 3 -13 26 -13 64 0 32 -4 59 -9
59 -5 0 -19 -9 -32 -20z"/>
<path d="M11817 1652 c-10 -10 -17 -34 -17 -53 0 -39 -15 -59 -42 -59 -11 0
-18 -7 -18 -20 0 -13 7 -20 18 -20 28 0 42 -20 42 -60 0 -45 25 -70 68 -70 37
0 45 27 10 32 -19 2 -24 11 -29 46 -3 25 -13 48 -25 57 -19 15 -19 15 0 30 12
9 22 32 25 57 5 35 10 44 29 46 12 2 22 10 22 18 0 21 -63 18 -83 -4z"/>
<path d="M13920 1655 c0 -9 9 -15 24 -15 25 0 36 -16 36 -56 0 -13 9 -33 20
-44 l20 -20 -20 -20 c-11 -11 -20 -31 -20 -44 0 -40 -11 -56 -36 -56 -15 0
-24 -6 -24 -15 0 -10 11 -15 35 -15 45 0 75 29 75 73 0 37 15 57 42 57 11 0
18 7 18 20 0 13 -7 20 -18 20 -27 0 -42 20 -42 57 0 44 -30 73 -75 73 -24 0
-35 -5 -35 -15z"/>
<path d="M12176 1619 c-36 -28 -33 -54 12 -94 31 -29 35 -38 26 -52 -16 -25
-45 -28 -61 -7 -16 21 -39 5 -30 -20 8 -21 85 -21 115 0 34 24 30 77 -9 104
-20 15 -29 29 -27 43 4 28 38 34 55 11 16 -21 39 -5 30 20 -9 24 -78 21 -111
-5z"/>
<path d="M12636 1619 c-36 -28 -33 -54 12 -94 31 -29 35 -38 26 -52 -16 -25
-45 -28 -61 -7 -16 21 -39 5 -30 -20 8 -21 85 -21 115 0 34 24 30 77 -9 104
-20 15 -29 29 -27 43 4 28 38 34 55 11 16 -21 39 -5 30 20 -9 24 -78 21 -111
-5z"/>
<path d="M13512 1624 c-33 -23 -29 -68 8 -96 23 -16 30 -29 28 -48 -4 -30 -46
-41 -60 -16 -12 22 -25 20 -31 -3 -9 -37 74 -44 117 -10 36 28 33 56 -11 101
-30 31 -34 40 -23 53 16 19 46 19 54 0 9 -24 26 -17 26 10 0 23 -4 25 -43 25
-23 0 -53 -7 -65 -16z"/>
<path d="M4152 1541 c-54 -34 -68 -98 -31 -145 12 -15 47 -39 77 -54 69 -34
83 -53 58 -81 -31 -34 -126 -23 -126 14 0 10 -11 15 -35 15 -30 0 -35 -3 -35
-22 2 -99 217 -121 265 -27 38 73 12 119 -93 168 -58 27 -75 57 -46 78 29 21
72 16 99 -13 17 -18 32 -25 52 -22 36 4 33 31 -7 72 -39 40 -128 48 -178 17z"/>
<path d="M3557 1378 c-20 -95 -37 -176 -37 -180 0 -5 16 -8 35 -8 31 0 35 3
44 38 6 20 11 45 11 54 0 9 17 30 37 47 l38 31 42 -85 43 -85 40 0 c22 0 40 2
40 4 0 1 -25 49 -55 104 -30 56 -55 105 -54 109 0 4 34 37 76 73 l75 65 -47 3
c-45 3 -48 2 -122 -68 -41 -39 -77 -69 -80 -67 -2 3 0 22 5 43 25 100 26 94
-15 94 l-38 0 -38 -172z"/>
<path d="M5325 1538 c-5 -16 -75 -335 -75 -343 0 -4 17 -5 38 -3 l37 3 14 68
14 67 59 0 c104 0 154 36 165 119 5 35 2 44 -25 71 -30 29 -33 30 -127 30 -68
0 -97 -4 -100 -12z m170 -88 c0 -41 -28 -60 -88 -60 -38 0 -39 0 -32 33 14 70
13 68 68 65 l52 -3 0 -35z"/>
<path d="M6167 1517 c-20 -12 -40 -32 -44 -45 -5 -22 -9 -23 -52 -17 -38 5
-50 3 -68 -15 -18 -16 -23 -18 -23 -5 0 10 -10 15 -33 15 l-32 0 -23 -107
c-13 -60 -26 -118 -29 -130 -5 -21 -1 -23 30 -23 l35 0 17 71 c25 110 44 139
94 139 10 0 23 10 30 23 l12 22 -5 -22 c-3 -17 1 -23 14 -23 16 0 17 -5 8 -42
-26 -117 -27 -129 -7 -149 12 -12 33 -19 58 -19 33 0 39 3 43 25 4 21 1 25
-18 25 -30 0 -30 1 1 138 3 13 13 22 24 22 17 0 31 18 31 41 0 5 -9 9 -21 9
-15 0 -19 5 -16 18 10 34 17 72 15 72 -2 -1 -20 -11 -41 -23z"/>
<path d="M13692 1500 c-15 -16 -52 -147 -52 -183 0 -19 29 -4 34 18 4 16 13
25 27 25 34 0 59 19 59 45 0 13 -5 27 -11 30 -6 5 -3 13 10 22 25 17 28 48 5
57 -29 11 -53 6 -72 -14z m55 -7 c4 -10 -2 -23 -16 -34 -12 -10 -17 -20 -11
-24 13 -8 13 -52 0 -60 -6 -4 -17 -4 -25 -2 -11 5 -11 15 2 64 8 32 17 61 20
66 8 12 23 8 30 -10z"/>
<path d="M12348 1494 c-32 -17 -35 -22 -10 -20 25 2 31 -83 6 -101 -15 -11
-11 -13 32 -13 38 1 45 3 32 11 -14 8 -18 24 -18 74 0 36 -3 65 -7 65 -5 -1
-20 -8 -35 -16z"/>
<path d="M12793 1504 c-13 -6 -18 -34 -7 -34 4 0 12 7 19 17 14 19 35 10 35
-15 0 -9 -16 -37 -36 -62 l-36 -45 42 -3 c51 -4 70 2 70 22 0 11 -9 13 -37 9
l-38 -6 33 36 c43 45 42 81 -3 84 -16 1 -36 0 -42 -3z"/>
<path d="M12480 1446 c0 -14 -4 -28 -10 -31 -5 -3 -10 -11 -10 -17 0 -6 9 -3
20 7 21 19 28 65 10 65 -5 0 -10 -11 -10 -24z"/>
<path d="M12934 1453 c0 -10 -4 -29 -9 -43 -8 -25 -8 -25 14 -6 23 21 29 66 8
66 -7 0 -13 -8 -13 -17z"/>
<path d="M13080 1450 c0 -11 5 -20 10 -20 6 0 10 9 10 20 0 11 -4 20 -10 20
-5 0 -10 -9 -10 -20z"/>
<path d="M13150 1450 c0 -11 7 -20 15 -20 8 0 15 9 15 20 0 11 -7 20 -15 20
-8 0 -15 -9 -15 -20z"/>
<path d="M13230 1450 c0 -11 7 -20 15 -20 8 0 15 9 15 20 0 11 -7 20 -15 20
-8 0 -15 -9 -15 -20z"/>
<path d="M13350 1446 c0 -13 -3 -33 -6 -43 -4 -14 -1 -13 15 6 24 27 28 61 6
61 -9 0 -15 -9 -15 -24z"/>
<path d="M4522 1444 c-12 -8 -22 -10 -22 -5 0 6 -15 11 -34 11 -34 0 -35 -1
-46 -57 -7 -32 -23 -109 -36 -171 -13 -63 -24 -118 -24 -123 0 -5 15 -9 34 -9
33 0 35 2 45 50 6 28 11 58 11 65 0 19 10 18 34 0 47 -35 126 -3 161 66 18 33
20 108 4 142 -20 44 -85 60 -127 31z m56 -46 c17 -17 15 -83 -3 -118 -18 -34
-58 -48 -81 -29 -22 18 -15 111 11 139 20 22 55 26 73 8z"/>
<path d="M4771 1442 c-73 -39 -96 -154 -43 -212 35 -40 93 -50 146 -25 20 10
41 26 46 36 8 14 5 19 -20 24 -21 5 -35 2 -46 -9 -28 -28 -84 -12 -84 24 0 18
7 20 85 20 l85 0 0 51 c0 43 -5 55 -29 80 -35 35 -88 39 -140 11z m93 -48 c9
-8 16 -24 16 -35 0 -16 -7 -19 -55 -19 -47 0 -54 2 -48 18 17 49 58 66 87 36z"/>
<path d="M5061 1442 c-47 -23 -72 -61 -78 -116 -10 -84 32 -136 109 -136 59 0
142 69 102 84 -28 11 -51 6 -69 -14 -41 -45 -80 -14 -72 56 8 76 68 120 100
73 11 -14 23 -20 43 -17 39 4 41 23 6 58 -36 36 -87 40 -141 12z"/>
<path d="M5670 1449 c-28 -11 -61 -49 -54 -61 9 -14 61 -9 74 8 19 22 64 14
68 -13 3 -18 -3 -23 -32 -27 -20 -3 -52 -8 -71 -11 -39 -7 -75 -45 -75 -82 0
-13 11 -35 25 -48 26 -26 57 -31 99 -15 16 6 27 6 31 0 4 -6 22 -10 41 -10 30
0 34 3 29 19 -3 11 1 49 10 86 22 95 20 120 -11 144 -29 23 -90 27 -134 10z
m68 -160 c-18 -53 -93 -67 -86 -17 2 16 14 27 38 35 56 19 60 17 48 -18z"/>
<path d="M3886 1338 c-12 -47 -10 -49 61 -46 67 3 67 3 74 36 l6 32 -67 0
c-62 0 -68 -2 -74 -22z"/>
<path d="M9460 7736 l0 -116 25 0 c24 0 25 2 25 73 l0 72 43 -72 c36 -62 46
-73 70 -73 l27 0 0 115 0 115 -25 0 c-23 0 -24 -3 -27 -70 l-3 -71 -41 68
c-32 54 -46 69 -67 71 l-27 3 0 -115z"/>
<path d="M9714 7766 c-59 -50 -19 -146 61 -146 39 0 85 46 85 85 0 13 -12 37
-26 54 -33 39 -80 42 -120 7z m84 -18 c17 -17 15 -73 -3 -88 -22 -18 -48 -8
-59 22 -19 53 27 101 62 66z"/>
<path d="M8616 7038 c4 -7 23 -36 41 -65 26 -41 33 -63 33 -103 0 -47 2 -50
25 -50 23 0 25 3 25 51 0 33 6 60 18 77 10 15 29 44 41 65 l23 37 -26 0 c-19
0 -31 -10 -52 -46 l-27 -46 -25 46 c-21 38 -30 46 -54 46 -21 0 -27 -4 -22
-12z"/>
<path d="M8842 6967 c-31 -33 -30 -96 1 -125 26 -24 75 -29 109 -11 29 16 4
31 -39 23 -25 -5 -33 -2 -42 15 -11 20 -9 21 44 21 54 0 55 1 55 28 0 63 -85
95 -128 49z m76 -19 c20 -20 14 -28 -23 -28 -33 0 -35 2 -25 20 12 23 30 26
48 8z"/>
<path d="M9017 6972 c-33 -36 -11 -71 56 -87 15 -4 27 -13 27 -21 0 -19 -34
-18 -50 1 -15 18 -36 19 -46 3 -11 -17 34 -48 70 -48 39 0 76 25 76 50 0 21
-35 50 -60 50 -9 0 -25 6 -36 14 -18 14 -18 15 -1 22 10 3 29 1 43 -6 19 -11
27 -11 37 -1 9 10 8 15 -7 27 -28 20 -89 18 -109 -4z"/>
<path d="M14355 6791 c52 -165 62 -186 87 -189 24 -3 28 4 62 96 20 54 36 102
36 106 0 4 -10 6 -22 4 -17 -2 -27 -18 -46 -78 l-26 -75 -25 78 c-22 67 -28
77 -49 77 -18 0 -22 -4 -17 -19z"/>
<path d="M14838 6799 c-10 -6 -18 -17 -18 -24 0 -14 -38 -20 -97 -15 -22 1
-23 -2 -23 -79 0 -79 1 -81 25 -81 23 0 24 4 27 63 3 62 3 62 35 65 l32 3 3
-63 3 -63 33 -3 c24 -2 32 1 32 12 0 9 -7 16 -15 16 -11 0 -15 12 -15 50 0 38
4 50 15 50 8 0 15 7 15 15 0 8 -6 15 -14 15 -8 0 -16 11 -18 24 -2 20 -6 23
-20 15z"/>
<path d="M14554 6739 c-11 -13 -19 -35 -19 -59 0 -52 27 -80 75 -80 21 0 43 7
50 15 14 17 11 18 -40 19 -24 1 -36 6 -38 19 -3 14 4 17 48 17 52 0 52 0 45
28 -3 15 -14 35 -22 45 -22 24 -75 22 -99 -4z m74 -26 c2 -8 -6 -13 -22 -13
-25 0 -33 10 -19 24 10 10 36 3 41 -11z"/>
<path d="M14921 6734 c-30 -39 -24 -102 13 -126 16 -11 64 -10 87 3 29 15 12
32 -27 25 -27 -6 -35 -3 -44 14 -10 19 -8 20 43 20 l54 0 -5 30 c-9 60 -84 81
-121 34z m77 -21 c2 -9 -7 -13 -28 -13 -28 0 -31 2 -20 15 15 18 41 16 48 -2z"/>
<path d="M15066 6748 c4 -7 15 -25 25 -39 18 -25 17 -27 -6 -62 -31 -44 -31
-47 -1 -47 16 0 27 7 31 20 3 11 10 20 15 20 5 0 14 -9 20 -20 6 -12 21 -20
37 -20 24 0 25 1 11 23 -43 66 -43 62 -20 95 27 37 27 42 3 42 -11 0 -27 -10
-35 -21 l-14 -21 -14 21 c-14 22 -65 31 -52 9z"/>
<path d="M14020 6365 l0 -105 80 0 c73 0 80 2 80 20 0 18 -7 20 -60 20 -57 0
-60 1 -60 25 0 24 3 25 55 25 48 0 55 2 55 20 0 18 -7 20 -55 20 -48 0 -55 2
-55 20 0 18 7 20 60 20 53 0 60 2 60 20 0 18 -7 20 -80 20 l-80 0 0 -105z"/>
<path d="M14470 6366 l0 -104 54 -1 c66 0 91 21 91 79 0 53 -29 84 -72 77 -31
-5 -33 -4 -33 24 0 22 -5 29 -20 29 -19 0 -20 -7 -20 -104z m84 18 c22 -8 22
-82 1 -90 -36 -14 -62 55 -33 84 14 14 12 14 32 6z"/>
<path d="M14900 6441 c0 -28 -2 -29 -34 -24 -47 7 -76 -22 -76 -77 0 -58 24
-78 94 -78 l56 1 0 103 c0 97 -1 104 -20 104 -15 0 -20 -7 -20 -29z m-8 -76
c8 -19 8 -31 0 -50 -19 -42 -62 -25 -62 25 0 50 43 67 62 25z"/>
<path d="M15070 6441 c0 -28 -2 -29 -33 -24 -43 7 -72 -24 -72 -77 0 -58 25
-79 91 -79 l54 1 0 104 c0 97 -1 104 -20 104 -15 0 -20 -7 -20 -29z m-12 -63
c30 -30 4 -96 -32 -82 -19 7 -23 80 -3 87 19 8 22 8 35 -5z"/>
<path d="M15150 6455 c0 -8 9 -15 20 -15 11 0 20 7 20 15 0 8 -9 15 -20 15
-11 0 -20 -7 -20 -15z"/>
<path d="M14210 6339 c0 -72 2 -79 20 -79 18 0 20 7 20 54 0 35 5 58 15 66 24
20 35 2 35 -61 0 -52 2 -59 20 -59 18 0 20 7 20 54 0 35 5 58 15 66 24 20 35
2 35 -61 0 -52 2 -59 20 -59 18 0 20 7 20 68 0 40 -5 73 -12 80 -15 15 -64 16
-73 2 -5 -7 -11 -8 -19 -1 -6 5 -35 10 -64 9 l-52 0 0 -79z"/>
<path d="M14651 6394 c-30 -39 -24 -102 13 -126 16 -11 64 -10 87 3 29 15 12
32 -27 25 -27 -6 -35 -3 -44 14 -10 19 -8 20 43 20 l54 0 -5 30 c-9 60 -84 81
-121 34z m77 -21 c2 -9 -7 -13 -28 -13 -28 0 -31 2 -20 15 15 18 41 16 48 -2z"/>
<path d="M15150 6340 c0 -73 2 -80 20 -80 18 0 20 7 20 80 0 73 -2 80 -20 80
-18 0 -20 -7 -20 -80z"/>
<path d="M15230 6339 c0 -72 2 -79 20 -79 18 0 20 7 20 54 0 61 19 88 45 66
10 -8 15 -31 15 -66 0 -47 2 -54 20 -54 18 0 20 7 20 64 0 82 -11 95 -85 94
l-55 -1 0 -78z"/>
<path d="M15414 6399 c-25 -28 -24 -91 1 -119 15 -17 27 -21 53 -16 28 4 33 2
30 -12 -4 -18 -33 -20 -75 -7 -17 6 -23 3 -23 -8 0 -22 31 -37 74 -37 56 0 66
18 66 125 l0 93 -54 1 c-42 0 -58 -4 -72 -20z m74 -21 c30 -30 4 -96 -32 -82
-19 7 -23 80 -3 87 19 8 22 8 35 -5z"/>
<path d="M14083 6108 c-47 -23 -64 -113 -30 -159 30 -40 96 -51 147 -24 26 13
30 21 30 55 l0 40 -45 0 c-38 0 -45 -3 -45 -20 0 -15 7 -20 25 -20 28 0 34
-15 9 -24 -47 -18 -94 13 -94 63 0 50 61 79 95 45 12 -12 22 -14 38 -7 l21 10
-26 26 c-29 29 -83 35 -125 15z"/>
<path d="M15048 6109 c-10 -5 -18 -17 -18 -24 0 -8 -4 -15 -10 -15 -5 0 -10
-7 -10 -15 0 -8 5 -15 10 -15 6 0 10 -21 10 -46 0 -61 14 -84 50 -84 20 0 30
5 30 15 0 8 -7 15 -15 15 -11 0 -15 12 -15 50 0 38 4 50 15 50 8 0 15 7 15 15
0 8 -7 15 -15 15 -9 0 -15 9 -15 25 0 27 -6 30 -32 14z"/>
<path d="M15130 6105 c0 -8 9 -15 20 -15 11 0 20 7 20 15 0 8 -9 15 -20 15
-11 0 -20 -7 -20 -15z"/>
<path d="M14280 6050 c-29 -29 -28 -103 2 -124 38 -27 121 -16 103 14 -4 7
-17 9 -32 5 -24 -6 -53 8 -53 26 0 5 23 9 50 9 42 0 50 3 50 19 0 10 -9 30
-21 45 -25 32 -70 35 -99 6z m70 -25 c11 -13 8 -15 -19 -15 -30 0 -39 9 -24
23 11 11 30 8 43 -8z"/>
<path d="M14430 5989 c0 -72 2 -79 20 -79 18 0 20 7 20 54 0 35 5 58 15 66 24
20 35 2 35 -61 0 -56 1 -59 25 -59 24 0 25 3 25 58 0 83 -16 101 -85 101 l-55
-1 0 -79z"/>
<path d="M14610 6050 c-13 -13 -20 -33 -20 -60 0 -50 27 -80 73 -80 18 0 42 6
52 14 18 13 18 14 -2 20 -11 4 -28 4 -37 0 -16 -6 -46 11 -46 27 0 5 23 9 50
9 47 0 50 2 50 25 0 34 -33 65 -70 65 -17 0 -39 -9 -50 -20z m78 -27 c2 -9 -7
-13 -28 -13 -28 0 -31 2 -20 15 15 18 41 16 48 -2z"/>
<path d="M14760 5989 c0 -72 2 -79 20 -79 16 0 19 8 22 58 3 48 7 59 26 67 37
16 26 33 -23 33 l-45 0 0 -79z"/>
<path d="M14880 6055 c-6 -8 -9 -19 -5 -25 8 -14 32 -13 37 2 5 13 38 4 38
-11 0 -6 -18 -15 -40 -21 -30 -8 -41 -17 -46 -35 -10 -40 10 -54 75 -53 l58 1
-5 66 c-2 36 -9 72 -15 79 -13 17 -82 15 -97 -3z m62 -107 c-12 -12 -42 -4
-42 12 0 6 10 14 23 19 16 6 23 5 25 -6 2 -8 -1 -20 -6 -25z"/>
<path d="M15130 5990 c0 -73 2 -80 20 -80 18 0 20 7 20 80 0 73 -2 80 -20 80
-18 0 -20 -7 -20 -80z"/>
<path d="M15222 6050 c-50 -46 -16 -140 51 -140 62 0 100 54 77 110 -22 53
-87 68 -128 30z m77 -24 c17 -20 10 -67 -11 -79 -23 -15 -48 8 -48 42 0 45 35
66 59 37z"/>
<path d="M15380 5989 c0 -72 2 -79 20 -79 17 0 20 7 20 48 0 55 19 88 44 79
12 -5 16 -20 16 -67 0 -53 2 -60 20 -60 18 0 20 7 20 69 0 43 -5 72 -13 79 -6
6 -38 10 -70 10 l-57 -1 0 -78z"/>
<path d="M9460 5486 l0 -116 25 0 c24 0 25 2 25 73 l0 72 43 -72 c36 -62 46
-73 70 -73 l27 0 0 115 0 115 -25 0 c-23 0 -24 -3 -27 -70 l-3 -71 -41 68
c-32 54 -46 69 -67 71 l-27 3 0 -115z"/>
<path d="M9714 5516 c-59 -50 -19 -146 61 -146 39 0 85 46 85 85 0 13 -12 37
-26 54 -33 39 -80 42 -120 7z m84 -18 c17 -17 15 -73 -3 -88 -22 -18 -48 -8
-59 22 -19 53 27 101 62 66z"/>
<path d="M8338 8591 c-30 -27 -33 -35 -33 -86 0 -51 3 -59 33 -86 44 -40 93
-40 133 0 33 34 36 46 12 55 -12 5 -23 -1 -36 -18 -38 -52 -97 -21 -97 51 0
64 63 100 92 53 14 -21 25 -24 46 -12 18 12 4 40 -29 57 -44 23 -85 19 -121
-14z"/>
<path d="M8540 8505 l0 -115 25 0 25 0 0 115 0 115 -25 0 -25 0 0 -115z"/>
<path d="M8630 8605 c0 -9 9 -15 25 -15 16 0 25 6 25 15 0 9 -9 15 -25 15 -16
0 -25 -6 -25 -15z"/>
<path d="M9380 8505 l0 -115 90 0 c83 0 90 1 90 20 0 18 -7 20 -65 20 l-65 0
0 30 0 30 60 0 c53 0 60 2 60 20 0 18 -7 20 -60 20 -57 0 -60 1 -60 25 0 24 2
25 65 25 58 0 65 2 65 20 0 19 -7 20 -90 20 l-90 0 0 -115z"/>
<path d="M10530 8605 c0 -9 9 -15 25 -15 16 0 25 6 25 15 0 9 -9 15 -25 15
-16 0 -25 -6 -25 -15z"/>
<path d="M11151 8606 c-32 -18 -50 -53 -51 -99 -1 -96 79 -143 175 -103 33 14
35 18 35 60 l0 46 -50 0 c-43 0 -50 -3 -50 -20 0 -15 7 -20 25 -20 15 0 25 -6
25 -14 0 -30 -68 -36 -93 -8 -23 26 -22 94 1 115 26 24 68 21 86 -4 10 -15 20
-19 35 -14 17 5 18 10 9 29 -19 43 -96 60 -147 32z"/>
<path d="M11850 8505 c0 -108 1 -115 20 -115 17 0 20 7 20 53 0 59 18 94 44
84 12 -5 16 -20 16 -72 0 -63 1 -65 25 -65 24 0 25 2 25 68 0 54 -4 72 -18 85
-21 19 -45 21 -73 7 -17 -10 -19 -7 -19 30 0 33 -3 40 -20 40 -19 0 -20 -7
-20 -115z"/>
<path d="M12184 8610 c-36 -14 -54 -50 -54 -106 0 -83 57 -129 135 -110 32 8
70 66 52 78 -20 13 -35 9 -42 -12 -8 -25 -46 -35 -74 -20 -30 15 -31 114 -2
130 29 15 49 12 72 -11 22 -22 49 -19 49 5 0 40 -82 68 -136 46z"/>
<path d="M12968 8606 c-10 -7 -18 -21 -18 -30 0 -9 -7 -16 -15 -16 -8 0 -15
-7 -15 -15 0 -8 7 -15 15 -15 12 0 15 -14 15 -64 0 -66 6 -76 50 -76 27 0 36
20 11 27 -18 5 -21 13 -21 59 0 41 4 54 15 54 8 0 15 7 15 15 0 8 -6 15 -14
15 -9 0 -16 12 -18 29 -3 26 -5 28 -20 17z"/>
<path d="M13573 8603 c-13 -9 -23 -22 -23 -29 0 -8 -4 -14 -10 -14 -5 0 -10
-7 -10 -15 0 -8 5 -15 10 -15 6 0 10 -23 10 -51 0 -66 13 -89 50 -89 20 0 30
5 30 15 0 8 -7 15 -15 15 -12 0 -15 13 -15 55 0 42 3 55 15 55 8 0 15 7 15 15
0 8 -6 15 -14 15 -9 0 -16 12 -18 29 -3 27 -4 28 -25 14z"/>
<path d="M13660 8605 c0 -8 9 -15 20 -15 11 0 20 7 20 15 0 8 -9 15 -20 15
-11 0 -20 -7 -20 -15z"/>
<path d="M8630 8475 c0 -84 0 -85 25 -85 25 0 25 1 25 85 0 84 0 85 -25 85
-25 0 -25 -1 -25 -85z"/>
<path d="M8742 8544 c-47 -33 -30 -137 24 -150 15 -4 35 -2 46 5 16 10 18 8
18 -29 0 -36 2 -40 25 -40 l25 0 0 114 0 114 -59 0 c-35 0 -68 -6 -79 -14z
m77 -28 c17 -20 10 -77 -11 -89 -24 -16 -48 8 -48 47 0 49 34 73 59 42z"/>
<path d="M8920 8491 c0 -92 31 -123 91 -91 13 7 19 7 19 0 0 -5 9 -10 20 -10
18 0 20 7 20 85 0 84 0 85 -25 85 -23 0 -24 -3 -27 -67 -3 -60 -5 -68 -23 -68
-18 0 -20 8 -23 68 -3 64 -4 67 -27 67 -24 0 -25 -2 -25 -69z"/>
<path d="M9137 8548 c-42 -33 -41 -125 3 -148 24 -13 66 -13 91 1 28 15 13 31
-22 24 -29 -7 -59 7 -59 26 0 5 25 9 55 9 52 0 55 1 55 25 0 55 -79 95 -123
63z m71 -41 c3 -13 -3 -17 -27 -17 -33 0 -39 8 -19 28 17 17 42 11 46 -11z"/>
<path d="M9590 8554 c0 -3 11 -21 24 -41 l25 -36 -30 -44 -30 -43 29 0 c22 0
32 7 41 27 l12 27 22 -28 c16 -19 30 -27 46 -24 l23 3 -30 41 -30 42 24 35
c13 20 24 38 24 41 0 15 -44 3 -60 -16 l-17 -22 -12 22 c-10 19 -61 33 -61 16z"/>
<path d="M9780 8445 l0 -115 25 0 c22 0 25 4 25 35 0 33 1 34 30 28 24 -4 37
0 55 17 32 31 35 100 5 130 -22 22 -69 27 -88 8 -9 -9 -12 -9 -12 0 0 7 -9 12
-20 12 -19 0 -20 -7 -20 -115z m110 66 c23 -44 0 -99 -37 -87 -26 8 -36 46
-23 80 11 31 45 35 60 7z"/>
<path d="M9986 8541 c-15 -17 -15 -19 -1 -25 9 -3 24 -1 34 6 20 12 51 5 51
-12 0 -5 -20 -15 -45 -21 -56 -14 -73 -40 -51 -74 14 -21 23 -23 78 -23 l63 1
-3 71 c-3 50 -9 75 -20 84 -24 19 -86 15 -106 -7z m84 -85 c0 -20 -27 -39 -45
-32 -22 8 -18 25 8 36 31 12 37 12 37 -4z"/>
<path d="M10160 8475 c0 -78 2 -85 20 -85 17 0 20 7 20 53 0 59 18 94 44 84
12 -5 16 -20 16 -72 0 -63 1 -65 25 -65 24 0 25 2 25 68 0 54 -4 72 -18 85
-22 20 -63 22 -80 5 -9 -9 -12 -9 -12 0 0 7 -9 12 -20 12 -18 0 -20 -7 -20
-85z"/>
<path d="M10360 8540 c-11 -11 -20 -24 -20 -28 0 -19 28 -42 65 -54 40 -13 50
-30 20 -36 -9 -2 -25 3 -34 12 -18 16 -51 13 -51 -5 0 -15 45 -39 75 -39 44 0
77 26 73 58 -2 22 -11 29 -50 40 -29 8 -48 19 -48 28 0 17 31 19 47 3 6 -6 21
-8 34 -4 l23 8 -23 18 c-31 25 -86 24 -111 -1z"/>
<path d="M10530 8475 c0 -84 0 -85 25 -85 25 0 25 1 25 85 0 84 0 85 -25 85
-25 0 -25 -1 -25 -85z"/>
<path d="M10639 8531 c-31 -31 -36 -55 -18 -94 36 -79 163 -49 163 38 0 78
-89 112 -145 56z m90 -15 c17 -20 10 -77 -11 -90 -26 -16 -52 4 -56 43 -4 36
12 61 38 61 10 0 23 -6 29 -14z"/>
<path d="M10820 8475 c0 -84 0 -85 25 -85 23 0 24 3 27 68 3 60 5 67 24 70 25
4 34 -19 34 -90 0 -41 3 -48 20 -48 18 0 20 7 20 69 0 92 -31 123 -91 91 -13
-7 -19 -7 -19 0 0 5 -9 10 -20 10 -18 0 -20 -7 -20 -85z"/>
<path d="M11340 8474 c0 -83 0 -84 25 -84 24 0 25 3 25 58 0 60 11 82 42 82
10 0 18 6 18 14 0 11 -14 15 -55 15 l-55 0 0 -85z"/>
<path d="M11484 8546 c-15 -12 -16 -17 -7 -27 10 -10 17 -10 37 0 24 13 46 9
46 -9 0 -5 -17 -14 -39 -20 -48 -13 -65 -32 -57 -65 8 -30 47 -42 82 -26 15 6
24 7 24 1 0 -6 10 -10 23 -10 21 0 22 3 19 67 -3 44 -9 74 -19 86 -20 21 -81
23 -109 3z m74 -98 c-4 -31 -48 -39 -48 -9 0 17 12 25 43 30 5 0 7 -9 5 -21z"/>
<path d="M11650 8445 l0 -115 25 0 c23 0 25 4 25 40 0 37 2 39 18 29 31 -20
71 -3 88 37 30 72 -20 142 -86 117 -16 -6 -30 -7 -30 -2 0 5 -9 9 -20 9 -19 0
-20 -7 -20 -115z m109 71 c17 -20 10 -77 -11 -89 -24 -16 -48 8 -48 47 0 49
34 73 59 42z"/>
<path d="M12385 8535 c-54 -53 -16 -145 60 -145 49 0 85 36 85 85 0 49 -36 85
-85 85 -25 0 -44 -8 -60 -25z m83 -17 c17 -17 15 -73 -3 -88 -20 -17 -52 -4
-59 25 -13 52 29 96 62 63z"/>
<path d="M12560 8475 c0 -84 0 -85 25 -85 24 0 25 3 25 59 0 61 16 89 45 77
11 -4 15 -22 15 -71 0 -63 1 -65 25 -65 24 0 25 2 25 63 0 74 -18 107 -59 107
-15 0 -32 -5 -39 -12 -9 -9 -12 -9 -12 0 0 7 -11 12 -25 12 -25 0 -25 -1 -25
-85z"/>
<path d="M12770 8540 c-11 -11 -20 -24 -20 -28 0 -19 28 -42 65 -54 40 -13 50
-30 20 -36 -9 -2 -25 3 -34 12 -18 16 -51 13 -51 -5 0 -15 45 -39 75 -39 44 0
77 26 73 58 -2 22 -11 29 -50 40 -29 8 -48 19 -48 28 0 17 31 19 47 3 6 -6 21
-8 34 -4 l23 8 -23 18 c-31 25 -86 24 -111 -1z"/>
<path d="M13050 8475 c0 -78 2 -85 20 -85 17 0 20 7 21 43 2 64 12 92 37 95
30 5 28 32 -2 32 -13 0 -27 -6 -29 -12 -4 -10 -6 -10 -6 0 -1 6 -10 12 -21 12
-18 0 -20 -7 -20 -85z"/>
<path d="M13170 8503 c0 -32 6 -69 13 -83 11 -23 19 -25 80 -27 l67 -2 0 85
c0 83 0 84 -25 84 -24 0 -25 -3 -25 -59 0 -61 -16 -89 -45 -77 -11 4 -15 22
-15 71 0 63 -1 65 -25 65 -24 0 -25 -3 -25 -57z"/>
<path d="M13389 8541 c-19 -15 -24 -29 -24 -66 0 -37 5 -51 24 -66 32 -26 85
-25 113 3 l22 22 -22 9 c-18 8 -25 6 -37 -9 -22 -30 -50 -7 -50 41 0 47 28 71
49 42 8 -10 20 -15 30 -11 21 8 20 17 -2 37 -25 23 -74 21 -103 -2z"/>
<path d="M13660 8475 c0 -78 2 -85 20 -85 18 0 20 7 20 85 0 78 -2 85 -20 85
-18 0 -20 -7 -20 -85z"/>
<path d="M13765 8535 c-54 -53 -16 -145 60 -145 49 0 85 36 85 85 0 49 -36 85
-85 85 -25 0 -44 -8 -60 -25z m83 -17 c17 -17 15 -73 -3 -88 -20 -17 -52 -4
-59 25 -13 52 29 96 62 63z"/>
<path d="M13940 8475 c0 -84 0 -85 25 -85 24 0 25 3 25 59 0 61 16 89 45 77
11 -4 15 -22 15 -71 0 -63 1 -65 25 -65 24 0 25 2 25 63 0 74 -18 107 -59 107
-15 0 -32 -5 -39 -12 -9 -9 -12 -9 -12 0 0 7 -11 12 -25 12 -25 0 -25 -1 -25
-85z"/>
<path d="M3553 8523 c6 -104 10 -117 43 -132 43 -19 92 -14 119 14 23 22 25
32 25 115 0 89 0 90 -25 90 -25 0 -25 -1 -25 -90 0 -89 0 -90 -27 -96 -48 -12
-58 4 -61 100 -3 85 -3 86 -29 86 l-26 0 6 -87z"/>
<path d="M5060 8495 c0 -108 1 -115 20 -115 17 0 20 7 20 53 0 59 18 94 44 84
12 -5 16 -20 16 -72 0 -63 1 -65 25 -65 24 0 25 2 25 68 0 54 -4 72 -18 85
-21 19 -45 21 -73 7 -17 -10 -19 -7 -19 30 0 33 -3 40 -20 40 -19 0 -20 -7
-20 -115z"/>
<path d="M5250 8595 c0 -9 9 -15 25 -15 16 0 25 6 25 15 0 9 -9 15 -25 15 -16
0 -25 -6 -25 -15z"/>
<path d="M5563 8593 c-13 -9 -23 -22 -23 -29 0 -8 -4 -14 -10 -14 -5 0 -10 -7
-10 -15 0 -8 5 -15 10 -15 6 0 10 -23 10 -51 0 -66 13 -89 50 -89 20 0 30 5
30 15 0 8 -7 15 -15 15 -12 0 -15 13 -15 55 0 42 3 55 15 55 8 0 15 7 15 15 0
8 -6 15 -14 15 -9 0 -16 12 -18 29 -3 27 -4 28 -25 14z"/>
<path d="M4290 8583 c-47 -17 -51 -65 -9 -104 36 -34 37 -72 1 -77 -13 -2 -25
3 -28 12 -10 25 -36 20 -32 -6 3 -21 8 -23 57 -23 40 1 57 6 67 20 22 30 17
63 -16 92 -34 30 -37 66 -6 71 11 3 26 -4 33 -14 12 -16 15 -17 23 -4 5 8 8
20 7 25 -4 11 -73 17 -97 8z"/>
<path d="M3796 8534 c-34 -34 -9 -73 57 -90 15 -3 26 -11 24 -18 -6 -18 -40
-19 -53 -1 -9 12 -19 15 -35 10 l-23 -8 28 -23 c34 -30 88 -32 116 -4 11 11
20 27 20 35 0 18 -35 41 -77 50 -18 4 -33 11 -33 16 0 16 32 23 51 11 19 -12
49 -6 49 9 0 29 -98 39 -124 13z"/>
<path d="M3987 8538 c-42 -33 -41 -125 3 -148 24 -13 66 -13 91 1 28 15 13 31
-22 24 -29 -7 -59 7 -59 26 0 5 25 9 55 9 52 0 55 1 55 25 0 55 -79 95 -123
63z m71 -41 c3 -13 -3 -17 -27 -17 -33 0 -39 8 -19 28 17 17 42 11 46 -11z"/>
<path d="M4619 8531 l-23 -18 23 -8 c15 -4 26 -3 31 5 9 15 42 10 47 -7 3 -7
-8 -15 -24 -19 -46 -11 -73 -32 -73 -59 0 -35 40 -53 81 -38 16 6 29 7 29 2 0
-5 10 -9 21 -9 20 0 21 4 17 71 -3 55 -8 74 -23 85 -27 20 -79 17 -106 -5z
m81 -85 c0 -20 -27 -39 -45 -32 -22 8 -18 25 8 36 31 12 37 12 37 -4z"/>
<path d="M4796 8534 c-34 -34 -9 -73 57 -90 15 -3 26 -11 24 -18 -6 -18 -40
-19 -53 -1 -9 12 -19 15 -35 10 l-23 -8 28 -23 c34 -30 88 -32 116 -4 11 11
20 27 20 35 0 18 -35 41 -77 50 -18 4 -33 11 -33 16 0 16 32 23 51 11 19 -12
49 -6 49 9 0 29 -98 39 -124 13z"/>
<path d="M5250 8465 c0 -84 0 -85 25 -85 25 0 25 1 25 85 0 84 0 85 -25 85
-25 0 -25 -1 -25 -85z"/>
<path d="M5340 8465 c0 -84 0 -85 25 -85 24 0 25 3 25 59 0 61 16 89 45 77 11
-4 15 -22 15 -71 0 -63 1 -65 25 -65 24 0 25 2 25 63 0 74 -18 107 -59 107
-15 0 -32 -5 -39 -12 -9 -9 -12 -9 -12 0 0 7 -11 12 -25 12 -25 0 -25 -1 -25
-85z"/>
<path d="M4440 8455 c0 -8 7 -15 15 -15 8 0 15 7 15 15 0 8 -7 15 -15 15 -8 0
-15 -7 -15 -15z"/>
<path d="M4422 8392 c-8 -77 -8 -77 17 -77 13 0 26 6 29 14 3 9 0 11 -8 6 -10
-6 -11 2 -6 39 6 40 5 46 -11 46 -12 0 -19 -9 -21 -28z"/>
<path d="M4776 6218 c4 -7 23 -36 41 -65 26 -41 33 -63 33 -103 0 -43 3 -50
20 -50 17 0 20 7 20 43 0 33 10 59 44 115 44 70 44 72 21 72 -18 0 -31 -12
-51 -46 -30 -50 -30 -50 -66 15 -12 22 -24 31 -43 31 -18 0 -24 -4 -19 -12z"/>
<path d="M5002 6150 c-30 -28 -31 -101 -2 -130 22 -22 70 -26 102 -9 16 9 18
13 7 20 -8 4 -24 6 -37 2 -22 -5 -52 11 -52 28 0 5 25 9 56 9 l57 0 -7 33
c-12 62 -80 88 -124 47z m78 -30 c10 -18 8 -20 -25 -20 -37 0 -43 8 -23 28 18
18 36 15 48 -8z"/>
<path d="M5176 6154 c-34 -34 -9 -73 57 -89 15 -4 27 -13 27 -21 0 -19 -47
-18 -58 1 -6 12 -14 13 -31 7 l-24 -8 28 -22 c35 -28 88 -29 115 -2 11 11 20
27 20 35 0 18 -35 41 -77 50 -19 4 -33 13 -33 21 0 17 41 19 57 3 7 -7 17 -8
28 -2 16 9 16 11 0 26 -21 22 -88 22 -109 1z"/>
<path d="M7930 2153 c-21 -8 -40 -34 -40 -55 0 -9 16 -33 35 -53 30 -29 34
-38 25 -55 -13 -24 -42 -26 -60 -5 -18 22 -32 18 -28 -7 2 -17 11 -24 32 -26
94 -11 139 58 76 115 -34 30 -37 66 -6 71 11 3 26 -4 33 -14 15 -20 20 -18 25
11 2 17 -3 20 -37 22 -22 1 -47 -1 -55 -4z"/>
<path d="M8080 2024 c0 -17 22 -14 28 4 2 7 -3 12 -12 12 -9 0 -16 -7 -16 -16z"/>
<path d="M8061 1978 c2 -7 -1 -28 -5 -46 -5 -21 -4 -38 2 -44 11 -11 52 -2 52
12 0 5 -7 7 -16 3 -12 -5 -15 -2 -11 13 20 66 20 74 -2 74 -12 0 -21 -6 -20
-12z"/>
<path d="M8077 7589 c12 -12 -17 -160 -37 -184 -11 -13 -6 -15 35 -15 38 0 45
3 37 13 -13 16 4 95 17 81 13 -15 31 -76 25 -85 -3 -5 13 -9 35 -9 l40 0 -27
61 -26 62 48 43 48 44 -42 0 c-27 0 -39 -4 -34 -11 6 -10 -52 -79 -67 -79 -10
0 7 58 22 76 10 12 3 14 -37 14 -34 0 -45 -3 -37 -11z"/>
<path d="M8728 7593 c-23 -6 -24 -43 -2 -43 9 0 22 7 29 17 16 22 45 10 45
-20 0 -13 -20 -50 -45 -81 -25 -32 -45 -62 -45 -67 0 -5 34 -9 75 -9 l75 0 0
30 c0 20 -5 30 -15 30 -8 0 -15 -4 -15 -10 0 -5 -17 -10 -37 -10 l-37 0 47 48
c48 49 60 85 35 110 -12 12 -75 14 -110 5z"/>
<path d="M8380 7510 c0 -6 40 -10 100 -10 60 0 100 4 100 10 0 6 -40 10 -100
10 -60 0 -100 -4 -100 -10z"/>
<path d="M8380 7450 c0 -6 40 -10 100 -10 60 0 100 4 100 10 0 6 -40 10 -100
10 -60 0 -100 -4 -100 -10z"/>
<path d="M10810 7535 l0 -115 71 0 c80 0 106 10 120 48 8 21 6 31 -10 53 -13
17 -17 30 -11 34 17 10 11 61 -8 78 -14 13 -38 17 -90 17 l-72 0 0 -115z m135
50 c0 -16 -8 -21 -42 -23 -40 -3 -43 -2 -43 23 0 25 3 26 43 23 34 -2 42 -7
42 -23z m5 -80 c19 -23 -5 -45 -51 -45 -37 0 -39 2 -39 30 0 28 2 30 39 30 22
0 44 -6 51 -15z"/>
<path d="M11040 7635 c0 -9 9 -15 25 -15 16 0 25 6 25 15 0 9 -9 15 -25 15
-16 0 -25 -6 -25 -15z"/>
<path d="M11730 7635 c0 -9 9 -15 25 -15 16 0 25 6 25 15 0 9 -9 15 -25 15
-16 0 -25 -6 -25 -15z"/>
<path d="M11848 7636 c-10 -7 -18 -21 -18 -30 0 -9 -7 -16 -15 -16 -8 0 -15
-7 -15 -15 0 -8 7 -15 15 -15 12 0 15 -14 15 -64 0 -66 6 -76 50 -76 27 0 36
20 11 27 -18 5 -21 13 -21 59 0 41 4 54 15 54 8 0 15 7 15 15 0 8 -6 15 -14
15 -9 0 -16 12 -18 29 -3 26 -5 28 -20 17z"/>
<path d="M11930 7635 c0 -9 9 -15 25 -15 16 0 25 6 25 15 0 9 -9 15 -25 15
-16 0 -25 -6 -25 -15z"/>
<path d="M12410 7635 c0 -9 9 -15 25 -15 16 0 25 6 25 15 0 9 -9 15 -25 15
-16 0 -25 -6 -25 -15z"/>
<path d="M13010 7632 c-25 -20 -30 -63 -10 -86 6 -8 28 -20 48 -27 64 -20 75
-28 61 -45 -15 -18 -63 -18 -79 1 -16 19 -50 20 -50 1 0 -8 12 -24 28 -36 22
-18 36 -21 76 -17 55 5 76 24 76 68 0 32 -11 42 -75 66 -29 11 -50 25 -50 33
0 18 53 26 68 11 16 -16 47 -13 47 3 0 42 -99 61 -140 28z"/>
<path d="M13400 7535 l0 -115 25 0 25 0 0 115 0 115 -25 0 -25 0 0 -115z"/>
<path d="M13790 7635 c0 -9 9 -15 25 -15 16 0 25 6 25 15 0 9 -9 15 -25 15
-16 0 -25 -6 -25 -15z"/>
<path d="M14540 7535 l0 -115 90 0 c83 0 90 1 90 20 0 18 -7 20 -65 20 l-65 0
0 30 0 30 60 0 c53 0 60 2 60 20 0 18 -7 20 -60 20 -57 0 -60 1 -60 25 0 24 2
25 65 25 58 0 65 2 65 20 0 19 -7 20 -90 20 l-90 0 0 -115z"/>
<path d="M14963 7633 c-13 -9 -23 -22 -23 -29 0 -8 -4 -14 -10 -14 -5 0 -10
-7 -10 -15 0 -8 5 -15 10 -15 6 0 10 -23 10 -51 0 -66 13 -89 50 -89 20 0 30
5 30 15 0 8 -7 15 -15 15 -12 0 -15 13 -15 55 0 42 3 55 15 55 8 0 15 7 15 15
0 8 -6 15 -14 15 -9 0 -16 12 -18 29 -3 27 -4 28 -25 14z"/>
<path d="M15553 7633 c-13 -9 -23 -22 -23 -29 0 -8 -4 -14 -10 -14 -5 0 -10
-7 -10 -15 0 -8 5 -15 10 -15 6 0 10 -23 10 -51 0 -66 13 -89 50 -89 20 0 30
5 30 15 0 8 -7 15 -15 15 -12 0 -15 13 -15 55 0 42 3 55 15 55 8 0 15 7 15 15
0 8 -6 15 -14 15 -9 0 -16 12 -18 29 -3 27 -4 28 -25 14z"/>
<path d="M15640 7635 c0 -8 9 -15 20 -15 11 0 20 7 20 15 0 8 -9 15 -20 15
-11 0 -20 -7 -20 -15z"/>
<path d="M11642 7628 c-7 -7 -12 -18 -12 -25 0 -8 -14 -13 -39 -13 -22 0 -42
-5 -44 -12 -4 -10 -6 -10 -6 0 -1 6 -10 12 -21 12 -18 0 -20 -7 -20 -85 0 -78
2 -85 20 -85 17 0 20 7 21 43 2 65 12 91 39 97 43 11 50 2 50 -60 0 -63 14
-84 51 -78 26 4 39 28 15 28 -13 0 -16 11 -16 55 0 42 3 55 15 55 8 0 15 7 15
15 0 8 -7 15 -15 15 -9 0 -15 9 -15 25 0 27 -18 33 -38 13z"/>
<path d="M13702 7628 c-7 -7 -12 -18 -12 -25 0 -7 -4 -13 -10 -13 -5 0 -10 -7
-10 -15 0 -8 5 -15 10 -15 6 0 10 -26 10 -59 0 -64 13 -85 51 -79 26 4 39 28
15 28 -13 0 -16 11 -16 55 0 42 3 55 15 55 8 0 15 7 15 15 0 8 -7 15 -15 15
-9 0 -15 9 -15 25 0 27 -18 33 -38 13z"/>
<path d="M11040 7505 c0 -84 0 -85 25 -85 25 0 25 1 25 85 0 84 0 85 -25 85
-25 0 -25 -1 -25 -85z"/>
<path d="M11130 7475 l0 -115 25 0 c23 0 25 4 25 40 0 37 2 39 18 29 31 -20
71 -3 88 37 30 72 -20 142 -86 117 -16 -6 -30 -7 -30 -2 0 5 -9 9 -20 9 -19 0
-20 -7 -20 -115z m109 71 c17 -20 10 -77 -11 -89 -24 -16 -48 8 -48 47 0 49
34 73 59 42z"/>
<path d="M11336 7574 c-9 -8 -14 -20 -11 -25 8 -13 35 -11 35 2 0 14 42 7 47
-8 3 -7 -13 -16 -36 -23 -30 -8 -42 -17 -47 -35 -13 -51 18 -76 67 -58 16 7
29 7 29 2 0 -5 10 -9 21 -9 20 0 21 4 17 71 -3 55 -8 74 -23 85 -25 19 -80 18
-99 -2z m74 -88 c0 -20 -27 -39 -45 -32 -22 8 -18 25 8 36 31 12 37 12 37 -4z"/>
<path d="M11730 7505 c0 -84 0 -85 25 -85 25 0 25 1 25 85 0 84 0 85 -25 85
-25 0 -25 -1 -25 -85z"/>
<path d="M11930 7505 c0 -84 0 -85 25 -85 25 0 25 1 25 85 0 84 0 85 -25 85
-25 0 -25 -1 -25 -85z"/>
<path d="M12052 7580 c-28 -12 -45 -55 -37 -96 7 -40 24 -54 74 -61 52 -7 91
28 91 82 0 66 -61 101 -128 75z m72 -36 c30 -29 10 -94 -28 -94 -21 0 -36 23
-36 55 0 50 33 71 64 39z"/>
<path d="M12220 7505 c0 -78 2 -85 20 -85 17 0 20 7 20 53 0 59 18 94 44 84
12 -5 16 -20 16 -72 0 -63 1 -65 25 -65 24 0 25 2 25 68 0 54 -4 72 -18 85
-22 20 -63 22 -80 5 -9 -9 -12 -9 -12 0 0 7 -9 12 -20 12 -18 0 -20 -7 -20
-85z"/>
<path d="M12410 7505 c0 -84 0 -85 25 -85 25 0 25 1 25 85 0 84 0 85 -25 85
-25 0 -25 -1 -25 -85z"/>
<path d="M12500 7505 c0 -84 0 -85 25 -85 24 0 25 2 25 64 0 56 3 66 20 71 33
10 40 -3 40 -71 0 -62 1 -64 25 -64 22 0 25 4 25 38 0 110 -28 148 -91 125
-16 -6 -29 -7 -29 -2 0 5 -9 9 -20 9 -18 0 -20 -7 -20 -85z"/>
<path d="M12711 7564 c-42 -53 -12 -144 48 -144 15 0 33 6 40 13 10 10 12 7 9
-13 -2 -20 -8 -25 -33 -25 -16 1 -40 4 -52 9 -17 5 -23 4 -23 -8 0 -35 87 -49
128 -20 20 14 22 23 22 115 0 92 -1 99 -20 99 -11 0 -20 -5 -20 -12 0 -9 -3
-9 -12 0 -21 21 -65 14 -87 -14z m91 -29 c17 -38 0 -80 -32 -80 -22 0 -25 5
-28 39 -2 21 -1 44 2 52 9 23 45 16 58 -11z"/>
<path d="M13219 7561 c-31 -31 -36 -55 -18 -94 36 -79 163 -49 163 38 0 78
-89 112 -145 56z m90 -15 c17 -20 10 -77 -11 -90 -26 -16 -52 4 -56 43 -4 36
12 61 38 61 10 0 23 -6 29 -14z"/>
<path d="M13490 7515 c0 -71 1 -76 26 -87 19 -9 33 -9 55 -1 16 6 29 7 29 2 0
-5 9 -9 20 -9 18 0 20 7 20 85 0 84 0 85 -25 85 -23 0 -24 -3 -27 -67 -3 -57
-6 -68 -22 -71 -27 -5 -36 15 -36 81 0 50 -2 57 -20 57 -18 0 -20 -7 -20 -75z"/>
<path d="M13790 7505 c0 -84 0 -85 25 -85 25 0 25 1 25 85 0 84 0 85 -25 85
-25 0 -25 -1 -25 -85z"/>
<path d="M13899 7561 c-31 -31 -36 -55 -18 -94 36 -79 163 -49 163 38 0 78
-89 112 -145 56z m90 -15 c17 -20 10 -77 -11 -90 -26 -16 -52 4 -56 43 -4 36
12 61 38 61 10 0 23 -6 29 -14z"/>
<path d="M14080 7505 c0 -84 0 -85 25 -85 23 0 24 3 27 68 3 60 5 67 24 70 25
4 34 -19 34 -90 0 -41 3 -48 20 -48 18 0 20 7 20 69 0 92 -31 123 -91 91 -13
-7 -19 -7 -19 0 0 5 -9 10 -20 10 -18 0 -20 -7 -20 -85z"/>
<path d="M14286 7574 c-34 -34 -9 -73 57 -90 15 -3 26 -11 24 -18 -6 -18 -40
-19 -53 -1 -9 12 -19 15 -35 10 l-23 -8 28 -23 c34 -30 88 -32 116 -4 11 11
20 27 20 35 0 18 -35 41 -77 50 -18 4 -33 11 -33 16 0 16 32 23 51 11 19 -12
49 -6 49 9 0 29 -98 39 -124 13z"/>
<path d="M14750 7584 c0 -3 11 -21 24 -41 l25 -36 -30 -44 -30 -43 29 0 c22 0
32 7 41 27 l12 27 22 -28 c16 -19 30 -27 46 -24 l23 3 -30 41 -30 42 24 35
c13 20 24 38 24 41 0 15 -44 3 -60 -16 l-17 -22 -12 22 c-10 19 -61 33 -61 16z"/>
<path d="M15040 7504 c0 -83 0 -84 25 -84 24 0 25 3 25 58 0 60 11 82 42 82
10 0 18 6 18 14 0 11 -14 15 -55 15 l-55 0 0 -85z"/>
<path d="M15184 7576 c-15 -12 -16 -17 -7 -27 10 -10 17 -10 37 0 24 13 46 9
46 -9 0 -5 -17 -14 -39 -20 -48 -13 -65 -32 -57 -65 8 -30 47 -42 82 -26 15 6
24 7 24 1 0 -6 10 -10 23 -10 21 0 22 3 19 67 -3 44 -9 74 -19 86 -20 21 -81
23 -109 3z m74 -98 c-4 -31 -48 -39 -48 -9 0 17 12 25 43 30 5 0 7 -9 5 -21z"/>
<path d="M15369 7571 c-19 -15 -24 -29 -24 -66 0 -37 5 -51 24 -66 32 -26 85
-25 113 3 l22 22 -22 9 c-18 8 -25 6 -37 -9 -22 -30 -50 -7 -50 41 0 47 28 71
49 42 8 -10 20 -15 30 -11 21 8 20 17 -2 37 -25 23 -74 21 -103 -2z"/>
<path d="M15640 7505 c0 -78 2 -85 20 -85 18 0 20 7 20 85 0 78 -2 85 -20 85
-18 0 -20 -7 -20 -85z"/>
<path d="M15745 7565 c-54 -53 -16 -145 60 -145 49 0 85 36 85 85 0 49 -36 85
-85 85 -25 0 -44 -8 -60 -25z m83 -17 c17 -17 15 -73 -3 -88 -20 -17 -52 -4
-59 25 -13 52 29 96 62 63z"/>
<path d="M15920 7505 c0 -84 0 -85 25 -85 24 0 25 3 25 59 0 61 16 89 45 77
11 -4 15 -22 15 -71 0 -63 1 -65 25 -65 24 0 25 2 25 63 0 74 -18 107 -59 107
-15 0 -32 -5 -39 -12 -9 -9 -12 -9 -12 0 0 7 -11 12 -25 12 -25 0 -25 -1 -25
-85z"/>
<path d="M465 5647 c-3 -7 -4 -140 -3 -297 l3 -285 660 0 660 0 0 295 0 295
-658 3 c-524 2 -659 0 -662 -11z m1285 -287 l0 -260 -625 0 -625 0 0 260 0
260 625 0 625 0 0 -260z"/>
<path d="M976 5454 c-25 -26 -46 -79 -46 -118 0 -40 25 -98 53 -122 40 -34 55
-30 19 5 -60 61 -55 200 9 245 17 11 19 16 8 16 -9 0 -28 -12 -43 -26z"/>
<path d="M1606 5462 c63 -51 68 -189 8 -240 -14 -13 -24 -25 -21 -28 9 -10 58
28 73 57 17 33 19 131 3 162 -18 35 -51 67 -68 67 -13 0 -11 -4 5 -18z"/>
<path d="M707 5440 c7 -27 -15 -138 -34 -167 -13 -22 -12 -23 27 -23 26 0 39
4 35 10 -4 6 -4 29 0 50 6 38 9 40 42 40 28 0 34 -3 29 -16 -3 -9 -6 -24 -6
-34 0 -10 -7 -26 -16 -34 -14 -15 -12 -16 26 -16 32 0 41 3 37 14 -8 20 30
178 45 187 8 6 -3 9 -29 9 -35 0 -42 -3 -41 -17 1 -10 0 -30 0 -45 -2 -25 -6
-28 -38 -28 -35 0 -35 1 -29 33 4 17 12 38 17 45 8 9 1 12 -30 12 -35 0 -40
-2 -35 -20z"/>
<path d="M1058 5448 c8 -8 12 -46 12 -105 0 -91 1 -93 23 -93 17 0 30 12 47
43 13 23 40 70 61 105 l38 62 -36 0 c-28 0 -33 -3 -25 -13 9 -10 3 -28 -20
-73 -17 -32 -33 -61 -35 -64 -3 -3 -3 30 -1 73 l3 77 -39 0 c-31 0 -37 -3 -28
-12z"/>
<path d="M1425 5450 c7 -12 -21 -154 -36 -182 -9 -16 -3 -18 64 -18 73 0 75 0
80 28 7 36 1 40 -26 14 -31 -29 -71 -30 -63 -2 3 11 9 29 12 40 6 22 24 26 42
8 12 -12 12 -12 27 37 5 18 -6 20 -22 4 -6 -6 -17 -9 -25 -7 -11 2 -13 10 -6
36 7 25 14 32 33 32 13 0 29 -8 34 -17 9 -16 12 -16 21 -3 22 34 12 40 -66 40
-50 0 -73 -4 -69 -10z"/>
<path d="M1270 5273 c0 -10 -3 -29 -6 -43 l-6 -25 21 24 c24 27 28 61 6 61 -8
0 -15 -8 -15 -17z"/>
<path d="M465 4737 c-3 -7 -4 -140 -3 -297 l3 -285 660 0 660 0 0 295 0 295
-658 3 c-524 2 -659 0 -662 -11z m1285 -287 l0 -260 -625 0 -625 0 0 260 0
260 625 0 625 0 0 -260z"/>
<path d="M1102 4475 c-63 -53 -46 -139 25 -133 43 4 56 24 16 23 -22 0 -29 5
-31 23 -3 19 1 22 32 22 47 0 47 18 0 22 l-35 3 21 23 c11 12 32 22 45 22 14
0 25 5 25 10 0 21 -68 10 -98 -15z"/>
<path d="M465 3837 c-3 -7 -4 -143 -3 -302 l3 -290 660 0 660 0 0 300 0 300
-658 3 c-524 2 -659 0 -662 -11z m1285 -292 l0 -265 -625 0 -625 0 0 265 0
265 625 0 625 0 0 -265z"/>
<path d="M1056 3625 c7 -18 -24 -165 -38 -182 -8 -10 -1 -13 28 -13 l39 0 0
44 c1 77 28 72 41 -6 6 -37 8 -38 47 -38 37 0 39 1 25 18 -8 9 -23 37 -32 62
l-18 45 48 43 48 42 -37 0 c-30 0 -37 -4 -37 -19 0 -11 -15 -32 -32 -47 -28
-22 -34 -24 -36 -10 -2 9 3 29 12 46 l14 30 -38 0 c-31 0 -38 -3 -34 -15z"/>
<path d="M475 2867 c-3 -7 -4 -140 -3 -297 l3 -285 660 0 660 0 0 295 0 295
-658 3 c-524 2 -659 0 -662 -11z m1285 -287 l0 -260 -625 0 -625 0 0 260 0
260 625 0 625 0 0 -260z"/>
<path d="M1106 2667 c-17 -17 -31 -55 -50 -135 -32 -136 -31 -134 -3 -130 17
2 23 11 27 38 5 33 7 35 41 32 64 -6 109 58 70 97 -12 12 -16 21 -11 21 15 0
50 38 50 54 0 47 -84 62 -124 23z m74 -22 c0 -15 -10 -31 -25 -41 -24 -16 -25
-18 -8 -36 22 -25 7 -72 -25 -76 -17 -3 -22 1 -22 20 1 37 20 111 36 136 20
30 44 29 44 -3z"/>
<path d="M6950 6315 l0 -115 85 0 c78 0 85 2 85 20 0 18 -7 20 -65 20 l-65 0
0 30 0 30 60 0 c53 0 60 2 60 20 0 18 -7 20 -60 20 -57 0 -60 1 -60 25 0 24 2
25 65 25 58 0 65 2 65 20 0 18 -7 20 -85 20 l-85 0 0 -115z"/>
<path d="M7160 6415 c0 -9 9 -15 25 -15 16 0 25 6 25 15 0 9 -9 15 -25 15 -16
0 -25 -6 -25 -15z"/>
<path d="M8388 6416 c-10 -7 -18 -21 -18 -30 0 -9 -7 -16 -15 -16 -8 0 -15 -7
-15 -15 0 -8 7 -15 15 -15 12 0 15 -14 15 -64 0 -66 6 -76 50 -76 27 0 36 20
11 27 -18 5 -21 13 -21 59 0 41 4 54 15 54 8 0 15 7 15 15 0 8 -6 15 -14 15
-9 0 -16 12 -18 29 -3 26 -5 28 -20 17z"/>
<path d="M9110 6418 c-37 -19 -64 -80 -55 -125 9 -48 54 -93 95 -93 52 0 100
33 100 70 0 21 -33 18 -52 -5 -24 -30 -51 -32 -78 -5 -41 41 -14 130 40 130
10 0 28 -9 38 -20 12 -13 25 -18 35 -14 21 8 21 17 -1 44 -21 26 -87 36 -122
18z"/>
<path d="M10198 6416 c-10 -7 -18 -21 -18 -30 0 -9 -7 -16 -15 -16 -8 0 -15
-7 -15 -15 0 -8 7 -15 15 -15 12 0 15 -14 15 -64 0 -66 6 -76 50 -76 27 0 36
20 11 27 -18 5 -21 13 -21 59 0 41 4 54 15 54 8 0 15 7 15 15 0 8 -6 15 -14
15 -9 0 -16 12 -18 29 -3 26 -5 28 -20 17z"/>
<path d="M10483 6413 c-13 -9 -23 -22 -23 -29 0 -8 -4 -14 -10 -14 -5 0 -10
-7 -10 -15 0 -8 5 -15 10 -15 6 0 10 -23 10 -51 0 -66 13 -89 50 -89 20 0 30
5 30 15 0 8 -7 15 -15 15 -12 0 -15 13 -15 55 0 42 3 55 15 55 8 0 15 7 15 15
0 8 -6 15 -14 15 -9 0 -16 12 -18 29 -3 27 -4 28 -25 14z"/>
<path d="M10570 6415 c0 -8 9 -15 20 -15 11 0 20 7 20 15 0 8 -9 15 -20 15
-11 0 -20 -7 -20 -15z"/>
<path d="M7160 6285 c0 -84 0 -85 25 -85 25 0 25 1 25 85 0 84 0 85 -25 85
-25 0 -25 -1 -25 -85z"/>
<path d="M7269 6351 c-19 -15 -24 -29 -24 -66 0 -37 5 -51 24 -66 27 -22 61
-25 80 -6 10 10 12 7 9 -13 -2 -21 -8 -25 -33 -24 -16 1 -40 5 -52 9 -17 6
-23 3 -23 -8 0 -38 91 -50 131 -18 22 17 24 29 27 115 l4 96 -26 0 c-14 0 -26
-5 -26 -12 0 -9 -3 -9 -12 0 -18 18 -53 15 -79 -7z m80 -25 c17 -20 10 -77
-11 -89 -24 -16 -48 8 -48 47 0 49 34 73 59 42z"/>
<path d="M7466 6349 c-21 -16 -26 -29 -26 -64 0 -35 5 -48 26 -64 29 -23 74
-27 106 -10 17 9 18 13 7 20 -8 5 -27 6 -42 3 -27 -6 -57 9 -57 27 0 5 25 9
55 9 52 0 55 1 55 25 0 33 -42 75 -73 75 -13 0 -36 -9 -51 -21z m72 -21 c20
-20 14 -28 -23 -28 -19 0 -35 4 -35 8 0 12 22 32 35 32 6 0 16 -5 23 -12z"/>
<path d="M7630 6285 c0 -84 0 -85 25 -85 23 0 24 3 27 68 3 60 5 67 24 70 25
4 34 -19 34 -90 0 -41 3 -48 20 -48 18 0 20 7 20 69 0 92 -31 123 -91 91 -13
-7 -19 -7 -19 0 0 5 -9 10 -20 10 -18 0 -20 -7 -20 -85z"/>
<path d="M7810 6363 c0 -5 13 -42 29 -83 24 -61 34 -75 51 -75 17 0 27 14 51
75 35 90 35 92 7 88 -17 -2 -26 -15 -37 -50 -8 -27 -17 -48 -20 -48 -4 0 -14
23 -24 50 -13 37 -23 50 -37 50 -11 0 -20 -3 -20 -7z"/>
<path d="M8019 6351 c-19 -15 -24 -29 -24 -66 0 -37 5 -51 24 -66 28 -23 80
-25 107 -4 21 16 17 18 -46 19 -24 1 -36 6 -38 19 -3 14 5 17 52 17 62 0 68 8
41 59 -23 46 -75 55 -116 22z m79 -33 c3 -14 -3 -18 -27 -18 -29 0 -41 17 -24
34 13 13 48 1 51 -16z"/>
<path d="M8207 6357 c-38 -27 -38 -114 0 -143 24 -18 74 -17 101 2 28 19 28
31 1 39 -14 5 -25 1 -34 -12 -22 -29 -50 -5 -50 42 0 48 28 71 50 41 12 -15
19 -17 37 -9 l22 9 -22 22 c-25 25 -78 29 -105 9z"/>
<path d="M8502 6360 c-28 -12 -45 -55 -37 -96 7 -40 24 -54 74 -61 52 -7 91
28 91 82 0 66 -61 101 -128 75z m72 -36 c30 -29 10 -94 -28 -94 -21 0 -36 23
-36 55 0 50 33 71 64 39z"/>
<path d="M8660 6284 c0 -83 0 -84 25 -84 24 0 25 3 25 58 0 60 11 82 42 82 10
0 18 6 18 14 0 11 -14 15 -55 15 l-55 0 0 -85z"/>
<path d="M8800 6350 c-11 -11 -20 -24 -20 -28 0 -19 28 -42 65 -54 40 -13 50
-30 20 -36 -9 -2 -25 3 -34 12 -18 16 -51 13 -51 -5 0 -15 45 -39 75 -39 44 0
77 26 73 58 -2 22 -11 29 -50 40 -29 8 -48 19 -48 28 0 17 31 19 47 3 6 -6 21
-8 34 -4 l23 8 -23 18 c-31 25 -86 24 -111 -1z"/>
<path d="M9315 6347 c-58 -49 -20 -147 56 -147 39 0 89 48 89 85 0 37 -50 85
-89 85 -17 0 -41 -10 -56 -23z m83 -19 c17 -17 15 -73 -3 -88 -22 -18 -48 -8
-59 22 -19 53 27 101 62 66z"/>
<path d="M9490 6285 c0 -78 2 -85 20 -85 17 0 20 7 20 51 0 55 13 89 34 89 19
0 26 -23 26 -86 0 -47 2 -54 20 -54 17 0 20 7 20 51 0 55 13 89 34 89 19 0 26
-23 26 -86 0 -48 2 -54 20 -54 19 0 21 5 18 77 -3 75 -4 78 -31 87 -20 7 -34
7 -49 -3 -15 -9 -23 -10 -31 -2 -15 15 -60 14 -75 -1 -9 -9 -12 -9 -12 0 0 7
-9 12 -20 12 -18 0 -20 -7 -20 -85z"/>
<path d="M9780 6255 l0 -115 25 0 c22 0 25 4 25 35 0 33 1 34 30 28 24 -4 37
0 55 17 32 31 35 100 5 130 -22 22 -69 27 -88 8 -9 -9 -12 -9 -12 0 0 7 -9 12
-20 12 -19 0 -20 -7 -20 -115z m110 66 c23 -44 0 -99 -37 -87 -26 8 -36 46
-23 80 11 31 45 35 60 7z"/>
<path d="M9970 6313 c0 -32 6 -69 13 -83 11 -23 19 -25 80 -27 l67 -2 0 85 c0
83 0 84 -25 84 -24 0 -25 -3 -25 -59 0 -61 -16 -89 -45 -77 -11 4 -15 22 -15
71 0 63 -1 65 -25 65 -24 0 -25 -3 -25 -57z"/>
<path d="M10289 6351 l-23 -18 23 -8 c15 -4 26 -3 31 5 9 15 42 10 47 -7 3 -7
-8 -15 -24 -19 -46 -11 -73 -32 -73 -59 0 -35 40 -53 81 -38 16 6 29 7 29 2 0
-5 10 -9 21 -9 20 0 21 4 17 71 -3 55 -8 74 -23 85 -27 20 -79 17 -106 -5z
m81 -85 c0 -20 -27 -39 -45 -32 -22 8 -18 25 8 36 31 12 37 12 37 -4z"/>
<path d="M10570 6285 c0 -78 2 -85 20 -85 18 0 20 7 20 85 0 78 -2 85 -20 85
-18 0 -20 -7 -20 -85z"/>
<path d="M10675 6345 c-54 -53 -16 -145 60 -145 49 0 85 36 85 85 0 49 -36 85
-85 85 -25 0 -44 -8 -60 -25z m83 -17 c17 -17 15 -73 -3 -88 -20 -17 -52 -4
-59 25 -13 52 29 96 62 63z"/>
<path d="M10850 6285 c0 -84 0 -85 25 -85 24 0 25 3 25 59 0 61 16 89 45 77
11 -4 15 -22 15 -71 0 -63 1 -65 25 -65 24 0 25 2 25 63 0 74 -18 107 -59 107
-15 0 -32 -5 -39 -12 -9 -9 -12 -9 -12 0 0 7 -11 12 -25 12 -25 0 -25 -1 -25
-85z"/>
<path d="M863 6415 c-34 -24 -31 -69 7 -97 23 -16 30 -29 28 -48 -4 -30 -46
-41 -60 -16 -12 22 -25 20 -31 -3 -9 -37 74 -44 117 -10 36 28 33 56 -11 101
-30 31 -34 40 -23 53 17 20 40 19 56 -2 14 -20 21 -17 26 12 3 17 -3 20 -42
23 -29 2 -53 -3 -67 -13z"/>
<path d="M1027 6313 c-12 -11 -8 -23 7 -23 8 0 16 7 20 15 5 15 -14 21 -27 8z"/>
<path d="M1267 6313 c-12 -11 -8 -23 7 -23 8 0 16 7 20 15 5 15 -14 21 -27 8z"/>
<path d="M1338 6280 c-9 -10 -13 -20 -8 -22 5 -2 6 -19 1 -39 -5 -21 -5 -42
-1 -49 9 -15 52 -9 58 8 2 7 -2 10 -12 6 -11 -4 -16 0 -16 12 0 37 13 64 29
65 10 0 11 2 4 6 -7 2 -13 11 -13 19 0 19 -21 16 -42 -6z"/>
<path d="M1002 6215 c-2 -48 0 -55 17 -55 10 0 24 7 31 15 11 13 10 14 -5 9
-18 -7 -18 4 1 69 4 13 0 17 -18 17 -21 0 -23 -5 -26 -55z"/>
<path d="M1087 6263 c-11 -10 -8 -25 3 -18 12 8 13 -11 1 -53 -8 -28 -7 -32 9
-32 12 0 20 10 24 34 6 32 31 65 41 54 3 -2 0 -20 -5 -38 -6 -20 -6 -38 -1
-43 12 -12 43 -5 49 12 3 9 0 11 -8 6 -10 -6 -12 1 -6 34 5 33 3 43 -10 48 -9
3 -25 1 -35 -6 -12 -7 -19 -7 -19 -1 0 11 -33 14 -43 3z"/>
<path d="M1242 6215 c-2 -48 0 -55 17 -55 10 0 24 7 31 15 11 13 10 14 -5 9
-18 -7 -18 4 1 69 4 13 0 17 -18 17 -21 0 -23 -5 -26 -55z"/>
<path d="M8077 5319 c12 -12 -17 -160 -37 -184 -11 -13 -6 -15 35 -15 38 0 45
3 37 13 -13 16 4 95 17 81 13 -15 31 -76 25 -85 -3 -5 13 -9 35 -9 l40 0 -27
61 -26 62 48 43 48 44 -42 0 c-27 0 -39 -4 -34 -11 6 -10 -52 -79 -67 -79 -10
0 7 58 22 76 10 12 3 14 -37 14 -34 0 -45 -3 -37 -11z"/>
<path d="M8728 5323 c-23 -6 -24 -43 -2 -43 9 0 22 7 29 17 16 22 45 10 45
-20 0 -13 -20 -50 -45 -81 -25 -32 -45 -62 -45 -67 0 -5 34 -9 75 -9 l75 0 0
30 c0 20 -5 30 -15 30 -8 0 -15 -4 -15 -10 0 -5 -17 -10 -37 -10 l-37 0 47 48
c48 49 60 85 35 110 -12 12 -75 14 -110 5z"/>
<path d="M8380 5240 c0 -6 40 -10 100 -10 60 0 100 4 100 10 0 6 -40 10 -100
10 -60 0 -100 -4 -100 -10z"/>
<path d="M8380 5180 c0 -6 40 -10 100 -10 60 0 100 4 100 10 0 6 -40 10 -100
10 -60 0 -100 -4 -100 -10z"/>
<path d="M11330 5266 l0 -116 63 0 c34 0 73 6 87 13 52 26 64 135 21 189 -16
19 -30 23 -95 26 l-76 4 0 -116z m134 52 c38 -54 9 -128 -50 -128 l-34 0 0 75
0 75 34 0 c25 0 39 -7 50 -22z"/>
<path d="M11560 5365 c0 -9 9 -15 25 -15 16 0 25 6 25 15 0 9 -9 15 -25 15
-16 0 -25 -6 -25 -15z"/>
<path d="M12500 5365 c0 -8 9 -15 20 -15 11 0 20 7 20 15 0 8 -9 15 -20 15
-11 0 -20 -7 -20 -15z"/>
<path d="M13160 5265 l0 -115 25 0 25 0 0 115 0 115 -25 0 -25 0 0 -115z"/>
<path d="M13250 5365 c0 -9 9 -15 25 -15 16 0 25 6 25 15 0 9 -9 15 -25 15
-16 0 -25 -6 -25 -15z"/>
<path d="M13363 5365 c-13 -9 -23 -23 -23 -31 0 -8 -4 -14 -10 -14 -5 0 -10
-7 -10 -15 0 -8 5 -15 10 -15 6 0 10 -26 10 -58 0 -32 5 -63 12 -70 18 -18 68
-15 68 3 0 8 -7 15 -15 15 -12 0 -15 13 -15 55 0 42 3 55 15 55 8 0 15 6 16
13 0 18 59 -135 59 -156 0 -11 -9 -21 -20 -24 -11 -3 -20 -12 -20 -19 0 -15
37 -19 58 -5 10 6 92 201 92 219 0 2 -10 2 -22 0 -15 -2 -26 -16 -37 -50 -9
-26 -19 -50 -23 -53 -3 -4 -14 18 -24 49 -17 55 -18 56 -55 56 -35 0 -38 3
-41 30 -3 30 -4 30 -25 15z"/>
<path d="M13710 5265 l0 -115 25 0 c23 0 25 3 25 50 0 43 3 50 20 50 13 0 31
-18 52 -50 27 -40 39 -50 61 -50 26 0 27 2 16 23 -6 12 -22 37 -36 55 -13 17
-20 32 -14 32 19 0 41 32 41 60 0 44 -31 60 -117 60 l-73 0 0 -115z m135 50
c0 -16 -8 -21 -42 -23 -40 -3 -43 -2 -43 23 0 25 3 26 43 23 34 -2 42 -7 42
-23z"/>
<path d="M14230 5346 c0 -34 -1 -35 -34 -29 -48 8 -76 -22 -76 -80 0 -33 6
-49 23 -65 26 -24 66 -29 85 -10 9 9 12 9 12 0 0 -7 9 -12 20 -12 19 0 20 7
20 115 l0 115 -25 0 c-22 0 -25 -4 -25 -34z m-5 -111 c0 -47 -2 -50 -25 -50
-18 0 -27 7 -34 27 -14 39 7 80 37 76 19 -3 22 -9 22 -53z"/>
<path d="M14723 5363 c-13 -9 -23 -22 -23 -29 0 -8 -4 -14 -10 -14 -5 0 -10
-7 -10 -15 0 -8 5 -15 10 -15 6 0 10 -23 10 -51 0 -66 13 -89 50 -89 20 0 30
5 30 15 0 8 -7 15 -15 15 -12 0 -15 13 -15 55 0 42 3 55 15 55 8 0 15 7 15 15
0 8 -6 15 -14 15 -9 0 -16 12 -18 29 -3 27 -4 28 -25 14z"/>
<path d="M14810 5365 c0 -8 9 -15 20 -15 11 0 20 7 20 15 0 8 -9 15 -20 15
-11 0 -20 -7 -20 -15z"/>
<path d="M11560 5235 c0 -84 0 -85 25 -85 25 0 25 1 25 85 0 84 0 85 -25 85
-25 0 -25 -1 -25 -85z"/>
<path d="M11650 5235 c0 -84 0 -85 25 -85 23 0 24 3 27 68 3 59 5 67 23 67 18
0 20 -8 23 -67 3 -64 4 -68 27 -68 23 0 24 4 27 68 3 59 5 67 23 67 18 0 20
-8 23 -67 3 -66 4 -68 29 -68 l26 0 -6 71 c-3 39 -11 77 -18 85 -14 17 -60 19
-76 3 -8 -8 -17 -7 -32 2 -16 11 -27 11 -51 2 -16 -6 -30 -7 -30 -2 0 5 -9 9
-20 9 -18 0 -20 -7 -20 -85z"/>
<path d="M11956 5299 c-21 -16 -26 -29 -26 -64 0 -35 5 -48 26 -64 29 -23 74
-27 106 -10 17 9 18 13 7 20 -8 5 -27 6 -42 3 -27 -6 -57 9 -57 27 0 5 25 9
55 9 52 0 55 1 55 25 0 33 -42 75 -73 75 -13 0 -36 -9 -51 -21z m72 -21 c20
-20 14 -28 -23 -28 -19 0 -35 4 -35 8 0 12 22 32 35 32 6 0 16 -5 23 -12z"/>
<path d="M12120 5235 c0 -84 0 -85 25 -85 23 0 24 3 27 68 3 60 5 67 24 70 25
4 34 -19 34 -90 0 -41 3 -48 20 -48 18 0 20 7 20 69 0 92 -31 123 -91 91 -13
-7 -19 -7 -19 0 0 5 -9 10 -20 10 -18 0 -20 -7 -20 -85z"/>
<path d="M12326 5304 c-34 -34 -9 -73 57 -90 15 -3 26 -11 24 -18 -6 -18 -40
-19 -53 -1 -9 12 -19 15 -35 10 l-23 -8 28 -23 c34 -30 88 -32 116 -4 11 11
20 27 20 35 0 18 -35 41 -77 50 -18 4 -33 11 -33 16 0 16 32 23 51 11 19 -12
49 -6 49 9 0 29 -98 39 -124 13z"/>
<path d="M12500 5235 c0 -78 2 -85 20 -85 18 0 20 7 20 85 0 78 -2 85 -20 85
-18 0 -20 -7 -20 -85z"/>
<path d="M12605 5297 c-58 -49 -20 -147 56 -147 39 0 89 48 89 85 0 37 -50 85
-89 85 -17 0 -41 -10 -56 -23z m83 -19 c17 -17 15 -73 -3 -88 -22 -18 -48 -8
-59 22 -19 53 27 101 62 66z"/>
<path d="M12780 5235 c0 -84 0 -85 25 -85 24 0 25 2 25 64 0 56 3 66 20 71 33
10 40 -3 40 -71 0 -62 1 -64 25 -64 22 0 25 4 25 38 0 110 -28 148 -91 125
-16 -6 -29 -7 -29 -2 0 5 -9 9 -20 9 -18 0 -20 -7 -20 -85z"/>
<path d="M12989 5301 l-23 -18 23 -8 c15 -4 26 -3 31 5 9 15 42 10 47 -7 3 -7
-8 -15 -24 -19 -46 -11 -73 -32 -73 -59 0 -35 40 -53 81 -38 16 6 29 7 29 2 0
-5 10 -9 21 -9 20 0 21 4 17 71 -3 55 -8 74 -23 85 -27 20 -79 17 -106 -5z
m81 -85 c0 -20 -27 -39 -45 -32 -22 8 -18 25 8 36 31 12 37 12 37 -4z"/>
<path d="M13250 5235 c0 -84 0 -85 25 -85 25 0 25 1 25 85 0 84 0 85 -25 85
-25 0 -25 -1 -25 -85z"/>
<path d="M13967 5308 c-42 -33 -41 -125 3 -148 24 -13 66 -13 91 1 28 15 13
31 -22 24 -29 -7 -59 7 -59 26 0 5 25 9 55 9 52 0 55 1 55 25 0 55 -79 95
-123 63z m71 -41 c3 -13 -3 -17 -27 -17 -33 0 -39 8 -19 28 17 17 42 11 46
-11z"/>
<path d="M14320 5263 c0 -32 6 -69 13 -83 11 -23 19 -25 80 -27 l67 -2 0 85
c0 83 0 84 -25 84 -24 0 -25 -3 -25 -59 0 -61 -16 -89 -45 -77 -11 4 -15 22
-15 71 0 63 -1 65 -25 65 -24 0 -25 -3 -25 -57z"/>
<path d="M14535 5295 c-51 -51 -17 -145 53 -145 35 0 79 31 68 48 -10 17 -33
15 -40 -4 -3 -9 -15 -14 -28 -12 -20 3 -23 9 -23 53 0 40 3 50 18 53 10 2 24
-4 31 -13 7 -10 18 -14 29 -9 23 8 21 20 -5 38 -33 23 -75 20 -103 -9z"/>
<path d="M14810 5235 c0 -78 2 -85 20 -85 18 0 20 7 20 85 0 78 -2 85 -20 85
-18 0 -20 -7 -20 -85z"/>
<path d="M14915 5295 c-54 -53 -16 -145 60 -145 49 0 85 36 85 85 0 49 -36 85
-85 85 -25 0 -44 -8 -60 -25z m83 -17 c17 -17 15 -73 -3 -88 -20 -17 -52 -4
-59 25 -13 52 29 96 62 63z"/>
<path d="M15090 5235 c0 -84 0 -85 25 -85 24 0 25 3 25 59 0 61 16 89 45 77
11 -4 15 -22 15 -71 0 -63 1 -65 25 -65 24 0 25 2 25 63 0 74 -18 107 -59 107
-15 0 -32 -5 -39 -12 -9 -9 -12 -9 -12 0 0 7 -11 12 -25 12 -25 0 -25 -1 -25
-85z"/>
<path d="M5165 4708 c-32 -17 -66 -51 -81 -80 -7 -14 -32 -109 -54 -210 -22
-100 -42 -191 -44 -200 -3 -15 3 -18 39 -18 l43 0 12 63 11 62 55 -3 c97 -7
154 35 154 112 0 44 -12 67 -44 84 -18 9 -16 12 20 30 67 34 86 113 38 151
-30 24 -114 29 -149 9z m85 -33 c28 -34 -20 -125 -66 -125 -21 0 -17 -38 5
-45 25 -8 34 -47 21 -94 -13 -48 -30 -63 -67 -59 -26 3 -28 6 -27 43 0 22 11
84 23 138 30 128 75 186 111 142z"/>
<path d="M4206 4688 c-11 -44 -8 -49 31 -46 33 3 38 7 44 36 6 32 6 32 -31 32
-31 0 -39 -4 -44 -22z"/>
<path d="M4658 4598 c-163 -75 -178 -84 -178 -108 0 -23 14 -31 172 -100 94
-41 176 -77 181 -79 4 -2 7 9 5 24 -3 24 -13 32 -78 60 -41 18 -106 47 -145
64 l-70 32 145 64 c87 38 146 70 148 79 10 48 -1 46 -180 -36z"/>
<path d="M4150 4595 c0 -3 5 -14 12 -24 10 -16 8 -35 -5 -93 -30 -128 -22
-158 44 -158 45 0 101 41 83 60 -8 8 -14 7 -24 -5 -16 -20 -40 -19 -40 1 0 15
36 181 45 212 3 9 -12 12 -55 12 -33 0 -60 -2 -60 -5z"/>
<path d="M8691 4808 c7 -13 25 -42 40 -65 23 -32 29 -53 29 -92 0 -48 2 -51
25 -51 24 0 25 3 25 53 0 38 6 62 23 87 13 19 32 47 42 63 l17 27 -26 0 c-20
0 -32 -10 -54 -46 l-29 -45 -24 45 c-20 38 -29 46 -52 46 -26 0 -27 -2 -16
-22z"/>
<path d="M8917 4758 c-42 -33 -41 -125 3 -148 27 -15 86 -12 99 4 16 19 -1 29
-34 20 -25 -6 -55 9 -55 27 0 5 25 9 55 9 52 0 55 1 55 25 0 55 -79 95 -123
63z m71 -41 c3 -13 -3 -17 -27 -17 -33 0 -39 8 -19 28 17 17 42 11 46 -11z"/>
<path d="M9086 4757 c-12 -9 -17 -23 -14 -42 3 -26 9 -32 51 -44 47 -15 57
-33 22 -40 -10 -2 -24 4 -31 14 -9 11 -19 15 -34 10 l-22 -7 23 -24 c41 -44
139 -22 139 31 0 18 -35 41 -77 50 -18 4 -33 11 -33 16 0 17 31 22 56 9 19
-11 27 -11 37 -1 30 31 -77 57 -117 28z"/>
<path d="M8910 3870 c0 -16 7 -20 35 -20 l35 0 0 -95 c0 -88 1 -95 20 -95 19
0 20 7 20 95 l0 95 35 0 c28 0 35 4 35 20 0 19 -7 20 -90 20 -83 0 -90 -1 -90
-20z"/>
<path d="M9711 3876 c-70 -39 -67 -172 4 -204 54 -25 110 -8 136 40 9 16 8 23
-2 29 -21 13 -39 11 -39 -6 0 -16 -30 -35 -54 -35 -27 0 -46 30 -46 75 0 49
19 75 55 75 13 0 31 -10 39 -22 13 -18 19 -20 38 -11 l23 10 -32 31 c-35 35
-79 42 -122 18z"/>
<path d="M10498 3876 c-10 -7 -18 -21 -18 -30 0 -9 -7 -16 -15 -16 -8 0 -15
-7 -15 -15 0 -8 7 -15 15 -15 12 0 15 -14 15 -64 0 -66 6 -76 50 -76 27 0 36
20 11 27 -18 5 -21 13 -21 59 0 41 4 54 15 54 8 0 15 7 15 15 0 8 -6 15 -14
15 -9 0 -16 12 -18 29 -3 26 -5 28 -20 17z"/>
<path d="M11108 3876 c-10 -7 -18 -21 -18 -30 0 -9 -7 -16 -15 -16 -8 0 -15
-7 -15 -15 0 -8 7 -15 15 -15 12 0 15 -14 15 -64 0 -66 6 -76 50 -76 27 0 36
20 11 27 -18 5 -21 13 -21 59 0 41 4 54 15 54 8 0 15 7 15 15 0 8 -6 15 -14
15 -9 0 -16 12 -18 29 -3 26 -5 28 -20 17z"/>
<path d="M11190 3875 c0 -9 9 -15 25 -15 16 0 25 6 25 15 0 9 -9 15 -25 15
-16 0 -25 -6 -25 -15z"/>
<path d="M12240 3848 c0 -33 -3 -39 -12 -30 -38 38 -108 -10 -108 -73 0 -63
70 -111 108 -73 9 9 12 9 12 0 0 -7 9 -12 20 -12 19 0 20 7 20 115 0 108 -1
115 -20 115 -17 0 -20 -7 -20 -42z m-10 -67 c23 -45 0 -99 -38 -87 -18 6 -22
15 -22 51 0 41 8 52 37 54 7 1 17 -8 23 -18z"/>
<path d="M12410 3775 l0 -115 25 0 c23 0 25 4 25 45 l0 45 45 0 c56 0 85 25
85 74 0 50 -28 66 -112 66 l-68 0 0 -115z m125 45 c0 -22 -5 -25 -37 -28 -36
-3 -38 -2 -38 28 0 30 2 31 38 28 32 -3 37 -6 37 -28z"/>
<path d="M13040 3875 c0 -9 9 -15 25 -15 16 0 25 6 25 15 0 9 -9 15 -25 15
-16 0 -25 -6 -25 -15z"/>
<path d="M13158 3876 c-10 -7 -18 -21 -18 -30 0 -9 -7 -16 -15 -16 -8 0 -15
-7 -15 -15 0 -8 7 -15 15 -15 12 0 15 -14 15 -64 0 -66 6 -76 50 -76 27 0 36
20 11 27 -18 5 -21 13 -21 59 0 41 4 54 15 54 8 0 15 7 15 15 0 8 -6 15 -14
15 -9 0 -16 12 -18 29 -3 26 -5 28 -20 17z"/>
<path d="M13240 3875 c0 -9 9 -15 25 -15 16 0 25 6 25 15 0 9 -9 15 -25 15
-16 0 -25 -6 -25 -15z"/>
<path d="M13720 3875 c0 -9 9 -15 25 -15 16 0 25 6 25 15 0 9 -9 15 -25 15
-16 0 -25 -6 -25 -15z"/>
<path d="M12952 3868 c-7 -7 -12 -18 -12 -25 0 -8 -14 -13 -39 -13 -22 0 -42
-5 -44 -12 -4 -10 -6 -10 -6 0 -1 6 -10 12 -21 12 -18 0 -20 -7 -20 -85 0 -78
2 -85 20 -85 17 0 20 7 21 43 2 65 12 91 39 97 43 11 50 2 50 -60 0 -63 14
-84 51 -78 26 4 39 28 15 28 -13 0 -16 11 -16 55 0 42 3 55 15 55 8 0 15 7 15
15 0 8 -7 15 -15 15 -9 0 -15 9 -15 25 0 27 -18 33 -38 13z"/>
<path d="M9090 3745 c0 -84 0 -85 25 -85 23 0 24 3 27 67 3 62 5 68 27 73 14
3 26 11 29 18 5 16 -40 16 -56 0 -9 -9 -12 -9 -12 0 0 7 -9 12 -20 12 -18 0
-20 -7 -20 -85z"/>
<path d="M9236 3809 c-21 -16 -26 -29 -26 -64 0 -35 5 -48 26 -64 29 -23 74
-27 106 -10 17 9 18 13 7 20 -8 5 -27 6 -42 3 -27 -6 -57 9 -57 27 0 5 25 9
55 9 52 0 55 1 55 25 0 33 -42 75 -73 75 -13 0 -36 -9 -51 -21z m72 -21 c20
-20 14 -28 -23 -28 -19 0 -35 4 -35 8 0 12 22 32 35 32 6 0 16 -5 23 -12z"/>
<path d="M9417 3818 c-42 -33 -41 -125 3 -148 24 -13 66 -13 91 1 28 15 13 31
-22 24 -29 -7 -59 7 -59 26 0 5 25 9 55 9 52 0 55 1 55 25 0 55 -79 95 -123
63z m71 -41 c3 -13 -3 -17 -27 -17 -33 0 -39 8 -19 28 17 17 42 11 46 -11z"/>
<path d="M9932 3820 c-28 -12 -45 -55 -37 -96 7 -40 24 -54 74 -61 52 -7 91
28 91 82 0 66 -61 101 -128 75z m72 -36 c30 -29 10 -94 -28 -94 -21 0 -36 23
-36 55 0 50 33 71 64 39z"/>
<path d="M10100 3745 c0 -78 2 -85 20 -85 17 0 20 7 20 53 0 59 18 94 44 84
12 -5 16 -20 16 -72 0 -63 1 -65 25 -65 24 0 25 2 25 68 0 54 -4 72 -18 85
-22 20 -63 22 -80 5 -9 -9 -12 -9 -12 0 0 7 -9 12 -20 12 -18 0 -20 -7 -20
-85z"/>
<path d="M10306 3817 c-12 -9 -17 -23 -14 -42 3 -26 9 -32 51 -44 47 -15 57
-33 22 -40 -10 -2 -25 5 -32 15 -10 13 -17 15 -35 7 l-22 -9 22 -22 c38 -38
120 -26 134 18 9 27 -10 47 -57 60 -25 7 -45 19 -45 26 0 17 41 19 57 3 7 -7
17 -8 28 -1 16 8 15 11 -6 26 -28 19 -78 21 -103 3z"/>
<path d="M10580 3745 c0 -78 2 -85 20 -85 17 0 20 7 21 43 2 64 12 92 37 95
30 5 28 32 -2 32 -13 0 -27 -6 -29 -12 -4 -10 -6 -10 -6 0 -1 6 -10 12 -21 12
-18 0 -20 -7 -20 -85z"/>
<path d="M10700 3773 c0 -32 6 -69 13 -83 11 -23 19 -25 80 -27 l67 -2 0 85
c0 83 0 84 -25 84 -24 0 -25 -3 -25 -59 0 -61 -16 -89 -45 -77 -11 4 -15 22
-15 71 0 63 -1 65 -25 65 -24 0 -25 -3 -25 -57z"/>
<path d="M10919 3811 c-19 -15 -24 -29 -24 -66 0 -37 5 -51 24 -66 32 -26 85
-25 113 3 l22 22 -22 9 c-18 8 -25 6 -37 -9 -22 -30 -50 -7 -50 41 0 47 28 71
49 42 8 -10 20 -15 30 -11 21 8 20 17 -2 37 -25 23 -74 21 -103 -2z"/>
<path d="M11190 3745 c0 -84 0 -85 25 -85 25 0 25 1 25 85 0 84 0 85 -25 85
-25 0 -25 -1 -25 -85z"/>
<path d="M11312 3820 c-28 -12 -45 -55 -37 -96 7 -39 23 -53 68 -61 75 -12
118 87 62 142 -25 26 -54 30 -93 15z m62 -36 c30 -29 10 -94 -29 -94 -15 0
-25 22 -25 55 0 53 23 70 54 39z"/>
<path d="M11470 3745 c0 -78 2 -85 20 -85 17 0 20 7 20 53 0 59 18 94 44 84
12 -5 16 -20 16 -72 0 -63 1 -65 25 -65 24 0 25 2 25 68 0 54 -4 72 -18 85
-22 20 -63 22 -80 5 -9 -9 -12 -9 -12 0 0 7 -9 12 -20 12 -18 0 -20 -7 -20
-85z"/>
<path d="M11764 3816 c-15 -12 -16 -17 -7 -27 10 -10 17 -10 37 0 24 13 46 9
46 -9 0 -5 -17 -14 -39 -20 -48 -13 -65 -32 -57 -65 8 -30 47 -42 82 -26 15 6
24 7 24 1 0 -6 10 -10 23 -10 21 0 22 3 19 67 -3 44 -9 74 -19 86 -20 21 -81
23 -109 3z m74 -98 c-4 -31 -48 -39 -48 -9 0 17 12 25 43 30 5 0 7 -9 5 -21z"/>
<path d="M11930 3745 c0 -84 0 -85 25 -85 24 0 25 2 25 64 0 56 3 66 20 71 33
10 40 -3 40 -71 0 -62 1 -64 25 -64 22 0 25 4 25 38 0 110 -28 148 -91 125
-16 -6 -29 -7 -29 -2 0 5 -9 9 -20 9 -18 0 -20 -7 -20 -85z"/>
<path d="M12639 3811 l-23 -18 23 -8 c15 -4 26 -3 31 5 9 15 42 10 47 -7 3 -7
-8 -15 -24 -19 -46 -11 -73 -32 -73 -59 0 -35 40 -53 81 -38 16 6 29 7 29 2 0
-5 10 -9 21 -9 20 0 21 4 17 71 -3 55 -8 74 -23 85 -27 20 -79 17 -106 -5z
m81 -85 c0 -20 -27 -39 -45 -32 -22 8 -18 25 8 36 31 12 37 12 37 -4z"/>
<path d="M13040 3745 c0 -84 0 -85 25 -85 25 0 25 1 25 85 0 84 0 85 -25 85
-25 0 -25 -1 -25 -85z"/>
<path d="M13240 3745 c0 -84 0 -85 25 -85 25 0 25 1 25 85 0 84 0 85 -25 85
-25 0 -25 -1 -25 -85z"/>
<path d="M13362 3820 c-28 -12 -45 -55 -37 -96 7 -40 24 -54 74 -61 52 -7 91
28 91 82 0 66 -61 101 -128 75z m72 -36 c30 -29 10 -94 -28 -94 -21 0 -36 23
-36 55 0 50 33 71 64 39z"/>
<path d="M13530 3745 c0 -78 2 -85 20 -85 17 0 20 7 20 53 0 59 18 94 44 84
12 -5 16 -20 16 -72 0 -63 1 -65 25 -65 24 0 25 2 25 68 0 54 -4 72 -18 85
-22 20 -63 22 -80 5 -9 -9 -12 -9 -12 0 0 7 -9 12 -20 12 -18 0 -20 -7 -20
-85z"/>
<path d="M13720 3745 c0 -84 0 -85 25 -85 25 0 25 1 25 85 0 84 0 85 -25 85
-25 0 -25 -1 -25 -85z"/>
<path d="M13810 3745 c0 -84 0 -85 25 -85 24 0 25 2 25 64 0 56 3 66 20 71 33
10 40 -3 40 -71 0 -62 1 -64 25 -64 22 0 25 4 25 38 0 110 -28 148 -91 125
-16 -6 -29 -7 -29 -2 0 5 -9 9 -20 9 -18 0 -20 -7 -20 -85z"/>
<path d="M14021 3804 c-42 -53 -12 -144 48 -144 15 0 33 6 40 13 10 10 12 7 9
-13 -2 -20 -8 -25 -33 -25 -16 1 -40 4 -52 9 -17 5 -23 4 -23 -8 0 -35 87 -49
128 -20 20 14 22 23 22 115 0 92 -1 99 -20 99 -11 0 -20 -5 -20 -12 0 -9 -3
-9 -12 0 -21 21 -65 14 -87 -14z m91 -29 c17 -38 0 -80 -32 -80 -22 0 -25 5
-28 39 -2 21 -1 44 2 52 9 23 45 16 58 -11z"/>
<path d="M7771 2706 c-70 -39 -67 -172 4 -204 54 -25 110 -8 136 40 9 16 8 23
-2 29 -21 13 -39 11 -39 -6 0 -16 -30 -35 -54 -35 -27 0 -46 30 -46 75 0 49
19 75 55 75 13 0 31 -10 39 -22 13 -18 19 -20 38 -11 l23 10 -32 31 c-35 35
-79 42 -122 18z"/>
<path d="M8183 2705 c-13 -9 -23 -23 -23 -31 0 -8 -4 -14 -10 -14 -5 0 -10 -7
-10 -15 0 -8 5 -15 10 -15 6 0 10 -26 10 -58 0 -32 5 -63 12 -70 18 -18 68
-15 68 3 0 8 -7 15 -15 15 -12 0 -15 13 -15 55 0 42 3 55 15 55 8 0 15 7 15
15 0 8 -6 15 -14 15 -9 0 -16 12 -18 30 -3 30 -4 30 -25 15z"/>
<path d="M8420 2708 c-14 -7 -33 -30 -44 -51 -22 -46 -16 -95 19 -134 20 -24
31 -28 78 -28 64 0 92 19 107 74 12 43 -2 100 -30 126 -25 22 -97 30 -130 13z
m87 -36 c42 -27 33 -127 -12 -138 -56 -14 -92 29 -80 93 8 45 56 68 92 45z"/>
<path d="M9110 2605 c0 -108 1 -115 20 -115 19 0 20 7 20 115 0 108 -1 115
-20 115 -19 0 -20 -7 -20 -115z"/>
<path d="M9694 2710 c-36 -14 -54 -50 -54 -106 0 -83 57 -129 135 -110 32 8
70 66 52 78 -20 13 -35 9 -42 -12 -8 -25 -46 -35 -74 -20 -30 15 -31 114 -2
130 29 15 49 12 72 -11 22 -22 49 -19 49 5 0 40 -82 68 -136 46z"/>
<path d="M9880 2605 c0 -108 1 -115 20 -115 19 0 20 7 20 115 0 108 -1 115
-20 115 -19 0 -20 -7 -20 -115z"/>
<path d="M10760 2705 c0 -8 9 -15 20 -15 11 0 20 7 20 15 0 8 -9 15 -20 15
-11 0 -20 -7 -20 -15z"/>
<path d="M11800 2685 c0 -32 -2 -35 -24 -29 -61 15 -104 -40 -85 -110 13 -46
47 -65 90 -49 16 6 29 7 29 2 0 -5 9 -9 20 -9 19 0 20 7 20 115 l0 115 -25 0
c-22 0 -25 -4 -25 -35z m-11 -69 c17 -20 10 -77 -11 -89 -24 -16 -48 8 -48 47
0 49 34 73 59 42z"/>
<path d="M11980 2605 l0 -115 25 0 25 0 0 115 0 115 -25 0 -25 0 0 -115z"/>
<path d="M12070 2605 l0 -115 85 0 c78 0 85 2 85 20 0 18 -7 20 -60 20 l-60 0
0 95 c0 95 0 95 -25 95 l-25 0 0 -115z"/>
<path d="M12270 2605 l0 -115 25 0 c23 0 25 4 25 45 l0 45 40 0 c30 0 47 7 65
25 30 30 31 54 4 89 -19 24 -27 26 -90 26 l-69 0 0 -115z m114 69 c9 -3 16
-14 16 -24 0 -20 -19 -30 -56 -30 -20 0 -24 5 -24 30 0 25 4 30 24 30 13 0 31
-3 40 -6z"/>
<path d="M12590 2605 c0 -108 1 -115 20 -115 11 0 20 4 20 10 0 6 9 5 24 -1
39 -18 75 -3 92 37 29 70 -11 133 -76 120 -29 -5 -30 -4 -30 29 0 31 -3 35
-25 35 l-25 0 0 -115z m109 11 c17 -20 10 -77 -11 -89 -25 -17 -48 9 -48 53 0
47 33 67 59 36z"/>
<path d="M13430 2686 c0 -34 -1 -35 -34 -29 -48 8 -76 -22 -76 -80 0 -33 6
-49 23 -65 26 -24 66 -29 85 -10 9 9 12 9 12 0 0 -7 9 -12 20 -12 19 0 20 7
20 115 l0 115 -25 0 c-22 0 -25 -4 -25 -34z m-5 -111 c0 -47 -2 -50 -25 -50
-18 0 -27 7 -34 27 -14 39 7 80 37 76 19 -3 22 -9 22 -53z"/>
<path d="M13610 2605 l0 -115 25 0 c23 0 25 4 25 45 l0 45 39 0 c77 0 119 72
71 120 -16 16 -33 20 -90 20 l-70 0 0 -115z m128 51 c5 -23 -14 -36 -50 -36
-25 0 -28 4 -28 31 0 29 2 30 37 27 28 -2 39 -8 41 -22z"/>
<path d="M14158 2706 c-10 -7 -18 -21 -18 -30 0 -16 -36 -21 -112 -16 l-28 2
0 -86 c0 -85 0 -86 25 -86 24 0 25 3 25 58 0 67 11 82 57 82 l33 0 0 -64 c0
-66 6 -76 50 -76 27 0 36 20 11 27 -18 5 -21 13 -21 59 0 41 4 54 15 54 8 0
15 7 15 15 0 8 -6 15 -14 15 -9 0 -16 12 -18 29 -3 26 -5 28 -20 17z"/>
<path d="M14240 2705 c0 -9 9 -15 25 -15 16 0 25 6 25 15 0 9 -9 15 -25 15
-16 0 -25 -6 -25 -15z"/>
<path d="M14353 2703 c-13 -9 -23 -22 -23 -29 0 -8 -4 -14 -10 -14 -5 0 -10
-7 -10 -15 0 -8 5 -15 10 -15 6 0 10 -23 10 -51 0 -66 13 -89 50 -89 20 0 30
5 30 15 0 8 -7 15 -15 15 -12 0 -15 13 -15 55 0 42 3 55 15 55 8 0 15 7 15 15
0 8 -6 15 -14 15 -9 0 -16 12 -18 29 -3 27 -4 28 -25 14z"/>
<path d="M14440 2705 c0 -8 9 -15 20 -15 11 0 20 7 20 15 0 8 -9 15 -20 15
-11 0 -20 -7 -20 -15z"/>
<path d="M14920 2705 c0 -9 9 -15 25 -15 16 0 25 6 25 15 0 9 -9 15 -25 15
-16 0 -25 -6 -25 -15z"/>
<path d="M10362 2698 c-7 -7 -12 -18 -12 -25 0 -7 -4 -13 -10 -13 -5 0 -10 -7
-10 -15 0 -8 5 -15 10 -15 6 0 10 -26 10 -59 0 -64 13 -85 51 -79 26 4 39 28
15 28 -13 0 -16 11 -16 55 0 42 3 55 15 55 8 0 15 7 15 15 0 8 -7 15 -15 15
-9 0 -15 9 -15 25 0 27 -18 33 -38 13z"/>
<path d="M7960 2597 c0 -74 18 -107 59 -107 15 0 32 5 39 12 9 9 12 9 12 0 0
-7 9 -12 20 -12 18 0 20 7 20 85 0 78 -2 85 -20 85 -18 0 -20 -7 -20 -59 0
-61 -16 -89 -45 -77 -11 4 -15 22 -15 71 0 63 -1 65 -25 65 -24 0 -25 -2 -25
-63z"/>
<path d="M8610 2653 c0 -5 13 -42 29 -83 24 -61 34 -75 51 -75 17 0 27 14 51
75 35 90 35 92 7 88 -17 -2 -26 -15 -37 -50 -8 -27 -17 -48 -20 -48 -4 0 -14
23 -24 50 -13 37 -23 50 -37 50 -11 0 -20 -3 -20 -7z"/>
<path d="M8815 2635 c-53 -52 -16 -145 58 -145 18 0 42 7 53 15 21 16 17 18
-46 19 -24 1 -36 6 -38 19 -3 15 5 17 53 17 48 0 56 3 51 16 -3 9 -6 22 -6 29
0 23 -42 55 -72 55 -17 0 -39 -10 -53 -25z m73 -17 c19 -19 14 -28 -18 -28
-18 0 -30 5 -30 13 0 28 27 36 48 15z"/>
<path d="M8980 2575 c0 -84 0 -85 25 -85 23 0 24 3 27 67 3 62 5 68 27 73 14
3 26 11 29 18 5 16 -40 16 -56 0 -9 -9 -12 -9 -12 0 0 7 -9 12 -20 12 -18 0
-20 -7 -20 -85z"/>
<path d="M9206 2641 c-15 -17 -15 -19 -1 -25 9 -3 24 -1 34 6 20 12 51 5 51
-12 0 -5 -20 -15 -45 -21 -56 -14 -73 -40 -51 -74 14 -21 23 -23 78 -23 l63 1
-3 71 c-3 50 -9 75 -20 84 -24 19 -86 15 -106 -7z m84 -85 c0 -20 -27 -39 -45
-32 -22 8 -18 25 8 36 31 12 37 12 37 -4z"/>
<path d="M9360 2652 c0 -5 13 -44 29 -89 30 -81 29 -103 -6 -103 -7 0 -13 -7
-13 -15 0 -18 40 -20 63 -2 13 9 87 191 87 213 0 3 -10 4 -22 2 -15 -2 -26
-16 -37 -50 -9 -26 -19 -49 -22 -52 -3 -3 -13 19 -23 49 -13 42 -22 55 -37 55
-10 0 -19 -4 -19 -8z"/>
<path d="M9970 2585 c0 -71 1 -76 26 -87 19 -9 33 -9 55 -1 16 6 29 7 29 2 0
-5 9 -9 20 -9 18 0 20 7 20 85 0 84 0 85 -25 85 -23 0 -24 -3 -27 -67 -3 -57
-6 -68 -22 -71 -27 -5 -36 15 -36 81 0 50 -2 57 -20 57 -18 0 -20 -7 -20 -75z"/>
<path d="M10176 2647 c-12 -9 -17 -23 -14 -42 3 -26 9 -32 51 -44 47 -15 57
-33 22 -40 -10 -2 -25 5 -32 15 -10 13 -17 15 -35 7 l-22 -9 22 -22 c38 -38
120 -26 134 18 9 27 -10 47 -57 60 -25 7 -45 19 -45 26 0 17 41 19 57 3 7 -7
17 -8 28 -1 16 8 15 11 -6 26 -28 19 -78 21 -103 3z"/>
<path d="M10465 2635 c-53 -52 -16 -145 58 -145 18 0 42 7 53 15 21 16 17 18
-46 19 -24 1 -36 6 -38 19 -3 15 5 17 53 17 48 0 56 3 51 16 -3 9 -6 22 -6 29
0 23 -42 55 -72 55 -17 0 -39 -10 -53 -25z m73 -17 c19 -19 14 -28 -18 -28
-18 0 -30 5 -30 13 0 28 27 36 48 15z"/>
<path d="M10630 2575 c0 -78 2 -85 20 -85 17 0 20 7 21 43 2 64 12 92 37 95
30 5 28 32 -2 32 -13 0 -27 -6 -29 -12 -4 -10 -6 -10 -6 0 -1 6 -10 12 -21 12
-18 0 -20 -7 -20 -85z"/>
<path d="M10760 2575 c0 -78 2 -85 20 -85 18 0 20 7 20 85 0 78 -2 85 -20 85
-18 0 -20 -7 -20 -85z"/>
<path d="M10840 2575 c0 -84 0 -85 25 -85 24 0 25 3 25 59 0 61 16 89 45 77
11 -4 15 -22 15 -71 0 -63 1 -65 25 -65 24 0 25 2 25 63 0 74 -18 107 -59 107
-15 0 -32 -5 -39 -12 -9 -9 -12 -9 -12 0 0 7 -11 12 -25 12 -25 0 -25 -1 -25
-85z"/>
<path d="M11059 2641 c-19 -15 -24 -29 -24 -66 0 -37 5 -51 24 -66 27 -22 61
-25 80 -6 10 10 12 7 9 -13 -2 -21 -8 -25 -33 -24 -16 1 -40 5 -52 9 -17 6
-23 3 -23 -8 0 -38 91 -50 131 -18 22 17 24 29 27 115 l4 96 -26 0 c-14 0 -26
-5 -26 -12 0 -9 -3 -9 -12 0 -18 18 -53 15 -79 -7z m80 -25 c17 -20 10 -77
-11 -89 -24 -16 -48 8 -48 47 0 49 34 73 59 42z"/>
<path d="M11336 2644 c-9 -8 -14 -20 -11 -25 8 -13 35 -11 35 2 0 14 42 7 47
-8 3 -7 -13 -16 -36 -23 -30 -8 -42 -17 -47 -35 -13 -51 18 -76 67 -58 16 7
29 7 29 2 0 -5 10 -9 21 -9 20 0 21 4 17 71 -3 55 -8 74 -23 85 -25 19 -80 18
-99 -2z m74 -88 c0 -20 -27 -39 -45 -32 -22 8 -18 25 8 36 31 12 37 12 37 -4z"/>
<path d="M11500 2575 c0 -84 0 -85 25 -85 23 0 24 3 27 68 3 60 5 67 24 70 25
4 34 -19 34 -90 0 -41 3 -48 20 -48 18 0 20 7 20 69 0 92 -31 123 -91 91 -13
-7 -19 -7 -19 0 0 5 -9 10 -20 10 -18 0 -20 -7 -20 -85z"/>
<path d="M12799 2641 l-23 -18 23 -8 c15 -4 26 -3 31 5 9 15 42 10 47 -7 3 -7
-8 -15 -24 -19 -46 -11 -73 -32 -73 -59 0 -35 40 -53 81 -38 16 6 29 7 29 2 0
-5 10 -9 21 -9 20 0 21 4 17 71 -3 55 -8 74 -23 85 -27 20 -79 17 -106 -5z
m81 -85 c0 -20 -27 -39 -45 -32 -22 8 -18 25 8 36 31 12 37 12 37 -4z"/>
<path d="M12976 2644 c-34 -34 -9 -73 57 -90 15 -3 26 -11 24 -18 -6 -18 -40
-19 -53 -1 -9 12 -19 15 -35 10 l-23 -8 28 -23 c34 -30 88 -32 116 -4 11 11
20 27 20 35 0 18 -35 41 -77 50 -18 4 -33 11 -33 16 0 16 32 23 51 11 19 -12
49 -6 49 9 0 29 -98 39 -124 13z"/>
<path d="M13167 2648 c-42 -33 -41 -125 3 -148 24 -13 66 -13 91 1 28 15 13
31 -22 24 -29 -7 -59 7 -59 26 0 5 25 9 55 9 52 0 55 1 55 25 0 55 -79 95
-123 63z m71 -41 c3 -13 -3 -17 -27 -17 -33 0 -39 8 -19 28 17 17 42 11 46
-11z"/>
<path d="M13836 2641 c-15 -17 -15 -19 -1 -25 9 -3 24 -1 34 6 20 12 51 5 51
-12 0 -5 -20 -15 -45 -21 -56 -14 -73 -40 -51 -74 14 -21 23 -23 78 -23 l63 1
-3 71 c-3 50 -9 75 -20 84 -24 19 -86 15 -106 -7z m84 -85 c0 -20 -27 -39 -45
-32 -22 8 -18 25 8 36 31 12 37 12 37 -4z"/>
<path d="M14240 2575 c0 -84 0 -85 25 -85 25 0 25 1 25 85 0 84 0 85 -25 85
-25 0 -25 -1 -25 -85z"/>
<path d="M14440 2575 c0 -78 2 -85 20 -85 18 0 20 7 20 85 0 78 -2 85 -20 85
-18 0 -20 -7 -20 -85z"/>
<path d="M14545 2635 c-54 -53 -16 -145 60 -145 49 0 85 36 85 85 0 76 -92
114 -145 60z m83 -17 c17 -17 15 -73 -3 -88 -20 -17 -52 -4 -59 25 -13 52 29
96 62 63z"/>
<path d="M14720 2575 c0 -84 0 -85 25 -85 24 0 25 3 25 59 0 61 16 89 45 77
11 -4 15 -22 15 -71 0 -63 1 -65 25 -65 24 0 25 2 25 63 0 74 -18 107 -59 107
-15 0 -32 -5 -39 -12 -9 -9 -12 -9 -12 0 0 7 -11 12 -25 12 -25 0 -25 -1 -25
-85z"/>
<path d="M14920 2575 c0 -84 0 -85 25 -85 25 0 25 1 25 85 0 84 0 85 -25 85
-25 0 -25 -1 -25 -85z"/>
<path d="M15010 2575 c0 -84 0 -85 25 -85 23 0 24 3 27 68 3 60 5 67 24 70 25
4 34 -19 34 -90 0 -41 3 -48 20 -48 18 0 20 7 20 69 0 92 -31 123 -91 91 -13
-7 -19 -7 -19 0 0 5 -9 10 -20 10 -18 0 -20 -7 -20 -85z"/>
<path d="M15222 2637 c-30 -31 -30 -95 -1 -126 17 -18 29 -22 55 -18 26 4 34
2 34 -9 0 -22 -25 -27 -65 -14 -45 15 -58 5 -26 -21 32 -26 95 -25 121 1 17
17 20 33 20 115 0 88 -1 95 -20 95 -11 0 -20 -5 -20 -10 0 -7 -6 -7 -19 0 -31
16 -56 12 -79 -13z m86 -59 c3 -40 0 -47 -19 -53 -16 -5 -26 -2 -36 11 -27 37
-7 97 30 92 19 -3 22 -10 25 -50z"/>
<path d="M8260 2570 c0 -17 7 -20 45 -20 38 0 45 3 45 20 0 17 -7 20 -45 20
-38 0 -45 -3 -45 -20z"/>
<path d="M12480 2570 c0 -17 7 -20 45 -20 38 0 45 3 45 20 0 17 -7 20 -45 20
-38 0 -45 -3 -45 -20z"/>
<path d="M4645 725 c-14 -13 -25 -30 -25 -37 0 -28 32 -57 81 -73 36 -12 49
-21 47 -33 -4 -23 -61 -28 -78 -8 -7 9 -23 16 -36 16 -21 0 -22 -2 -13 -24 22
-48 106 -62 153 -25 51 40 29 91 -49 115 -40 13 -55 22 -53 33 4 19 46 27 61
12 16 -16 57 -14 57 3 0 47 -105 62 -145 21z"/>
<path d="M5030 635 l0 -115 25 0 25 0 0 115 0 115 -25 0 -25 0 0 -115z"/>
<path d="M5348 736 c-10 -7 -18 -21 -18 -30 0 -9 -7 -16 -15 -16 -8 0 -15 -7
-15 -15 0 -8 7 -15 15 -15 12 0 15 -14 15 -64 0 -66 6 -76 50 -76 27 0 36 20
11 27 -18 5 -21 13 -21 59 0 41 4 54 15 54 8 0 15 7 15 15 0 8 -6 15 -14 15
-9 0 -16 12 -18 29 -3 26 -5 28 -20 17z"/>
<path d="M5430 735 c0 -9 9 -15 25 -15 16 0 25 6 25 15 0 9 -9 15 -25 15 -16
0 -25 -6 -25 -15z"/>
<path d="M6000 635 l0 -115 25 0 c23 0 25 3 25 50 0 73 29 67 80 -15 17 -27
28 -35 51 -35 l30 0 -34 53 -34 53 24 17 c30 24 31 70 1 91 -15 11 -46 16 -95
16 l-73 0 0 -115z m135 50 c0 -16 -8 -21 -42 -23 -40 -3 -43 -2 -43 23 0 25 3
26 43 23 34 -2 42 -7 42 -23z"/>
<path d="M6432 738 c-7 -7 -12 -20 -12 -30 0 -10 -7 -18 -15 -18 -8 0 -15 -7
-15 -15 0 -8 7 -15 15 -15 12 0 15 -14 15 -70 0 -68 1 -70 25 -70 24 0 25 2
25 70 0 56 3 70 15 70 8 0 15 7 15 15 0 8 -7 15 -15 15 -23 0 -18 27 6 33 12
3 18 10 14 16 -9 15 -58 14 -73 -1z"/>
<path d="M6520 735 c0 -9 9 -15 25 -15 16 0 25 6 25 15 0 9 -9 15 -25 15 -16
0 -25 -6 -25 -15z"/>
<path d="M7678 736 c-10 -7 -18 -21 -18 -30 0 -9 -7 -16 -15 -16 -8 0 -15 -7
-15 -15 0 -8 7 -15 15 -15 12 0 15 -14 15 -64 0 -66 6 -76 50 -76 27 0 36 20
11 27 -18 5 -21 13 -21 59 0 41 4 54 15 54 8 0 15 7 15 15 0 8 -6 15 -14 15
-9 0 -16 12 -18 29 -3 26 -5 28 -20 17z"/>
<path d="M8094 740 c-36 -14 -54 -50 -54 -106 0 -83 57 -129 135 -110 32 8 70
66 52 78 -20 13 -35 9 -42 -12 -8 -25 -46 -35 -74 -20 -30 15 -31 114 -2 130
29 15 49 12 72 -11 22 -22 49 -19 49 5 0 40 -82 68 -136 46z"/>
<path d="M8718 721 c-30 -27 -33 -35 -33 -86 0 -51 3 -59 33 -86 75 -67 182
-17 182 86 0 103 -107 153 -182 86z m114 -28 c23 -21 24 -89 1 -115 -38 -42
-103 -6 -103 57 0 62 60 96 102 58z"/>
<path d="M9420 635 l0 -115 25 0 25 0 0 115 0 115 -25 0 -25 0 0 -115z"/>
<path d="M10010 738 c-37 -19 -64 -80 -55 -125 9 -48 54 -93 95 -93 52 0 100
33 100 70 0 21 -33 18 -52 -5 -24 -30 -51 -32 -78 -5 -41 41 -14 130 40 130
10 0 28 -9 38 -20 12 -13 25 -18 35 -14 21 8 21 17 -1 44 -21 26 -87 36 -122
18z"/>
<path d="M10190 635 l0 -115 25 0 25 0 0 115 0 115 -25 0 -25 0 0 -115z"/>
<path d="M10688 736 c-10 -7 -18 -21 -18 -30 0 -9 -7 -16 -15 -16 -8 0 -15 -7
-15 -15 0 -8 7 -15 15 -15 12 0 15 -14 15 -64 0 -66 6 -76 50 -76 27 0 36 20
11 27 -18 5 -21 13 -21 59 0 41 4 54 15 54 8 0 15 7 15 15 0 8 -6 15 -14 15
-9 0 -16 12 -18 29 -3 26 -5 28 -20 17z"/>
<path d="M11070 735 c0 -9 9 -15 25 -15 16 0 25 6 25 15 0 9 -9 15 -25 15 -16
0 -25 -6 -25 -15z"/>
<path d="M12120 708 c0 -33 -3 -39 -12 -30 -18 18 -53 15 -79 -7 -19 -15 -24
-29 -24 -66 0 -64 24 -83 105 -83 l60 0 0 114 0 114 -25 0 c-23 0 -25 -4 -25
-42z m-11 -62 c17 -20 10 -77 -11 -89 -24 -16 -48 8 -48 47 0 49 34 73 59 42z"/>
<path d="M12300 635 l0 -115 25 0 25 0 0 115 0 115 -25 0 -25 0 0 -115z"/>
<path d="M12390 635 l0 -115 80 0 c73 0 80 2 80 20 0 18 -7 20 -55 20 l-55 0
0 95 c0 95 0 95 -25 95 l-25 0 0 -115z"/>
<path d="M12590 635 c0 -108 1 -115 20 -115 17 0 20 7 20 45 l0 45 44 0 c57 0
89 25 89 70 0 50 -31 70 -109 70 l-64 0 0 -115z m120 60 c19 -22 -5 -45 -46
-45 -31 0 -34 3 -34 30 0 27 3 30 34 30 18 0 39 -7 46 -15z"/>
<path d="M12910 635 c0 -108 1 -115 20 -115 11 0 20 5 20 12 0 9 3 9 12 0 19
-19 63 -14 86 11 15 16 22 36 22 65 0 66 -47 100 -101 72 -17 -10 -19 -7 -19
30 0 33 -3 40 -20 40 -19 0 -20 -7 -20 -115z m112 0 c17 -37 0 -80 -31 -80
-18 0 -27 8 -34 28 -20 61 39 108 65 52z"/>
<path d="M13750 715 c0 -32 -2 -35 -24 -29 -61 15 -104 -40 -85 -110 13 -46
47 -65 90 -49 16 6 29 7 29 2 0 -5 9 -9 20 -9 19 0 20 7 20 115 l0 115 -25 0
c-22 0 -25 -4 -25 -35z m-11 -69 c17 -20 10 -77 -11 -89 -24 -16 -48 8 -48 47
0 49 34 73 59 42z"/>
<path d="M13930 635 l0 -115 25 0 c23 0 25 4 25 45 l0 45 40 0 c30 0 47 7 65
25 30 30 31 54 4 89 -19 24 -27 26 -90 26 l-69 0 0 -115z m114 69 c9 -3 16
-14 16 -24 0 -20 -19 -30 -56 -30 -20 0 -24 5 -24 30 0 25 4 30 24 30 13 0 31
-3 40 -6z"/>
<path d="M14473 733 c-13 -9 -23 -22 -23 -29 0 -14 -36 -19 -102 -14 l-28 2 0
-86 c0 -85 0 -86 25 -86 24 0 25 3 25 58 0 65 6 79 35 82 42 5 45 1 45 -51 0
-66 13 -89 50 -89 20 0 30 5 30 15 0 8 -7 15 -15 15 -12 0 -15 13 -15 55 0 42
3 55 15 55 8 0 15 7 15 15 0 8 -6 15 -14 15 -9 0 -16 12 -18 29 -3 27 -4 28
-25 14z"/>
<path d="M14560 735 c0 -8 9 -15 20 -15 11 0 20 7 20 15 0 8 -9 15 -20 15 -11
0 -20 -7 -20 -15z"/>
<path d="M14673 735 c-13 -9 -23 -23 -23 -31 0 -8 -4 -14 -10 -14 -5 0 -10 -7
-10 -15 0 -8 5 -15 10 -15 6 0 10 -26 10 -58 0 -32 5 -63 12 -70 18 -18 68
-15 68 3 0 8 -7 15 -15 15 -12 0 -15 13 -15 55 0 42 3 55 15 55 8 0 15 7 15
15 0 8 -6 15 -14 15 -9 0 -16 12 -18 30 -3 30 -4 30 -25 15z"/>
<path d="M14750 735 c0 -9 9 -15 25 -15 16 0 25 6 25 15 0 9 -9 15 -25 15 -16
0 -25 -6 -25 -15z"/>
<path d="M15240 735 c0 -8 9 -15 20 -15 11 0 20 7 20 15 0 8 -9 15 -20 15 -11
0 -20 -7 -20 -15z"/>
<path d="M8492 728 c-7 -7 -12 -18 -12 -25 0 -7 -4 -13 -10 -13 -5 0 -10 -7
-10 -15 0 -8 5 -15 10 -15 6 0 10 -26 10 -59 0 -64 13 -85 51 -79 26 4 39 28
15 28 -13 0 -16 11 -16 55 0 42 3 55 15 55 8 0 15 7 15 15 0 8 -7 15 -15 15
-9 0 -15 9 -15 25 0 27 -18 33 -38 13z"/>
<path d="M4872 680 c-28 -12 -45 -55 -37 -96 7 -40 24 -54 74 -61 52 -7 91 28
91 82 0 66 -61 101 -128 75z m72 -36 c30 -29 10 -94 -28 -94 -21 0 -36 23 -36
55 0 50 33 71 64 39z"/>
<path d="M5120 633 c0 -32 6 -69 13 -83 11 -23 19 -25 80 -27 l67 -2 0 85 c0
83 0 84 -25 84 -24 0 -25 -3 -25 -59 0 -61 -16 -89 -45 -77 -11 4 -15 22 -15
71 0 63 -1 65 -25 65 -24 0 -25 -3 -25 -57z"/>
<path d="M5430 605 c0 -84 0 -85 25 -85 25 0 25 1 25 85 0 84 0 85 -25 85 -25
0 -25 -1 -25 -85z"/>
<path d="M5552 680 c-28 -12 -45 -55 -37 -96 7 -40 24 -54 74 -61 52 -7 91 28
91 82 0 66 -61 101 -128 75z m72 -36 c30 -29 10 -94 -28 -94 -21 0 -36 23 -36
55 0 50 33 71 64 39z"/>
<path d="M5720 605 c0 -78 2 -85 20 -85 17 0 20 7 20 53 0 59 18 94 44 84 12
-5 16 -20 16 -72 0 -63 1 -65 25 -65 24 0 25 2 25 68 0 54 -4 72 -18 85 -22
20 -63 22 -80 5 -9 -9 -12 -9 -12 0 0 7 -9 12 -20 12 -18 0 -20 -7 -20 -85z"/>
<path d="M6257 678 c-42 -33 -41 -125 3 -148 24 -13 66 -13 91 1 28 15 13 31
-22 24 -29 -7 -59 7 -59 26 0 5 25 9 55 9 52 0 55 1 55 25 0 55 -79 95 -123
63z m71 -41 c3 -13 -3 -17 -27 -17 -33 0 -39 8 -19 28 17 17 42 11 46 -11z"/>
<path d="M6520 605 c0 -84 0 -85 25 -85 25 0 25 1 25 85 0 84 0 85 -25 85 -25
0 -25 -1 -25 -85z"/>
<path d="M6610 605 c0 -84 0 -85 25 -85 24 0 25 2 25 64 0 56 3 66 20 71 33
10 40 -3 40 -71 0 -62 1 -64 25 -64 22 0 25 4 25 38 0 110 -28 148 -91 125
-16 -6 -29 -7 -29 -2 0 5 -9 9 -20 9 -18 0 -20 -7 -20 -85z"/>
<path d="M6826 669 c-21 -16 -26 -29 -26 -64 0 -35 5 -48 26 -64 29 -23 74
-27 106 -10 17 9 18 13 7 20 -8 5 -27 6 -42 3 -27 -6 -57 9 -57 27 0 5 25 9
55 9 52 0 55 1 55 25 0 33 -42 75 -73 75 -13 0 -36 -9 -51 -21z m72 -21 c20
-20 14 -28 -23 -28 -19 0 -35 4 -35 8 0 12 22 32 35 32 6 0 16 -5 23 -12z"/>
<path d="M6980 605 c0 -84 0 -85 25 -85 24 0 25 3 25 58 0 57 11 82 37 82 9 0
13 -19 13 -70 0 -68 1 -70 25 -70 24 0 25 3 25 58 0 57 11 82 37 82 9 0 13
-19 13 -70 0 -68 1 -70 25 -70 24 0 25 2 25 68 0 81 -19 109 -67 98 -15 -4
-32 -6 -38 -6 -5 0 -40 3 -77 5 l-68 4 0 -84z"/>
<path d="M7289 671 c-19 -15 -24 -29 -24 -66 0 -37 5 -51 24 -66 28 -23 80
-25 107 -4 21 16 17 18 -46 19 -24 1 -36 6 -38 19 -3 14 5 17 52 17 62 0 68 8
41 59 -23 46 -75 55 -116 22z m79 -33 c3 -14 -3 -18 -27 -18 -29 0 -41 17 -24
34 13 13 48 1 51 -16z"/>
<path d="M7450 605 c0 -84 0 -85 25 -85 24 0 25 3 25 59 0 61 16 89 45 77 11
-4 15 -22 15 -71 0 -63 1 -65 25 -65 24 0 25 2 25 63 0 74 -18 107 -59 107
-15 0 -32 -5 -39 -12 -9 -9 -12 -9 -12 0 0 7 -11 12 -25 12 -25 0 -25 -1 -25
-85z"/>
<path d="M7860 670 c0 -13 7 -20 20 -20 13 0 20 7 20 20 0 13 -7 20 -20 20
-13 0 -20 -7 -20 -20z"/>
<path d="M8280 621 c0 -92 31 -123 91 -91 13 7 19 7 19 0 0 -5 9 -10 20 -10
18 0 20 7 20 85 0 84 0 85 -25 85 -23 0 -24 -3 -27 -67 -3 -60 -5 -68 -23 -68
-18 0 -20 8 -23 68 -3 64 -4 67 -27 67 -24 0 -25 -2 -25 -69z"/>
<path d="M8954 608 c43 -112 62 -116 99 -21 44 113 42 105 17 101 -16 -2 -27
-15 -39 -45 -23 -60 -27 -60 -46 -4 -14 42 -21 51 -40 51 l-23 0 32 -82z"/>
<path d="M9136 669 c-21 -16 -26 -29 -26 -64 0 -35 5 -48 26 -64 29 -23 74
-27 106 -10 17 9 18 13 7 20 -8 5 -27 6 -42 3 -27 -6 -57 9 -57 27 0 5 25 9
55 9 52 0 55 1 55 25 0 33 -42 75 -73 75 -13 0 -36 -9 -51 -21z m72 -21 c20
-20 14 -28 -23 -28 -19 0 -35 4 -35 8 0 12 22 32 35 32 6 0 16 -5 23 -12z"/>
<path d="M9300 605 c0 -78 2 -85 20 -85 17 0 20 7 21 43 2 64 12 92 37 95 30
5 28 32 -2 32 -13 0 -27 -6 -29 -12 -4 -10 -6 -10 -6 0 -1 6 -10 12 -21 12
-18 0 -20 -7 -20 -85z"/>
<path d="M9524 675 c-16 -13 -17 -16 -4 -25 19 -12 27 -13 35 0 10 16 45 12
45 -5 0 -16 -5 -19 -53 -29 -39 -9 -56 -49 -32 -76 20 -22 64 -27 83 -8 9 9
12 9 12 0 0 -7 10 -12 23 -12 21 0 22 2 17 75 -3 52 -10 79 -20 85 -23 15 -84
12 -106 -5z m68 -117 c-14 -14 -42 -3 -42 16 0 19 44 26 48 7 2 -7 -1 -18 -6
-23z"/>
<path d="M9697 623 c38 -98 40 -123 14 -130 -11 -3 -21 -12 -21 -19 0 -15 37
-19 58 -5 10 6 92 201 92 219 0 2 -10 2 -22 0 -15 -2 -26 -16 -37 -50 -9 -26
-19 -50 -23 -53 -3 -4 -14 18 -24 49 -15 46 -22 56 -40 56 l-23 0 26 -67z"/>
<path d="M10280 633 c0 -32 6 -69 13 -83 11 -23 19 -25 80 -27 l67 -2 0 85 c0
83 0 84 -25 84 -24 0 -25 -3 -25 -59 0 -61 -16 -89 -45 -77 -11 4 -15 22 -15
71 0 63 -1 65 -25 65 -24 0 -25 -3 -25 -57z"/>
<path d="M10490 670 c-11 -11 -20 -24 -20 -28 0 -19 28 -42 65 -54 40 -13 50
-30 20 -36 -9 -2 -25 3 -34 12 -18 16 -51 13 -51 -5 0 -15 45 -39 75 -39 44 0
77 26 73 58 -2 22 -11 29 -50 40 -29 8 -48 19 -48 28 0 17 31 19 47 3 6 -6 21
-8 34 -4 l23 8 -23 18 c-31 25 -86 24 -111 -1z"/>
<path d="M10786 669 c-21 -16 -26 -29 -26 -64 0 -35 5 -48 26 -64 29 -23 74
-27 106 -10 17 9 18 13 7 20 -8 5 -27 6 -42 3 -27 -6 -57 9 -57 27 0 5 25 9
55 9 52 0 55 1 55 25 0 33 -42 75 -73 75 -13 0 -36 -9 -51 -21z m72 -21 c20
-20 14 -28 -23 -28 -19 0 -35 4 -35 8 0 12 22 32 35 32 6 0 16 -5 23 -12z"/>
<path d="M10940 604 c0 -83 0 -84 25 -84 24 0 25 3 25 58 0 60 11 82 42 82 10
0 18 6 18 14 0 11 -14 15 -55 15 l-55 0 0 -85z"/>
<path d="M11070 605 c0 -84 0 -85 25 -85 25 0 25 1 25 85 0 84 0 85 -25 85
-25 0 -25 -1 -25 -85z"/>
<path d="M11160 605 c0 -84 0 -85 25 -85 24 0 25 2 25 64 0 56 3 66 20 71 33
10 40 -3 40 -71 0 -62 1 -64 25 -64 22 0 25 4 25 38 0 110 -28 148 -91 125
-16 -6 -29 -7 -29 -2 0 5 -9 9 -20 9 -18 0 -20 -7 -20 -85z"/>
<path d="M11361 664 c-42 -53 -12 -144 48 -144 15 0 33 6 40 13 10 10 12 7 9
-13 -2 -20 -8 -25 -33 -25 -16 1 -40 4 -52 9 -17 5 -23 4 -23 -8 0 -35 87 -49
128 -20 20 14 22 23 22 115 0 92 -1 99 -20 99 -11 0 -20 -5 -20 -12 0 -9 -3
-9 -12 0 -21 21 -65 14 -87 -14z m91 -29 c17 -38 0 -80 -32 -80 -22 0 -25 5
-28 39 -2 21 -1 44 2 52 9 23 45 16 58 -11z"/>
<path d="M11646 671 c-15 -17 -15 -19 -1 -25 9 -3 24 -1 34 6 20 12 51 5 51
-12 0 -5 -20 -15 -45 -21 -56 -14 -73 -40 -51 -74 14 -21 23 -23 78 -23 l63 1
-3 71 c-3 50 -9 75 -20 84 -24 19 -86 15 -106 -7z m84 -85 c0 -20 -27 -39 -45
-32 -22 8 -18 25 8 36 31 12 37 12 37 -4z"/>
<path d="M11820 605 c0 -78 2 -85 20 -85 17 0 20 7 20 53 0 59 18 94 44 84 12
-5 16 -20 16 -72 0 -63 1 -65 25 -65 24 0 25 2 25 68 0 54 -4 72 -18 85 -22
20 -63 22 -80 5 -9 -9 -12 -9 -12 0 0 7 -9 12 -20 12 -18 0 -20 -7 -20 -85z"/>
<path d="M13116 671 c-15 -17 -15 -19 -1 -25 9 -3 24 -1 34 6 20 12 51 5 51
-12 0 -5 -20 -15 -45 -21 -56 -14 -73 -40 -51 -74 14 -21 23 -23 78 -23 l63 1
-3 71 c-3 50 -9 75 -20 84 -24 19 -86 15 -106 -7z m84 -85 c0 -20 -27 -39 -45
-32 -22 8 -18 25 8 36 31 12 37 12 37 -4z"/>
<path d="M13296 677 c-12 -9 -17 -23 -14 -42 3 -26 9 -32 51 -44 47 -15 57
-33 22 -40 -10 -2 -25 5 -32 15 -10 13 -17 15 -35 7 l-22 -9 22 -22 c38 -38
120 -26 134 18 9 27 -10 47 -57 60 -25 7 -45 19 -45 26 0 17 41 19 57 3 7 -7
17 -8 28 -1 16 8 15 11 -6 26 -28 19 -78 21 -103 3z"/>
<path d="M13479 671 c-19 -15 -24 -29 -24 -66 0 -37 5 -51 24 -66 28 -23 80
-25 107 -4 21 16 17 18 -46 19 -24 1 -36 6 -38 19 -3 14 5 17 52 17 62 0 68 8
41 59 -23 46 -75 55 -116 22z m79 -33 c3 -14 -3 -18 -27 -18 -29 0 -41 17 -24
34 13 13 48 1 51 -16z"/>
<path d="M14154 675 c-16 -13 -17 -16 -4 -25 19 -12 27 -13 35 0 10 16 45 12
45 -5 0 -16 -5 -19 -53 -29 -39 -9 -56 -49 -32 -76 20 -22 64 -27 83 -8 9 9
12 9 12 0 0 -7 10 -12 23 -12 21 0 22 2 17 75 -3 52 -10 79 -20 85 -23 15 -84
12 -106 -5z m68 -117 c-14 -14 -42 -3 -42 16 0 19 44 26 48 7 2 -7 -1 -18 -6
-23z"/>
<path d="M14560 605 c0 -78 2 -85 20 -85 18 0 20 7 20 85 0 78 -2 85 -20 85
-18 0 -20 -7 -20 -85z"/>
<path d="M14750 605 c0 -84 0 -85 25 -85 25 0 25 1 25 85 0 84 0 85 -25 85
-25 0 -25 -1 -25 -85z"/>
<path d="M14865 667 c-58 -49 -20 -147 56 -147 39 0 89 48 89 85 0 37 -50 85
-89 85 -17 0 -41 -10 -56 -23z m83 -19 c17 -17 15 -73 -3 -88 -22 -18 -48 -8
-59 22 -19 53 27 101 62 66z"/>
<path d="M15040 605 c0 -84 0 -85 25 -85 24 0 25 2 25 64 0 56 3 66 20 71 33
10 40 -3 40 -71 0 -62 1 -64 25 -64 22 0 25 4 25 38 0 110 -28 148 -91 125
-16 -6 -29 -7 -29 -2 0 5 -9 9 -20 9 -18 0 -20 -7 -20 -85z"/>
<path d="M15240 605 c0 -78 2 -85 20 -85 18 0 20 7 20 85 0 78 -2 85 -20 85
-18 0 -20 -7 -20 -85z"/>
<path d="M15330 605 c0 -78 2 -85 20 -85 17 0 20 7 20 53 0 59 18 94 44 84 12
-5 16 -20 16 -72 0 -63 1 -65 25 -65 24 0 25 2 25 68 0 54 -4 72 -18 85 -22
20 -63 22 -80 5 -9 -9 -12 -9 -12 0 0 7 -9 12 -20 12 -18 0 -20 -7 -20 -85z"/>
<path d="M15547 679 c-26 -15 -39 -76 -22 -114 14 -36 43 -50 81 -41 18 5 24
2 24 -9 0 -23 -24 -28 -65 -15 -45 15 -58 5 -26 -21 28 -23 89 -25 117 -5 16
12 20 29 22 114 l4 100 -59 0 c-33 0 -67 -4 -76 -9z m72 -33 c17 -20 10 -77
-11 -89 -24 -16 -48 8 -48 47 0 49 34 73 59 42z"/>
<path d="M8570 600 c0 -17 7 -20 45 -20 38 0 45 3 45 20 0 17 -7 20 -45 20
-38 0 -45 -3 -45 -20z"/>
<path d="M12790 600 c0 -17 7 -20 45 -20 38 0 45 3 45 20 0 17 -7 20 -45 20
-38 0 -45 -3 -45 -20z"/>
<path d="M7860 540 c0 -13 7 -20 20 -20 13 0 20 7 20 20 0 13 -7 20 -20 20
-13 0 -20 -7 -20 -20z"/>
<path d="M910 773 c-47 -17 -51 -65 -9 -104 36 -34 37 -72 1 -77 -13 -2 -25 3
-28 12 -10 25 -36 20 -32 -6 3 -21 8 -23 57 -23 40 1 57 6 67 20 22 30 17 63
-16 92 -34 30 -37 66 -6 71 11 3 26 -4 33 -14 12 -16 15 -17 23 -4 5 8 8 20 7
25 -4 11 -73 17 -97 8z"/>
<path d="M1340 633 c-9 -11 -15 -39 -15 -68 0 -43 3 -50 21 -53 11 -2 27 5 35
14 12 15 12 16 -10 9 -22 -7 -23 -5 -18 16 4 13 7 30 7 37 0 7 10 17 23 22 18
7 19 9 3 9 -12 1 -16 6 -12 16 8 21 -16 19 -34 -2z"/>
<path d="M1052 604 c-18 -12 -22 -24 -20 -52 3 -32 7 -37 31 -40 32 -4 55 12
68 46 20 51 -30 80 -79 46z m48 -27 c0 -31 -14 -57 -32 -57 -11 0 -10 48 2 71
16 29 30 23 30 -14z"/>
<path d="M1167 614 c-11 -12 -8 -26 5 -18 8 5 9 -4 4 -35 -5 -33 -3 -43 10
-48 9 -3 24 -2 33 4 11 7 21 7 33 -1 14 -8 22 -6 35 8 17 18 17 19 1 13 -21
-7 -22 3 -9 51 8 28 7 32 -9 32 -12 0 -20 -10 -24 -34 -4 -19 -14 -40 -22 -47
-14 -11 -15 -8 -12 32 3 38 0 44 -17 47 -12 2 -24 0 -28 -4z"/>
<path d="M550 7360 l0 -180 35 0 35 0 0 180 0 180 -35 0 -35 0 0 -180z"/>
<path d="M1642 7504 c-12 -8 -22 -26 -22 -40 0 -17 -5 -24 -20 -24 -15 0 -20
-7 -20 -25 0 -18 5 -25 20 -25 18 0 20 -7 20 -88 0 -73 3 -92 18 -105 20 -18
68 -22 90 -9 17 12 4 42 -18 42 -24 0 -30 19 -30 96 0 62 1 64 25 64 20 0 25
5 25 25 0 20 -5 25 -25 25 -22 0 -25 4 -25 40 0 44 -5 47 -38 24z"/>
<path d="M783 7430 c-27 -16 -33 -17 -33 -5 0 10 -10 15 -30 15 l-30 0 0 -130
0 -130 35 0 35 0 0 88 c0 98 14 132 55 132 35 0 45 -28 45 -129 l0 -91 35 0
35 0 0 88 c0 110 -12 155 -46 170 -36 17 -64 15 -101 -8z"/>
<path d="M1086 7429 c-21 -17 -26 -18 -26 -5 0 12 -10 16 -35 16 l-35 0 0
-180 0 -180 35 0 35 0 0 65 c0 69 3 73 34 50 34 -26 75 -18 112 19 32 32 34
38 34 101 0 63 -2 69 -34 101 -40 40 -80 44 -120 13z m67 -46 c40 -45 27 -138
-20 -150 -21 -5 -31 0 -51 22 -57 67 12 192 71 128z"/>
<path d="M1300 7351 c0 -48 5 -102 10 -118 18 -50 78 -67 134 -38 35 18 36 18
36 0 0 -10 10 -15 30 -15 l30 0 0 130 0 130 -35 0 -35 0 0 -83 c0 -93 -15
-127 -55 -127 -35 0 -45 28 -45 124 l0 86 -35 0 -35 0 0 -89z"/>
<path d="M441 1628 c-60 -31 -86 -81 -86 -168 0 -86 26 -136 86 -168 35 -19
55 -23 97 -19 111 8 176 108 153 233 -23 120 -142 178 -250 122z m130 -48 c65
-35 65 -205 0 -240 -11 -5 -32 -10 -46 -10 -67 0 -99 52 -93 148 4 55 8 68 32
88 29 25 74 31 107 14z"/>
<path d="M1883 1609 c-22 -14 -33 -29 -33 -45 0 -15 -6 -24 -15 -24 -9 0 -15
-9 -15 -25 0 -16 6 -25 15 -25 12 0 15 -17 15 -90 0 -84 2 -91 24 -105 36 -24
90 -16 94 13 3 18 -1 22 -22 22 -26 0 -26 1 -26 80 0 73 2 80 20 80 15 0 20 7
20 25 0 18 -5 25 -19 25 -16 0 -20 8 -23 45 l-3 44 -32 -20z"/>
<path d="M1092 1604 c-12 -8 -22 -26 -22 -40 0 -17 -5 -24 -20 -24 -15 0 -20
-7 -20 -25 0 -18 5 -25 20 -25 18 0 20 -7 20 -88 0 -73 3 -92 18 -105 20 -18
68 -22 90 -9 17 12 4 42 -18 42 -24 0 -30 19 -30 96 0 62 1 64 25 64 20 0 25
5 25 25 0 20 -5 25 -25 25 -22 0 -25 4 -25 40 0 44 -5 47 -38 24z"/>
<path d="M1316 1529 c-21 -17 -26 -18 -26 -5 0 11 -9 16 -30 16 l-30 0 0 -180
0 -180 30 0 30 0 0 65 c0 69 3 73 34 50 47 -36 116 -6 141 60 29 74 5 158 -51
183 -37 17 -68 15 -98 -9z m82 -59 c15 -29 10 -103 -8 -125 -35 -42 -93 0 -94
69 -2 78 69 117 102 56z"/>
<path d="M760 1431 c0 -106 1 -110 26 -130 31 -24 82 -27 110 -6 25 19 34 19
34 0 0 -10 10 -15 30 -15 l30 0 0 130 0 130 -35 0 -35 0 0 -88 c0 -96 -12
-122 -59 -122 -30 0 -41 35 -41 131 l0 79 -30 0 -30 0 0 -109z"/>
<path d="M1540 1431 c0 -106 1 -110 26 -130 31 -24 82 -27 110 -6 25 19 34 19
34 0 0 -10 10 -15 30 -15 l30 0 0 130 0 130 -35 0 -35 0 0 -88 c0 -96 -12
-122 -59 -122 -30 0 -41 35 -41 131 l0 79 -30 0 -30 0 0 -109z"/>
</g>
</svg>
